%TF.GenerationSoftware,KiCad,Pcbnew,8.0.7*%
%TF.CreationDate,2025-01-18T18:24:10+01:00*%
%TF.ProjectId,tuff_tuff_pcb,74756666-5f74-4756-9666-5f7063622e6b,rev?*%
%TF.SameCoordinates,Original*%
%TF.FileFunction,Legend,Bot*%
%TF.FilePolarity,Positive*%
%FSLAX46Y46*%
G04 Gerber Fmt 4.6, Leading zero omitted, Abs format (unit mm)*
G04 Created by KiCad (PCBNEW 8.0.7) date 2025-01-18 18:24:10*
%MOMM*%
%LPD*%
G01*
G04 APERTURE LIST*
%ADD10C,0.100000*%
%ADD11C,0.150000*%
%ADD12C,0.127000*%
%ADD13C,0.200000*%
%ADD14R,1.700000X1.700000*%
%ADD15O,1.700000X1.700000*%
%ADD16C,2.451100*%
%ADD17C,1.066800*%
%ADD18C,0.991400*%
G04 APERTURE END LIST*
D10*
X-34127581Y47838973D02*
X-34127581Y47267545D01*
X-33127581Y47553259D02*
X-34127581Y47553259D01*
X-33413296Y46981830D02*
X-33413296Y46505640D01*
X-33127581Y47077068D02*
X-34127581Y46743735D01*
X-34127581Y46743735D02*
X-33127581Y46410402D01*
X-34079962Y45553259D02*
X-34127581Y45648497D01*
X-34127581Y45648497D02*
X-34127581Y45791354D01*
X-34127581Y45791354D02*
X-34079962Y45934211D01*
X-34079962Y45934211D02*
X-33984724Y46029449D01*
X-33984724Y46029449D02*
X-33889486Y46077068D01*
X-33889486Y46077068D02*
X-33699010Y46124687D01*
X-33699010Y46124687D02*
X-33556153Y46124687D01*
X-33556153Y46124687D02*
X-33365677Y46077068D01*
X-33365677Y46077068D02*
X-33270439Y46029449D01*
X-33270439Y46029449D02*
X-33175200Y45934211D01*
X-33175200Y45934211D02*
X-33127581Y45791354D01*
X-33127581Y45791354D02*
X-33127581Y45696116D01*
X-33127581Y45696116D02*
X-33175200Y45553259D01*
X-33175200Y45553259D02*
X-33222820Y45505640D01*
X-33222820Y45505640D02*
X-33556153Y45505640D01*
X-33556153Y45505640D02*
X-33556153Y45696116D01*
X-33222820Y43743735D02*
X-33175200Y43791354D01*
X-33175200Y43791354D02*
X-33127581Y43934211D01*
X-33127581Y43934211D02*
X-33127581Y44029449D01*
X-33127581Y44029449D02*
X-33175200Y44172306D01*
X-33175200Y44172306D02*
X-33270439Y44267544D01*
X-33270439Y44267544D02*
X-33365677Y44315163D01*
X-33365677Y44315163D02*
X-33556153Y44362782D01*
X-33556153Y44362782D02*
X-33699010Y44362782D01*
X-33699010Y44362782D02*
X-33889486Y44315163D01*
X-33889486Y44315163D02*
X-33984724Y44267544D01*
X-33984724Y44267544D02*
X-34079962Y44172306D01*
X-34079962Y44172306D02*
X-34127581Y44029449D01*
X-34127581Y44029449D02*
X-34127581Y43934211D01*
X-34127581Y43934211D02*
X-34079962Y43791354D01*
X-34079962Y43791354D02*
X-34032343Y43743735D01*
X-34127581Y43124687D02*
X-34127581Y42934211D01*
X-34127581Y42934211D02*
X-34079962Y42838973D01*
X-34079962Y42838973D02*
X-33984724Y42743735D01*
X-33984724Y42743735D02*
X-33794248Y42696116D01*
X-33794248Y42696116D02*
X-33460915Y42696116D01*
X-33460915Y42696116D02*
X-33270439Y42743735D01*
X-33270439Y42743735D02*
X-33175200Y42838973D01*
X-33175200Y42838973D02*
X-33127581Y42934211D01*
X-33127581Y42934211D02*
X-33127581Y43124687D01*
X-33127581Y43124687D02*
X-33175200Y43219925D01*
X-33175200Y43219925D02*
X-33270439Y43315163D01*
X-33270439Y43315163D02*
X-33460915Y43362782D01*
X-33460915Y43362782D02*
X-33794248Y43362782D01*
X-33794248Y43362782D02*
X-33984724Y43315163D01*
X-33984724Y43315163D02*
X-34079962Y43219925D01*
X-34079962Y43219925D02*
X-34127581Y43124687D01*
X-33127581Y42267544D02*
X-34127581Y42267544D01*
X-34127581Y42267544D02*
X-33127581Y41696116D01*
X-33127581Y41696116D02*
X-34127581Y41696116D01*
X-33127581Y41219925D02*
X-34127581Y41219925D01*
X-34127581Y41219925D02*
X-33127581Y40648497D01*
X-33127581Y40648497D02*
X-34127581Y40648497D01*
X-33651391Y40172306D02*
X-33651391Y39838973D01*
X-33127581Y39696116D02*
X-33127581Y40172306D01*
X-33127581Y40172306D02*
X-34127581Y40172306D01*
X-34127581Y40172306D02*
X-34127581Y39696116D01*
X-33222820Y38696116D02*
X-33175200Y38743735D01*
X-33175200Y38743735D02*
X-33127581Y38886592D01*
X-33127581Y38886592D02*
X-33127581Y38981830D01*
X-33127581Y38981830D02*
X-33175200Y39124687D01*
X-33175200Y39124687D02*
X-33270439Y39219925D01*
X-33270439Y39219925D02*
X-33365677Y39267544D01*
X-33365677Y39267544D02*
X-33556153Y39315163D01*
X-33556153Y39315163D02*
X-33699010Y39315163D01*
X-33699010Y39315163D02*
X-33889486Y39267544D01*
X-33889486Y39267544D02*
X-33984724Y39219925D01*
X-33984724Y39219925D02*
X-34079962Y39124687D01*
X-34079962Y39124687D02*
X-34127581Y38981830D01*
X-34127581Y38981830D02*
X-34127581Y38886592D01*
X-34127581Y38886592D02*
X-34079962Y38743735D01*
X-34079962Y38743735D02*
X-34032343Y38696116D01*
X-34127581Y38410401D02*
X-34127581Y37838973D01*
X-33127581Y38124687D02*
X-34127581Y38124687D01*
X-33127581Y36219925D02*
X-33127581Y36791353D01*
X-33127581Y36505639D02*
X-34127581Y36505639D01*
X-34127581Y36505639D02*
X-33984724Y36600877D01*
X-33984724Y36600877D02*
X-33889486Y36696115D01*
X-33889486Y36696115D02*
X-33841867Y36791353D01*
X-33794248Y35362782D02*
X-33127581Y35362782D01*
X-34175200Y35600877D02*
X-33460915Y35838972D01*
X-33460915Y35838972D02*
X-33460915Y35219925D01*
D11*
X-32532681Y47323334D02*
X-31818396Y47323334D01*
X-31818396Y47323334D02*
X-31675539Y47370953D01*
X-31675539Y47370953D02*
X-31580300Y47466191D01*
X-31580300Y47466191D02*
X-31532681Y47609048D01*
X-31532681Y47609048D02*
X-31532681Y47704286D01*
X-32532681Y46942381D02*
X-32532681Y46323334D01*
X-32532681Y46323334D02*
X-32151729Y46656667D01*
X-32151729Y46656667D02*
X-32151729Y46513810D01*
X-32151729Y46513810D02*
X-32104110Y46418572D01*
X-32104110Y46418572D02*
X-32056491Y46370953D01*
X-32056491Y46370953D02*
X-31961253Y46323334D01*
X-31961253Y46323334D02*
X-31723158Y46323334D01*
X-31723158Y46323334D02*
X-31627920Y46370953D01*
X-31627920Y46370953D02*
X-31580300Y46418572D01*
X-31580300Y46418572D02*
X-31532681Y46513810D01*
X-31532681Y46513810D02*
X-31532681Y46799524D01*
X-31532681Y46799524D02*
X-31580300Y46894762D01*
X-31580300Y46894762D02*
X-31627920Y46942381D01*
D12*
%TO.C,J3*%
X-30225000Y50160000D02*
X-24225000Y50160000D01*
X-30225000Y48530000D02*
X-30225000Y50160000D01*
X-30225000Y33660000D02*
X-30225000Y37190000D01*
X-24225000Y50160000D02*
X-24225000Y48530000D01*
X-24225000Y37190000D02*
X-24225000Y33660000D01*
X-24225000Y33660000D02*
X-30225000Y33660000D01*
D13*
X-22775000Y45720000D02*
G75*
G02*
X-22975000Y45720000I-100000J0D01*
G01*
X-22975000Y45720000D02*
G75*
G02*
X-22775000Y45720000I100000J0D01*
G01*
%TD*%
%LPC*%
D14*
%TO.C,J5*%
X-25000000Y12380000D03*
D15*
X-25000000Y14920000D03*
X-25000000Y17460000D03*
X-25000000Y20000000D03*
%TD*%
D14*
%TO.C,J4*%
X-20250000Y54525000D03*
D15*
X-17710000Y54525000D03*
%TD*%
D14*
%TO.C,J1*%
X-7220000Y74080000D03*
D15*
X-4680000Y74080000D03*
%TD*%
D16*
%TO.C,J3*%
X-24685000Y46990000D03*
D17*
X-27225000Y46990000D03*
D16*
X-29765000Y46990000D03*
X-24685000Y38735000D03*
X-29765000Y38735000D03*
D17*
X-26209000Y36830000D03*
X-28241000Y36830000D03*
D18*
X-26590000Y45720000D03*
X-26590000Y44450000D03*
X-26590000Y43180000D03*
X-26590000Y41910000D03*
X-26590000Y40640000D03*
X-26590000Y39370000D03*
X-26590000Y38100000D03*
X-27860000Y38100000D03*
X-27860000Y39370000D03*
X-27860000Y40640000D03*
X-27860000Y41910000D03*
X-27860000Y43180000D03*
X-27860000Y44450000D03*
X-27860000Y45720000D03*
%TD*%
%LPD*%
M02*
