%TF.GenerationSoftware,KiCad,Pcbnew,8.0.7*%
%TF.CreationDate,2025-01-18T17:17:35+01:00*%
%TF.ProjectId,tuff_tuff_pcb,74756666-5f74-4756-9666-5f7063622e6b,rev?*%
%TF.SameCoordinates,Original*%
%TF.FileFunction,Copper,L2,Bot*%
%TF.FilePolarity,Positive*%
%FSLAX46Y46*%
G04 Gerber Fmt 4.6, Leading zero omitted, Abs format (unit mm)*
G04 Created by KiCad (PCBNEW 8.0.7) date 2025-01-18 17:17:35*
%MOMM*%
%LPD*%
G01*
G04 APERTURE LIST*
%TA.AperFunction,ComponentPad*%
%ADD10R,1.600000X1.600000*%
%TD*%
%TA.AperFunction,ComponentPad*%
%ADD11C,1.600000*%
%TD*%
%TA.AperFunction,ComponentPad*%
%ADD12R,1.350000X1.350000*%
%TD*%
%TA.AperFunction,ComponentPad*%
%ADD13O,1.350000X1.350000*%
%TD*%
%TA.AperFunction,ViaPad*%
%ADD14C,0.600000*%
%TD*%
%TA.AperFunction,Conductor*%
%ADD15C,0.200000*%
%TD*%
%TA.AperFunction,Conductor*%
%ADD16C,0.400000*%
%TD*%
G04 APERTURE END LIST*
D10*
%TO.P,C1,1*%
%TO.N,VIN_DRIVE*%
X-5400000Y55000000D03*
D11*
%TO.P,C1,2*%
%TO.N,GND*%
X-7400000Y55000000D03*
%TD*%
D10*
%TO.P,C2,1*%
%TO.N,3.3V*%
X-12000000Y55000000D03*
D11*
%TO.P,C2,2*%
%TO.N,GND*%
X-15800000Y55000000D03*
%TD*%
D12*
%TO.P,J1,1,Pin_1*%
%TO.N,GND*%
X-20200000Y51400000D03*
D13*
%TO.P,J1,2,Pin_2*%
%TO.N,VIN_DRIVE*%
X-22200000Y51400000D03*
%TO.P,J1,3,Pin_3*%
%TO.N,VIN_LEFT*%
X-24200000Y51400000D03*
%TO.P,J1,4,Pin_4*%
%TO.N,VIN_RIGHT*%
X-26200000Y51400000D03*
%TO.P,J1,5,Pin_5*%
%TO.N,VIN_BREAK*%
X-28200000Y51400000D03*
%TO.P,J1,6,Pin_6*%
%TO.N,VIN_REVERSE*%
X-30200000Y51400000D03*
%TO.P,J1,7,Pin_7*%
%TO.N,GPIO_1*%
X-32200000Y51400000D03*
%TO.P,J1,8,Pin_8*%
%TO.N,GPIO_2*%
X-34200000Y51400000D03*
%TD*%
D14*
%TO.N,GND*%
X-3800000Y1600000D03*
X-26400000Y8400000D03*
X-31800000Y25400000D03*
X-35800000Y2000000D03*
X-15000000Y9000000D03*
X-19000000Y11400000D03*
X-26800000Y46600000D03*
X-16000000Y25200000D03*
X-23800000Y8400000D03*
X-25800000Y26400000D03*
X-26400000Y5400000D03*
X-23800000Y5400000D03*
X-14600000Y48600000D03*
X-27000000Y16000000D03*
X-27600000Y56200000D03*
X-35200000Y37000000D03*
%TO.N,SWDIO*%
X-5000000Y12000000D03*
X-29600000Y13200000D03*
%TO.N,SWCLK*%
X-3200000Y10800000D03*
X-27950000Y12800000D03*
%TO.N,NRST*%
X-18600000Y12200000D03*
X-7800000Y10800000D03*
%TO.N,3.3V*%
X-19200000Y17600000D03*
X-20200000Y46800000D03*
X-17400000Y9200000D03*
X-11000000Y51800000D03*
X-15375735Y13175735D03*
X-18600000Y7400000D03*
X-24000000Y45600000D03*
X-8600000Y49400000D03*
%TD*%
D15*
%TO.N,SWDIO*%
X-17524265Y13724265D02*
X-15800000Y12000000D01*
X-29075735Y13724265D02*
X-17524265Y13724265D01*
X-15800000Y12000000D02*
X-5000000Y12000000D01*
X-29600000Y13200000D02*
X-29075735Y13724265D01*
%TO.N,SWCLK*%
X-17400000Y12800000D02*
X-16000000Y11400000D01*
X-27950000Y12800000D02*
X-17400000Y12800000D01*
X-16000000Y11400000D02*
X-3800000Y11400000D01*
X-3800000Y11400000D02*
X-3200000Y10800000D01*
%TO.N,NRST*%
X-17200000Y10800000D02*
X-7800000Y10800000D01*
X-18600000Y12200000D02*
X-17200000Y10800000D01*
D16*
%TO.N,3.3V*%
X-19200000Y17000000D02*
X-15375735Y13175735D01*
X-11000000Y51800000D02*
X-8600000Y49400000D01*
X-17400000Y9200000D02*
X-17400000Y8600000D01*
X-17400000Y8600000D02*
X-18600000Y7400000D01*
X-19200000Y17600000D02*
X-19200000Y17000000D01*
X-20200000Y46800000D02*
X-21400000Y45600000D01*
X-21400000Y45600000D02*
X-24000000Y45600000D01*
%TD*%
%TA.AperFunction,Conductor*%
%TO.N,GND*%
G36*
X-2456961Y59479815D02*
G01*
X-2411206Y59427011D01*
X-2400000Y59375500D01*
X-2400000Y624500D01*
X-2419685Y557461D01*
X-2472489Y511706D01*
X-2524000Y500500D01*
X-37276000Y500500D01*
X-37343039Y520185D01*
X-37388794Y572989D01*
X-37400000Y624500D01*
X-37400000Y7400000D01*
X-19105647Y7400000D01*
X-19085166Y7257544D01*
X-19085164Y7257540D01*
X-19025377Y7126627D01*
X-18931128Y7017857D01*
X-18810053Y6940047D01*
X-18810050Y6940046D01*
X-18810051Y6940046D01*
X-18671964Y6899501D01*
X-18671962Y6899500D01*
X-18671961Y6899500D01*
X-18528038Y6899500D01*
X-18528038Y6899501D01*
X-18389947Y6940047D01*
X-18268872Y7017857D01*
X-18174623Y7126627D01*
X-18114835Y7257543D01*
X-18110427Y7288205D01*
X-18081406Y7351756D01*
X-18075385Y7358224D01*
X-17079520Y8354087D01*
X-17026793Y8445412D01*
X-16999500Y8547273D01*
X-16999500Y8652727D01*
X-16999500Y8851668D01*
X-16979815Y8918707D01*
X-16979099Y8919664D01*
X-16974632Y8926618D01*
X-16974623Y8926627D01*
X-16914835Y9057543D01*
X-16894353Y9200000D01*
X-16914835Y9342457D01*
X-16974623Y9473373D01*
X-17068872Y9582143D01*
X-17189947Y9659953D01*
X-17189949Y9659954D01*
X-17189951Y9659955D01*
X-17189950Y9659955D01*
X-17328037Y9700500D01*
X-17328039Y9700500D01*
X-17471961Y9700500D01*
X-17471964Y9700500D01*
X-17610051Y9659955D01*
X-17731127Y9582144D01*
X-17825377Y9473374D01*
X-17825378Y9473372D01*
X-17885166Y9342457D01*
X-17905647Y9200000D01*
X-17885166Y9057544D01*
X-17845877Y8971515D01*
X-17825377Y8926627D01*
X-17825373Y8926622D01*
X-17820582Y8919167D01*
X-17823636Y8917205D01*
X-17801765Y8869337D01*
X-17800500Y8851668D01*
X-17800500Y8817255D01*
X-17820185Y8750216D01*
X-17836819Y8729574D01*
X-18640991Y7925403D01*
X-18693737Y7894107D01*
X-18810051Y7859955D01*
X-18931127Y7782144D01*
X-19025377Y7673374D01*
X-19025378Y7673372D01*
X-19085166Y7542457D01*
X-19105647Y7400000D01*
X-37400000Y7400000D01*
X-37400000Y13200000D01*
X-30105647Y13200000D01*
X-30085166Y13057544D01*
X-30025378Y12926629D01*
X-30025377Y12926627D01*
X-29931128Y12817857D01*
X-29810053Y12740047D01*
X-29810050Y12740046D01*
X-29810051Y12740046D01*
X-29671964Y12699501D01*
X-29671962Y12699500D01*
X-29671961Y12699500D01*
X-29528038Y12699500D01*
X-29528038Y12699501D01*
X-29389947Y12740047D01*
X-29268872Y12817857D01*
X-29174623Y12926627D01*
X-29114835Y13057543D01*
X-29094353Y13200000D01*
X-29095661Y13209094D01*
X-29085721Y13278250D01*
X-29060604Y13314426D01*
X-28987581Y13387447D01*
X-28926257Y13420932D01*
X-28899901Y13423765D01*
X-28327462Y13423765D01*
X-28260423Y13404080D01*
X-28214668Y13351276D01*
X-28204724Y13282118D01*
X-28233749Y13218562D01*
X-28260423Y13195449D01*
X-28281127Y13182144D01*
X-28281128Y13182144D01*
X-28281128Y13182143D01*
X-28293710Y13167623D01*
X-28375377Y13073374D01*
X-28375378Y13073372D01*
X-28435166Y12942457D01*
X-28455647Y12800000D01*
X-28435166Y12657544D01*
X-28375378Y12526629D01*
X-28375377Y12526627D01*
X-28281128Y12417857D01*
X-28160053Y12340047D01*
X-28160050Y12340046D01*
X-28160051Y12340046D01*
X-28052893Y12308583D01*
X-28025367Y12300500D01*
X-28021964Y12299501D01*
X-28021962Y12299500D01*
X-28021961Y12299500D01*
X-27878038Y12299500D01*
X-27878038Y12299501D01*
X-27770879Y12330965D01*
X-27739950Y12340046D01*
X-27739950Y12340047D01*
X-27739947Y12340047D01*
X-27618872Y12417857D01*
X-27585212Y12456704D01*
X-27526433Y12494477D01*
X-27491499Y12499500D01*
X-19204698Y12499500D01*
X-19137659Y12479815D01*
X-19091904Y12427011D01*
X-19081960Y12357853D01*
X-19084884Y12344413D01*
X-19105647Y12200000D01*
X-19085166Y12057544D01*
X-19058886Y12000000D01*
X-19025377Y11926627D01*
X-18931128Y11817857D01*
X-18810053Y11740047D01*
X-18810050Y11740046D01*
X-18810051Y11740046D01*
X-18715554Y11712300D01*
X-18674720Y11700310D01*
X-18671964Y11699501D01*
X-18671962Y11699500D01*
X-18575833Y11699500D01*
X-18508794Y11679815D01*
X-18488152Y11663181D01*
X-17440460Y10615489D01*
X-17384511Y10559540D01*
X-17384509Y10559539D01*
X-17384505Y10559536D01*
X-17327507Y10526629D01*
X-17315989Y10519979D01*
X-17239562Y10499500D01*
X-17160438Y10499500D01*
X-8258501Y10499500D01*
X-8191462Y10479815D01*
X-8164789Y10456704D01*
X-8131128Y10417857D01*
X-8010053Y10340047D01*
X-8010050Y10340046D01*
X-8010051Y10340046D01*
X-7871964Y10299501D01*
X-7871962Y10299500D01*
X-7871961Y10299500D01*
X-7728038Y10299500D01*
X-7728038Y10299501D01*
X-7589947Y10340047D01*
X-7468872Y10417857D01*
X-7374623Y10526627D01*
X-7314835Y10657543D01*
X-7294353Y10800000D01*
X-7314835Y10942457D01*
X-7316097Y10951235D01*
X-7314280Y10951497D01*
X-7314278Y11010438D01*
X-7276502Y11069215D01*
X-7212945Y11098238D01*
X-7195302Y11099500D01*
X-3975833Y11099500D01*
X-3908794Y11079815D01*
X-3888152Y11063181D01*
X-3739396Y10914425D01*
X-3705911Y10853102D01*
X-3704339Y10809098D01*
X-3705647Y10800001D01*
X-3685166Y10657544D01*
X-3640409Y10559542D01*
X-3625377Y10526627D01*
X-3531128Y10417857D01*
X-3410053Y10340047D01*
X-3410050Y10340046D01*
X-3410051Y10340046D01*
X-3271964Y10299501D01*
X-3271962Y10299500D01*
X-3271961Y10299500D01*
X-3128038Y10299500D01*
X-3128038Y10299501D01*
X-2989947Y10340047D01*
X-2868872Y10417857D01*
X-2774623Y10526627D01*
X-2714835Y10657543D01*
X-2694353Y10800000D01*
X-2714835Y10942457D01*
X-2774623Y11073373D01*
X-2868872Y11182143D01*
X-2989947Y11259953D01*
X-2989949Y11259954D01*
X-2989951Y11259955D01*
X-2989950Y11259955D01*
X-3128037Y11300500D01*
X-3128039Y11300500D01*
X-3224167Y11300500D01*
X-3291206Y11320185D01*
X-3311848Y11336819D01*
X-3615488Y11640459D01*
X-3615496Y11640465D01*
X-3670032Y11671951D01*
X-3670036Y11671952D01*
X-3684011Y11680021D01*
X-3760438Y11700500D01*
X-3760440Y11700500D01*
X-4395302Y11700500D01*
X-4462341Y11720185D01*
X-4508096Y11772989D01*
X-4518040Y11842147D01*
X-4515117Y11855588D01*
X-4514837Y11857541D01*
X-4514835Y11857543D01*
X-4494353Y12000000D01*
X-4514835Y12142457D01*
X-4574623Y12273373D01*
X-4668872Y12382143D01*
X-4789947Y12459953D01*
X-4789949Y12459954D01*
X-4789951Y12459955D01*
X-4789950Y12459955D01*
X-4928037Y12500500D01*
X-4928039Y12500500D01*
X-5071961Y12500500D01*
X-5071964Y12500500D01*
X-5210051Y12459955D01*
X-5331127Y12382144D01*
X-5364788Y12343297D01*
X-5423567Y12305523D01*
X-5458501Y12300500D01*
X-15624167Y12300500D01*
X-15691206Y12320185D01*
X-15711848Y12336819D01*
X-17339753Y13964724D01*
X-17339761Y13964730D01*
X-17408270Y14004283D01*
X-17408275Y14004286D01*
X-17433752Y14011113D01*
X-17484703Y14024765D01*
X-29036173Y14024765D01*
X-29115297Y14024765D01*
X-29191725Y14004287D01*
X-29260246Y13964725D01*
X-29260249Y13964723D01*
X-29488153Y13736819D01*
X-29549476Y13703334D01*
X-29575834Y13700500D01*
X-29671964Y13700500D01*
X-29810051Y13659955D01*
X-29931127Y13582144D01*
X-30025377Y13473374D01*
X-30025378Y13473372D01*
X-30085166Y13342457D01*
X-30105647Y13200000D01*
X-37400000Y13200000D01*
X-37400000Y17600000D01*
X-19705647Y17600000D01*
X-19685166Y17457544D01*
X-19645877Y17371515D01*
X-19625377Y17326627D01*
X-19625373Y17326622D01*
X-19620582Y17319167D01*
X-19623636Y17317205D01*
X-19601765Y17269337D01*
X-19600500Y17251668D01*
X-19600500Y16947274D01*
X-19573207Y16845411D01*
X-19546844Y16799750D01*
X-19520480Y16754087D01*
X-19520478Y16754085D01*
X-15900366Y13133973D01*
X-15866881Y13072650D01*
X-15865309Y13063940D01*
X-15860901Y13033282D01*
X-15860900Y13033277D01*
X-15812194Y12926627D01*
X-15801112Y12902362D01*
X-15706863Y12793592D01*
X-15585788Y12715782D01*
X-15585785Y12715781D01*
X-15585786Y12715781D01*
X-15447699Y12675236D01*
X-15447697Y12675235D01*
X-15447696Y12675235D01*
X-15303773Y12675235D01*
X-15303773Y12675236D01*
X-15165682Y12715782D01*
X-15044607Y12793592D01*
X-14950358Y12902362D01*
X-14890570Y13033278D01*
X-14870088Y13175735D01*
X-14890570Y13318192D01*
X-14950358Y13449108D01*
X-15044607Y13557878D01*
X-15082366Y13582144D01*
X-15165684Y13635690D01*
X-15281999Y13669842D01*
X-15334745Y13701138D01*
X-18763181Y17129574D01*
X-18796666Y17190897D01*
X-18799500Y17217255D01*
X-18799500Y17251668D01*
X-18779815Y17318707D01*
X-18779099Y17319664D01*
X-18774632Y17326618D01*
X-18774623Y17326627D01*
X-18714835Y17457543D01*
X-18694353Y17600000D01*
X-18714835Y17742457D01*
X-18774623Y17873373D01*
X-18868872Y17982143D01*
X-18989947Y18059953D01*
X-18989949Y18059954D01*
X-18989951Y18059955D01*
X-18989950Y18059955D01*
X-19128037Y18100500D01*
X-19128039Y18100500D01*
X-19271961Y18100500D01*
X-19271964Y18100500D01*
X-19410051Y18059955D01*
X-19531127Y17982144D01*
X-19625377Y17873374D01*
X-19625378Y17873372D01*
X-19685166Y17742457D01*
X-19705647Y17600000D01*
X-37400000Y17600000D01*
X-37400000Y45600000D01*
X-24505647Y45600000D01*
X-24485166Y45457544D01*
X-24425378Y45326629D01*
X-24425377Y45326627D01*
X-24331128Y45217857D01*
X-24210053Y45140047D01*
X-24210050Y45140046D01*
X-24210051Y45140046D01*
X-24071964Y45099501D01*
X-24071962Y45099500D01*
X-24071961Y45099500D01*
X-23928038Y45099500D01*
X-23928038Y45099501D01*
X-23789950Y45140046D01*
X-23789949Y45140046D01*
X-23728064Y45179816D01*
X-23661026Y45199500D01*
X-21347275Y45199500D01*
X-21347273Y45199500D01*
X-21245412Y45226793D01*
X-21154087Y45279520D01*
X-20159008Y46274600D01*
X-20106263Y46305894D01*
X-19989950Y46340046D01*
X-19989950Y46340047D01*
X-19989947Y46340047D01*
X-19868872Y46417857D01*
X-19774623Y46526627D01*
X-19714835Y46657543D01*
X-19694353Y46800000D01*
X-19714835Y46942457D01*
X-19774623Y47073373D01*
X-19868872Y47182143D01*
X-19989947Y47259953D01*
X-19989949Y47259954D01*
X-19989951Y47259955D01*
X-19989950Y47259955D01*
X-20128037Y47300500D01*
X-20128039Y47300500D01*
X-20271961Y47300500D01*
X-20271964Y47300500D01*
X-20410051Y47259955D01*
X-20531127Y47182144D01*
X-20625377Y47073374D01*
X-20625378Y47073372D01*
X-20685165Y46942459D01*
X-20685166Y46942455D01*
X-20689574Y46911796D01*
X-20718600Y46848241D01*
X-20724631Y46841764D01*
X-21529574Y46036819D01*
X-21590897Y46003334D01*
X-21617255Y46000500D01*
X-23661026Y46000500D01*
X-23728064Y46020184D01*
X-23789950Y46059955D01*
X-23928037Y46100500D01*
X-23928039Y46100500D01*
X-24071961Y46100500D01*
X-24071964Y46100500D01*
X-24210051Y46059955D01*
X-24331127Y45982144D01*
X-24425377Y45873374D01*
X-24425378Y45873372D01*
X-24485166Y45742457D01*
X-24505647Y45600000D01*
X-37400000Y45600000D01*
X-37400000Y51400000D01*
X-35080322Y51400000D01*
X-35061085Y51216971D01*
X-35061084Y51216968D01*
X-35004217Y51041947D01*
X-35004214Y51041941D01*
X-34912195Y50882560D01*
X-34840652Y50803103D01*
X-34789051Y50745794D01*
X-34789049Y50745792D01*
X-34640166Y50637622D01*
X-34640165Y50637622D01*
X-34640161Y50637619D01*
X-34503047Y50576572D01*
X-34472039Y50562766D01*
X-34472034Y50562764D01*
X-34292019Y50524500D01*
X-34107981Y50524500D01*
X-33927966Y50562764D01*
X-33759839Y50637619D01*
X-33610950Y50745793D01*
X-33487805Y50882560D01*
X-33395786Y51041941D01*
X-33338915Y51216971D01*
X-33323321Y51365345D01*
X-33309138Y51399816D01*
X-33309324Y51400186D01*
X-33090863Y51400186D01*
X-33078023Y51374688D01*
X-33076681Y51365354D01*
X-33061085Y51216971D01*
X-33061084Y51216968D01*
X-33004217Y51041947D01*
X-33004214Y51041941D01*
X-32912195Y50882560D01*
X-32840652Y50803103D01*
X-32789051Y50745794D01*
X-32789049Y50745792D01*
X-32640166Y50637622D01*
X-32640165Y50637622D01*
X-32640161Y50637619D01*
X-32503047Y50576572D01*
X-32472039Y50562766D01*
X-32472034Y50562764D01*
X-32292019Y50524500D01*
X-32107981Y50524500D01*
X-31927966Y50562764D01*
X-31759839Y50637619D01*
X-31610950Y50745793D01*
X-31487805Y50882560D01*
X-31395786Y51041941D01*
X-31338915Y51216971D01*
X-31323321Y51365345D01*
X-31309138Y51399816D01*
X-31309324Y51400186D01*
X-31090863Y51400186D01*
X-31078023Y51374688D01*
X-31076681Y51365354D01*
X-31061085Y51216971D01*
X-31061084Y51216968D01*
X-31004217Y51041947D01*
X-31004214Y51041941D01*
X-30912195Y50882560D01*
X-30840652Y50803103D01*
X-30789051Y50745794D01*
X-30789049Y50745792D01*
X-30640166Y50637622D01*
X-30640165Y50637622D01*
X-30640161Y50637619D01*
X-30503047Y50576572D01*
X-30472039Y50562766D01*
X-30472034Y50562764D01*
X-30292019Y50524500D01*
X-30107981Y50524500D01*
X-29927966Y50562764D01*
X-29759839Y50637619D01*
X-29610950Y50745793D01*
X-29487805Y50882560D01*
X-29395786Y51041941D01*
X-29338915Y51216971D01*
X-29323321Y51365345D01*
X-29309138Y51399816D01*
X-29309324Y51400186D01*
X-29090863Y51400186D01*
X-29078023Y51374688D01*
X-29076681Y51365354D01*
X-29061085Y51216971D01*
X-29061084Y51216968D01*
X-29004217Y51041947D01*
X-29004214Y51041941D01*
X-28912195Y50882560D01*
X-28840652Y50803103D01*
X-28789051Y50745794D01*
X-28789049Y50745792D01*
X-28640166Y50637622D01*
X-28640165Y50637622D01*
X-28640161Y50637619D01*
X-28503047Y50576572D01*
X-28472039Y50562766D01*
X-28472034Y50562764D01*
X-28292019Y50524500D01*
X-28107981Y50524500D01*
X-27927966Y50562764D01*
X-27759839Y50637619D01*
X-27610950Y50745793D01*
X-27487805Y50882560D01*
X-27395786Y51041941D01*
X-27338915Y51216971D01*
X-27323321Y51365345D01*
X-27309138Y51399816D01*
X-27309324Y51400186D01*
X-27090863Y51400186D01*
X-27078023Y51374688D01*
X-27076681Y51365354D01*
X-27061085Y51216971D01*
X-27061084Y51216968D01*
X-27004217Y51041947D01*
X-27004214Y51041941D01*
X-26912195Y50882560D01*
X-26840652Y50803103D01*
X-26789051Y50745794D01*
X-26789049Y50745792D01*
X-26640166Y50637622D01*
X-26640165Y50637622D01*
X-26640161Y50637619D01*
X-26503047Y50576572D01*
X-26472039Y50562766D01*
X-26472034Y50562764D01*
X-26292019Y50524500D01*
X-26107981Y50524500D01*
X-25927966Y50562764D01*
X-25759839Y50637619D01*
X-25610950Y50745793D01*
X-25487805Y50882560D01*
X-25395786Y51041941D01*
X-25338915Y51216971D01*
X-25323321Y51365345D01*
X-25309138Y51399816D01*
X-25309324Y51400186D01*
X-25090863Y51400186D01*
X-25078023Y51374688D01*
X-25076681Y51365354D01*
X-25061085Y51216971D01*
X-25061084Y51216968D01*
X-25004217Y51041947D01*
X-25004214Y51041941D01*
X-24912195Y50882560D01*
X-24840652Y50803103D01*
X-24789051Y50745794D01*
X-24789049Y50745792D01*
X-24640166Y50637622D01*
X-24640165Y50637622D01*
X-24640161Y50637619D01*
X-24503047Y50576572D01*
X-24472039Y50562766D01*
X-24472034Y50562764D01*
X-24292019Y50524500D01*
X-24107981Y50524500D01*
X-23927966Y50562764D01*
X-23759839Y50637619D01*
X-23610950Y50745793D01*
X-23487805Y50882560D01*
X-23395786Y51041941D01*
X-23338915Y51216971D01*
X-23323321Y51365345D01*
X-23309138Y51399816D01*
X-23309324Y51400186D01*
X-23090863Y51400186D01*
X-23078023Y51374688D01*
X-23076681Y51365354D01*
X-23061085Y51216971D01*
X-23061084Y51216968D01*
X-23004217Y51041947D01*
X-23004214Y51041941D01*
X-22912195Y50882560D01*
X-22840652Y50803103D01*
X-22789051Y50745794D01*
X-22789049Y50745792D01*
X-22640166Y50637622D01*
X-22640165Y50637622D01*
X-22640161Y50637619D01*
X-22503047Y50576572D01*
X-22472039Y50562766D01*
X-22472034Y50562764D01*
X-22292019Y50524500D01*
X-22107981Y50524500D01*
X-21927966Y50562764D01*
X-21759839Y50637619D01*
X-21610950Y50745793D01*
X-21591150Y50767785D01*
X-21531665Y50804432D01*
X-21461808Y50803103D01*
X-21403759Y50764217D01*
X-21375949Y50700121D01*
X-21375000Y50684812D01*
X-21375000Y50677156D01*
X-21368599Y50617628D01*
X-21368597Y50617621D01*
X-21318355Y50482914D01*
X-21318351Y50482907D01*
X-21232191Y50367813D01*
X-21232188Y50367810D01*
X-21117094Y50281650D01*
X-21117087Y50281646D01*
X-20982380Y50231404D01*
X-20982373Y50231402D01*
X-20922845Y50225001D01*
X-20922828Y50225000D01*
X-20450000Y50225000D01*
X-20450000Y51084314D01*
X-20445606Y51079920D01*
X-20354394Y51027259D01*
X-20252661Y51000000D01*
X-20147339Y51000000D01*
X-20045606Y51027259D01*
X-19954394Y51079920D01*
X-19950000Y51084314D01*
X-19950000Y50225000D01*
X-19477172Y50225000D01*
X-19477156Y50225001D01*
X-19417628Y50231402D01*
X-19417621Y50231404D01*
X-19282914Y50281646D01*
X-19282907Y50281650D01*
X-19167813Y50367810D01*
X-19167810Y50367813D01*
X-19081650Y50482907D01*
X-19081646Y50482914D01*
X-19031404Y50617621D01*
X-19031402Y50617628D01*
X-19025001Y50677156D01*
X-19025000Y50677173D01*
X-19025000Y51150000D01*
X-19884314Y51150000D01*
X-19879920Y51154394D01*
X-19827259Y51245606D01*
X-19800000Y51347339D01*
X-19800000Y51452661D01*
X-19827259Y51554394D01*
X-19879920Y51645606D01*
X-19884314Y51650000D01*
X-19025000Y51650000D01*
X-19025000Y51800000D01*
X-11505647Y51800000D01*
X-11485166Y51657544D01*
X-11438058Y51554394D01*
X-11425377Y51526627D01*
X-11331128Y51417857D01*
X-11210053Y51340047D01*
X-11210050Y51340046D01*
X-11210051Y51340046D01*
X-11093738Y51305894D01*
X-11040991Y51274598D01*
X-9124631Y49358239D01*
X-9091146Y49296916D01*
X-9089574Y49288206D01*
X-9085165Y49257543D01*
X-9025377Y49126627D01*
X-8931128Y49017857D01*
X-8810053Y48940047D01*
X-8810050Y48940046D01*
X-8810051Y48940046D01*
X-8671964Y48899501D01*
X-8671962Y48899500D01*
X-8671961Y48899500D01*
X-8528038Y48899500D01*
X-8528038Y48899501D01*
X-8389947Y48940047D01*
X-8268872Y49017857D01*
X-8174623Y49126627D01*
X-8114835Y49257543D01*
X-8094353Y49400000D01*
X-8114835Y49542457D01*
X-8174623Y49673373D01*
X-8268872Y49782143D01*
X-8389947Y49859953D01*
X-8389949Y49859954D01*
X-8389951Y49859955D01*
X-8389950Y49859955D01*
X-8506264Y49894107D01*
X-8559011Y49925403D01*
X-10475371Y51841764D01*
X-10508856Y51903087D01*
X-10510428Y51911802D01*
X-10511238Y51917439D01*
X-10514835Y51942457D01*
X-10574623Y52073373D01*
X-10668872Y52182143D01*
X-10789947Y52259953D01*
X-10789949Y52259954D01*
X-10789951Y52259955D01*
X-10789950Y52259955D01*
X-10928037Y52300500D01*
X-10928039Y52300500D01*
X-11071961Y52300500D01*
X-11071964Y52300500D01*
X-11210051Y52259955D01*
X-11331127Y52182144D01*
X-11425377Y52073374D01*
X-11425378Y52073372D01*
X-11485166Y51942457D01*
X-11505647Y51800000D01*
X-19025000Y51800000D01*
X-19025000Y52122828D01*
X-19025001Y52122845D01*
X-19031402Y52182373D01*
X-19031404Y52182380D01*
X-19081646Y52317087D01*
X-19081650Y52317094D01*
X-19167810Y52432188D01*
X-19167813Y52432191D01*
X-19282907Y52518351D01*
X-19282914Y52518355D01*
X-19417621Y52568597D01*
X-19417628Y52568599D01*
X-19477156Y52575000D01*
X-19950000Y52575000D01*
X-19950000Y51715686D01*
X-19954394Y51720080D01*
X-20045606Y51772741D01*
X-20147339Y51800000D01*
X-20252661Y51800000D01*
X-20354394Y51772741D01*
X-20445606Y51720080D01*
X-20450000Y51715686D01*
X-20450000Y52575000D01*
X-20922845Y52575000D01*
X-20982373Y52568599D01*
X-20982380Y52568597D01*
X-21117087Y52518355D01*
X-21117094Y52518351D01*
X-21232188Y52432191D01*
X-21232191Y52432188D01*
X-21318351Y52317094D01*
X-21318355Y52317087D01*
X-21368597Y52182380D01*
X-21368599Y52182373D01*
X-21375000Y52122845D01*
X-21375000Y52115189D01*
X-21394685Y52048150D01*
X-21447489Y52002395D01*
X-21516647Y51992451D01*
X-21580203Y52021476D01*
X-21591150Y52032217D01*
X-21610950Y52054207D01*
X-21610952Y52054209D01*
X-21759835Y52162379D01*
X-21759838Y52162381D01*
X-21759839Y52162381D01*
X-21820888Y52189562D01*
X-21927962Y52237235D01*
X-21927967Y52237237D01*
X-22107981Y52275500D01*
X-22292019Y52275500D01*
X-22472034Y52237237D01*
X-22472039Y52237235D01*
X-22640161Y52162381D01*
X-22640166Y52162379D01*
X-22789049Y52054209D01*
X-22789051Y52054207D01*
X-22912196Y51917439D01*
X-23004214Y51758060D01*
X-23004217Y51758054D01*
X-23061084Y51583033D01*
X-23061085Y51583029D01*
X-23067013Y51526627D01*
X-23076679Y51434658D01*
X-23090863Y51400186D01*
X-23309324Y51400186D01*
X-23321977Y51425313D01*
X-23323321Y51434658D01*
X-23325213Y51452661D01*
X-23338915Y51583029D01*
X-23395786Y51758059D01*
X-23487805Y51917440D01*
X-23610950Y52054207D01*
X-23610952Y52054209D01*
X-23759835Y52162379D01*
X-23759838Y52162381D01*
X-23759839Y52162381D01*
X-23820888Y52189562D01*
X-23927962Y52237235D01*
X-23927967Y52237237D01*
X-24107981Y52275500D01*
X-24292019Y52275500D01*
X-24472034Y52237237D01*
X-24472039Y52237235D01*
X-24640161Y52162381D01*
X-24640166Y52162379D01*
X-24789049Y52054209D01*
X-24789051Y52054207D01*
X-24912196Y51917439D01*
X-25004214Y51758060D01*
X-25004217Y51758054D01*
X-25061084Y51583033D01*
X-25061085Y51583029D01*
X-25067013Y51526627D01*
X-25076679Y51434658D01*
X-25090863Y51400186D01*
X-25309324Y51400186D01*
X-25321977Y51425313D01*
X-25323321Y51434658D01*
X-25325213Y51452661D01*
X-25338915Y51583029D01*
X-25395786Y51758059D01*
X-25487805Y51917440D01*
X-25610950Y52054207D01*
X-25610952Y52054209D01*
X-25759835Y52162379D01*
X-25759838Y52162381D01*
X-25759839Y52162381D01*
X-25820888Y52189562D01*
X-25927962Y52237235D01*
X-25927967Y52237237D01*
X-26107981Y52275500D01*
X-26292019Y52275500D01*
X-26472034Y52237237D01*
X-26472039Y52237235D01*
X-26640161Y52162381D01*
X-26640166Y52162379D01*
X-26789049Y52054209D01*
X-26789051Y52054207D01*
X-26912196Y51917439D01*
X-27004214Y51758060D01*
X-27004217Y51758054D01*
X-27061084Y51583033D01*
X-27061085Y51583029D01*
X-27067013Y51526627D01*
X-27076679Y51434658D01*
X-27090863Y51400186D01*
X-27309324Y51400186D01*
X-27321977Y51425313D01*
X-27323321Y51434658D01*
X-27325213Y51452661D01*
X-27338915Y51583029D01*
X-27395786Y51758059D01*
X-27487805Y51917440D01*
X-27610950Y52054207D01*
X-27610952Y52054209D01*
X-27759835Y52162379D01*
X-27759838Y52162381D01*
X-27759839Y52162381D01*
X-27820888Y52189562D01*
X-27927962Y52237235D01*
X-27927967Y52237237D01*
X-28107981Y52275500D01*
X-28292019Y52275500D01*
X-28472034Y52237237D01*
X-28472039Y52237235D01*
X-28640161Y52162381D01*
X-28640166Y52162379D01*
X-28789049Y52054209D01*
X-28789051Y52054207D01*
X-28912196Y51917439D01*
X-29004214Y51758060D01*
X-29004217Y51758054D01*
X-29061084Y51583033D01*
X-29061085Y51583029D01*
X-29067013Y51526627D01*
X-29076679Y51434658D01*
X-29090863Y51400186D01*
X-29309324Y51400186D01*
X-29321977Y51425313D01*
X-29323321Y51434658D01*
X-29325213Y51452661D01*
X-29338915Y51583029D01*
X-29395786Y51758059D01*
X-29487805Y51917440D01*
X-29610950Y52054207D01*
X-29610952Y52054209D01*
X-29759835Y52162379D01*
X-29759838Y52162381D01*
X-29759839Y52162381D01*
X-29820888Y52189562D01*
X-29927962Y52237235D01*
X-29927967Y52237237D01*
X-30107981Y52275500D01*
X-30292019Y52275500D01*
X-30472034Y52237237D01*
X-30472039Y52237235D01*
X-30640161Y52162381D01*
X-30640166Y52162379D01*
X-30789049Y52054209D01*
X-30789051Y52054207D01*
X-30912196Y51917439D01*
X-31004214Y51758060D01*
X-31004217Y51758054D01*
X-31061084Y51583033D01*
X-31061085Y51583029D01*
X-31067013Y51526627D01*
X-31076679Y51434658D01*
X-31090863Y51400186D01*
X-31309324Y51400186D01*
X-31321977Y51425313D01*
X-31323321Y51434658D01*
X-31325213Y51452661D01*
X-31338915Y51583029D01*
X-31395786Y51758059D01*
X-31487805Y51917440D01*
X-31610950Y52054207D01*
X-31610952Y52054209D01*
X-31759835Y52162379D01*
X-31759838Y52162381D01*
X-31759839Y52162381D01*
X-31820888Y52189562D01*
X-31927962Y52237235D01*
X-31927967Y52237237D01*
X-32107981Y52275500D01*
X-32292019Y52275500D01*
X-32472034Y52237237D01*
X-32472039Y52237235D01*
X-32640161Y52162381D01*
X-32640166Y52162379D01*
X-32789049Y52054209D01*
X-32789051Y52054207D01*
X-32912196Y51917439D01*
X-33004214Y51758060D01*
X-33004217Y51758054D01*
X-33061084Y51583033D01*
X-33061085Y51583029D01*
X-33067013Y51526627D01*
X-33076679Y51434658D01*
X-33090863Y51400186D01*
X-33309324Y51400186D01*
X-33321977Y51425313D01*
X-33323321Y51434658D01*
X-33325213Y51452661D01*
X-33338915Y51583029D01*
X-33395786Y51758059D01*
X-33487805Y51917440D01*
X-33610950Y52054207D01*
X-33610952Y52054209D01*
X-33759835Y52162379D01*
X-33759838Y52162381D01*
X-33759839Y52162381D01*
X-33820888Y52189562D01*
X-33927962Y52237235D01*
X-33927967Y52237237D01*
X-34107981Y52275500D01*
X-34292019Y52275500D01*
X-34472034Y52237237D01*
X-34472039Y52237235D01*
X-34640161Y52162381D01*
X-34640166Y52162379D01*
X-34789049Y52054209D01*
X-34789051Y52054207D01*
X-34912196Y51917439D01*
X-35004214Y51758060D01*
X-35004217Y51758054D01*
X-35061084Y51583033D01*
X-35061085Y51583029D01*
X-35080322Y51400000D01*
X-37400000Y51400000D01*
X-37400000Y55000003D01*
X-17104966Y55000003D01*
X-17104966Y54999998D01*
X-17085142Y54773401D01*
X-17085140Y54773390D01*
X-17026270Y54553683D01*
X-17026265Y54553669D01*
X-16930137Y54347522D01*
X-16879026Y54274528D01*
X-16200000Y54953554D01*
X-16200000Y54947339D01*
X-16172741Y54845606D01*
X-16120080Y54754394D01*
X-16045606Y54679920D01*
X-15954394Y54627259D01*
X-15852661Y54600000D01*
X-15846447Y54600000D01*
X-16525474Y53920975D01*
X-16452487Y53869868D01*
X-16452479Y53869864D01*
X-16246332Y53773736D01*
X-16246318Y53773731D01*
X-16026611Y53714861D01*
X-16026600Y53714859D01*
X-15800002Y53695034D01*
X-15799998Y53695034D01*
X-15573401Y53714859D01*
X-15573390Y53714861D01*
X-15353683Y53773731D01*
X-15353669Y53773736D01*
X-15147522Y53869864D01*
X-15074529Y53920976D01*
X-15753553Y54600000D01*
X-15747339Y54600000D01*
X-15645606Y54627259D01*
X-15554394Y54679920D01*
X-15479920Y54754394D01*
X-15427259Y54845606D01*
X-15400000Y54947339D01*
X-15400000Y54953553D01*
X-14720976Y54274529D01*
X-14669864Y54347522D01*
X-14573736Y54553669D01*
X-14573731Y54553683D01*
X-14514861Y54773390D01*
X-14514859Y54773401D01*
X-14495034Y54999998D01*
X-14495034Y55000003D01*
X-14514859Y55226600D01*
X-14514861Y55226611D01*
X-14573731Y55446318D01*
X-14573736Y55446332D01*
X-14669864Y55652479D01*
X-14669868Y55652487D01*
X-14720975Y55725474D01*
X-15400000Y55046449D01*
X-15400000Y55052661D01*
X-15427259Y55154394D01*
X-15479920Y55245606D01*
X-15554394Y55320080D01*
X-15645606Y55372741D01*
X-15747339Y55400000D01*
X-15753555Y55400000D01*
X-15333801Y55819753D01*
X-13000500Y55819753D01*
X-13000500Y54180248D01*
X-12988869Y54121771D01*
X-12988868Y54121770D01*
X-12944553Y54055448D01*
X-12878231Y54011133D01*
X-12878230Y54011132D01*
X-12819753Y53999501D01*
X-12819750Y53999500D01*
X-12819748Y53999500D01*
X-11180250Y53999500D01*
X-11180249Y53999501D01*
X-11165432Y54002448D01*
X-11121771Y54011132D01*
X-11121771Y54011133D01*
X-11121769Y54011133D01*
X-11055448Y54055448D01*
X-11011133Y54121769D01*
X-11011133Y54121771D01*
X-11011132Y54121771D01*
X-10999501Y54180248D01*
X-10999500Y54180250D01*
X-10999500Y55000003D01*
X-8704966Y55000003D01*
X-8704966Y54999998D01*
X-8685142Y54773401D01*
X-8685140Y54773390D01*
X-8626270Y54553683D01*
X-8626265Y54553669D01*
X-8530137Y54347522D01*
X-8479026Y54274528D01*
X-7800000Y54953554D01*
X-7800000Y54947339D01*
X-7772741Y54845606D01*
X-7720080Y54754394D01*
X-7645606Y54679920D01*
X-7554394Y54627259D01*
X-7452661Y54600000D01*
X-7446447Y54600000D01*
X-8125474Y53920975D01*
X-8052487Y53869868D01*
X-8052479Y53869864D01*
X-7846332Y53773736D01*
X-7846318Y53773731D01*
X-7626611Y53714861D01*
X-7626600Y53714859D01*
X-7400002Y53695034D01*
X-7399998Y53695034D01*
X-7173401Y53714859D01*
X-7173390Y53714861D01*
X-6953683Y53773731D01*
X-6953669Y53773736D01*
X-6747522Y53869864D01*
X-6674529Y53920976D01*
X-7353553Y54600000D01*
X-7347339Y54600000D01*
X-7245606Y54627259D01*
X-7154394Y54679920D01*
X-7079920Y54754394D01*
X-7027259Y54845606D01*
X-7000000Y54947339D01*
X-7000000Y54953553D01*
X-6436819Y54390373D01*
X-6403334Y54329050D01*
X-6400500Y54302692D01*
X-6400500Y54180248D01*
X-6388869Y54121771D01*
X-6388868Y54121770D01*
X-6344553Y54055448D01*
X-6278231Y54011133D01*
X-6278230Y54011132D01*
X-6219753Y53999501D01*
X-6219750Y53999500D01*
X-6219748Y53999500D01*
X-4580250Y53999500D01*
X-4580249Y53999501D01*
X-4565432Y54002448D01*
X-4521771Y54011132D01*
X-4521771Y54011133D01*
X-4521769Y54011133D01*
X-4455448Y54055448D01*
X-4411133Y54121769D01*
X-4411133Y54121771D01*
X-4411132Y54121771D01*
X-4399501Y54180248D01*
X-4399500Y54180250D01*
X-4399500Y55819751D01*
X-4399501Y55819753D01*
X-4411132Y55878230D01*
X-4411133Y55878231D01*
X-4455448Y55944553D01*
X-4521770Y55988868D01*
X-4521771Y55988869D01*
X-4580248Y56000500D01*
X-4580252Y56000500D01*
X-6219748Y56000500D01*
X-6219753Y56000500D01*
X-6278230Y55988869D01*
X-6278231Y55988868D01*
X-6344553Y55944553D01*
X-6388868Y55878231D01*
X-6388869Y55878230D01*
X-6400500Y55819753D01*
X-6400500Y55697309D01*
X-6420185Y55630270D01*
X-6436819Y55609628D01*
X-7000000Y55046448D01*
X-7000000Y55052661D01*
X-7027259Y55154394D01*
X-7079920Y55245606D01*
X-7154394Y55320080D01*
X-7245606Y55372741D01*
X-7347339Y55400000D01*
X-7353555Y55400000D01*
X-6674528Y56079026D01*
X-6747522Y56130137D01*
X-6953669Y56226265D01*
X-6953683Y56226270D01*
X-7173390Y56285140D01*
X-7173401Y56285142D01*
X-7399998Y56304966D01*
X-7400002Y56304966D01*
X-7626600Y56285142D01*
X-7626611Y56285140D01*
X-7846318Y56226270D01*
X-7846327Y56226266D01*
X-8052484Y56130134D01*
X-8052488Y56130132D01*
X-8125474Y56079027D01*
X-8125474Y56079026D01*
X-7446447Y55400000D01*
X-7452661Y55400000D01*
X-7554394Y55372741D01*
X-7645606Y55320080D01*
X-7720080Y55245606D01*
X-7772741Y55154394D01*
X-7800000Y55052661D01*
X-7800000Y55046448D01*
X-8479026Y55725474D01*
X-8479027Y55725474D01*
X-8530132Y55652488D01*
X-8530134Y55652484D01*
X-8626266Y55446327D01*
X-8626270Y55446318D01*
X-8685140Y55226611D01*
X-8685142Y55226600D01*
X-8704966Y55000003D01*
X-10999500Y55000003D01*
X-10999500Y55819751D01*
X-10999501Y55819753D01*
X-11011132Y55878230D01*
X-11011133Y55878231D01*
X-11055448Y55944553D01*
X-11121770Y55988868D01*
X-11121771Y55988869D01*
X-11180248Y56000500D01*
X-11180252Y56000500D01*
X-12819748Y56000500D01*
X-12819753Y56000500D01*
X-12878230Y55988869D01*
X-12878231Y55988868D01*
X-12944553Y55944553D01*
X-12988868Y55878231D01*
X-12988869Y55878230D01*
X-13000500Y55819753D01*
X-15333801Y55819753D01*
X-15074528Y56079026D01*
X-15147522Y56130137D01*
X-15353669Y56226265D01*
X-15353683Y56226270D01*
X-15573390Y56285140D01*
X-15573401Y56285142D01*
X-15799998Y56304966D01*
X-15800002Y56304966D01*
X-16026600Y56285142D01*
X-16026611Y56285140D01*
X-16246318Y56226270D01*
X-16246327Y56226266D01*
X-16452484Y56130134D01*
X-16452488Y56130132D01*
X-16525474Y56079027D01*
X-16525474Y56079026D01*
X-15846447Y55400000D01*
X-15852661Y55400000D01*
X-15954394Y55372741D01*
X-16045606Y55320080D01*
X-16120080Y55245606D01*
X-16172741Y55154394D01*
X-16200000Y55052661D01*
X-16200000Y55046448D01*
X-16879026Y55725474D01*
X-16879027Y55725474D01*
X-16930132Y55652488D01*
X-16930134Y55652484D01*
X-17026266Y55446327D01*
X-17026270Y55446318D01*
X-17085140Y55226611D01*
X-17085142Y55226600D01*
X-17104966Y55000003D01*
X-37400000Y55000003D01*
X-37400000Y59375500D01*
X-37380315Y59442539D01*
X-37327511Y59488294D01*
X-37276000Y59499500D01*
X-2524000Y59499500D01*
X-2456961Y59479815D01*
G37*
%TD.AperFunction*%
%TD*%
M02*
