M48
; DRILL file {KiCad 8.0.7} date 2025-01-18T17:17:35+0100
; FORMAT={-:-/ absolute / inch / decimal}
; #@! TF.CreationDate,2025-01-18T17:17:35+01:00
; #@! TF.GenerationSoftware,Kicad,Pcbnew,8.0.7
; #@! TF.FileFunction,Plated,1,2,PTH
FMAT,2
INCH
; #@! TA.AperFunction,Plated,PTH,ViaDrill
T1C0.0118
; #@! TA.AperFunction,Plated,PTH,ComponentDrill
T2C0.0315
%
G90
G05
T1
X-1.4094Y0.0787
X-1.3858Y1.4567
X-1.252Y1.0
X-1.1654Y0.5197
X-1.1004Y0.5039
X-1.0866Y2.2126
X-1.063Y0.6299
X-1.0551Y1.8346
X-1.0394Y0.3307
X-1.0394Y0.2126
X-1.0157Y1.0394
X-0.9449Y1.7953
X-0.937Y0.3307
X-0.937Y0.2126
X-0.7953Y1.8425
X-0.7559Y0.6929
X-0.748Y0.4488
X-0.7323Y0.4803
X-0.7323Y0.2913
X-0.685Y0.3622
X-0.6299Y0.9921
X-0.6053Y0.5187
X-0.5906Y0.3543
X-0.5748Y1.9134
X-0.4331Y2.0394
X-0.3386Y1.9449
X-0.3071Y0.4252
X-0.1969Y0.4724
X-0.1496Y0.063
X-0.126Y0.4252
T2
X-1.3465Y2.0236
X-1.2677Y2.0236
X-1.189Y2.0236
X-1.1102Y2.0236
X-1.0315Y2.0236
X-0.9528Y2.0236
X-0.874Y2.0236
X-0.7953Y2.0236
X-0.622Y2.1654
X-0.4724Y2.1654
X-0.2913Y2.1654
X-0.2126Y2.1654
M30
