%TF.GenerationSoftware,KiCad,Pcbnew,8.0.7*%
%TF.CreationDate,2025-01-18T17:17:35+01:00*%
%TF.ProjectId,tuff_tuff_pcb,74756666-5f74-4756-9666-5f7063622e6b,rev?*%
%TF.SameCoordinates,Original*%
%TF.FileFunction,Paste,Top*%
%TF.FilePolarity,Positive*%
%FSLAX46Y46*%
G04 Gerber Fmt 4.6, Leading zero omitted, Abs format (unit mm)*
G04 Created by KiCad (PCBNEW 8.0.7) date 2025-01-18 17:17:35*
%MOMM*%
%LPD*%
G01*
G04 APERTURE LIST*
G04 Aperture macros list*
%AMRoundRect*
0 Rectangle with rounded corners*
0 $1 Rounding radius*
0 $2 $3 $4 $5 $6 $7 $8 $9 X,Y pos of 4 corners*
0 Add a 4 corners polygon primitive as box body*
4,1,4,$2,$3,$4,$5,$6,$7,$8,$9,$2,$3,0*
0 Add four circle primitives for the rounded corners*
1,1,$1+$1,$2,$3*
1,1,$1+$1,$4,$5*
1,1,$1+$1,$6,$7*
1,1,$1+$1,$8,$9*
0 Add four rect primitives between the rounded corners*
20,1,$1+$1,$2,$3,$4,$5,0*
20,1,$1+$1,$4,$5,$6,$7,0*
20,1,$1+$1,$6,$7,$8,$9,0*
20,1,$1+$1,$8,$9,$2,$3,0*%
G04 Aperture macros list end*
%ADD10RoundRect,0.250000X0.650000X-0.412500X0.650000X0.412500X-0.650000X0.412500X-0.650000X-0.412500X0*%
%ADD11R,1.500000X0.800000*%
%ADD12R,2.400000X0.740000*%
%ADD13RoundRect,0.100000X-0.100000X0.637500X-0.100000X-0.637500X0.100000X-0.637500X0.100000X0.637500X0*%
%ADD14R,0.500000X0.500000*%
%ADD15RoundRect,0.250000X-1.000000X-0.650000X1.000000X-0.650000X1.000000X0.650000X-1.000000X0.650000X0*%
%ADD16RoundRect,0.250000X-0.300000X2.050000X-0.300000X-2.050000X0.300000X-2.050000X0.300000X2.050000X0*%
%ADD17RoundRect,0.250000X-2.375000X2.025000X-2.375000X-2.025000X2.375000X-2.025000X2.375000X2.025000X0*%
%ADD18R,2.900000X5.400000*%
G04 APERTURE END LIST*
D10*
%TO.C,R3*%
X-20500000Y54600000D03*
X-20500000Y57725000D03*
%TD*%
D11*
%TO.C,Y1*%
X-16700000Y3500000D03*
X-16700000Y2000000D03*
%TD*%
D12*
%TO.C,J2*%
X-9650000Y9810000D03*
X-5750000Y9810000D03*
X-9650000Y8540000D03*
X-5750000Y8540000D03*
X-9650000Y7270000D03*
X-5750000Y7270000D03*
X-9650000Y6000000D03*
X-5750000Y6000000D03*
X-9650000Y4730000D03*
X-5750000Y4730000D03*
X-9650000Y3460000D03*
X-5750000Y3460000D03*
X-9650000Y2190000D03*
X-5750000Y2190000D03*
%TD*%
D10*
%TO.C,R4*%
X-34000000Y54600000D03*
X-34000000Y57725000D03*
%TD*%
%TO.C,R2*%
X-25000000Y54600000D03*
X-25000000Y57725000D03*
%TD*%
D13*
%TO.C,IC1*%
X-28525000Y22462500D03*
X-29175000Y22462500D03*
X-29825000Y22462500D03*
X-30475000Y22462500D03*
X-31125000Y22462500D03*
X-31775000Y22462500D03*
X-32425000Y22462500D03*
X-33075000Y22462500D03*
X-33075000Y16737500D03*
X-32425000Y16737500D03*
X-31775000Y16737500D03*
X-31125000Y16737500D03*
X-30475000Y16737500D03*
X-29825000Y16737500D03*
X-29175000Y16737500D03*
X-28525000Y16737500D03*
%TD*%
D14*
%TO.C,U1*%
X-29750000Y11550000D03*
X-28950000Y11550000D03*
X-28950000Y10750000D03*
X-28150000Y11550000D03*
X-28150000Y10750000D03*
X-27350000Y11550000D03*
X-27350000Y10750000D03*
X-26550000Y11550000D03*
X-26550000Y10750000D03*
X-25750000Y11550000D03*
X-25750000Y10750000D03*
X-24950000Y11550000D03*
X-24950000Y10750000D03*
X-24150000Y11550000D03*
X-24150000Y10750000D03*
X-23350000Y11550000D03*
X-23350000Y10750000D03*
X-22550000Y11550000D03*
X-22550000Y10750000D03*
X-21750000Y11550000D03*
X-21750000Y10750000D03*
X-20950000Y11550000D03*
X-20950000Y10750000D03*
X-20150000Y11400000D03*
X-20150000Y10600000D03*
X-20150000Y9800000D03*
X-20950000Y9800000D03*
X-20150000Y9000000D03*
X-20950000Y9000000D03*
X-20150000Y8200000D03*
X-20950000Y8200000D03*
X-20150000Y7400000D03*
X-20950000Y7400000D03*
X-20150000Y6600000D03*
X-20950000Y6600000D03*
X-20150000Y5800000D03*
X-20950000Y5800000D03*
X-20150000Y5000000D03*
X-20950000Y5000000D03*
X-20150000Y4200000D03*
X-20950000Y4200000D03*
X-20150000Y3400000D03*
X-20150000Y2600000D03*
X-20950000Y2450000D03*
X-20950000Y3250000D03*
X-21750000Y2450000D03*
X-21750000Y3250000D03*
X-22550000Y2450000D03*
X-22550000Y3250000D03*
X-23350000Y2450000D03*
X-23350000Y3250000D03*
X-24150000Y2450000D03*
X-24150000Y3250000D03*
X-24950000Y2450000D03*
X-24950000Y3250000D03*
X-25750000Y2450000D03*
X-25750000Y3250000D03*
X-26550000Y2450000D03*
X-26550000Y3250000D03*
X-27350000Y2450000D03*
X-27350000Y3250000D03*
X-28150000Y2450000D03*
X-28150000Y3250000D03*
X-28950000Y2450000D03*
X-28950000Y3250000D03*
X-29750000Y2450000D03*
X-31050000Y11550000D03*
X-32350000Y11550000D03*
X-33650000Y11550000D03*
X-28950000Y8875000D03*
X-28950000Y7000000D03*
X-28950000Y5125000D03*
%TD*%
D15*
%TO.C,D1*%
X-12400000Y44600000D03*
X-8400000Y44600000D03*
%TD*%
D16*
%TO.C,U2*%
X-21575000Y42375000D03*
X-23275000Y42375000D03*
X-24975000Y42375000D03*
D17*
X-22200000Y35650000D03*
X-27750000Y35650000D03*
X-22200000Y30800000D03*
X-27750000Y30800000D03*
D16*
X-26675000Y42375000D03*
X-28375000Y42375000D03*
%TD*%
D18*
%TO.C,L1*%
X-5400000Y35000000D03*
X-15300000Y35000000D03*
%TD*%
D10*
%TO.C,R1*%
X-29500000Y54600000D03*
X-29500000Y57725000D03*
%TD*%
M02*
