%TF.GenerationSoftware,KiCad,Pcbnew,8.0.7*%
%TF.CreationDate,2025-01-18T17:17:35+01:00*%
%TF.ProjectId,tuff_tuff_pcb,74756666-5f74-4756-9666-5f7063622e6b,rev?*%
%TF.SameCoordinates,Original*%
%TF.FileFunction,Legend,Top*%
%TF.FilePolarity,Positive*%
%FSLAX46Y46*%
G04 Gerber Fmt 4.6, Leading zero omitted, Abs format (unit mm)*
G04 Created by KiCad (PCBNEW 8.0.7) date 2025-01-18 17:17:35*
%MOMM*%
%LPD*%
G01*
G04 APERTURE LIST*
G04 Aperture macros list*
%AMRoundRect*
0 Rectangle with rounded corners*
0 $1 Rounding radius*
0 $2 $3 $4 $5 $6 $7 $8 $9 X,Y pos of 4 corners*
0 Add a 4 corners polygon primitive as box body*
4,1,4,$2,$3,$4,$5,$6,$7,$8,$9,$2,$3,0*
0 Add four circle primitives for the rounded corners*
1,1,$1+$1,$2,$3*
1,1,$1+$1,$4,$5*
1,1,$1+$1,$6,$7*
1,1,$1+$1,$8,$9*
0 Add four rect primitives between the rounded corners*
20,1,$1+$1,$2,$3,$4,$5,0*
20,1,$1+$1,$4,$5,$6,$7,0*
20,1,$1+$1,$6,$7,$8,$9,0*
20,1,$1+$1,$8,$9,$2,$3,0*%
G04 Aperture macros list end*
%ADD10C,0.100000*%
%ADD11C,0.150000*%
%ADD12C,0.120000*%
%ADD13C,0.127000*%
%ADD14C,0.200000*%
%ADD15R,1.600000X1.600000*%
%ADD16C,1.600000*%
%ADD17C,2.000000*%
%ADD18RoundRect,0.250000X0.650000X-0.412500X0.650000X0.412500X-0.650000X0.412500X-0.650000X-0.412500X0*%
%ADD19R,1.500000X0.800000*%
%ADD20R,2.400000X0.740000*%
%ADD21RoundRect,0.100000X-0.100000X0.637500X-0.100000X-0.637500X0.100000X-0.637500X0.100000X0.637500X0*%
%ADD22RoundRect,0.102000X0.250000X-0.250000X0.250000X0.250000X-0.250000X0.250000X-0.250000X-0.250000X0*%
%ADD23RoundRect,0.250000X-1.000000X-0.650000X1.000000X-0.650000X1.000000X0.650000X-1.000000X0.650000X0*%
%ADD24RoundRect,0.250000X-0.300000X2.050000X-0.300000X-2.050000X0.300000X-2.050000X0.300000X2.050000X0*%
%ADD25RoundRect,0.250002X-5.149998X4.449998X-5.149998X-4.449998X5.149998X-4.449998X5.149998X4.449998X0*%
%ADD26R,1.350000X1.350000*%
%ADD27O,1.350000X1.350000*%
%ADD28R,2.900000X5.400000*%
G04 APERTURE END LIST*
D10*
X-12775200Y856266D02*
X-12727581Y999123D01*
X-12727581Y999123D02*
X-12727581Y1237218D01*
X-12727581Y1237218D02*
X-12775200Y1332456D01*
X-12775200Y1332456D02*
X-12822820Y1380075D01*
X-12822820Y1380075D02*
X-12918058Y1427694D01*
X-12918058Y1427694D02*
X-13013296Y1427694D01*
X-13013296Y1427694D02*
X-13108534Y1380075D01*
X-13108534Y1380075D02*
X-13156153Y1332456D01*
X-13156153Y1332456D02*
X-13203772Y1237218D01*
X-13203772Y1237218D02*
X-13251391Y1046742D01*
X-13251391Y1046742D02*
X-13299010Y951504D01*
X-13299010Y951504D02*
X-13346629Y903885D01*
X-13346629Y903885D02*
X-13441867Y856266D01*
X-13441867Y856266D02*
X-13537105Y856266D01*
X-13537105Y856266D02*
X-13632343Y903885D01*
X-13632343Y903885D02*
X-13679962Y951504D01*
X-13679962Y951504D02*
X-13727581Y1046742D01*
X-13727581Y1046742D02*
X-13727581Y1284837D01*
X-13727581Y1284837D02*
X-13679962Y1427694D01*
X-13727581Y1713409D02*
X-13727581Y2284837D01*
X-12727581Y1999123D02*
X-13727581Y1999123D01*
X-12727581Y2618171D02*
X-13727581Y2618171D01*
X-13727581Y2618171D02*
X-13727581Y2856266D01*
X-13727581Y2856266D02*
X-13679962Y2999123D01*
X-13679962Y2999123D02*
X-13584724Y3094361D01*
X-13584724Y3094361D02*
X-13489486Y3141980D01*
X-13489486Y3141980D02*
X-13299010Y3189599D01*
X-13299010Y3189599D02*
X-13156153Y3189599D01*
X-13156153Y3189599D02*
X-12965677Y3141980D01*
X-12965677Y3141980D02*
X-12870439Y3094361D01*
X-12870439Y3094361D02*
X-12775200Y2999123D01*
X-12775200Y2999123D02*
X-12727581Y2856266D01*
X-12727581Y2856266D02*
X-12727581Y2618171D01*
X-12822820Y4189599D02*
X-12775200Y4141980D01*
X-12775200Y4141980D02*
X-12727581Y3999123D01*
X-12727581Y3999123D02*
X-12727581Y3903885D01*
X-12727581Y3903885D02*
X-12775200Y3761028D01*
X-12775200Y3761028D02*
X-12870439Y3665790D01*
X-12870439Y3665790D02*
X-12965677Y3618171D01*
X-12965677Y3618171D02*
X-13156153Y3570552D01*
X-13156153Y3570552D02*
X-13299010Y3570552D01*
X-13299010Y3570552D02*
X-13489486Y3618171D01*
X-13489486Y3618171D02*
X-13584724Y3665790D01*
X-13584724Y3665790D02*
X-13679962Y3761028D01*
X-13679962Y3761028D02*
X-13727581Y3903885D01*
X-13727581Y3903885D02*
X-13727581Y3999123D01*
X-13727581Y3999123D02*
X-13679962Y4141980D01*
X-13679962Y4141980D02*
X-13632343Y4189599D01*
X-12727581Y5903885D02*
X-12727581Y5332457D01*
X-12727581Y5618171D02*
X-13727581Y5618171D01*
X-13727581Y5618171D02*
X-13584724Y5522933D01*
X-13584724Y5522933D02*
X-13489486Y5427695D01*
X-13489486Y5427695D02*
X-13441867Y5332457D01*
X-13394248Y6761028D02*
X-12727581Y6761028D01*
X-13775200Y6522933D02*
X-13060915Y6284838D01*
X-13060915Y6284838D02*
X-13060915Y6903885D01*
X-12727581Y8046743D02*
X-13727581Y8046743D01*
X-13727581Y8046743D02*
X-13727581Y8284838D01*
X-13727581Y8284838D02*
X-13679962Y8427695D01*
X-13679962Y8427695D02*
X-13584724Y8522933D01*
X-13584724Y8522933D02*
X-13489486Y8570552D01*
X-13489486Y8570552D02*
X-13299010Y8618171D01*
X-13299010Y8618171D02*
X-13156153Y8618171D01*
X-13156153Y8618171D02*
X-12965677Y8570552D01*
X-12965677Y8570552D02*
X-12870439Y8522933D01*
X-12870439Y8522933D02*
X-12775200Y8427695D01*
X-12775200Y8427695D02*
X-12727581Y8284838D01*
X-12727581Y8284838D02*
X-12727581Y8046743D01*
X-12775200Y9427695D02*
X-12727581Y9332457D01*
X-12727581Y9332457D02*
X-12727581Y9141981D01*
X-12727581Y9141981D02*
X-12775200Y9046743D01*
X-12775200Y9046743D02*
X-12870439Y8999124D01*
X-12870439Y8999124D02*
X-13251391Y8999124D01*
X-13251391Y8999124D02*
X-13346629Y9046743D01*
X-13346629Y9046743D02*
X-13394248Y9141981D01*
X-13394248Y9141981D02*
X-13394248Y9332457D01*
X-13394248Y9332457D02*
X-13346629Y9427695D01*
X-13346629Y9427695D02*
X-13251391Y9475314D01*
X-13251391Y9475314D02*
X-13156153Y9475314D01*
X-13156153Y9475314D02*
X-13060915Y8999124D01*
X-12727581Y9903886D02*
X-13727581Y9903886D01*
X-13346629Y9903886D02*
X-13394248Y9999124D01*
X-13394248Y9999124D02*
X-13394248Y10189600D01*
X-13394248Y10189600D02*
X-13346629Y10284838D01*
X-13346629Y10284838D02*
X-13299010Y10332457D01*
X-13299010Y10332457D02*
X-13203772Y10380076D01*
X-13203772Y10380076D02*
X-12918058Y10380076D01*
X-12918058Y10380076D02*
X-12822820Y10332457D01*
X-12822820Y10332457D02*
X-12775200Y10284838D01*
X-12775200Y10284838D02*
X-12727581Y10189600D01*
X-12727581Y10189600D02*
X-12727581Y9999124D01*
X-12727581Y9999124D02*
X-12775200Y9903886D01*
X-13394248Y11237219D02*
X-12727581Y11237219D01*
X-13394248Y10808648D02*
X-12870439Y10808648D01*
X-12870439Y10808648D02*
X-12775200Y10856267D01*
X-12775200Y10856267D02*
X-12727581Y10951505D01*
X-12727581Y10951505D02*
X-12727581Y11094362D01*
X-12727581Y11094362D02*
X-12775200Y11189600D01*
X-12775200Y11189600D02*
X-12822820Y11237219D01*
X-13394248Y12141981D02*
X-12584724Y12141981D01*
X-12584724Y12141981D02*
X-12489486Y12094362D01*
X-12489486Y12094362D02*
X-12441867Y12046743D01*
X-12441867Y12046743D02*
X-12394248Y11951505D01*
X-12394248Y11951505D02*
X-12394248Y11808648D01*
X-12394248Y11808648D02*
X-12441867Y11713410D01*
X-12775200Y12141981D02*
X-12727581Y12046743D01*
X-12727581Y12046743D02*
X-12727581Y11856267D01*
X-12727581Y11856267D02*
X-12775200Y11761029D01*
X-12775200Y11761029D02*
X-12822820Y11713410D01*
X-12822820Y11713410D02*
X-12918058Y11665791D01*
X-12918058Y11665791D02*
X-13203772Y11665791D01*
X-13203772Y11665791D02*
X-13299010Y11713410D01*
X-13299010Y11713410D02*
X-13346629Y11761029D01*
X-13346629Y11761029D02*
X-13394248Y11856267D01*
X-13394248Y11856267D02*
X-13394248Y12046743D01*
X-13394248Y12046743D02*
X-13346629Y12141981D01*
X-20572307Y49679962D02*
X-20667545Y49727581D01*
X-20667545Y49727581D02*
X-20810402Y49727581D01*
X-20810402Y49727581D02*
X-20953259Y49679962D01*
X-20953259Y49679962D02*
X-21048497Y49584724D01*
X-21048497Y49584724D02*
X-21096116Y49489486D01*
X-21096116Y49489486D02*
X-21143735Y49299010D01*
X-21143735Y49299010D02*
X-21143735Y49156153D01*
X-21143735Y49156153D02*
X-21096116Y48965677D01*
X-21096116Y48965677D02*
X-21048497Y48870439D01*
X-21048497Y48870439D02*
X-20953259Y48775200D01*
X-20953259Y48775200D02*
X-20810402Y48727581D01*
X-20810402Y48727581D02*
X-20715164Y48727581D01*
X-20715164Y48727581D02*
X-20572307Y48775200D01*
X-20572307Y48775200D02*
X-20524688Y48822820D01*
X-20524688Y48822820D02*
X-20524688Y49156153D01*
X-20524688Y49156153D02*
X-20715164Y49156153D01*
X-20096116Y48727581D02*
X-20096116Y49727581D01*
X-20096116Y49727581D02*
X-19524688Y48727581D01*
X-19524688Y48727581D02*
X-19524688Y49727581D01*
X-19048497Y48727581D02*
X-19048497Y49727581D01*
X-19048497Y49727581D02*
X-18810402Y49727581D01*
X-18810402Y49727581D02*
X-18667545Y49679962D01*
X-18667545Y49679962D02*
X-18572307Y49584724D01*
X-18572307Y49584724D02*
X-18524688Y49489486D01*
X-18524688Y49489486D02*
X-18477069Y49299010D01*
X-18477069Y49299010D02*
X-18477069Y49156153D01*
X-18477069Y49156153D02*
X-18524688Y48965677D01*
X-18524688Y48965677D02*
X-18572307Y48870439D01*
X-18572307Y48870439D02*
X-18667545Y48775200D01*
X-18667545Y48775200D02*
X-18810402Y48727581D01*
X-18810402Y48727581D02*
X-19048497Y48727581D01*
X-28162783Y49251391D02*
X-28019926Y49203772D01*
X-28019926Y49203772D02*
X-27972307Y49156153D01*
X-27972307Y49156153D02*
X-27924688Y49060915D01*
X-27924688Y49060915D02*
X-27924688Y48918058D01*
X-27924688Y48918058D02*
X-27972307Y48822820D01*
X-27972307Y48822820D02*
X-28019926Y48775200D01*
X-28019926Y48775200D02*
X-28115164Y48727581D01*
X-28115164Y48727581D02*
X-28496116Y48727581D01*
X-28496116Y48727581D02*
X-28496116Y49727581D01*
X-28496116Y49727581D02*
X-28162783Y49727581D01*
X-28162783Y49727581D02*
X-28067545Y49679962D01*
X-28067545Y49679962D02*
X-28019926Y49632343D01*
X-28019926Y49632343D02*
X-27972307Y49537105D01*
X-27972307Y49537105D02*
X-27972307Y49441867D01*
X-27972307Y49441867D02*
X-28019926Y49346629D01*
X-28019926Y49346629D02*
X-28067545Y49299010D01*
X-28067545Y49299010D02*
X-28162783Y49251391D01*
X-28162783Y49251391D02*
X-28496116Y49251391D01*
X-8238973Y50127581D02*
X-7905640Y49127581D01*
X-7905640Y49127581D02*
X-7572307Y50127581D01*
X-7238973Y49127581D02*
X-7238973Y50127581D01*
X-6762783Y49127581D02*
X-6762783Y50127581D01*
X-6762783Y50127581D02*
X-6191355Y49127581D01*
X-6191355Y49127581D02*
X-6191355Y50127581D01*
X-13296116Y20727581D02*
X-13296116Y19918058D01*
X-13296116Y19918058D02*
X-13248497Y19822820D01*
X-13248497Y19822820D02*
X-13200878Y19775200D01*
X-13200878Y19775200D02*
X-13105640Y19727581D01*
X-13105640Y19727581D02*
X-12915164Y19727581D01*
X-12915164Y19727581D02*
X-12819926Y19775200D01*
X-12819926Y19775200D02*
X-12772307Y19822820D01*
X-12772307Y19822820D02*
X-12724688Y19918058D01*
X-12724688Y19918058D02*
X-12724688Y20727581D01*
X-12296116Y19775200D02*
X-12153259Y19727581D01*
X-12153259Y19727581D02*
X-11915164Y19727581D01*
X-11915164Y19727581D02*
X-11819926Y19775200D01*
X-11819926Y19775200D02*
X-11772307Y19822820D01*
X-11772307Y19822820D02*
X-11724688Y19918058D01*
X-11724688Y19918058D02*
X-11724688Y20013296D01*
X-11724688Y20013296D02*
X-11772307Y20108534D01*
X-11772307Y20108534D02*
X-11819926Y20156153D01*
X-11819926Y20156153D02*
X-11915164Y20203772D01*
X-11915164Y20203772D02*
X-12105640Y20251391D01*
X-12105640Y20251391D02*
X-12200878Y20299010D01*
X-12200878Y20299010D02*
X-12248497Y20346629D01*
X-12248497Y20346629D02*
X-12296116Y20441867D01*
X-12296116Y20441867D02*
X-12296116Y20537105D01*
X-12296116Y20537105D02*
X-12248497Y20632343D01*
X-12248497Y20632343D02*
X-12200878Y20679962D01*
X-12200878Y20679962D02*
X-12105640Y20727581D01*
X-12105640Y20727581D02*
X-11867545Y20727581D01*
X-11867545Y20727581D02*
X-11724688Y20679962D01*
X-10962783Y20251391D02*
X-10819926Y20203772D01*
X-10819926Y20203772D02*
X-10772307Y20156153D01*
X-10772307Y20156153D02*
X-10724688Y20060915D01*
X-10724688Y20060915D02*
X-10724688Y19918058D01*
X-10724688Y19918058D02*
X-10772307Y19822820D01*
X-10772307Y19822820D02*
X-10819926Y19775200D01*
X-10819926Y19775200D02*
X-10915164Y19727581D01*
X-10915164Y19727581D02*
X-11296116Y19727581D01*
X-11296116Y19727581D02*
X-11296116Y20727581D01*
X-11296116Y20727581D02*
X-10962783Y20727581D01*
X-10962783Y20727581D02*
X-10867545Y20679962D01*
X-10867545Y20679962D02*
X-10819926Y20632343D01*
X-10819926Y20632343D02*
X-10772307Y20537105D01*
X-10772307Y20537105D02*
X-10772307Y20441867D01*
X-10772307Y20441867D02*
X-10819926Y20346629D01*
X-10819926Y20346629D02*
X-10867545Y20299010D01*
X-10867545Y20299010D02*
X-10962783Y20251391D01*
X-10962783Y20251391D02*
X-11296116Y20251391D01*
X-9534211Y19727581D02*
X-9534211Y20727581D01*
X-9534211Y20727581D02*
X-9296116Y20727581D01*
X-9296116Y20727581D02*
X-9153259Y20679962D01*
X-9153259Y20679962D02*
X-9058021Y20584724D01*
X-9058021Y20584724D02*
X-9010402Y20489486D01*
X-9010402Y20489486D02*
X-8962783Y20299010D01*
X-8962783Y20299010D02*
X-8962783Y20156153D01*
X-8962783Y20156153D02*
X-9010402Y19965677D01*
X-9010402Y19965677D02*
X-9058021Y19870439D01*
X-9058021Y19870439D02*
X-9153259Y19775200D01*
X-9153259Y19775200D02*
X-9296116Y19727581D01*
X-9296116Y19727581D02*
X-9534211Y19727581D01*
X-8534211Y20108534D02*
X-7772306Y20108534D01*
X-13496116Y25127581D02*
X-13496116Y24318058D01*
X-13496116Y24318058D02*
X-13448497Y24222820D01*
X-13448497Y24222820D02*
X-13400878Y24175200D01*
X-13400878Y24175200D02*
X-13305640Y24127581D01*
X-13305640Y24127581D02*
X-13115164Y24127581D01*
X-13115164Y24127581D02*
X-13019926Y24175200D01*
X-13019926Y24175200D02*
X-12972307Y24222820D01*
X-12972307Y24222820D02*
X-12924688Y24318058D01*
X-12924688Y24318058D02*
X-12924688Y25127581D01*
X-12496116Y24175200D02*
X-12353259Y24127581D01*
X-12353259Y24127581D02*
X-12115164Y24127581D01*
X-12115164Y24127581D02*
X-12019926Y24175200D01*
X-12019926Y24175200D02*
X-11972307Y24222820D01*
X-11972307Y24222820D02*
X-11924688Y24318058D01*
X-11924688Y24318058D02*
X-11924688Y24413296D01*
X-11924688Y24413296D02*
X-11972307Y24508534D01*
X-11972307Y24508534D02*
X-12019926Y24556153D01*
X-12019926Y24556153D02*
X-12115164Y24603772D01*
X-12115164Y24603772D02*
X-12305640Y24651391D01*
X-12305640Y24651391D02*
X-12400878Y24699010D01*
X-12400878Y24699010D02*
X-12448497Y24746629D01*
X-12448497Y24746629D02*
X-12496116Y24841867D01*
X-12496116Y24841867D02*
X-12496116Y24937105D01*
X-12496116Y24937105D02*
X-12448497Y25032343D01*
X-12448497Y25032343D02*
X-12400878Y25079962D01*
X-12400878Y25079962D02*
X-12305640Y25127581D01*
X-12305640Y25127581D02*
X-12067545Y25127581D01*
X-12067545Y25127581D02*
X-11924688Y25079962D01*
X-11162783Y24651391D02*
X-11019926Y24603772D01*
X-11019926Y24603772D02*
X-10972307Y24556153D01*
X-10972307Y24556153D02*
X-10924688Y24460915D01*
X-10924688Y24460915D02*
X-10924688Y24318058D01*
X-10924688Y24318058D02*
X-10972307Y24222820D01*
X-10972307Y24222820D02*
X-11019926Y24175200D01*
X-11019926Y24175200D02*
X-11115164Y24127581D01*
X-11115164Y24127581D02*
X-11496116Y24127581D01*
X-11496116Y24127581D02*
X-11496116Y25127581D01*
X-11496116Y25127581D02*
X-11162783Y25127581D01*
X-11162783Y25127581D02*
X-11067545Y25079962D01*
X-11067545Y25079962D02*
X-11019926Y25032343D01*
X-11019926Y25032343D02*
X-10972307Y24937105D01*
X-10972307Y24937105D02*
X-10972307Y24841867D01*
X-10972307Y24841867D02*
X-11019926Y24746629D01*
X-11019926Y24746629D02*
X-11067545Y24699010D01*
X-11067545Y24699010D02*
X-11162783Y24651391D01*
X-11162783Y24651391D02*
X-11496116Y24651391D01*
X-9734211Y24127581D02*
X-9734211Y25127581D01*
X-9734211Y25127581D02*
X-9496116Y25127581D01*
X-9496116Y25127581D02*
X-9353259Y25079962D01*
X-9353259Y25079962D02*
X-9258021Y24984724D01*
X-9258021Y24984724D02*
X-9210402Y24889486D01*
X-9210402Y24889486D02*
X-9162783Y24699010D01*
X-9162783Y24699010D02*
X-9162783Y24556153D01*
X-9162783Y24556153D02*
X-9210402Y24365677D01*
X-9210402Y24365677D02*
X-9258021Y24270439D01*
X-9258021Y24270439D02*
X-9353259Y24175200D01*
X-9353259Y24175200D02*
X-9496116Y24127581D01*
X-9496116Y24127581D02*
X-9734211Y24127581D01*
X-8734211Y24508534D02*
X-7972306Y24508534D01*
X-8353259Y24127581D02*
X-8353259Y24889486D01*
X-29924688Y48727581D02*
X-30258021Y49203772D01*
X-30496116Y48727581D02*
X-30496116Y49727581D01*
X-30496116Y49727581D02*
X-30115164Y49727581D01*
X-30115164Y49727581D02*
X-30019926Y49679962D01*
X-30019926Y49679962D02*
X-29972307Y49632343D01*
X-29972307Y49632343D02*
X-29924688Y49537105D01*
X-29924688Y49537105D02*
X-29924688Y49394248D01*
X-29924688Y49394248D02*
X-29972307Y49299010D01*
X-29972307Y49299010D02*
X-30019926Y49251391D01*
X-30019926Y49251391D02*
X-30115164Y49203772D01*
X-30115164Y49203772D02*
X-30496116Y49203772D01*
X-14896116Y16327581D02*
X-14896116Y15518058D01*
X-14896116Y15518058D02*
X-14848497Y15422820D01*
X-14848497Y15422820D02*
X-14800878Y15375200D01*
X-14800878Y15375200D02*
X-14705640Y15327581D01*
X-14705640Y15327581D02*
X-14515164Y15327581D01*
X-14515164Y15327581D02*
X-14419926Y15375200D01*
X-14419926Y15375200D02*
X-14372307Y15422820D01*
X-14372307Y15422820D02*
X-14324688Y15518058D01*
X-14324688Y15518058D02*
X-14324688Y16327581D01*
X-13896116Y15375200D02*
X-13753259Y15327581D01*
X-13753259Y15327581D02*
X-13515164Y15327581D01*
X-13515164Y15327581D02*
X-13419926Y15375200D01*
X-13419926Y15375200D02*
X-13372307Y15422820D01*
X-13372307Y15422820D02*
X-13324688Y15518058D01*
X-13324688Y15518058D02*
X-13324688Y15613296D01*
X-13324688Y15613296D02*
X-13372307Y15708534D01*
X-13372307Y15708534D02*
X-13419926Y15756153D01*
X-13419926Y15756153D02*
X-13515164Y15803772D01*
X-13515164Y15803772D02*
X-13705640Y15851391D01*
X-13705640Y15851391D02*
X-13800878Y15899010D01*
X-13800878Y15899010D02*
X-13848497Y15946629D01*
X-13848497Y15946629D02*
X-13896116Y16041867D01*
X-13896116Y16041867D02*
X-13896116Y16137105D01*
X-13896116Y16137105D02*
X-13848497Y16232343D01*
X-13848497Y16232343D02*
X-13800878Y16279962D01*
X-13800878Y16279962D02*
X-13705640Y16327581D01*
X-13705640Y16327581D02*
X-13467545Y16327581D01*
X-13467545Y16327581D02*
X-13324688Y16279962D01*
X-12562783Y15851391D02*
X-12419926Y15803772D01*
X-12419926Y15803772D02*
X-12372307Y15756153D01*
X-12372307Y15756153D02*
X-12324688Y15660915D01*
X-12324688Y15660915D02*
X-12324688Y15518058D01*
X-12324688Y15518058D02*
X-12372307Y15422820D01*
X-12372307Y15422820D02*
X-12419926Y15375200D01*
X-12419926Y15375200D02*
X-12515164Y15327581D01*
X-12515164Y15327581D02*
X-12896116Y15327581D01*
X-12896116Y15327581D02*
X-12896116Y16327581D01*
X-12896116Y16327581D02*
X-12562783Y16327581D01*
X-12562783Y16327581D02*
X-12467545Y16279962D01*
X-12467545Y16279962D02*
X-12419926Y16232343D01*
X-12419926Y16232343D02*
X-12372307Y16137105D01*
X-12372307Y16137105D02*
X-12372307Y16041867D01*
X-12372307Y16041867D02*
X-12419926Y15946629D01*
X-12419926Y15946629D02*
X-12467545Y15899010D01*
X-12467545Y15899010D02*
X-12562783Y15851391D01*
X-12562783Y15851391D02*
X-12896116Y15851391D01*
X-11277068Y16327581D02*
X-10943735Y15327581D01*
X-10943735Y15327581D02*
X-10610402Y16327581D01*
X-9943735Y15851391D02*
X-9800878Y15803772D01*
X-9800878Y15803772D02*
X-9753259Y15756153D01*
X-9753259Y15756153D02*
X-9705640Y15660915D01*
X-9705640Y15660915D02*
X-9705640Y15518058D01*
X-9705640Y15518058D02*
X-9753259Y15422820D01*
X-9753259Y15422820D02*
X-9800878Y15375200D01*
X-9800878Y15375200D02*
X-9896116Y15327581D01*
X-9896116Y15327581D02*
X-10277068Y15327581D01*
X-10277068Y15327581D02*
X-10277068Y16327581D01*
X-10277068Y16327581D02*
X-9943735Y16327581D01*
X-9943735Y16327581D02*
X-9848497Y16279962D01*
X-9848497Y16279962D02*
X-9800878Y16232343D01*
X-9800878Y16232343D02*
X-9753259Y16137105D01*
X-9753259Y16137105D02*
X-9753259Y16041867D01*
X-9753259Y16041867D02*
X-9800878Y15946629D01*
X-9800878Y15946629D02*
X-9848497Y15899010D01*
X-9848497Y15899010D02*
X-9943735Y15851391D01*
X-9943735Y15851391D02*
X-10277068Y15851391D01*
X-9277068Y16327581D02*
X-9277068Y15518058D01*
X-9277068Y15518058D02*
X-9229449Y15422820D01*
X-9229449Y15422820D02*
X-9181830Y15375200D01*
X-9181830Y15375200D02*
X-9086592Y15327581D01*
X-9086592Y15327581D02*
X-8896116Y15327581D01*
X-8896116Y15327581D02*
X-8800878Y15375200D01*
X-8800878Y15375200D02*
X-8753259Y15422820D01*
X-8753259Y15422820D02*
X-8705640Y15518058D01*
X-8705640Y15518058D02*
X-8705640Y16327581D01*
X-8277068Y15375200D02*
X-8134211Y15327581D01*
X-8134211Y15327581D02*
X-7896116Y15327581D01*
X-7896116Y15327581D02*
X-7800878Y15375200D01*
X-7800878Y15375200D02*
X-7753259Y15422820D01*
X-7753259Y15422820D02*
X-7705640Y15518058D01*
X-7705640Y15518058D02*
X-7705640Y15613296D01*
X-7705640Y15613296D02*
X-7753259Y15708534D01*
X-7753259Y15708534D02*
X-7800878Y15756153D01*
X-7800878Y15756153D02*
X-7896116Y15803772D01*
X-7896116Y15803772D02*
X-8086592Y15851391D01*
X-8086592Y15851391D02*
X-8181830Y15899010D01*
X-8181830Y15899010D02*
X-8229449Y15946629D01*
X-8229449Y15946629D02*
X-8277068Y16041867D01*
X-8277068Y16041867D02*
X-8277068Y16137105D01*
X-8277068Y16137105D02*
X-8229449Y16232343D01*
X-8229449Y16232343D02*
X-8181830Y16279962D01*
X-8181830Y16279962D02*
X-8086592Y16327581D01*
X-8086592Y16327581D02*
X-7848497Y16327581D01*
X-7848497Y16327581D02*
X-7705640Y16279962D01*
X-34038973Y48327581D02*
X-33467545Y48327581D01*
X-33753259Y47327581D02*
X-33753259Y48327581D01*
X-33134211Y47327581D02*
X-33134211Y47994248D01*
X-33134211Y47803772D02*
X-33086592Y47899010D01*
X-33086592Y47899010D02*
X-33038973Y47946629D01*
X-33038973Y47946629D02*
X-32943735Y47994248D01*
X-32943735Y47994248D02*
X-32848497Y47994248D01*
X-32086592Y47327581D02*
X-32086592Y47851391D01*
X-32086592Y47851391D02*
X-32134211Y47946629D01*
X-32134211Y47946629D02*
X-32229449Y47994248D01*
X-32229449Y47994248D02*
X-32419925Y47994248D01*
X-32419925Y47994248D02*
X-32515163Y47946629D01*
X-32086592Y47375200D02*
X-32181830Y47327581D01*
X-32181830Y47327581D02*
X-32419925Y47327581D01*
X-32419925Y47327581D02*
X-32515163Y47375200D01*
X-32515163Y47375200D02*
X-32562782Y47470439D01*
X-32562782Y47470439D02*
X-32562782Y47565677D01*
X-32562782Y47565677D02*
X-32515163Y47660915D01*
X-32515163Y47660915D02*
X-32419925Y47708534D01*
X-32419925Y47708534D02*
X-32181830Y47708534D01*
X-32181830Y47708534D02*
X-32086592Y47756153D01*
X-31181830Y47375200D02*
X-31277068Y47327581D01*
X-31277068Y47327581D02*
X-31467544Y47327581D01*
X-31467544Y47327581D02*
X-31562782Y47375200D01*
X-31562782Y47375200D02*
X-31610401Y47422820D01*
X-31610401Y47422820D02*
X-31658020Y47518058D01*
X-31658020Y47518058D02*
X-31658020Y47803772D01*
X-31658020Y47803772D02*
X-31610401Y47899010D01*
X-31610401Y47899010D02*
X-31562782Y47946629D01*
X-31562782Y47946629D02*
X-31467544Y47994248D01*
X-31467544Y47994248D02*
X-31277068Y47994248D01*
X-31277068Y47994248D02*
X-31181830Y47946629D01*
X-30896115Y47994248D02*
X-30515163Y47994248D01*
X-30753258Y48327581D02*
X-30753258Y47470439D01*
X-30753258Y47470439D02*
X-30705639Y47375200D01*
X-30705639Y47375200D02*
X-30610401Y47327581D01*
X-30610401Y47327581D02*
X-30515163Y47327581D01*
X-30038972Y47327581D02*
X-30134210Y47375200D01*
X-30134210Y47375200D02*
X-30181829Y47422820D01*
X-30181829Y47422820D02*
X-30229448Y47518058D01*
X-30229448Y47518058D02*
X-30229448Y47803772D01*
X-30229448Y47803772D02*
X-30181829Y47899010D01*
X-30181829Y47899010D02*
X-30134210Y47946629D01*
X-30134210Y47946629D02*
X-30038972Y47994248D01*
X-30038972Y47994248D02*
X-29896115Y47994248D01*
X-29896115Y47994248D02*
X-29800877Y47946629D01*
X-29800877Y47946629D02*
X-29753258Y47899010D01*
X-29753258Y47899010D02*
X-29705639Y47803772D01*
X-29705639Y47803772D02*
X-29705639Y47518058D01*
X-29705639Y47518058D02*
X-29753258Y47422820D01*
X-29753258Y47422820D02*
X-29800877Y47375200D01*
X-29800877Y47375200D02*
X-29896115Y47327581D01*
X-29896115Y47327581D02*
X-30038972Y47327581D01*
X-29277067Y47327581D02*
X-29277067Y47994248D01*
X-29277067Y47803772D02*
X-29229448Y47899010D01*
X-29229448Y47899010D02*
X-29181829Y47946629D01*
X-29181829Y47946629D02*
X-29086591Y47994248D01*
X-29086591Y47994248D02*
X-28991353Y47994248D01*
X-27324686Y47422820D02*
X-27372305Y47375200D01*
X-27372305Y47375200D02*
X-27515162Y47327581D01*
X-27515162Y47327581D02*
X-27610400Y47327581D01*
X-27610400Y47327581D02*
X-27753257Y47375200D01*
X-27753257Y47375200D02*
X-27848495Y47470439D01*
X-27848495Y47470439D02*
X-27896114Y47565677D01*
X-27896114Y47565677D02*
X-27943733Y47756153D01*
X-27943733Y47756153D02*
X-27943733Y47899010D01*
X-27943733Y47899010D02*
X-27896114Y48089486D01*
X-27896114Y48089486D02*
X-27848495Y48184724D01*
X-27848495Y48184724D02*
X-27753257Y48279962D01*
X-27753257Y48279962D02*
X-27610400Y48327581D01*
X-27610400Y48327581D02*
X-27515162Y48327581D01*
X-27515162Y48327581D02*
X-27372305Y48279962D01*
X-27372305Y48279962D02*
X-27324686Y48232343D01*
X-26753257Y47327581D02*
X-26848495Y47375200D01*
X-26848495Y47375200D02*
X-26896114Y47422820D01*
X-26896114Y47422820D02*
X-26943733Y47518058D01*
X-26943733Y47518058D02*
X-26943733Y47803772D01*
X-26943733Y47803772D02*
X-26896114Y47899010D01*
X-26896114Y47899010D02*
X-26848495Y47946629D01*
X-26848495Y47946629D02*
X-26753257Y47994248D01*
X-26753257Y47994248D02*
X-26610400Y47994248D01*
X-26610400Y47994248D02*
X-26515162Y47946629D01*
X-26515162Y47946629D02*
X-26467543Y47899010D01*
X-26467543Y47899010D02*
X-26419924Y47803772D01*
X-26419924Y47803772D02*
X-26419924Y47518058D01*
X-26419924Y47518058D02*
X-26467543Y47422820D01*
X-26467543Y47422820D02*
X-26515162Y47375200D01*
X-26515162Y47375200D02*
X-26610400Y47327581D01*
X-26610400Y47327581D02*
X-26753257Y47327581D01*
X-25991352Y47994248D02*
X-25991352Y47327581D01*
X-25991352Y47899010D02*
X-25943733Y47946629D01*
X-25943733Y47946629D02*
X-25848495Y47994248D01*
X-25848495Y47994248D02*
X-25705638Y47994248D01*
X-25705638Y47994248D02*
X-25610400Y47946629D01*
X-25610400Y47946629D02*
X-25562781Y47851391D01*
X-25562781Y47851391D02*
X-25562781Y47327581D01*
X-25086590Y47994248D02*
X-25086590Y47327581D01*
X-25086590Y47899010D02*
X-25038971Y47946629D01*
X-25038971Y47946629D02*
X-24943733Y47994248D01*
X-24943733Y47994248D02*
X-24800876Y47994248D01*
X-24800876Y47994248D02*
X-24705638Y47946629D01*
X-24705638Y47946629D02*
X-24658019Y47851391D01*
X-24658019Y47851391D02*
X-24658019Y47327581D01*
X-23800876Y47375200D02*
X-23896114Y47327581D01*
X-23896114Y47327581D02*
X-24086590Y47327581D01*
X-24086590Y47327581D02*
X-24181828Y47375200D01*
X-24181828Y47375200D02*
X-24229447Y47470439D01*
X-24229447Y47470439D02*
X-24229447Y47851391D01*
X-24229447Y47851391D02*
X-24181828Y47946629D01*
X-24181828Y47946629D02*
X-24086590Y47994248D01*
X-24086590Y47994248D02*
X-23896114Y47994248D01*
X-23896114Y47994248D02*
X-23800876Y47946629D01*
X-23800876Y47946629D02*
X-23753257Y47851391D01*
X-23753257Y47851391D02*
X-23753257Y47756153D01*
X-23753257Y47756153D02*
X-24229447Y47660915D01*
X-22896114Y47375200D02*
X-22991352Y47327581D01*
X-22991352Y47327581D02*
X-23181828Y47327581D01*
X-23181828Y47327581D02*
X-23277066Y47375200D01*
X-23277066Y47375200D02*
X-23324685Y47422820D01*
X-23324685Y47422820D02*
X-23372304Y47518058D01*
X-23372304Y47518058D02*
X-23372304Y47803772D01*
X-23372304Y47803772D02*
X-23324685Y47899010D01*
X-23324685Y47899010D02*
X-23277066Y47946629D01*
X-23277066Y47946629D02*
X-23181828Y47994248D01*
X-23181828Y47994248D02*
X-22991352Y47994248D01*
X-22991352Y47994248D02*
X-22896114Y47946629D01*
X-22610399Y47994248D02*
X-22229447Y47994248D01*
X-22467542Y48327581D02*
X-22467542Y47470439D01*
X-22467542Y47470439D02*
X-22419923Y47375200D01*
X-22419923Y47375200D02*
X-22324685Y47327581D01*
X-22324685Y47327581D02*
X-22229447Y47327581D01*
X-21753256Y47327581D02*
X-21848494Y47375200D01*
X-21848494Y47375200D02*
X-21896113Y47422820D01*
X-21896113Y47422820D02*
X-21943732Y47518058D01*
X-21943732Y47518058D02*
X-21943732Y47803772D01*
X-21943732Y47803772D02*
X-21896113Y47899010D01*
X-21896113Y47899010D02*
X-21848494Y47946629D01*
X-21848494Y47946629D02*
X-21753256Y47994248D01*
X-21753256Y47994248D02*
X-21610399Y47994248D01*
X-21610399Y47994248D02*
X-21515161Y47946629D01*
X-21515161Y47946629D02*
X-21467542Y47899010D01*
X-21467542Y47899010D02*
X-21419923Y47803772D01*
X-21419923Y47803772D02*
X-21419923Y47518058D01*
X-21419923Y47518058D02*
X-21467542Y47422820D01*
X-21467542Y47422820D02*
X-21515161Y47375200D01*
X-21515161Y47375200D02*
X-21610399Y47327581D01*
X-21610399Y47327581D02*
X-21753256Y47327581D01*
X-20991351Y47327581D02*
X-20991351Y47994248D01*
X-20991351Y47803772D02*
X-20943732Y47899010D01*
X-20943732Y47899010D02*
X-20896113Y47946629D01*
X-20896113Y47946629D02*
X-20800875Y47994248D01*
X-20800875Y47994248D02*
X-20705637Y47994248D01*
X-22496116Y48727581D02*
X-22496116Y49727581D01*
X-22496116Y49727581D02*
X-22258021Y49727581D01*
X-22258021Y49727581D02*
X-22115164Y49679962D01*
X-22115164Y49679962D02*
X-22019926Y49584724D01*
X-22019926Y49584724D02*
X-21972307Y49489486D01*
X-21972307Y49489486D02*
X-21924688Y49299010D01*
X-21924688Y49299010D02*
X-21924688Y49156153D01*
X-21924688Y49156153D02*
X-21972307Y48965677D01*
X-21972307Y48965677D02*
X-22019926Y48870439D01*
X-22019926Y48870439D02*
X-22115164Y48775200D01*
X-22115164Y48775200D02*
X-22258021Y48727581D01*
X-22258021Y48727581D02*
X-22496116Y48727581D01*
X-25924688Y48727581D02*
X-26258021Y49203772D01*
X-26496116Y48727581D02*
X-26496116Y49727581D01*
X-26496116Y49727581D02*
X-26115164Y49727581D01*
X-26115164Y49727581D02*
X-26019926Y49679962D01*
X-26019926Y49679962D02*
X-25972307Y49632343D01*
X-25972307Y49632343D02*
X-25924688Y49537105D01*
X-25924688Y49537105D02*
X-25924688Y49394248D01*
X-25924688Y49394248D02*
X-25972307Y49299010D01*
X-25972307Y49299010D02*
X-26019926Y49251391D01*
X-26019926Y49251391D02*
X-26115164Y49203772D01*
X-26115164Y49203772D02*
X-26496116Y49203772D01*
X-24019926Y48727581D02*
X-24496116Y48727581D01*
X-24496116Y48727581D02*
X-24496116Y49727581D01*
X-5791354Y43327581D02*
X-5172307Y43327581D01*
X-5172307Y43327581D02*
X-5505640Y42946629D01*
X-5505640Y42946629D02*
X-5362783Y42946629D01*
X-5362783Y42946629D02*
X-5267545Y42899010D01*
X-5267545Y42899010D02*
X-5219926Y42851391D01*
X-5219926Y42851391D02*
X-5172307Y42756153D01*
X-5172307Y42756153D02*
X-5172307Y42518058D01*
X-5172307Y42518058D02*
X-5219926Y42422820D01*
X-5219926Y42422820D02*
X-5267545Y42375200D01*
X-5267545Y42375200D02*
X-5362783Y42327581D01*
X-5362783Y42327581D02*
X-5648497Y42327581D01*
X-5648497Y42327581D02*
X-5743735Y42375200D01*
X-5743735Y42375200D02*
X-5791354Y42422820D01*
X-4743735Y42422820D02*
X-4696116Y42375200D01*
X-4696116Y42375200D02*
X-4743735Y42327581D01*
X-4743735Y42327581D02*
X-4791354Y42375200D01*
X-4791354Y42375200D02*
X-4743735Y42422820D01*
X-4743735Y42422820D02*
X-4743735Y42327581D01*
X-4362783Y43327581D02*
X-3743736Y43327581D01*
X-3743736Y43327581D02*
X-4077069Y42946629D01*
X-4077069Y42946629D02*
X-3934212Y42946629D01*
X-3934212Y42946629D02*
X-3838974Y42899010D01*
X-3838974Y42899010D02*
X-3791355Y42851391D01*
X-3791355Y42851391D02*
X-3743736Y42756153D01*
X-3743736Y42756153D02*
X-3743736Y42518058D01*
X-3743736Y42518058D02*
X-3791355Y42422820D01*
X-3791355Y42422820D02*
X-3838974Y42375200D01*
X-3838974Y42375200D02*
X-3934212Y42327581D01*
X-3934212Y42327581D02*
X-4219926Y42327581D01*
X-4219926Y42327581D02*
X-4315164Y42375200D01*
X-4315164Y42375200D02*
X-4362783Y42422820D01*
X-3458021Y43327581D02*
X-3124688Y42327581D01*
X-3124688Y42327581D02*
X-2791355Y43327581D01*
D11*
X-6566667Y58240420D02*
X-6614286Y58192800D01*
X-6614286Y58192800D02*
X-6757143Y58145181D01*
X-6757143Y58145181D02*
X-6852381Y58145181D01*
X-6852381Y58145181D02*
X-6995238Y58192800D01*
X-6995238Y58192800D02*
X-7090476Y58288039D01*
X-7090476Y58288039D02*
X-7138095Y58383277D01*
X-7138095Y58383277D02*
X-7185714Y58573753D01*
X-7185714Y58573753D02*
X-7185714Y58716610D01*
X-7185714Y58716610D02*
X-7138095Y58907086D01*
X-7138095Y58907086D02*
X-7090476Y59002324D01*
X-7090476Y59002324D02*
X-6995238Y59097562D01*
X-6995238Y59097562D02*
X-6852381Y59145181D01*
X-6852381Y59145181D02*
X-6757143Y59145181D01*
X-6757143Y59145181D02*
X-6614286Y59097562D01*
X-6614286Y59097562D02*
X-6566667Y59049943D01*
X-5614286Y58145181D02*
X-6185714Y58145181D01*
X-5900000Y58145181D02*
X-5900000Y59145181D01*
X-5900000Y59145181D02*
X-5995238Y59002324D01*
X-5995238Y59002324D02*
X-6090476Y58907086D01*
X-6090476Y58907086D02*
X-6185714Y58859467D01*
X-6961905Y27043181D02*
X-6390477Y27043181D01*
X-6676191Y26043181D02*
X-6676191Y27043181D01*
X-6057143Y26043181D02*
X-6057143Y27043181D01*
X-6057143Y27043181D02*
X-5676191Y27043181D01*
X-5676191Y27043181D02*
X-5580953Y26995562D01*
X-5580953Y26995562D02*
X-5533334Y26947943D01*
X-5533334Y26947943D02*
X-5485715Y26852705D01*
X-5485715Y26852705D02*
X-5485715Y26709848D01*
X-5485715Y26709848D02*
X-5533334Y26614610D01*
X-5533334Y26614610D02*
X-5580953Y26566991D01*
X-5580953Y26566991D02*
X-5676191Y26519372D01*
X-5676191Y26519372D02*
X-6057143Y26519372D01*
X-4533334Y26043181D02*
X-5104762Y26043181D01*
X-4819048Y26043181D02*
X-4819048Y27043181D01*
X-4819048Y27043181D02*
X-4914286Y26900324D01*
X-4914286Y26900324D02*
X-5009524Y26805086D01*
X-5009524Y26805086D02*
X-5104762Y26757467D01*
X-21895181Y55995834D02*
X-22371372Y55662501D01*
X-21895181Y55424406D02*
X-22895181Y55424406D01*
X-22895181Y55424406D02*
X-22895181Y55805358D01*
X-22895181Y55805358D02*
X-22847562Y55900596D01*
X-22847562Y55900596D02*
X-22799943Y55948215D01*
X-22799943Y55948215D02*
X-22704705Y55995834D01*
X-22704705Y55995834D02*
X-22561848Y55995834D01*
X-22561848Y55995834D02*
X-22466610Y55948215D01*
X-22466610Y55948215D02*
X-22418991Y55900596D01*
X-22418991Y55900596D02*
X-22371372Y55805358D01*
X-22371372Y55805358D02*
X-22371372Y55424406D01*
X-22895181Y56329168D02*
X-22895181Y56948215D01*
X-22895181Y56948215D02*
X-22514229Y56614882D01*
X-22514229Y56614882D02*
X-22514229Y56757739D01*
X-22514229Y56757739D02*
X-22466610Y56852977D01*
X-22466610Y56852977D02*
X-22418991Y56900596D01*
X-22418991Y56900596D02*
X-22323753Y56948215D01*
X-22323753Y56948215D02*
X-22085658Y56948215D01*
X-22085658Y56948215D02*
X-21990420Y56900596D01*
X-21990420Y56900596D02*
X-21942800Y56852977D01*
X-21942800Y56852977D02*
X-21895181Y56757739D01*
X-21895181Y56757739D02*
X-21895181Y56472025D01*
X-21895181Y56472025D02*
X-21942800Y56376787D01*
X-21942800Y56376787D02*
X-21990420Y56329168D01*
X-14921372Y2273810D02*
X-14445181Y2273810D01*
X-15445181Y1940477D02*
X-14921372Y2273810D01*
X-14921372Y2273810D02*
X-15445181Y2607143D01*
X-14445181Y3464286D02*
X-14445181Y2892858D01*
X-14445181Y3178572D02*
X-15445181Y3178572D01*
X-15445181Y3178572D02*
X-15302324Y3083334D01*
X-15302324Y3083334D02*
X-15207086Y2988096D01*
X-15207086Y2988096D02*
X-15159467Y2892858D01*
X-5661905Y52143181D02*
X-5090477Y52143181D01*
X-5376191Y51143181D02*
X-5376191Y52143181D01*
X-4757143Y51143181D02*
X-4757143Y52143181D01*
X-4757143Y52143181D02*
X-4376191Y52143181D01*
X-4376191Y52143181D02*
X-4280953Y52095562D01*
X-4280953Y52095562D02*
X-4233334Y52047943D01*
X-4233334Y52047943D02*
X-4185715Y51952705D01*
X-4185715Y51952705D02*
X-4185715Y51809848D01*
X-4185715Y51809848D02*
X-4233334Y51714610D01*
X-4233334Y51714610D02*
X-4280953Y51666991D01*
X-4280953Y51666991D02*
X-4376191Y51619372D01*
X-4376191Y51619372D02*
X-4757143Y51619372D01*
X-3852381Y52143181D02*
X-3233334Y52143181D01*
X-3233334Y52143181D02*
X-3566667Y51762229D01*
X-3566667Y51762229D02*
X-3423810Y51762229D01*
X-3423810Y51762229D02*
X-3328572Y51714610D01*
X-3328572Y51714610D02*
X-3280953Y51666991D01*
X-3280953Y51666991D02*
X-3233334Y51571753D01*
X-3233334Y51571753D02*
X-3233334Y51333658D01*
X-3233334Y51333658D02*
X-3280953Y51238420D01*
X-3280953Y51238420D02*
X-3328572Y51190800D01*
X-3328572Y51190800D02*
X-3423810Y51143181D01*
X-3423810Y51143181D02*
X-3709524Y51143181D01*
X-3709524Y51143181D02*
X-3804762Y51190800D01*
X-3804762Y51190800D02*
X-3852381Y51238420D01*
X-5661905Y47743181D02*
X-5090477Y47743181D01*
X-5376191Y46743181D02*
X-5376191Y47743181D01*
X-4757143Y46743181D02*
X-4757143Y47743181D01*
X-4757143Y47743181D02*
X-4376191Y47743181D01*
X-4376191Y47743181D02*
X-4280953Y47695562D01*
X-4280953Y47695562D02*
X-4233334Y47647943D01*
X-4233334Y47647943D02*
X-4185715Y47552705D01*
X-4185715Y47552705D02*
X-4185715Y47409848D01*
X-4185715Y47409848D02*
X-4233334Y47314610D01*
X-4233334Y47314610D02*
X-4280953Y47266991D01*
X-4280953Y47266991D02*
X-4376191Y47219372D01*
X-4376191Y47219372D02*
X-4757143Y47219372D01*
X-3280953Y47743181D02*
X-3757143Y47743181D01*
X-3757143Y47743181D02*
X-3804762Y47266991D01*
X-3804762Y47266991D02*
X-3757143Y47314610D01*
X-3757143Y47314610D02*
X-3661905Y47362229D01*
X-3661905Y47362229D02*
X-3423810Y47362229D01*
X-3423810Y47362229D02*
X-3328572Y47314610D01*
X-3328572Y47314610D02*
X-3280953Y47266991D01*
X-3280953Y47266991D02*
X-3233334Y47171753D01*
X-3233334Y47171753D02*
X-3233334Y46933658D01*
X-3233334Y46933658D02*
X-3280953Y46838420D01*
X-3280953Y46838420D02*
X-3328572Y46790800D01*
X-3328572Y46790800D02*
X-3423810Y46743181D01*
X-3423810Y46743181D02*
X-3661905Y46743181D01*
X-3661905Y46743181D02*
X-3757143Y46790800D01*
X-3757143Y46790800D02*
X-3804762Y46838420D01*
X-10766667Y58640420D02*
X-10814286Y58592800D01*
X-10814286Y58592800D02*
X-10957143Y58545181D01*
X-10957143Y58545181D02*
X-11052381Y58545181D01*
X-11052381Y58545181D02*
X-11195238Y58592800D01*
X-11195238Y58592800D02*
X-11290476Y58688039D01*
X-11290476Y58688039D02*
X-11338095Y58783277D01*
X-11338095Y58783277D02*
X-11385714Y58973753D01*
X-11385714Y58973753D02*
X-11385714Y59116610D01*
X-11385714Y59116610D02*
X-11338095Y59307086D01*
X-11338095Y59307086D02*
X-11290476Y59402324D01*
X-11290476Y59402324D02*
X-11195238Y59497562D01*
X-11195238Y59497562D02*
X-11052381Y59545181D01*
X-11052381Y59545181D02*
X-10957143Y59545181D01*
X-10957143Y59545181D02*
X-10814286Y59497562D01*
X-10814286Y59497562D02*
X-10766667Y59449943D01*
X-10385714Y59449943D02*
X-10338095Y59497562D01*
X-10338095Y59497562D02*
X-10242857Y59545181D01*
X-10242857Y59545181D02*
X-10004762Y59545181D01*
X-10004762Y59545181D02*
X-9909524Y59497562D01*
X-9909524Y59497562D02*
X-9861905Y59449943D01*
X-9861905Y59449943D02*
X-9814286Y59354705D01*
X-9814286Y59354705D02*
X-9814286Y59259467D01*
X-9814286Y59259467D02*
X-9861905Y59116610D01*
X-9861905Y59116610D02*
X-10433333Y58545181D01*
X-10433333Y58545181D02*
X-9814286Y58545181D01*
X-6961905Y18043181D02*
X-6390477Y18043181D01*
X-6676191Y17043181D02*
X-6676191Y18043181D01*
X-6057143Y17043181D02*
X-6057143Y18043181D01*
X-6057143Y18043181D02*
X-5676191Y18043181D01*
X-5676191Y18043181D02*
X-5580953Y17995562D01*
X-5580953Y17995562D02*
X-5533334Y17947943D01*
X-5533334Y17947943D02*
X-5485715Y17852705D01*
X-5485715Y17852705D02*
X-5485715Y17709848D01*
X-5485715Y17709848D02*
X-5533334Y17614610D01*
X-5533334Y17614610D02*
X-5580953Y17566991D01*
X-5580953Y17566991D02*
X-5676191Y17519372D01*
X-5676191Y17519372D02*
X-6057143Y17519372D01*
X-4628572Y17709848D02*
X-4628572Y17043181D01*
X-4866667Y18090800D02*
X-5104762Y17376515D01*
X-5104762Y17376515D02*
X-4485715Y17376515D01*
X-8033334Y12050181D02*
X-8033334Y11335896D01*
X-8033334Y11335896D02*
X-8080953Y11193039D01*
X-8080953Y11193039D02*
X-8176191Y11097800D01*
X-8176191Y11097800D02*
X-8319048Y11050181D01*
X-8319048Y11050181D02*
X-8414286Y11050181D01*
X-7604762Y11954943D02*
X-7557143Y12002562D01*
X-7557143Y12002562D02*
X-7461905Y12050181D01*
X-7461905Y12050181D02*
X-7223810Y12050181D01*
X-7223810Y12050181D02*
X-7128572Y12002562D01*
X-7128572Y12002562D02*
X-7080953Y11954943D01*
X-7080953Y11954943D02*
X-7033334Y11859705D01*
X-7033334Y11859705D02*
X-7033334Y11764467D01*
X-7033334Y11764467D02*
X-7080953Y11621610D01*
X-7080953Y11621610D02*
X-7652381Y11050181D01*
X-7652381Y11050181D02*
X-7033334Y11050181D01*
X-35395181Y55995834D02*
X-35871372Y55662501D01*
X-35395181Y55424406D02*
X-36395181Y55424406D01*
X-36395181Y55424406D02*
X-36395181Y55805358D01*
X-36395181Y55805358D02*
X-36347562Y55900596D01*
X-36347562Y55900596D02*
X-36299943Y55948215D01*
X-36299943Y55948215D02*
X-36204705Y55995834D01*
X-36204705Y55995834D02*
X-36061848Y55995834D01*
X-36061848Y55995834D02*
X-35966610Y55948215D01*
X-35966610Y55948215D02*
X-35918991Y55900596D01*
X-35918991Y55900596D02*
X-35871372Y55805358D01*
X-35871372Y55805358D02*
X-35871372Y55424406D01*
X-36061848Y56852977D02*
X-35395181Y56852977D01*
X-36442800Y56614882D02*
X-35728515Y56376787D01*
X-35728515Y56376787D02*
X-35728515Y56995834D01*
X-6961905Y22543181D02*
X-6390477Y22543181D01*
X-6676191Y21543181D02*
X-6676191Y22543181D01*
X-6057143Y21543181D02*
X-6057143Y22543181D01*
X-6057143Y22543181D02*
X-5676191Y22543181D01*
X-5676191Y22543181D02*
X-5580953Y22495562D01*
X-5580953Y22495562D02*
X-5533334Y22447943D01*
X-5533334Y22447943D02*
X-5485715Y22352705D01*
X-5485715Y22352705D02*
X-5485715Y22209848D01*
X-5485715Y22209848D02*
X-5533334Y22114610D01*
X-5533334Y22114610D02*
X-5580953Y22066991D01*
X-5580953Y22066991D02*
X-5676191Y22019372D01*
X-5676191Y22019372D02*
X-6057143Y22019372D01*
X-5104762Y22447943D02*
X-5057143Y22495562D01*
X-5057143Y22495562D02*
X-4961905Y22543181D01*
X-4961905Y22543181D02*
X-4723810Y22543181D01*
X-4723810Y22543181D02*
X-4628572Y22495562D01*
X-4628572Y22495562D02*
X-4580953Y22447943D01*
X-4580953Y22447943D02*
X-4533334Y22352705D01*
X-4533334Y22352705D02*
X-4533334Y22257467D01*
X-4533334Y22257467D02*
X-4580953Y22114610D01*
X-4580953Y22114610D02*
X-5152381Y21543181D01*
X-5152381Y21543181D02*
X-4533334Y21543181D01*
X-26395181Y55995834D02*
X-26871372Y55662501D01*
X-26395181Y55424406D02*
X-27395181Y55424406D01*
X-27395181Y55424406D02*
X-27395181Y55805358D01*
X-27395181Y55805358D02*
X-27347562Y55900596D01*
X-27347562Y55900596D02*
X-27299943Y55948215D01*
X-27299943Y55948215D02*
X-27204705Y55995834D01*
X-27204705Y55995834D02*
X-27061848Y55995834D01*
X-27061848Y55995834D02*
X-26966610Y55948215D01*
X-26966610Y55948215D02*
X-26918991Y55900596D01*
X-26918991Y55900596D02*
X-26871372Y55805358D01*
X-26871372Y55805358D02*
X-26871372Y55424406D01*
X-27299943Y56376787D02*
X-27347562Y56424406D01*
X-27347562Y56424406D02*
X-27395181Y56519644D01*
X-27395181Y56519644D02*
X-27395181Y56757739D01*
X-27395181Y56757739D02*
X-27347562Y56852977D01*
X-27347562Y56852977D02*
X-27299943Y56900596D01*
X-27299943Y56900596D02*
X-27204705Y56948215D01*
X-27204705Y56948215D02*
X-27109467Y56948215D01*
X-27109467Y56948215D02*
X-26966610Y56900596D01*
X-26966610Y56900596D02*
X-26395181Y56329168D01*
X-26395181Y56329168D02*
X-26395181Y56948215D01*
X-26895181Y18623811D02*
X-27895181Y18623811D01*
X-26990420Y19671429D02*
X-26942800Y19623810D01*
X-26942800Y19623810D02*
X-26895181Y19480953D01*
X-26895181Y19480953D02*
X-26895181Y19385715D01*
X-26895181Y19385715D02*
X-26942800Y19242858D01*
X-26942800Y19242858D02*
X-27038039Y19147620D01*
X-27038039Y19147620D02*
X-27133277Y19100001D01*
X-27133277Y19100001D02*
X-27323753Y19052382D01*
X-27323753Y19052382D02*
X-27466610Y19052382D01*
X-27466610Y19052382D02*
X-27657086Y19100001D01*
X-27657086Y19100001D02*
X-27752324Y19147620D01*
X-27752324Y19147620D02*
X-27847562Y19242858D01*
X-27847562Y19242858D02*
X-27895181Y19385715D01*
X-27895181Y19385715D02*
X-27895181Y19480953D01*
X-27895181Y19480953D02*
X-27847562Y19623810D01*
X-27847562Y19623810D02*
X-27799943Y19671429D01*
X-26895181Y20623810D02*
X-26895181Y20052382D01*
X-26895181Y20338096D02*
X-27895181Y20338096D01*
X-27895181Y20338096D02*
X-27752324Y20242858D01*
X-27752324Y20242858D02*
X-27657086Y20147620D01*
X-27657086Y20147620D02*
X-27609467Y20052382D01*
X-36241955Y4077603D02*
X-35592016Y4077603D01*
X-35592016Y4077603D02*
X-35515552Y4115835D01*
X-35515552Y4115835D02*
X-35477320Y4154066D01*
X-35477320Y4154066D02*
X-35439089Y4230530D01*
X-35439089Y4230530D02*
X-35439089Y4383457D01*
X-35439089Y4383457D02*
X-35477320Y4459920D01*
X-35477320Y4459920D02*
X-35515552Y4498152D01*
X-35515552Y4498152D02*
X-35592016Y4536384D01*
X-35592016Y4536384D02*
X-36241955Y4536384D01*
X-35439089Y5339250D02*
X-35439089Y4880469D01*
X-35439089Y5109860D02*
X-36241955Y5109860D01*
X-36241955Y5109860D02*
X-36127260Y5033396D01*
X-36127260Y5033396D02*
X-36050796Y4956933D01*
X-36050796Y4956933D02*
X-36012564Y4880469D01*
X-11138095Y46945181D02*
X-11138095Y47945181D01*
X-11138095Y47945181D02*
X-10900000Y47945181D01*
X-10900000Y47945181D02*
X-10757143Y47897562D01*
X-10757143Y47897562D02*
X-10661905Y47802324D01*
X-10661905Y47802324D02*
X-10614286Y47707086D01*
X-10614286Y47707086D02*
X-10566667Y47516610D01*
X-10566667Y47516610D02*
X-10566667Y47373753D01*
X-10566667Y47373753D02*
X-10614286Y47183277D01*
X-10614286Y47183277D02*
X-10661905Y47088039D01*
X-10661905Y47088039D02*
X-10757143Y46992800D01*
X-10757143Y46992800D02*
X-10900000Y46945181D01*
X-10900000Y46945181D02*
X-11138095Y46945181D01*
X-9614286Y46945181D02*
X-10185714Y46945181D01*
X-9900000Y46945181D02*
X-9900000Y47945181D01*
X-9900000Y47945181D02*
X-9995238Y47802324D01*
X-9995238Y47802324D02*
X-10090476Y47707086D01*
X-10090476Y47707086D02*
X-10185714Y47659467D01*
X-26161905Y27945181D02*
X-26161905Y27135658D01*
X-26161905Y27135658D02*
X-26114286Y27040420D01*
X-26114286Y27040420D02*
X-26066667Y26992800D01*
X-26066667Y26992800D02*
X-25971429Y26945181D01*
X-25971429Y26945181D02*
X-25780953Y26945181D01*
X-25780953Y26945181D02*
X-25685715Y26992800D01*
X-25685715Y26992800D02*
X-25638096Y27040420D01*
X-25638096Y27040420D02*
X-25590477Y27135658D01*
X-25590477Y27135658D02*
X-25590477Y27945181D01*
X-25161905Y27849943D02*
X-25114286Y27897562D01*
X-25114286Y27897562D02*
X-25019048Y27945181D01*
X-25019048Y27945181D02*
X-24780953Y27945181D01*
X-24780953Y27945181D02*
X-24685715Y27897562D01*
X-24685715Y27897562D02*
X-24638096Y27849943D01*
X-24638096Y27849943D02*
X-24590477Y27754705D01*
X-24590477Y27754705D02*
X-24590477Y27659467D01*
X-24590477Y27659467D02*
X-24638096Y27516610D01*
X-24638096Y27516610D02*
X-25209524Y26945181D01*
X-25209524Y26945181D02*
X-24590477Y26945181D01*
X-18473334Y51945181D02*
X-18473334Y51230896D01*
X-18473334Y51230896D02*
X-18520953Y51088039D01*
X-18520953Y51088039D02*
X-18616191Y50992800D01*
X-18616191Y50992800D02*
X-18759048Y50945181D01*
X-18759048Y50945181D02*
X-18854286Y50945181D01*
X-17473334Y50945181D02*
X-18044762Y50945181D01*
X-17759048Y50945181D02*
X-17759048Y51945181D01*
X-17759048Y51945181D02*
X-17854286Y51802324D01*
X-17854286Y51802324D02*
X-17949524Y51707086D01*
X-17949524Y51707086D02*
X-18044762Y51659467D01*
X-10516667Y27145181D02*
X-10992857Y27145181D01*
X-10992857Y27145181D02*
X-10992857Y28145181D01*
X-9659524Y27145181D02*
X-10230952Y27145181D01*
X-9945238Y27145181D02*
X-9945238Y28145181D01*
X-9945238Y28145181D02*
X-10040476Y28002324D01*
X-10040476Y28002324D02*
X-10135714Y27907086D01*
X-10135714Y27907086D02*
X-10230952Y27859467D01*
X-30895181Y55995834D02*
X-31371372Y55662501D01*
X-30895181Y55424406D02*
X-31895181Y55424406D01*
X-31895181Y55424406D02*
X-31895181Y55805358D01*
X-31895181Y55805358D02*
X-31847562Y55900596D01*
X-31847562Y55900596D02*
X-31799943Y55948215D01*
X-31799943Y55948215D02*
X-31704705Y55995834D01*
X-31704705Y55995834D02*
X-31561848Y55995834D01*
X-31561848Y55995834D02*
X-31466610Y55948215D01*
X-31466610Y55948215D02*
X-31418991Y55900596D01*
X-31418991Y55900596D02*
X-31371372Y55805358D01*
X-31371372Y55805358D02*
X-31371372Y55424406D01*
X-30895181Y56948215D02*
X-30895181Y56376787D01*
X-30895181Y56662501D02*
X-31895181Y56662501D01*
X-31895181Y56662501D02*
X-31752324Y56567263D01*
X-31752324Y56567263D02*
X-31657086Y56472025D01*
X-31657086Y56472025D02*
X-31609467Y56376787D01*
D12*
%TO.C,C1*%
X-9001000Y54716000D02*
X-9001000Y55284000D01*
X-8961000Y54482000D02*
X-8961000Y55518000D01*
X-8921000Y54323000D02*
X-8921000Y55677000D01*
X-8881000Y54195000D02*
X-8881000Y55805000D01*
X-8841000Y54085000D02*
X-8841000Y55915000D01*
X-8801000Y53989000D02*
X-8801000Y56011000D01*
X-8761000Y53902000D02*
X-8761000Y56098000D01*
X-8721000Y53822000D02*
X-8721000Y56178000D01*
X-8681000Y53749000D02*
X-8681000Y56251000D01*
X-8641000Y53681000D02*
X-8641000Y56319000D01*
X-8601000Y53617000D02*
X-8601000Y56383000D01*
X-8561000Y53557000D02*
X-8561000Y56443000D01*
X-8521000Y53500000D02*
X-8521000Y56500000D01*
X-8481000Y53446000D02*
X-8481000Y56554000D01*
X-8441000Y53395000D02*
X-8441000Y56605000D01*
X-8401000Y56040000D02*
X-8401000Y56653000D01*
X-8401000Y53347000D02*
X-8401000Y53960000D01*
X-8361000Y56040000D02*
X-8361000Y56699000D01*
X-8361000Y53301000D02*
X-8361000Y53960000D01*
X-8321000Y56040000D02*
X-8321000Y56743000D01*
X-8321000Y53257000D02*
X-8321000Y53960000D01*
X-8281000Y56040000D02*
X-8281000Y56785000D01*
X-8281000Y53215000D02*
X-8281000Y53960000D01*
X-8241000Y56040000D02*
X-8241000Y56826000D01*
X-8241000Y53174000D02*
X-8241000Y53960000D01*
X-8201000Y56040000D02*
X-8201000Y56864000D01*
X-8201000Y53136000D02*
X-8201000Y53960000D01*
X-8161000Y56040000D02*
X-8161000Y56901000D01*
X-8161000Y53099000D02*
X-8161000Y53960000D01*
X-8121000Y56040000D02*
X-8121000Y56937000D01*
X-8121000Y53063000D02*
X-8121000Y53960000D01*
X-8081000Y56040000D02*
X-8081000Y56971000D01*
X-8081000Y53029000D02*
X-8081000Y53960000D01*
X-8041000Y56040000D02*
X-8041000Y57004000D01*
X-8041000Y52996000D02*
X-8041000Y53960000D01*
X-8001000Y56040000D02*
X-8001000Y57035000D01*
X-8001000Y52965000D02*
X-8001000Y53960000D01*
X-7961000Y56040000D02*
X-7961000Y57065000D01*
X-7961000Y52935000D02*
X-7961000Y53960000D01*
X-7921000Y56040000D02*
X-7921000Y57095000D01*
X-7921000Y52905000D02*
X-7921000Y53960000D01*
X-7881000Y56040000D02*
X-7881000Y57122000D01*
X-7881000Y52878000D02*
X-7881000Y53960000D01*
X-7841000Y56040000D02*
X-7841000Y57149000D01*
X-7841000Y52851000D02*
X-7841000Y53960000D01*
X-7801000Y56040000D02*
X-7801000Y57175000D01*
X-7801000Y52825000D02*
X-7801000Y53960000D01*
X-7761000Y56040000D02*
X-7761000Y57200000D01*
X-7761000Y52800000D02*
X-7761000Y53960000D01*
X-7721000Y56040000D02*
X-7721000Y57224000D01*
X-7721000Y52776000D02*
X-7721000Y53960000D01*
X-7681000Y56040000D02*
X-7681000Y57247000D01*
X-7681000Y52753000D02*
X-7681000Y53960000D01*
X-7641000Y56040000D02*
X-7641000Y57268000D01*
X-7641000Y52732000D02*
X-7641000Y53960000D01*
X-7601000Y56040000D02*
X-7601000Y57290000D01*
X-7601000Y52710000D02*
X-7601000Y53960000D01*
X-7561000Y56040000D02*
X-7561000Y57310000D01*
X-7561000Y52690000D02*
X-7561000Y53960000D01*
X-7521000Y56040000D02*
X-7521000Y57329000D01*
X-7521000Y52671000D02*
X-7521000Y53960000D01*
X-7481000Y56040000D02*
X-7481000Y57348000D01*
X-7481000Y52652000D02*
X-7481000Y53960000D01*
X-7441000Y56040000D02*
X-7441000Y57365000D01*
X-7441000Y52635000D02*
X-7441000Y53960000D01*
X-7401000Y56040000D02*
X-7401000Y57382000D01*
X-7401000Y52618000D02*
X-7401000Y53960000D01*
X-7361000Y56040000D02*
X-7361000Y57398000D01*
X-7361000Y52602000D02*
X-7361000Y53960000D01*
X-7321000Y56040000D02*
X-7321000Y57414000D01*
X-7321000Y52586000D02*
X-7321000Y53960000D01*
X-7281000Y56040000D02*
X-7281000Y57428000D01*
X-7281000Y52572000D02*
X-7281000Y53960000D01*
X-7241000Y56040000D02*
X-7241000Y57442000D01*
X-7241000Y52558000D02*
X-7241000Y53960000D01*
X-7201000Y56040000D02*
X-7201000Y57455000D01*
X-7201000Y52545000D02*
X-7201000Y53960000D01*
X-7161000Y56040000D02*
X-7161000Y57468000D01*
X-7161000Y52532000D02*
X-7161000Y53960000D01*
X-7121000Y56040000D02*
X-7121000Y57480000D01*
X-7121000Y52520000D02*
X-7121000Y53960000D01*
X-7080000Y56040000D02*
X-7080000Y57491000D01*
X-7080000Y52509000D02*
X-7080000Y53960000D01*
X-7040000Y56040000D02*
X-7040000Y57501000D01*
X-7040000Y52499000D02*
X-7040000Y53960000D01*
X-7000000Y56040000D02*
X-7000000Y57511000D01*
X-7000000Y52489000D02*
X-7000000Y53960000D01*
X-6960000Y56040000D02*
X-6960000Y57520000D01*
X-6960000Y52480000D02*
X-6960000Y53960000D01*
X-6920000Y56040000D02*
X-6920000Y57528000D01*
X-6920000Y52472000D02*
X-6920000Y53960000D01*
X-6880000Y56040000D02*
X-6880000Y57536000D01*
X-6880000Y52464000D02*
X-6880000Y53960000D01*
X-6840000Y56040000D02*
X-6840000Y57543000D01*
X-6840000Y52457000D02*
X-6840000Y53960000D01*
X-6800000Y56040000D02*
X-6800000Y57550000D01*
X-6800000Y52450000D02*
X-6800000Y53960000D01*
X-6760000Y56040000D02*
X-6760000Y57556000D01*
X-6760000Y52444000D02*
X-6760000Y53960000D01*
X-6720000Y56040000D02*
X-6720000Y57561000D01*
X-6720000Y52439000D02*
X-6720000Y53960000D01*
X-6680000Y56040000D02*
X-6680000Y57565000D01*
X-6680000Y52435000D02*
X-6680000Y53960000D01*
X-6640000Y56040000D02*
X-6640000Y57569000D01*
X-6640000Y52431000D02*
X-6640000Y53960000D01*
X-6600000Y56040000D02*
X-6600000Y57573000D01*
X-6600000Y52427000D02*
X-6600000Y53960000D01*
X-6560000Y56040000D02*
X-6560000Y57576000D01*
X-6560000Y52424000D02*
X-6560000Y53960000D01*
X-6520000Y56040000D02*
X-6520000Y57578000D01*
X-6520000Y52422000D02*
X-6520000Y53960000D01*
X-6480000Y56040000D02*
X-6480000Y57579000D01*
X-6480000Y52421000D02*
X-6480000Y53960000D01*
X-6440000Y56040000D02*
X-6440000Y57580000D01*
X-6440000Y52420000D02*
X-6440000Y53960000D01*
X-6400000Y56040000D02*
X-6400000Y57580000D01*
X-6400000Y52420000D02*
X-6400000Y53960000D01*
X-3845225Y53275000D02*
X-3845225Y53775000D01*
X-3595225Y53525000D02*
X-4095225Y53525000D01*
X-3780000Y55000000D02*
G75*
G02*
X-9020000Y55000000I-2620000J0D01*
G01*
X-9020000Y55000000D02*
G75*
G02*
X-3780000Y55000000I2620000J0D01*
G01*
%TO.C,TP1*%
X-4500000Y24500000D02*
G75*
G02*
X-6900000Y24500000I-1200000J0D01*
G01*
X-6900000Y24500000D02*
G75*
G02*
X-4500000Y24500000I1200000J0D01*
G01*
%TO.C,R3*%
X-21410000Y55451248D02*
X-21410000Y56873752D01*
X-19590000Y55451248D02*
X-19590000Y56873752D01*
%TO.C,Y1*%
X-17500000Y2900000D02*
X-17500000Y2600000D01*
X-15950000Y4100000D02*
X-17450000Y4100000D01*
X-15900000Y2900000D02*
X-15900000Y2600000D01*
%TO.C,TP3*%
X-3200000Y49600000D02*
G75*
G02*
X-5600000Y49600000I-1200000J0D01*
G01*
X-5600000Y49600000D02*
G75*
G02*
X-3200000Y49600000I1200000J0D01*
G01*
%TO.C,TP5*%
X-3200000Y45200000D02*
G75*
G02*
X-5600000Y45200000I-1200000J0D01*
G01*
X-5600000Y45200000D02*
G75*
G02*
X-3200000Y45200000I1200000J0D01*
G01*
%TO.C,C2*%
X-17981000Y54467000D02*
X-17981000Y55533000D01*
X-17941000Y54232000D02*
X-17941000Y55768000D01*
X-17901000Y54052000D02*
X-17901000Y55948000D01*
X-17861000Y53902000D02*
X-17861000Y56098000D01*
X-17821000Y53771000D02*
X-17821000Y56229000D01*
X-17781000Y53654000D02*
X-17781000Y56346000D01*
X-17741000Y53547000D02*
X-17741000Y56453000D01*
X-17701000Y53448000D02*
X-17701000Y56552000D01*
X-17661000Y53355000D02*
X-17661000Y56645000D01*
X-17621000Y53269000D02*
X-17621000Y56731000D01*
X-17581000Y53187000D02*
X-17581000Y56813000D01*
X-17541000Y53110000D02*
X-17541000Y56890000D01*
X-17501000Y53036000D02*
X-17501000Y56964000D01*
X-17461000Y52966000D02*
X-17461000Y57034000D01*
X-17421000Y52898000D02*
X-17421000Y57102000D01*
X-17381000Y52834000D02*
X-17381000Y57166000D01*
X-17341000Y52772000D02*
X-17341000Y57228000D01*
X-17301000Y52713000D02*
X-17301000Y57287000D01*
X-17261000Y52655000D02*
X-17261000Y57345000D01*
X-17221000Y52600000D02*
X-17221000Y57400000D01*
X-17181000Y52546000D02*
X-17181000Y57454000D01*
X-17141000Y52495000D02*
X-17141000Y57505000D01*
X-17101000Y52444000D02*
X-17101000Y57556000D01*
X-17061000Y52396000D02*
X-17061000Y57604000D01*
X-17021000Y52349000D02*
X-17021000Y57651000D01*
X-16981000Y52303000D02*
X-16981000Y57697000D01*
X-16941000Y52259000D02*
X-16941000Y57741000D01*
X-16901000Y52216000D02*
X-16901000Y57784000D01*
X-16861000Y52174000D02*
X-16861000Y57826000D01*
X-16821000Y56040000D02*
X-16821000Y57867000D01*
X-16821000Y52133000D02*
X-16821000Y53960000D01*
X-16781000Y56040000D02*
X-16781000Y57907000D01*
X-16781000Y52093000D02*
X-16781000Y53960000D01*
X-16741000Y56040000D02*
X-16741000Y57945000D01*
X-16741000Y52055000D02*
X-16741000Y53960000D01*
X-16701000Y56040000D02*
X-16701000Y57983000D01*
X-16701000Y52017000D02*
X-16701000Y53960000D01*
X-16661000Y56040000D02*
X-16661000Y58019000D01*
X-16661000Y51981000D02*
X-16661000Y53960000D01*
X-16621000Y56040000D02*
X-16621000Y58055000D01*
X-16621000Y51945000D02*
X-16621000Y53960000D01*
X-16581000Y56040000D02*
X-16581000Y58090000D01*
X-16581000Y51910000D02*
X-16581000Y53960000D01*
X-16541000Y56040000D02*
X-16541000Y58124000D01*
X-16541000Y51876000D02*
X-16541000Y53960000D01*
X-16501000Y56040000D02*
X-16501000Y58156000D01*
X-16501000Y51844000D02*
X-16501000Y53960000D01*
X-16461000Y56040000D02*
X-16461000Y58189000D01*
X-16461000Y51811000D02*
X-16461000Y53960000D01*
X-16421000Y56040000D02*
X-16421000Y58220000D01*
X-16421000Y51780000D02*
X-16421000Y53960000D01*
X-16381000Y56040000D02*
X-16381000Y58250000D01*
X-16381000Y51750000D02*
X-16381000Y53960000D01*
X-16341000Y56040000D02*
X-16341000Y58280000D01*
X-16341000Y51720000D02*
X-16341000Y53960000D01*
X-16301000Y56040000D02*
X-16301000Y58309000D01*
X-16301000Y51691000D02*
X-16301000Y53960000D01*
X-16261000Y56040000D02*
X-16261000Y58338000D01*
X-16261000Y51662000D02*
X-16261000Y53960000D01*
X-16221000Y56040000D02*
X-16221000Y58365000D01*
X-16221000Y51635000D02*
X-16221000Y53960000D01*
X-16181000Y56040000D02*
X-16181000Y58392000D01*
X-16181000Y51608000D02*
X-16181000Y53960000D01*
X-16141000Y56040000D02*
X-16141000Y58418000D01*
X-16141000Y51582000D02*
X-16141000Y53960000D01*
X-16101000Y56040000D02*
X-16101000Y58444000D01*
X-16101000Y51556000D02*
X-16101000Y53960000D01*
X-16061000Y56040000D02*
X-16061000Y58469000D01*
X-16061000Y51531000D02*
X-16061000Y53960000D01*
X-16021000Y56040000D02*
X-16021000Y58493000D01*
X-16021000Y51507000D02*
X-16021000Y53960000D01*
X-15981000Y56040000D02*
X-15981000Y58517000D01*
X-15981000Y51483000D02*
X-15981000Y53960000D01*
X-15941000Y56040000D02*
X-15941000Y58540000D01*
X-15941000Y51460000D02*
X-15941000Y53960000D01*
X-15901000Y56040000D02*
X-15901000Y58562000D01*
X-15901000Y51438000D02*
X-15901000Y53960000D01*
X-15861000Y56040000D02*
X-15861000Y58584000D01*
X-15861000Y51416000D02*
X-15861000Y53960000D01*
X-15821000Y56040000D02*
X-15821000Y58606000D01*
X-15821000Y51394000D02*
X-15821000Y53960000D01*
X-15781000Y56040000D02*
X-15781000Y58627000D01*
X-15781000Y51373000D02*
X-15781000Y53960000D01*
X-15741000Y56040000D02*
X-15741000Y58647000D01*
X-15741000Y51353000D02*
X-15741000Y53960000D01*
X-15701000Y56040000D02*
X-15701000Y58666000D01*
X-15701000Y51334000D02*
X-15701000Y53960000D01*
X-15661000Y56040000D02*
X-15661000Y58686000D01*
X-15661000Y51314000D02*
X-15661000Y53960000D01*
X-15621000Y56040000D02*
X-15621000Y58704000D01*
X-15621000Y51296000D02*
X-15621000Y53960000D01*
X-15581000Y56040000D02*
X-15581000Y58722000D01*
X-15581000Y51278000D02*
X-15581000Y53960000D01*
X-15541000Y56040000D02*
X-15541000Y58740000D01*
X-15541000Y51260000D02*
X-15541000Y53960000D01*
X-15501000Y56040000D02*
X-15501000Y58757000D01*
X-15501000Y51243000D02*
X-15501000Y53960000D01*
X-15461000Y56040000D02*
X-15461000Y58774000D01*
X-15461000Y51226000D02*
X-15461000Y53960000D01*
X-15421000Y56040000D02*
X-15421000Y58790000D01*
X-15421000Y51210000D02*
X-15421000Y53960000D01*
X-15381000Y56040000D02*
X-15381000Y58805000D01*
X-15381000Y51195000D02*
X-15381000Y53960000D01*
X-15341000Y56040000D02*
X-15341000Y58821000D01*
X-15341000Y51179000D02*
X-15341000Y53960000D01*
X-15301000Y56040000D02*
X-15301000Y58835000D01*
X-15301000Y51165000D02*
X-15301000Y53960000D01*
X-15261000Y56040000D02*
X-15261000Y58850000D01*
X-15261000Y51150000D02*
X-15261000Y53960000D01*
X-15221000Y56040000D02*
X-15221000Y58863000D01*
X-15221000Y51137000D02*
X-15221000Y53960000D01*
X-15181000Y56040000D02*
X-15181000Y58877000D01*
X-15181000Y51123000D02*
X-15181000Y53960000D01*
X-15141000Y56040000D02*
X-15141000Y58889000D01*
X-15141000Y51111000D02*
X-15141000Y53960000D01*
X-15101000Y56040000D02*
X-15101000Y58902000D01*
X-15101000Y51098000D02*
X-15101000Y53960000D01*
X-15061000Y56040000D02*
X-15061000Y58914000D01*
X-15061000Y51086000D02*
X-15061000Y53960000D01*
X-15021000Y56040000D02*
X-15021000Y58925000D01*
X-15021000Y51075000D02*
X-15021000Y53960000D01*
X-14981000Y56040000D02*
X-14981000Y58936000D01*
X-14981000Y51064000D02*
X-14981000Y53960000D01*
X-14941000Y56040000D02*
X-14941000Y58947000D01*
X-14941000Y51053000D02*
X-14941000Y53960000D01*
X-14901000Y56040000D02*
X-14901000Y58957000D01*
X-14901000Y51043000D02*
X-14901000Y53960000D01*
X-14861000Y56040000D02*
X-14861000Y58967000D01*
X-14861000Y51033000D02*
X-14861000Y53960000D01*
X-14821000Y56040000D02*
X-14821000Y58976000D01*
X-14821000Y51024000D02*
X-14821000Y53960000D01*
X-14781000Y56040000D02*
X-14781000Y58985000D01*
X-14781000Y51015000D02*
X-14781000Y53960000D01*
X-14741000Y51006000D02*
X-14741000Y58994000D01*
X-14701000Y50998000D02*
X-14701000Y59002000D01*
X-14661000Y50990000D02*
X-14661000Y59010000D01*
X-14621000Y50983000D02*
X-14621000Y59017000D01*
X-14580000Y50976000D02*
X-14580000Y59024000D01*
X-14540000Y50970000D02*
X-14540000Y59030000D01*
X-14500000Y50963000D02*
X-14500000Y59037000D01*
X-14460000Y50958000D02*
X-14460000Y59042000D01*
X-14420000Y50952000D02*
X-14420000Y59048000D01*
X-14380000Y50948000D02*
X-14380000Y59052000D01*
X-14340000Y50943000D02*
X-14340000Y59057000D01*
X-14300000Y50939000D02*
X-14300000Y59061000D01*
X-14260000Y50935000D02*
X-14260000Y59065000D01*
X-14220000Y50932000D02*
X-14220000Y59068000D01*
X-14180000Y50929000D02*
X-14180000Y59071000D01*
X-14140000Y50926000D02*
X-14140000Y59074000D01*
X-14100000Y50924000D02*
X-14100000Y59076000D01*
X-14060000Y50923000D02*
X-14060000Y59077000D01*
X-14020000Y50921000D02*
X-14020000Y59079000D01*
X-13980000Y50920000D02*
X-13980000Y59080000D01*
X-13940000Y50920000D02*
X-13940000Y59080000D01*
X-13900000Y50920000D02*
X-13900000Y59080000D01*
X-9890302Y52285000D02*
X-9890302Y53085000D01*
X-9490302Y52685000D02*
X-10290302Y52685000D01*
X-9780000Y55000000D02*
G75*
G02*
X-18020000Y55000000I-4120000J0D01*
G01*
X-18020000Y55000000D02*
G75*
G02*
X-9780000Y55000000I4120000J0D01*
G01*
%TO.C,TP4*%
X-4500000Y15500000D02*
G75*
G02*
X-6900000Y15500000I-1200000J0D01*
G01*
X-6900000Y15500000D02*
G75*
G02*
X-4500000Y15500000I1200000J0D01*
G01*
%TO.C,J2*%
X-10790000Y10440000D02*
X-9465000Y10440000D01*
X-9465000Y10505000D02*
X-9465000Y10440000D01*
X-9465000Y10505000D02*
X-5935000Y10505000D01*
X-9465000Y1560000D02*
X-9465000Y1495000D01*
X-9465000Y1495000D02*
X-5935000Y1495000D01*
X-5935000Y10505000D02*
X-5935000Y10440000D01*
X-5935000Y1560000D02*
X-5935000Y1495000D01*
%TO.C,R4*%
X-34910000Y55451248D02*
X-34910000Y56873752D01*
X-33090000Y55451248D02*
X-33090000Y56873752D01*
%TO.C,TP2*%
X-4500000Y20000000D02*
G75*
G02*
X-6900000Y20000000I-1200000J0D01*
G01*
X-6900000Y20000000D02*
G75*
G02*
X-4500000Y20000000I1200000J0D01*
G01*
%TO.C,R2*%
X-25910000Y55451248D02*
X-25910000Y56873752D01*
X-24090000Y55451248D02*
X-24090000Y56873752D01*
%TO.C,IC1*%
X-33535000Y19600000D02*
X-33535000Y21800000D01*
X-33535000Y19600000D02*
X-33535000Y17400000D01*
X-28065000Y19600000D02*
X-28065000Y21800000D01*
X-28065000Y19600000D02*
X-28065000Y17400000D01*
X-28525000Y23460000D02*
X-28765000Y23790000D01*
X-28285000Y23790000D01*
X-28525000Y23460000D01*
G36*
X-28525000Y23460000D02*
G01*
X-28765000Y23790000D01*
X-28285000Y23790000D01*
X-28525000Y23460000D01*
G37*
D13*
%TO.C,U1*%
X-34700000Y12000000D02*
X-34200000Y12000000D01*
X-34700000Y2000000D02*
X-34700000Y12000000D01*
X-30200000Y2000000D02*
X-34700000Y2000000D01*
X-19700000Y12000000D02*
X-20500000Y12000000D01*
X-19700000Y11900000D02*
X-19700000Y12000000D01*
X-19700000Y2100000D02*
X-19700000Y2000000D01*
X-19700000Y2000000D02*
X-20500000Y2000000D01*
D14*
X-28981888Y12630000D02*
G75*
G02*
X-29298112Y12630000I-158112J0D01*
G01*
X-29298112Y12630000D02*
G75*
G02*
X-28981888Y12630000I158112J0D01*
G01*
D12*
%TO.C,D1*%
X-13910000Y46250000D02*
X-13910000Y42950000D01*
X-13910000Y46250000D02*
X-8400000Y46250000D01*
X-13910000Y42950000D02*
X-8400000Y42950000D01*
%TO.C,U2*%
X-30175000Y39550000D02*
X-29225000Y39550000D01*
X-30175000Y38185000D02*
X-30175000Y39550000D01*
X-19775000Y39550000D02*
X-20725000Y39550000D01*
X-19775000Y38185000D02*
X-19775000Y39550000D01*
X-20295000Y42035000D02*
X-20765000Y42375000D01*
X-20295000Y42715000D01*
X-20295000Y42035000D01*
G36*
X-20295000Y42035000D02*
G01*
X-20765000Y42375000D01*
X-20295000Y42715000D01*
X-20295000Y42035000D01*
G37*
%TO.C,J1*%
X-35260000Y52460000D02*
X-35260000Y50340000D01*
X-21200000Y52460000D02*
X-35260000Y52460000D01*
X-21200000Y52460000D02*
X-21200000Y50340000D01*
X-21200000Y50340000D02*
X-35260000Y50340000D01*
X-20200000Y52460000D02*
X-19140000Y52460000D01*
X-19140000Y52460000D02*
X-19140000Y51400000D01*
%TO.C,L1*%
X-16650000Y41300000D02*
X-4050000Y41300000D01*
X-16650000Y38300000D02*
X-16650000Y41300000D01*
X-16650000Y28700000D02*
X-16650000Y31700000D01*
X-4050000Y41300000D02*
X-4050000Y38300000D01*
X-4050000Y31700000D02*
X-4050000Y28700000D01*
X-4050000Y28700000D02*
X-16650000Y28700000D01*
%TO.C,R1*%
X-30410000Y55451248D02*
X-30410000Y56873752D01*
X-28590000Y55451248D02*
X-28590000Y56873752D01*
%TD*%
%LPC*%
D15*
%TO.C,C1*%
X-5400000Y55000000D03*
D16*
X-7400000Y55000000D03*
%TD*%
D17*
%TO.C,TP1*%
X-5700000Y24500000D03*
%TD*%
D18*
%TO.C,R3*%
X-20500000Y54600000D03*
X-20500000Y57725000D03*
%TD*%
D19*
%TO.C,Y1*%
X-16700000Y3500000D03*
X-16700000Y2000000D03*
%TD*%
D17*
%TO.C,TP3*%
X-4400000Y49600000D03*
%TD*%
%TO.C,TP5*%
X-4400000Y45200000D03*
%TD*%
D15*
%TO.C,C2*%
X-12000000Y55000000D03*
D16*
X-15800000Y55000000D03*
%TD*%
D17*
%TO.C,TP4*%
X-5700000Y15500000D03*
%TD*%
D20*
%TO.C,J2*%
X-9650000Y9810000D03*
X-5750000Y9810000D03*
X-9650000Y8540000D03*
X-5750000Y8540000D03*
X-9650000Y7270000D03*
X-5750000Y7270000D03*
X-9650000Y6000000D03*
X-5750000Y6000000D03*
X-9650000Y4730000D03*
X-5750000Y4730000D03*
X-9650000Y3460000D03*
X-5750000Y3460000D03*
X-9650000Y2190000D03*
X-5750000Y2190000D03*
%TD*%
D18*
%TO.C,R4*%
X-34000000Y54600000D03*
X-34000000Y57725000D03*
%TD*%
D17*
%TO.C,TP2*%
X-5700000Y20000000D03*
%TD*%
D18*
%TO.C,R2*%
X-25000000Y54600000D03*
X-25000000Y57725000D03*
%TD*%
D21*
%TO.C,IC1*%
X-28525000Y22462500D03*
X-29175000Y22462500D03*
X-29825000Y22462500D03*
X-30475000Y22462500D03*
X-31125000Y22462500D03*
X-31775000Y22462500D03*
X-32425000Y22462500D03*
X-33075000Y22462500D03*
X-33075000Y16737500D03*
X-32425000Y16737500D03*
X-31775000Y16737500D03*
X-31125000Y16737500D03*
X-30475000Y16737500D03*
X-29825000Y16737500D03*
X-29175000Y16737500D03*
X-28525000Y16737500D03*
%TD*%
D22*
%TO.C,U1*%
X-29750000Y11550000D03*
X-28950000Y11550000D03*
X-28950000Y10750000D03*
X-28150000Y11550000D03*
X-28150000Y10750000D03*
X-27350000Y11550000D03*
X-27350000Y10750000D03*
X-26550000Y11550000D03*
X-26550000Y10750000D03*
X-25750000Y11550000D03*
X-25750000Y10750000D03*
X-24950000Y11550000D03*
X-24950000Y10750000D03*
X-24150000Y11550000D03*
X-24150000Y10750000D03*
X-23350000Y11550000D03*
X-23350000Y10750000D03*
X-22550000Y11550000D03*
X-22550000Y10750000D03*
X-21750000Y11550000D03*
X-21750000Y10750000D03*
X-20950000Y11550000D03*
X-20950000Y10750000D03*
X-20150000Y11400000D03*
X-20150000Y10600000D03*
X-20150000Y9800000D03*
X-20950000Y9800000D03*
X-20150000Y9000000D03*
X-20950000Y9000000D03*
X-20150000Y8200000D03*
X-20950000Y8200000D03*
X-20150000Y7400000D03*
X-20950000Y7400000D03*
X-20150000Y6600000D03*
X-20950000Y6600000D03*
X-20150000Y5800000D03*
X-20950000Y5800000D03*
X-20150000Y5000000D03*
X-20950000Y5000000D03*
X-20150000Y4200000D03*
X-20950000Y4200000D03*
X-20150000Y3400000D03*
X-20150000Y2600000D03*
X-20950000Y2450000D03*
X-20950000Y3250000D03*
X-21750000Y2450000D03*
X-21750000Y3250000D03*
X-22550000Y2450000D03*
X-22550000Y3250000D03*
X-23350000Y2450000D03*
X-23350000Y3250000D03*
X-24150000Y2450000D03*
X-24150000Y3250000D03*
X-24950000Y2450000D03*
X-24950000Y3250000D03*
X-25750000Y2450000D03*
X-25750000Y3250000D03*
X-26550000Y2450000D03*
X-26550000Y3250000D03*
X-27350000Y2450000D03*
X-27350000Y3250000D03*
X-28150000Y2450000D03*
X-28150000Y3250000D03*
X-28950000Y2450000D03*
X-28950000Y3250000D03*
X-29750000Y2450000D03*
X-31050000Y11550000D03*
X-32350000Y11550000D03*
X-33650000Y11550000D03*
X-28950000Y8875000D03*
X-28950000Y7000000D03*
X-28950000Y5125000D03*
%TD*%
D23*
%TO.C,D1*%
X-12400000Y44600000D03*
X-8400000Y44600000D03*
%TD*%
D24*
%TO.C,U2*%
X-21575000Y42375000D03*
X-23275000Y42375000D03*
X-24975000Y42375000D03*
D25*
X-24975000Y33225000D03*
D24*
X-26675000Y42375000D03*
X-28375000Y42375000D03*
%TD*%
D26*
%TO.C,J1*%
X-20200000Y51400000D03*
D27*
X-22200000Y51400000D03*
X-24200000Y51400000D03*
X-26200000Y51400000D03*
X-28200000Y51400000D03*
X-30200000Y51400000D03*
X-32200000Y51400000D03*
X-34200000Y51400000D03*
%TD*%
D28*
%TO.C,L1*%
X-5400000Y35000000D03*
X-15300000Y35000000D03*
%TD*%
D18*
%TO.C,R1*%
X-29500000Y54600000D03*
X-29500000Y57725000D03*
%TD*%
%LPD*%
M02*
