%TF.GenerationSoftware,KiCad,Pcbnew,8.0.7*%
%TF.CreationDate,2025-01-18T17:17:35+01:00*%
%TF.ProjectId,tuff_tuff_pcb,74756666-5f74-4756-9666-5f7063622e6b,rev?*%
%TF.SameCoordinates,Original*%
%TF.FileFunction,Legend,Bot*%
%TF.FilePolarity,Positive*%
%FSLAX46Y46*%
G04 Gerber Fmt 4.6, Leading zero omitted, Abs format (unit mm)*
G04 Created by KiCad (PCBNEW 8.0.7) date 2025-01-18 17:17:35*
%MOMM*%
%LPD*%
G01*
G04 APERTURE LIST*
%ADD10C,0.100000*%
%ADD11C,0.000000*%
%ADD12R,1.600000X1.600000*%
%ADD13C,1.600000*%
%ADD14R,1.350000X1.350000*%
%ADD15O,1.350000X1.350000*%
G04 APERTURE END LIST*
D10*
X-24703885Y2727581D02*
X-24703885Y3394248D01*
X-24703885Y3203772D02*
X-24751504Y3299010D01*
X-24751504Y3299010D02*
X-24799123Y3346629D01*
X-24799123Y3346629D02*
X-24894361Y3394248D01*
X-24894361Y3394248D02*
X-24989599Y3394248D01*
X-25703885Y2775200D02*
X-25608647Y2727581D01*
X-25608647Y2727581D02*
X-25418171Y2727581D01*
X-25418171Y2727581D02*
X-25322933Y2775200D01*
X-25322933Y2775200D02*
X-25275314Y2870439D01*
X-25275314Y2870439D02*
X-25275314Y3251391D01*
X-25275314Y3251391D02*
X-25322933Y3346629D01*
X-25322933Y3346629D02*
X-25418171Y3394248D01*
X-25418171Y3394248D02*
X-25608647Y3394248D01*
X-25608647Y3394248D02*
X-25703885Y3346629D01*
X-25703885Y3346629D02*
X-25751504Y3251391D01*
X-25751504Y3251391D02*
X-25751504Y3156153D01*
X-25751504Y3156153D02*
X-25275314Y3060915D01*
X-26180076Y2727581D02*
X-26180076Y3727581D01*
X-26608647Y2727581D02*
X-26608647Y3251391D01*
X-26608647Y3251391D02*
X-26561028Y3346629D01*
X-26561028Y3346629D02*
X-26465790Y3394248D01*
X-26465790Y3394248D02*
X-26322933Y3394248D01*
X-26322933Y3394248D02*
X-26227695Y3346629D01*
X-26227695Y3346629D02*
X-26180076Y3299010D01*
X-27084838Y2727581D02*
X-27084838Y3727581D01*
X-27180076Y3108534D02*
X-27465790Y2727581D01*
X-27465790Y3394248D02*
X-27084838Y3013296D01*
X-28322933Y2727581D02*
X-28322933Y3251391D01*
X-28322933Y3251391D02*
X-28275314Y3346629D01*
X-28275314Y3346629D02*
X-28180076Y3394248D01*
X-28180076Y3394248D02*
X-27989600Y3394248D01*
X-27989600Y3394248D02*
X-27894362Y3346629D01*
X-28322933Y2775200D02*
X-28227695Y2727581D01*
X-28227695Y2727581D02*
X-27989600Y2727581D01*
X-27989600Y2727581D02*
X-27894362Y2775200D01*
X-27894362Y2775200D02*
X-27846743Y2870439D01*
X-27846743Y2870439D02*
X-27846743Y2965677D01*
X-27846743Y2965677D02*
X-27894362Y3060915D01*
X-27894362Y3060915D02*
X-27989600Y3108534D01*
X-27989600Y3108534D02*
X-28227695Y3108534D01*
X-28227695Y3108534D02*
X-28322933Y3156153D01*
X-28799124Y2822820D02*
X-28846743Y2775200D01*
X-28846743Y2775200D02*
X-28799124Y2727581D01*
X-28799124Y2727581D02*
X-28751505Y2775200D01*
X-28751505Y2775200D02*
X-28799124Y2822820D01*
X-28799124Y2822820D02*
X-28799124Y2727581D01*
X-29703885Y2727581D02*
X-29703885Y3727581D01*
X-29703885Y2775200D02*
X-29608647Y2727581D01*
X-29608647Y2727581D02*
X-29418171Y2727581D01*
X-29418171Y2727581D02*
X-29322933Y2775200D01*
X-29322933Y2775200D02*
X-29275314Y2822820D01*
X-29275314Y2822820D02*
X-29227695Y2918058D01*
X-29227695Y2918058D02*
X-29227695Y3203772D01*
X-29227695Y3203772D02*
X-29275314Y3299010D01*
X-29275314Y3299010D02*
X-29322933Y3346629D01*
X-29322933Y3346629D02*
X-29418171Y3394248D01*
X-29418171Y3394248D02*
X-29608647Y3394248D01*
X-29608647Y3394248D02*
X-29703885Y3346629D01*
X-30561028Y2775200D02*
X-30465790Y2727581D01*
X-30465790Y2727581D02*
X-30275314Y2727581D01*
X-30275314Y2727581D02*
X-30180076Y2775200D01*
X-30180076Y2775200D02*
X-30132457Y2870439D01*
X-30132457Y2870439D02*
X-30132457Y3251391D01*
X-30132457Y3251391D02*
X-30180076Y3346629D01*
X-30180076Y3346629D02*
X-30275314Y3394248D01*
X-30275314Y3394248D02*
X-30465790Y3394248D01*
X-30465790Y3394248D02*
X-30561028Y3346629D01*
X-30561028Y3346629D02*
X-30608647Y3251391D01*
X-30608647Y3251391D02*
X-30608647Y3156153D01*
X-30608647Y3156153D02*
X-30132457Y3060915D01*
X-30941981Y3394248D02*
X-31180076Y2727581D01*
X-31180076Y2727581D02*
X-31418171Y3394248D01*
X-20438973Y8537525D02*
X-19867545Y8537525D01*
X-20153259Y7537525D02*
X-20153259Y8537525D01*
X-19105640Y8204192D02*
X-19105640Y7537525D01*
X-19534211Y8204192D02*
X-19534211Y7680383D01*
X-19534211Y7680383D02*
X-19486592Y7585144D01*
X-19486592Y7585144D02*
X-19391354Y7537525D01*
X-19391354Y7537525D02*
X-19248497Y7537525D01*
X-19248497Y7537525D02*
X-19153259Y7585144D01*
X-19153259Y7585144D02*
X-19105640Y7632764D01*
X-18772306Y8204192D02*
X-18391354Y8204192D01*
X-18629449Y7537525D02*
X-18629449Y8394668D01*
X-18629449Y8394668D02*
X-18581830Y8489906D01*
X-18581830Y8489906D02*
X-18486592Y8537525D01*
X-18486592Y8537525D02*
X-18391354Y8537525D01*
X-18200877Y8204192D02*
X-17819925Y8204192D01*
X-18058020Y7537525D02*
X-18058020Y8394668D01*
X-18058020Y8394668D02*
X-18010401Y8489906D01*
X-18010401Y8489906D02*
X-17915163Y8537525D01*
X-17915163Y8537525D02*
X-17819925Y8537525D01*
X-16867543Y8537525D02*
X-16296115Y8537525D01*
X-16581829Y7537525D02*
X-16581829Y8537525D01*
X-15534210Y8204192D02*
X-15534210Y7537525D01*
X-15962781Y8204192D02*
X-15962781Y7680383D01*
X-15962781Y7680383D02*
X-15915162Y7585144D01*
X-15915162Y7585144D02*
X-15819924Y7537525D01*
X-15819924Y7537525D02*
X-15677067Y7537525D01*
X-15677067Y7537525D02*
X-15581829Y7585144D01*
X-15581829Y7585144D02*
X-15534210Y7632764D01*
X-15200876Y8204192D02*
X-14819924Y8204192D01*
X-15058019Y7537525D02*
X-15058019Y8394668D01*
X-15058019Y8394668D02*
X-15010400Y8489906D01*
X-15010400Y8489906D02*
X-14915162Y8537525D01*
X-14915162Y8537525D02*
X-14819924Y8537525D01*
X-14629447Y8204192D02*
X-14248495Y8204192D01*
X-14486590Y7537525D02*
X-14486590Y8394668D01*
X-14486590Y8394668D02*
X-14438971Y8489906D01*
X-14438971Y8489906D02*
X-14343733Y8537525D01*
X-14343733Y8537525D02*
X-14248495Y8537525D01*
X-12677066Y7537525D02*
X-13153256Y7537525D01*
X-13153256Y7537525D02*
X-13153256Y8537525D01*
X-12343732Y7537525D02*
X-12343732Y8204192D01*
X-12343732Y8537525D02*
X-12391351Y8489906D01*
X-12391351Y8489906D02*
X-12343732Y8442287D01*
X-12343732Y8442287D02*
X-12296113Y8489906D01*
X-12296113Y8489906D02*
X-12343732Y8537525D01*
X-12343732Y8537525D02*
X-12343732Y8442287D01*
X-11438971Y8204192D02*
X-11438971Y7394668D01*
X-11438971Y7394668D02*
X-11486590Y7299430D01*
X-11486590Y7299430D02*
X-11534209Y7251811D01*
X-11534209Y7251811D02*
X-11629447Y7204192D01*
X-11629447Y7204192D02*
X-11772304Y7204192D01*
X-11772304Y7204192D02*
X-11867542Y7251811D01*
X-11438971Y7585144D02*
X-11534209Y7537525D01*
X-11534209Y7537525D02*
X-11724685Y7537525D01*
X-11724685Y7537525D02*
X-11819923Y7585144D01*
X-11819923Y7585144D02*
X-11867542Y7632764D01*
X-11867542Y7632764D02*
X-11915161Y7728002D01*
X-11915161Y7728002D02*
X-11915161Y8013716D01*
X-11915161Y8013716D02*
X-11867542Y8108954D01*
X-11867542Y8108954D02*
X-11819923Y8156573D01*
X-11819923Y8156573D02*
X-11724685Y8204192D01*
X-11724685Y8204192D02*
X-11534209Y8204192D01*
X-11534209Y8204192D02*
X-11438971Y8156573D01*
X-10962780Y7537525D02*
X-10962780Y8537525D01*
X-10534209Y7537525D02*
X-10534209Y8061335D01*
X-10534209Y8061335D02*
X-10581828Y8156573D01*
X-10581828Y8156573D02*
X-10677066Y8204192D01*
X-10677066Y8204192D02*
X-10819923Y8204192D01*
X-10819923Y8204192D02*
X-10915161Y8156573D01*
X-10915161Y8156573D02*
X-10962780Y8108954D01*
X-10200875Y8204192D02*
X-9819923Y8204192D01*
X-10058018Y8537525D02*
X-10058018Y7680383D01*
X-10058018Y7680383D02*
X-10010399Y7585144D01*
X-10010399Y7585144D02*
X-9915161Y7537525D01*
X-9915161Y7537525D02*
X-9819923Y7537525D01*
X-20343735Y5975200D02*
X-20200878Y5927581D01*
X-20200878Y5927581D02*
X-19962783Y5927581D01*
X-19962783Y5927581D02*
X-19867545Y5975200D01*
X-19867545Y5975200D02*
X-19819926Y6022820D01*
X-19819926Y6022820D02*
X-19772307Y6118058D01*
X-19772307Y6118058D02*
X-19772307Y6213296D01*
X-19772307Y6213296D02*
X-19819926Y6308534D01*
X-19819926Y6308534D02*
X-19867545Y6356153D01*
X-19867545Y6356153D02*
X-19962783Y6403772D01*
X-19962783Y6403772D02*
X-20153259Y6451391D01*
X-20153259Y6451391D02*
X-20248497Y6499010D01*
X-20248497Y6499010D02*
X-20296116Y6546629D01*
X-20296116Y6546629D02*
X-20343735Y6641867D01*
X-20343735Y6641867D02*
X-20343735Y6737105D01*
X-20343735Y6737105D02*
X-20296116Y6832343D01*
X-20296116Y6832343D02*
X-20248497Y6879962D01*
X-20248497Y6879962D02*
X-20153259Y6927581D01*
X-20153259Y6927581D02*
X-19915164Y6927581D01*
X-19915164Y6927581D02*
X-19772307Y6879962D01*
X-18962783Y5975200D02*
X-19058021Y5927581D01*
X-19058021Y5927581D02*
X-19248497Y5927581D01*
X-19248497Y5927581D02*
X-19343735Y5975200D01*
X-19343735Y5975200D02*
X-19391354Y6070439D01*
X-19391354Y6070439D02*
X-19391354Y6451391D01*
X-19391354Y6451391D02*
X-19343735Y6546629D01*
X-19343735Y6546629D02*
X-19248497Y6594248D01*
X-19248497Y6594248D02*
X-19058021Y6594248D01*
X-19058021Y6594248D02*
X-18962783Y6546629D01*
X-18962783Y6546629D02*
X-18915164Y6451391D01*
X-18915164Y6451391D02*
X-18915164Y6356153D01*
X-18915164Y6356153D02*
X-19391354Y6260915D01*
X-18486592Y6594248D02*
X-18486592Y5927581D01*
X-18486592Y6499010D02*
X-18438973Y6546629D01*
X-18438973Y6546629D02*
X-18343735Y6594248D01*
X-18343735Y6594248D02*
X-18200878Y6594248D01*
X-18200878Y6594248D02*
X-18105640Y6546629D01*
X-18105640Y6546629D02*
X-18058021Y6451391D01*
X-18058021Y6451391D02*
X-18058021Y5927581D01*
X-17153259Y5927581D02*
X-17153259Y6927581D01*
X-17153259Y5975200D02*
X-17248497Y5927581D01*
X-17248497Y5927581D02*
X-17438973Y5927581D01*
X-17438973Y5927581D02*
X-17534211Y5975200D01*
X-17534211Y5975200D02*
X-17581830Y6022820D01*
X-17581830Y6022820D02*
X-17629449Y6118058D01*
X-17629449Y6118058D02*
X-17629449Y6403772D01*
X-17629449Y6403772D02*
X-17581830Y6499010D01*
X-17581830Y6499010D02*
X-17534211Y6546629D01*
X-17534211Y6546629D02*
X-17438973Y6594248D01*
X-17438973Y6594248D02*
X-17248497Y6594248D01*
X-17248497Y6594248D02*
X-17153259Y6546629D01*
X-16296116Y5975200D02*
X-16391354Y5927581D01*
X-16391354Y5927581D02*
X-16581830Y5927581D01*
X-16581830Y5927581D02*
X-16677068Y5975200D01*
X-16677068Y5975200D02*
X-16724687Y6070439D01*
X-16724687Y6070439D02*
X-16724687Y6451391D01*
X-16724687Y6451391D02*
X-16677068Y6546629D01*
X-16677068Y6546629D02*
X-16581830Y6594248D01*
X-16581830Y6594248D02*
X-16391354Y6594248D01*
X-16391354Y6594248D02*
X-16296116Y6546629D01*
X-16296116Y6546629D02*
X-16248497Y6451391D01*
X-16248497Y6451391D02*
X-16248497Y6356153D01*
X-16248497Y6356153D02*
X-16724687Y6260915D01*
X-15819925Y5927581D02*
X-15819925Y6594248D01*
X-15819925Y6403772D02*
X-15772306Y6499010D01*
X-15772306Y6499010D02*
X-15724687Y6546629D01*
X-15724687Y6546629D02*
X-15629449Y6594248D01*
X-15629449Y6594248D02*
X-15534211Y6594248D01*
X-14534210Y6594248D02*
X-14296115Y5927581D01*
X-14296115Y5927581D02*
X-14058020Y6594248D01*
X-13153258Y5927581D02*
X-13724686Y5927581D01*
X-13438972Y5927581D02*
X-13438972Y6927581D01*
X-13438972Y6927581D02*
X-13534210Y6784724D01*
X-13534210Y6784724D02*
X-13629448Y6689486D01*
X-13629448Y6689486D02*
X-13724686Y6641867D01*
D11*
%TO.C,G\u002A\u002A\u002A*%
G36*
X-33173803Y9932199D02*
G01*
X-33181131Y9924870D01*
X-33188459Y9932199D01*
X-33181131Y9939527D01*
X-33173803Y9932199D01*
G37*
G36*
X-30696826Y15164628D02*
G01*
X-30704154Y15157300D01*
X-30711483Y15164628D01*
X-30704154Y15171956D01*
X-30696826Y15164628D01*
G37*
G36*
X-30699683Y15223255D02*
G01*
X-30699663Y15219784D01*
X-30701628Y15196839D01*
X-30706440Y15197327D01*
X-30709129Y15209370D01*
X-30706983Y15241297D01*
X-30706258Y15243817D01*
X-30701797Y15245986D01*
X-30699683Y15223255D01*
G37*
G36*
X-31512252Y9982685D02*
G01*
X-31490324Y9970791D01*
X-31489885Y9949245D01*
X-31509294Y9923906D01*
X-31546913Y9900634D01*
X-31581041Y9890088D01*
X-31600169Y9899094D01*
X-31605539Y9931496D01*
X-31600142Y9956341D01*
X-31573941Y9976972D01*
X-31523729Y9983497D01*
X-31512252Y9982685D01*
G37*
G36*
X-31458973Y9348733D02*
G01*
X-31460987Y9322903D01*
X-31480246Y9274381D01*
X-31517599Y9245925D01*
X-31523621Y9244260D01*
X-31557566Y9240324D01*
X-31601875Y9239649D01*
X-31664166Y9241485D01*
X-31664166Y9319357D01*
X-31664166Y9397230D01*
X-31561569Y9397230D01*
X-31458973Y9397230D01*
X-31458973Y9348733D01*
G37*
G36*
X-30608818Y9460011D02*
G01*
X-30585179Y9433778D01*
X-30581737Y9398241D01*
X-30602605Y9361636D01*
X-30620829Y9345706D01*
X-30643625Y9340779D01*
X-30673297Y9357647D01*
X-30692781Y9384898D01*
X-30695772Y9420346D01*
X-30682816Y9451805D01*
X-30655714Y9467975D01*
X-30648541Y9468704D01*
X-30608818Y9460011D01*
G37*
G36*
X-27881063Y7251429D02*
G01*
X-27809644Y7250029D01*
X-27809554Y7093273D01*
X-27809463Y6936517D01*
X-27879082Y6932050D01*
X-27906210Y6931075D01*
X-27942164Y6935519D01*
X-27958664Y6949567D01*
X-27966106Y6983693D01*
X-27969157Y7038762D01*
X-27967642Y7106337D01*
X-27961457Y7178146D01*
X-27952483Y7252830D01*
X-27881063Y7251429D01*
G37*
G36*
X-31594649Y5263682D02*
G01*
X-31570230Y5219401D01*
X-31561569Y5154267D01*
X-31567872Y5114343D01*
X-31594144Y5081674D01*
X-31639847Y5061026D01*
X-31683774Y5066903D01*
X-31721795Y5101426D01*
X-31746286Y5152761D01*
X-31748671Y5205048D01*
X-31728419Y5249147D01*
X-31686833Y5278448D01*
X-31681387Y5280394D01*
X-31632482Y5284787D01*
X-31594649Y5263682D01*
G37*
G36*
X-24917079Y9820404D02*
G01*
X-24890771Y9818743D01*
X-24890061Y9814852D01*
X-24912348Y9807293D01*
X-24945885Y9800793D01*
X-24973156Y9802224D01*
X-24982023Y9803849D01*
X-25002242Y9793720D01*
X-25007166Y9788357D01*
X-25027274Y9787225D01*
X-25034513Y9799018D01*
X-25018997Y9810328D01*
X-24984609Y9818254D01*
X-24936757Y9820789D01*
X-24917079Y9820404D01*
G37*
G36*
X-23144896Y12303522D02*
G01*
X-23133797Y12300512D01*
X-23108407Y12279416D01*
X-23106445Y12246828D01*
X-23128930Y12208800D01*
X-23129071Y12208645D01*
X-23148810Y12187908D01*
X-23162405Y12183531D01*
X-23184087Y12190893D01*
X-23200172Y12207853D01*
X-23207270Y12248655D01*
X-23207135Y12259871D01*
X-23201558Y12294343D01*
X-23182996Y12306972D01*
X-23144896Y12303522D01*
G37*
G36*
X-32973739Y14534217D02*
G01*
X-32946609Y14506631D01*
X-32931595Y14466374D01*
X-32930026Y14421918D01*
X-32943230Y14381735D01*
X-32972540Y14354296D01*
X-32995788Y14344647D01*
X-33041460Y14339560D01*
X-33077487Y14359558D01*
X-33094560Y14388486D01*
X-33099047Y14436841D01*
X-33083668Y14487721D01*
X-33073186Y14505558D01*
X-33043656Y14533458D01*
X-33001925Y14541495D01*
X-32973739Y14534217D01*
G37*
G36*
X-32278487Y5268325D02*
G01*
X-32244535Y5241872D01*
X-32224369Y5202590D01*
X-32222624Y5155616D01*
X-32243935Y5106089D01*
X-32256031Y5092876D01*
X-32295754Y5075207D01*
X-32341401Y5078440D01*
X-32382343Y5102828D01*
X-32400840Y5129431D01*
X-32412016Y5176041D01*
X-32404684Y5221926D01*
X-32379081Y5255892D01*
X-32369209Y5262191D01*
X-32321590Y5276811D01*
X-32278487Y5268325D01*
G37*
G36*
X-31997499Y5273618D02*
G01*
X-31969483Y5249980D01*
X-31949625Y5212380D01*
X-31942115Y5162096D01*
X-31950770Y5114884D01*
X-31975217Y5081674D01*
X-32005984Y5063931D01*
X-32035625Y5062454D01*
X-32063811Y5084507D01*
X-32083269Y5112662D01*
X-32098124Y5162302D01*
X-32094395Y5210985D01*
X-32073276Y5250635D01*
X-32035957Y5273179D01*
X-32031529Y5274226D01*
X-31997499Y5273618D01*
G37*
G36*
X-31262057Y5269897D02*
G01*
X-31232171Y5235465D01*
X-31213656Y5188096D01*
X-31214764Y5142587D01*
X-31240187Y5097476D01*
X-31241567Y5095748D01*
X-31279358Y5065666D01*
X-31317950Y5061305D01*
X-31352060Y5079865D01*
X-31376401Y5118548D01*
X-31385689Y5174554D01*
X-31383675Y5198058D01*
X-31366020Y5242270D01*
X-31335512Y5270708D01*
X-31298681Y5280781D01*
X-31262057Y5269897D01*
G37*
G36*
X-30936363Y5263213D02*
G01*
X-30898410Y5250877D01*
X-30878485Y5220223D01*
X-30872706Y5166682D01*
X-30873136Y5149490D01*
X-30881453Y5108525D01*
X-30902968Y5083294D01*
X-30936120Y5069433D01*
X-30978606Y5077538D01*
X-31019626Y5113934D01*
X-31040481Y5146905D01*
X-31046192Y5187906D01*
X-31025770Y5231476D01*
X-31002305Y5253343D01*
X-30955418Y5264051D01*
X-30936363Y5263213D01*
G37*
G36*
X-30623198Y5264047D02*
G01*
X-30580837Y5251185D01*
X-30551086Y5219007D01*
X-30536687Y5175672D01*
X-30540383Y5129340D01*
X-30564916Y5088171D01*
X-30591403Y5066801D01*
X-30624037Y5061272D01*
X-30663091Y5080861D01*
X-30678506Y5094149D01*
X-30701799Y5134310D01*
X-30706320Y5179257D01*
X-30693747Y5221114D01*
X-30665759Y5252004D01*
X-30624036Y5264051D01*
X-30623198Y5264047D01*
G37*
G36*
X-30289839Y8384073D02*
G01*
X-30254446Y8355878D01*
X-30233067Y8318742D01*
X-30230632Y8277465D01*
X-30252069Y8236844D01*
X-30270337Y8222767D01*
X-30315011Y8210734D01*
X-30363614Y8216331D01*
X-30403693Y8239354D01*
X-30425274Y8274245D01*
X-30433413Y8318212D01*
X-30426565Y8358903D01*
X-30404656Y8385405D01*
X-30382956Y8394446D01*
X-30334319Y8398528D01*
X-30289839Y8384073D01*
G37*
G36*
X-22670052Y14084937D02*
G01*
X-22629636Y14064046D01*
X-22607636Y14026942D01*
X-22606622Y13979951D01*
X-22629163Y13929401D01*
X-22645824Y13913659D01*
X-22686097Y13898291D01*
X-22730180Y13898047D01*
X-22764639Y13914414D01*
X-22766405Y13916259D01*
X-22783066Y13953358D01*
X-22780301Y13998204D01*
X-22761896Y14041612D01*
X-22731641Y14074394D01*
X-22693324Y14087363D01*
X-22670052Y14084937D01*
G37*
G36*
X-32975309Y17193460D02*
G01*
X-32929827Y17174280D01*
X-32897999Y17136704D01*
X-32882485Y17087774D01*
X-32885947Y17034535D01*
X-32911046Y16984031D01*
X-32921210Y16972665D01*
X-32963980Y16948175D01*
X-33010632Y16950542D01*
X-33054575Y16979953D01*
X-33072125Y17002277D01*
X-33093300Y17053973D01*
X-33093774Y17105625D01*
X-33075508Y17150659D01*
X-33040462Y17182501D01*
X-32990594Y17194576D01*
X-32975309Y17193460D01*
G37*
G36*
X-32909606Y12491182D02*
G01*
X-32871996Y12455045D01*
X-32859918Y12406814D01*
X-32874906Y12349319D01*
X-32882426Y12335537D01*
X-32915546Y12304805D01*
X-32961724Y12298856D01*
X-33022882Y12317273D01*
X-33022983Y12317317D01*
X-33062604Y12339516D01*
X-33080991Y12367242D01*
X-33085638Y12411775D01*
X-33081198Y12441556D01*
X-33055426Y12483416D01*
X-33013246Y12508474D01*
X-32962243Y12510650D01*
X-32909606Y12491182D01*
G37*
G36*
X-30312006Y7775579D02*
G01*
X-30269615Y7757719D01*
X-30248316Y7725793D01*
X-30242470Y7673278D01*
X-30249071Y7618793D01*
X-30271783Y7579804D01*
X-30277442Y7574533D01*
X-30320599Y7553044D01*
X-30365996Y7555166D01*
X-30406836Y7577460D01*
X-30436323Y7616487D01*
X-30447663Y7668808D01*
X-30445015Y7700849D01*
X-30425017Y7749658D01*
X-30387456Y7776855D01*
X-30334780Y7780028D01*
X-30312006Y7775579D01*
G37*
G36*
X-25927081Y7440116D02*
G01*
X-25881412Y7409112D01*
X-25857731Y7371708D01*
X-25848258Y7314141D01*
X-25862565Y7253002D01*
X-25900060Y7195093D01*
X-25934331Y7172369D01*
X-25979846Y7168386D01*
X-26026650Y7183580D01*
X-26068194Y7214393D01*
X-26097924Y7257271D01*
X-26109290Y7308656D01*
X-26100801Y7356507D01*
X-26071942Y7402722D01*
X-26028960Y7434005D01*
X-25978468Y7447441D01*
X-25927081Y7440116D01*
G37*
G36*
X-25528865Y8771616D02*
G01*
X-25486386Y8735013D01*
X-25474307Y8718817D01*
X-25454790Y8666062D01*
X-25464057Y8613963D01*
X-25501840Y8565465D01*
X-25502819Y8564608D01*
X-25548172Y8537187D01*
X-25590619Y8538446D01*
X-25633615Y8568463D01*
X-25648772Y8586534D01*
X-25669138Y8638498D01*
X-25663160Y8693043D01*
X-25630950Y8743010D01*
X-25615002Y8757404D01*
X-25571195Y8779049D01*
X-25528865Y8771616D01*
G37*
G36*
X-24485053Y8294434D02*
G01*
X-24465650Y8282275D01*
X-24435578Y8242394D01*
X-24426013Y8192263D01*
X-24437526Y8139868D01*
X-24470685Y8093193D01*
X-24474259Y8089972D01*
X-24519434Y8066440D01*
X-24566849Y8071920D01*
X-24615438Y8106316D01*
X-24620003Y8111013D01*
X-24651640Y8159507D01*
X-24654176Y8206762D01*
X-24627560Y8252145D01*
X-24588552Y8285118D01*
X-24536285Y8303904D01*
X-24485053Y8294434D01*
G37*
G36*
X-22746449Y17184814D02*
G01*
X-22716649Y17151334D01*
X-22698106Y17100735D01*
X-22700104Y17044350D01*
X-22730263Y16996045D01*
X-22732813Y16993550D01*
X-22763881Y16969822D01*
X-22789556Y16960069D01*
X-22815731Y16967684D01*
X-22849206Y16996223D01*
X-22874692Y17037190D01*
X-22884824Y17081221D01*
X-22879579Y17117744D01*
X-22857225Y17159233D01*
X-22823246Y17186050D01*
X-22784151Y17195482D01*
X-22746449Y17184814D01*
G37*
G36*
X-33018263Y16744902D02*
G01*
X-32973635Y16720950D01*
X-32937550Y16680936D01*
X-32917157Y16629590D01*
X-32917534Y16584264D01*
X-32940329Y16532229D01*
X-32983555Y16495225D01*
X-33000972Y16487115D01*
X-33040544Y16478380D01*
X-33075094Y16491314D01*
X-33113658Y16528208D01*
X-33122536Y16538870D01*
X-33154463Y16596852D01*
X-33158567Y16651937D01*
X-33135276Y16700938D01*
X-33085020Y16740670D01*
X-33064286Y16748060D01*
X-33018263Y16744902D01*
G37*
G36*
X-32955621Y14173680D02*
G01*
X-32942080Y14166651D01*
X-32890740Y14130575D01*
X-32867923Y14092137D01*
X-32872969Y14049055D01*
X-32905220Y13999046D01*
X-32932310Y13970802D01*
X-32958940Y13958605D01*
X-32994978Y13960654D01*
X-33049408Y13978475D01*
X-33087187Y14012558D01*
X-33100519Y14059123D01*
X-33096426Y14104404D01*
X-33077523Y14141870D01*
X-33038121Y14169925D01*
X-33018187Y14179320D01*
X-32987824Y14184857D01*
X-32955621Y14173680D01*
G37*
G36*
X-32571671Y5255629D02*
G01*
X-32566271Y5250084D01*
X-32546855Y5210302D01*
X-32542229Y5161155D01*
X-32552092Y5114370D01*
X-32576140Y5081674D01*
X-32577665Y5080607D01*
X-32606580Y5062829D01*
X-32626581Y5062068D01*
X-32651495Y5077571D01*
X-32669792Y5098721D01*
X-32687534Y5143708D01*
X-32693288Y5194352D01*
X-32684318Y5237340D01*
X-32681725Y5242119D01*
X-32650924Y5269891D01*
X-32610871Y5274941D01*
X-32571671Y5255629D01*
G37*
G36*
X-30592594Y8714379D02*
G01*
X-30559544Y8690311D01*
X-30536755Y8651385D01*
X-30527044Y8602350D01*
X-30533232Y8547955D01*
X-30558139Y8492947D01*
X-30559773Y8490542D01*
X-30593320Y8463773D01*
X-30634622Y8459444D01*
X-30676693Y8475061D01*
X-30712548Y8508130D01*
X-30735201Y8556158D01*
X-30738813Y8594625D01*
X-30721845Y8650902D01*
X-30679781Y8697787D01*
X-30678193Y8698953D01*
X-30633083Y8718843D01*
X-30592594Y8714379D01*
G37*
G36*
X-30401289Y14654101D02*
G01*
X-30374895Y14630623D01*
X-30368959Y14617938D01*
X-30358528Y14562809D01*
X-30368839Y14509778D01*
X-30398341Y14469500D01*
X-30434618Y14449179D01*
X-30481435Y14439402D01*
X-30523022Y14445457D01*
X-30549744Y14467473D01*
X-30559811Y14497342D01*
X-30564916Y14539453D01*
X-30564707Y14545126D01*
X-30551016Y14585979D01*
X-30520872Y14620640D01*
X-30481233Y14645773D01*
X-30439053Y14658039D01*
X-30401289Y14654101D01*
G37*
G36*
X-29778519Y7756695D02*
G01*
X-29740157Y7719407D01*
X-29718803Y7666213D01*
X-29717435Y7606679D01*
X-29736159Y7548677D01*
X-29775079Y7500076D01*
X-29809472Y7477572D01*
X-29865098Y7463519D01*
X-29918268Y7472460D01*
X-29964063Y7500863D01*
X-29997567Y7545192D01*
X-30013862Y7601914D01*
X-30008030Y7667494D01*
X-29994625Y7703015D01*
X-29955830Y7752553D01*
X-29903346Y7779387D01*
X-29842474Y7781454D01*
X-29778519Y7756695D01*
G37*
G36*
X-25135297Y14579591D02*
G01*
X-25093702Y14560482D01*
X-25065227Y14535861D01*
X-25054995Y14501916D01*
X-25058800Y14455348D01*
X-25076826Y14413071D01*
X-25111305Y14386299D01*
X-25157561Y14378466D01*
X-25205056Y14389530D01*
X-25243483Y14419115D01*
X-25243531Y14419176D01*
X-25264953Y14456297D01*
X-25273860Y14491334D01*
X-25268265Y14513220D01*
X-25242895Y14547418D01*
X-25206190Y14574606D01*
X-25168323Y14585690D01*
X-25135297Y14579591D01*
G37*
G36*
X-25106200Y8254349D02*
G01*
X-25078869Y8238840D01*
X-25048834Y8199350D01*
X-25038793Y8149292D01*
X-25049621Y8096220D01*
X-25082196Y8047690D01*
X-25108607Y8022001D01*
X-25130383Y8008211D01*
X-25152461Y8010673D01*
X-25186436Y8027099D01*
X-25188741Y8028320D01*
X-25227344Y8063823D01*
X-25241427Y8115247D01*
X-25231026Y8182717D01*
X-25226900Y8194921D01*
X-25197914Y8240476D01*
X-25156666Y8260867D01*
X-25106200Y8254349D01*
G37*
G36*
X-24426551Y17179664D02*
G01*
X-24379519Y17162613D01*
X-24350181Y17135371D01*
X-24346594Y17128060D01*
X-24335503Y17078576D01*
X-24343268Y17031340D01*
X-24368408Y16997542D01*
X-24382739Y16989193D01*
X-24434242Y16976873D01*
X-24489032Y16983076D01*
X-24537071Y17005564D01*
X-24568320Y17042100D01*
X-24582261Y17087521D01*
X-24582365Y17132090D01*
X-24566676Y17161627D01*
X-24532815Y17178233D01*
X-24481056Y17185283D01*
X-24426551Y17179664D01*
G37*
G36*
X-24321054Y12308724D02*
G01*
X-24294795Y12296319D01*
X-24287894Y12286051D01*
X-24278635Y12248041D01*
X-24278119Y12199734D01*
X-24285882Y12153288D01*
X-24301464Y12120860D01*
X-24322441Y12104936D01*
X-24366356Y12093893D01*
X-24411278Y12101289D01*
X-24444928Y12126631D01*
X-24464040Y12171197D01*
X-24463572Y12222350D01*
X-24443742Y12268200D01*
X-24407972Y12301226D01*
X-24359686Y12313907D01*
X-24359558Y12313907D01*
X-24321054Y12308724D01*
G37*
G36*
X-23116079Y17194291D02*
G01*
X-23075130Y17182827D01*
X-23049727Y17151541D01*
X-23036006Y17096218D01*
X-23034923Y17086941D01*
X-23037880Y17040605D01*
X-23060372Y17000375D01*
X-23070978Y16988280D01*
X-23111767Y16961814D01*
X-23152339Y16960665D01*
X-23187611Y16982230D01*
X-23212501Y17023907D01*
X-23221927Y17083094D01*
X-23221701Y17093223D01*
X-23208785Y17148856D01*
X-23176656Y17182977D01*
X-23126182Y17194576D01*
X-23116079Y17194291D01*
G37*
G36*
X-33100519Y9872707D02*
G01*
X-33105735Y9847245D01*
X-33127390Y9836930D01*
X-33128537Y9836951D01*
X-33149463Y9848873D01*
X-33154243Y9875543D01*
X-33146832Y9892587D01*
X-33126818Y9892587D01*
X-33124883Y9862579D01*
X-33119793Y9860093D01*
X-33117490Y9880900D01*
X-33119533Y9901062D01*
X-33124883Y9899221D01*
X-33126818Y9892587D01*
X-33146832Y9892587D01*
X-33140831Y9906388D01*
X-33122097Y9918427D01*
X-33106705Y9906363D01*
X-33102025Y9880900D01*
X-33100519Y9872707D01*
G37*
G36*
X-30535294Y17204212D02*
G01*
X-30491010Y17175556D01*
X-30459600Y17131845D01*
X-30447663Y17075905D01*
X-30447750Y17072367D01*
X-30460180Y17024920D01*
X-30488227Y16975818D01*
X-30524124Y16938974D01*
X-30536915Y16930748D01*
X-30577054Y16917760D01*
X-30616533Y16929077D01*
X-30661650Y16965932D01*
X-30688336Y16998828D01*
X-30711656Y17058130D01*
X-30708061Y17118345D01*
X-30677161Y17174217D01*
X-30636078Y17205046D01*
X-30585850Y17214984D01*
X-30535294Y17204212D01*
G37*
G36*
X-30403702Y16743834D02*
G01*
X-30361598Y16718473D01*
X-30326894Y16678080D01*
X-30307246Y16629167D01*
X-30307482Y16568016D01*
X-30328058Y16510578D01*
X-30365004Y16468487D01*
X-30398895Y16450668D01*
X-30432762Y16450701D01*
X-30477456Y16469319D01*
X-30487901Y16475210D01*
X-30532387Y16516802D01*
X-30555295Y16568930D01*
X-30557386Y16624828D01*
X-30539415Y16677728D01*
X-30502140Y16720864D01*
X-30446319Y16747468D01*
X-30445552Y16747652D01*
X-30403702Y16743834D01*
G37*
G36*
X-25931860Y8348997D02*
G01*
X-25890504Y8317989D01*
X-25870291Y8283826D01*
X-25860573Y8224180D01*
X-25878326Y8160799D01*
X-25923140Y8096451D01*
X-25937930Y8080635D01*
X-25957231Y8066758D01*
X-25979948Y8067020D01*
X-26018196Y8079227D01*
X-26031609Y8084760D01*
X-26076660Y8119609D01*
X-26105399Y8168531D01*
X-26115980Y8223694D01*
X-26106558Y8277267D01*
X-26075285Y8321415D01*
X-26039178Y8344596D01*
X-25984230Y8357918D01*
X-25931860Y8348997D01*
G37*
G36*
X-25930094Y7897827D02*
G01*
X-25885395Y7855934D01*
X-25878896Y7846044D01*
X-25864173Y7793626D01*
X-25873331Y7734681D01*
X-25905546Y7676559D01*
X-25917199Y7663995D01*
X-25960072Y7641335D01*
X-26008094Y7640951D01*
X-26054259Y7660396D01*
X-26091563Y7697225D01*
X-26112999Y7748991D01*
X-26114267Y7767786D01*
X-26101987Y7818359D01*
X-26072961Y7866844D01*
X-26033340Y7901470D01*
X-26030415Y7903035D01*
X-25980115Y7914044D01*
X-25930094Y7897827D01*
G37*
G36*
X-25944263Y15106515D02*
G01*
X-25902653Y15085597D01*
X-25869203Y15045879D01*
X-25850538Y14993349D01*
X-25847569Y14963607D01*
X-25855353Y14932474D01*
X-25882486Y14901745D01*
X-25889367Y14895593D01*
X-25933158Y14869438D01*
X-25978443Y14868813D01*
X-26032343Y14893319D01*
X-26053444Y14907685D01*
X-26074653Y14934477D01*
X-26079977Y14973059D01*
X-26079682Y14981237D01*
X-26062991Y15036132D01*
X-26025919Y15081015D01*
X-25975779Y15106521D01*
X-25944263Y15106515D01*
G37*
G36*
X-25962424Y5847898D02*
G01*
X-25922503Y5826444D01*
X-25887576Y5790289D01*
X-25867651Y5748612D01*
X-25866092Y5738674D01*
X-25871937Y5687137D01*
X-25895084Y5637017D01*
X-25929746Y5601980D01*
X-25942167Y5595953D01*
X-25986398Y5592196D01*
X-26029253Y5610100D01*
X-26064614Y5644326D01*
X-26086363Y5689536D01*
X-26088382Y5740393D01*
X-26079577Y5766105D01*
X-26051694Y5806838D01*
X-26014991Y5837935D01*
X-25978539Y5850318D01*
X-25962424Y5847898D01*
G37*
G36*
X-25922504Y16482907D02*
G01*
X-25881555Y16451561D01*
X-25854259Y16413162D01*
X-25845991Y16366474D01*
X-25850159Y16334625D01*
X-25870440Y16283811D01*
X-25901638Y16239915D01*
X-25937091Y16214086D01*
X-25984894Y16210287D01*
X-26033815Y16228504D01*
X-26071681Y16264459D01*
X-26084306Y16289102D01*
X-26094329Y16347575D01*
X-26083197Y16406547D01*
X-26053411Y16457204D01*
X-26007471Y16490734D01*
X-25986172Y16498508D01*
X-25955940Y16499898D01*
X-25922504Y16482907D01*
G37*
G36*
X-22704740Y8264855D02*
G01*
X-22662464Y8244411D01*
X-22662137Y8244112D01*
X-22641493Y8207178D01*
X-22637298Y8156900D01*
X-22647738Y8102746D01*
X-22671003Y8054183D01*
X-22705279Y8020678D01*
X-22735498Y8008211D01*
X-22779662Y8010000D01*
X-22815446Y8036001D01*
X-22839428Y8083155D01*
X-22848182Y8148400D01*
X-22847215Y8174417D01*
X-22837460Y8212934D01*
X-22813581Y8240649D01*
X-22804957Y8246930D01*
X-22756288Y8265594D01*
X-22704740Y8264855D01*
G37*
G36*
X-22645098Y12528169D02*
G01*
X-22598353Y12497781D01*
X-22584032Y12481178D01*
X-22563137Y12431008D01*
X-22570254Y12378418D01*
X-22605220Y12327436D01*
X-22615283Y12317618D01*
X-22642078Y12294028D01*
X-22657246Y12284593D01*
X-22670363Y12286917D01*
X-22706096Y12305149D01*
X-22741547Y12334093D01*
X-22764717Y12364795D01*
X-22778641Y12404417D01*
X-22777435Y12449987D01*
X-22751850Y12495138D01*
X-22738018Y12509890D01*
X-22693800Y12532168D01*
X-22645098Y12528169D01*
G37*
G36*
X-22121229Y14993537D02*
G01*
X-22090124Y14982197D01*
X-22065114Y14957458D01*
X-22054926Y14942880D01*
X-22035208Y14885825D01*
X-22042901Y14827830D01*
X-22077580Y14775099D01*
X-22099289Y14754093D01*
X-22125132Y14736599D01*
X-22152011Y14735581D01*
X-22192806Y14748010D01*
X-22237630Y14773847D01*
X-22271956Y14822719D01*
X-22283901Y14888146D01*
X-22281756Y14918890D01*
X-22263982Y14963341D01*
X-22226070Y14988285D01*
X-22165439Y14996076D01*
X-22121229Y14993537D01*
G37*
G36*
X-22088908Y8260195D02*
G01*
X-22043369Y8223573D01*
X-22022019Y8193039D01*
X-22007527Y8142097D01*
X-22020378Y8089034D01*
X-22060877Y8030496D01*
X-22077336Y8017386D01*
X-22119809Y8005685D01*
X-22165938Y8011171D01*
X-22202751Y8033566D01*
X-22208876Y8041849D01*
X-22225778Y8080513D01*
X-22236116Y8127720D01*
X-22238320Y8171385D01*
X-22229615Y8201906D01*
X-22205736Y8230911D01*
X-22186896Y8247193D01*
X-22137774Y8268114D01*
X-22088908Y8260195D01*
G37*
G36*
X-32825380Y6649909D02*
G01*
X-32819783Y6627121D01*
X-32818815Y6622026D01*
X-32813846Y6571870D01*
X-32812600Y6507048D01*
X-32815377Y6440248D01*
X-32816992Y6420313D01*
X-32822046Y6368751D01*
X-32826898Y6332821D01*
X-32830687Y6319331D01*
X-32831038Y6319653D01*
X-32833097Y6337291D01*
X-32834545Y6377924D01*
X-32835254Y6436060D01*
X-32835093Y6506203D01*
X-32834874Y6529343D01*
X-32833805Y6596216D01*
X-32832076Y6636944D01*
X-32829373Y6654013D01*
X-32825380Y6649909D01*
G37*
G36*
X-28735332Y11784697D02*
G01*
X-28703260Y11774641D01*
X-28681365Y11751423D01*
X-28662268Y11716369D01*
X-28642642Y11649641D01*
X-28641357Y11584076D01*
X-28658096Y11527150D01*
X-28692545Y11486342D01*
X-28720639Y11472084D01*
X-28778373Y11463025D01*
X-28836829Y11473164D01*
X-28883800Y11501531D01*
X-28898171Y11517552D01*
X-28929104Y11575399D01*
X-28935893Y11635785D01*
X-28920892Y11692887D01*
X-28886455Y11740883D01*
X-28834936Y11773950D01*
X-28768688Y11786267D01*
X-28735332Y11784697D01*
G37*
G36*
X-26956086Y10516828D02*
G01*
X-26908544Y10487850D01*
X-26880585Y10437483D01*
X-26871437Y10364868D01*
X-26871491Y10359159D01*
X-26880238Y10308062D01*
X-26907412Y10268636D01*
X-26908366Y10267698D01*
X-26952885Y10242194D01*
X-27010335Y10231791D01*
X-27068514Y10237076D01*
X-27115220Y10258635D01*
X-27159695Y10308181D01*
X-27178142Y10363896D01*
X-27168109Y10420863D01*
X-27129394Y10475961D01*
X-27095885Y10505550D01*
X-27061128Y10521629D01*
X-27015805Y10525327D01*
X-26956086Y10516828D01*
G37*
G36*
X-25360025Y8217514D02*
G01*
X-25323573Y8197517D01*
X-25302289Y8164136D01*
X-25297468Y8128508D01*
X-25310570Y8103900D01*
X-25347144Y8082381D01*
X-25381751Y8068068D01*
X-25400746Y8066396D01*
X-25405770Y8078996D01*
X-25406746Y8084069D01*
X-25419783Y8085857D01*
X-25424306Y8084271D01*
X-25442723Y8093648D01*
X-25460407Y8119223D01*
X-25471956Y8151248D01*
X-25471964Y8179976D01*
X-25468385Y8188612D01*
X-25441630Y8213921D01*
X-25402443Y8223268D01*
X-25360025Y8217514D01*
G37*
G36*
X-22622717Y13653076D02*
G01*
X-22594122Y13626685D01*
X-22564643Y13571575D01*
X-22556708Y13507966D01*
X-22570752Y13443360D01*
X-22607208Y13385262D01*
X-22609620Y13382645D01*
X-22644395Y13352321D01*
X-22678110Y13342582D01*
X-22718098Y13353403D01*
X-22771691Y13384764D01*
X-22814457Y13417402D01*
X-22847363Y13459941D01*
X-22853278Y13504804D01*
X-22832402Y13555470D01*
X-22784936Y13615416D01*
X-22758644Y13641426D01*
X-22712426Y13671210D01*
X-22668614Y13674746D01*
X-22622717Y13653076D01*
G37*
G36*
X-25928330Y5433991D02*
G01*
X-25903080Y5426935D01*
X-25852015Y5394351D01*
X-25816837Y5345130D01*
X-25798881Y5285733D01*
X-25799481Y5222621D01*
X-25819969Y5162256D01*
X-25861680Y5111098D01*
X-25864835Y5108499D01*
X-25919651Y5078990D01*
X-25974621Y5074205D01*
X-26026423Y5090029D01*
X-26071736Y5122346D01*
X-26107235Y5167041D01*
X-26129599Y5219998D01*
X-26135505Y5277102D01*
X-26121631Y5334236D01*
X-26084654Y5387287D01*
X-26051586Y5414782D01*
X-25995595Y5436664D01*
X-25928330Y5433991D01*
G37*
G36*
X-25893292Y6897422D02*
G01*
X-25882148Y6890915D01*
X-25833105Y6844808D01*
X-25806268Y6786707D01*
X-25802289Y6723389D01*
X-25821818Y6661630D01*
X-25865506Y6608207D01*
X-25870962Y6604014D01*
X-25918738Y6586080D01*
X-25976664Y6587024D01*
X-26035249Y6605469D01*
X-26085003Y6640039D01*
X-26108184Y6665848D01*
X-26126630Y6702546D01*
X-26131275Y6751022D01*
X-26129604Y6775044D01*
X-26108708Y6835200D01*
X-26068629Y6881207D01*
X-26015366Y6909374D01*
X-25954920Y6916010D01*
X-25893292Y6897422D01*
G37*
G36*
X-29836426Y8451599D02*
G01*
X-29789237Y8421259D01*
X-29780827Y8413889D01*
X-29752248Y8377271D01*
X-29744143Y8334273D01*
X-29746358Y8301680D01*
X-29764998Y8232432D01*
X-29798733Y8177090D01*
X-29827635Y8159348D01*
X-29870904Y8151414D01*
X-29872186Y8151417D01*
X-29905537Y8156207D01*
X-29932872Y8174364D01*
X-29963901Y8212240D01*
X-29972619Y8224903D01*
X-30002581Y8289499D01*
X-30006036Y8348399D01*
X-29983371Y8398591D01*
X-29934973Y8437067D01*
X-29934537Y8437292D01*
X-29881535Y8456583D01*
X-29836426Y8451599D01*
G37*
G36*
X-30448018Y15113307D02*
G01*
X-30359456Y15112977D01*
X-30294391Y15111957D01*
X-30248881Y15109874D01*
X-30218984Y15106356D01*
X-30200757Y15101028D01*
X-30190257Y15093519D01*
X-30183543Y15083456D01*
X-30180616Y15076735D01*
X-30172895Y15038323D01*
X-30172035Y14991852D01*
X-30176515Y14930121D01*
X-30447663Y14922291D01*
X-30529327Y14919844D01*
X-30611450Y14917193D01*
X-30680795Y14914756D01*
X-30731853Y14912726D01*
X-30759117Y14911299D01*
X-30799423Y14908136D01*
X-30799423Y15010733D01*
X-30799423Y15113330D01*
X-30499477Y15113330D01*
X-30448018Y15113307D01*
G37*
G36*
X-28725822Y10522656D02*
G01*
X-28699114Y10511089D01*
X-28678208Y10486132D01*
X-28676677Y10483703D01*
X-28659007Y10436878D01*
X-28652221Y10379227D01*
X-28652257Y10375210D01*
X-28659931Y10317775D01*
X-28678208Y10272322D01*
X-28696344Y10249856D01*
X-28723688Y10236069D01*
X-28767836Y10232660D01*
X-28807108Y10236731D01*
X-28865678Y10261963D01*
X-28906742Y10305980D01*
X-28926451Y10363808D01*
X-28920952Y10430472D01*
X-28920225Y10432998D01*
X-28891898Y10484346D01*
X-28843159Y10515055D01*
X-28773477Y10525468D01*
X-28769581Y10525477D01*
X-28725822Y10522656D01*
G37*
G36*
X-27027394Y11785129D02*
G01*
X-26967917Y11766943D01*
X-26921214Y11730987D01*
X-26889200Y11682965D01*
X-26873791Y11628579D01*
X-26876900Y11573533D01*
X-26900443Y11523530D01*
X-26946333Y11484274D01*
X-26957669Y11478544D01*
X-27021026Y11463412D01*
X-27083531Y11473130D01*
X-27136384Y11506663D01*
X-27139047Y11509348D01*
X-27164544Y11540830D01*
X-27176350Y11575008D01*
X-27179227Y11625043D01*
X-27179214Y11629752D01*
X-27175820Y11678101D01*
X-27163130Y11711605D01*
X-27136384Y11743424D01*
X-27098462Y11772833D01*
X-27047716Y11786267D01*
X-27027394Y11785129D01*
G37*
G36*
X-25974896Y6357953D02*
G01*
X-25949478Y6332996D01*
X-25922774Y6290527D01*
X-25898768Y6238711D01*
X-25881444Y6185712D01*
X-25874783Y6139695D01*
X-25874986Y6129604D01*
X-25885484Y6082148D01*
X-25916772Y6040581D01*
X-25929839Y6028522D01*
X-25969551Y6007329D01*
X-26008420Y6013854D01*
X-26050822Y6048351D01*
X-26065058Y6066403D01*
X-26083515Y6120991D01*
X-26074739Y6185898D01*
X-26038748Y6260792D01*
X-26018542Y6296511D01*
X-26003267Y6331841D01*
X-26000969Y6351239D01*
X-26001341Y6359279D01*
X-25982780Y6361046D01*
X-25974896Y6357953D01*
G37*
G36*
X-33613288Y8391950D02*
G01*
X-33579564Y8367517D01*
X-33540956Y8333661D01*
X-33504574Y8297100D01*
X-33477531Y8264549D01*
X-33466936Y8242724D01*
X-33467630Y8239146D01*
X-33483481Y8216530D01*
X-33514515Y8186548D01*
X-33553079Y8156017D01*
X-33591517Y8131757D01*
X-33595618Y8129651D01*
X-33659938Y8109575D01*
X-33719227Y8114092D01*
X-33767468Y8142823D01*
X-33802120Y8190539D01*
X-33815494Y8245105D01*
X-33802190Y8296744D01*
X-33801501Y8297942D01*
X-33771118Y8331894D01*
X-33725355Y8365008D01*
X-33675747Y8390188D01*
X-33633829Y8400336D01*
X-33613288Y8391950D01*
G37*
G36*
X-25931951Y17348041D02*
G01*
X-25897117Y17341796D01*
X-25867145Y17323606D01*
X-25830726Y17287782D01*
X-25785339Y17225857D01*
X-25760964Y17151697D01*
X-25763950Y17069681D01*
X-25765072Y17064421D01*
X-25784934Y17016377D01*
X-25818003Y16968732D01*
X-25856790Y16930623D01*
X-25893809Y16911190D01*
X-25950194Y16906995D01*
X-26017841Y16923497D01*
X-26074697Y16960876D01*
X-26117399Y17014565D01*
X-26142586Y17079997D01*
X-26146893Y17152605D01*
X-26126958Y17227824D01*
X-26121134Y17240300D01*
X-26078567Y17301386D01*
X-26022685Y17336947D01*
X-25951324Y17348471D01*
X-25931951Y17348041D01*
G37*
G36*
X-22143842Y16424857D02*
G01*
X-22105468Y16409293D01*
X-22094963Y16404381D01*
X-22049487Y16374497D01*
X-22026463Y16336006D01*
X-22020081Y16280115D01*
X-22023282Y16250160D01*
X-22040243Y16212751D01*
X-22076438Y16169227D01*
X-22100365Y16145027D01*
X-22128135Y16119777D01*
X-22143121Y16109983D01*
X-22160017Y16112864D01*
X-22201160Y16134973D01*
X-22243922Y16172869D01*
X-22280873Y16219319D01*
X-22304580Y16267093D01*
X-22307677Y16287272D01*
X-22296188Y16333140D01*
X-22264288Y16376720D01*
X-22216929Y16409945D01*
X-22201617Y16417056D01*
X-22170916Y16427416D01*
X-22143842Y16424857D01*
G37*
G36*
X-31866974Y15752240D02*
G01*
X-31790612Y15749250D01*
X-31576226Y15739120D01*
X-31576099Y15598441D01*
X-31575927Y15571963D01*
X-31574181Y15498864D01*
X-31570966Y15431369D01*
X-31566790Y15381330D01*
X-31557609Y15304898D01*
X-31717148Y15300167D01*
X-31763124Y15298775D01*
X-31839321Y15296365D01*
X-31907612Y15294088D01*
X-31957299Y15292294D01*
X-32037911Y15289153D01*
X-32030583Y15515175D01*
X-32029003Y15558812D01*
X-32025534Y15632208D01*
X-32021652Y15692096D01*
X-32017727Y15733212D01*
X-32014126Y15750289D01*
X-32010087Y15751582D01*
X-31982124Y15753431D01*
X-31932615Y15753642D01*
X-31866974Y15752240D01*
G37*
G36*
X-27181258Y17359874D02*
G01*
X-27116715Y17326223D01*
X-27058583Y17266590D01*
X-27041354Y17236289D01*
X-27025759Y17174750D01*
X-27026484Y17108000D01*
X-27042113Y17044172D01*
X-27071229Y16991393D01*
X-27112414Y16957794D01*
X-27149913Y16940708D01*
X-27149913Y16152679D01*
X-27149913Y15364651D01*
X-27230525Y15416971D01*
X-27311137Y15469292D01*
X-27311137Y16200611D01*
X-27311137Y16931930D01*
X-27368437Y16986438D01*
X-27405279Y17029950D01*
X-27435723Y17099223D01*
X-27438964Y17171900D01*
X-27415062Y17243674D01*
X-27364075Y17310240D01*
X-27314083Y17347018D01*
X-27248337Y17366990D01*
X-27181258Y17359874D01*
G37*
G36*
X-25257709Y16446585D02*
G01*
X-25199143Y16438133D01*
X-25161873Y16415668D01*
X-25140731Y16374582D01*
X-25130549Y16310263D01*
X-25128671Y16269288D01*
X-25133653Y16232092D01*
X-25148730Y16207894D01*
X-25161340Y16198182D01*
X-25202184Y16185695D01*
X-25263262Y16185703D01*
X-25347788Y16198045D01*
X-25354035Y16199255D01*
X-25416164Y16216301D01*
X-25454406Y16240857D01*
X-25473718Y16278011D01*
X-25479054Y16332852D01*
X-25478637Y16361903D01*
X-25473731Y16392978D01*
X-25458769Y16410923D01*
X-25428226Y16425849D01*
X-25398007Y16434808D01*
X-25342875Y16443660D01*
X-25283931Y16447086D01*
X-25257709Y16446585D01*
G37*
G36*
X-31546380Y6633910D02*
G01*
X-31493877Y6596203D01*
X-31457756Y6543825D01*
X-31444316Y6481908D01*
X-31447476Y6454413D01*
X-31464316Y6401789D01*
X-31491589Y6346484D01*
X-31524642Y6296203D01*
X-31558819Y6258655D01*
X-31589466Y6241547D01*
X-31596956Y6240684D01*
X-31630536Y6240119D01*
X-31669246Y6242317D01*
X-31701604Y6246384D01*
X-31716130Y6251424D01*
X-31723779Y6263278D01*
X-31743545Y6293018D01*
X-31771093Y6334114D01*
X-31794222Y6371635D01*
X-31820570Y6436880D01*
X-31823079Y6497593D01*
X-31802698Y6560584D01*
X-31800212Y6565624D01*
X-31769046Y6606300D01*
X-31721415Y6633399D01*
X-31651243Y6650528D01*
X-31608963Y6651811D01*
X-31546380Y6633910D01*
G37*
G36*
X-31239727Y17296536D02*
G01*
X-31204644Y17289131D01*
X-31188438Y17271524D01*
X-31188020Y17270113D01*
X-31184797Y17245371D01*
X-31180821Y17196989D01*
X-31176341Y17129860D01*
X-31171605Y17048877D01*
X-31166860Y16958932D01*
X-31162354Y16864917D01*
X-31158336Y16771726D01*
X-31155052Y16684251D01*
X-31152751Y16607384D01*
X-31151681Y16546019D01*
X-31151183Y16476399D01*
X-31252043Y16476399D01*
X-31352904Y16476399D01*
X-31348497Y16871610D01*
X-31348488Y16872444D01*
X-31346982Y16977551D01*
X-31344981Y17073218D01*
X-31342621Y17155471D01*
X-31340033Y17220335D01*
X-31337352Y17263835D01*
X-31334712Y17281997D01*
X-31330221Y17285863D01*
X-31302818Y17293951D01*
X-31261811Y17297173D01*
X-31239727Y17296536D01*
G37*
G36*
X-32345643Y17291285D02*
G01*
X-32311455Y17270256D01*
X-32301703Y17257399D01*
X-32293790Y17237011D01*
X-32287745Y17205234D01*
X-32282967Y17157587D01*
X-32278857Y17089591D01*
X-32274814Y16996766D01*
X-32273246Y16955111D01*
X-32270027Y16856332D01*
X-32267439Y16758626D01*
X-32265716Y16671399D01*
X-32265089Y16604051D01*
X-32265089Y16457907D01*
X-32320052Y16466992D01*
X-32324262Y16467672D01*
X-32371901Y16473682D01*
X-32411656Y16476239D01*
X-32448298Y16476400D01*
X-32447269Y16863788D01*
X-32446737Y16987500D01*
X-32445517Y17085411D01*
X-32443079Y17160204D01*
X-32438895Y17214980D01*
X-32432434Y17252841D01*
X-32423166Y17276889D01*
X-32410561Y17290226D01*
X-32394089Y17295953D01*
X-32373220Y17297173D01*
X-32345643Y17291285D01*
G37*
G36*
X-33577446Y7802983D02*
G01*
X-33512088Y7771418D01*
X-33456503Y7713470D01*
X-33415637Y7654636D01*
X-33122504Y7650198D01*
X-32829371Y7645759D01*
X-32829371Y7572620D01*
X-32829800Y7541217D01*
X-32834204Y7511959D01*
X-32847191Y7497778D01*
X-32873341Y7490078D01*
X-32890725Y7487813D01*
X-32936649Y7484729D01*
X-33001817Y7482071D01*
X-33080276Y7480066D01*
X-33166075Y7478941D01*
X-33414838Y7477207D01*
X-33466536Y7417388D01*
X-33514824Y7372316D01*
X-33569532Y7346682D01*
X-33605057Y7342439D01*
X-33677758Y7353034D01*
X-33743940Y7386170D01*
X-33798066Y7437302D01*
X-33834601Y7501884D01*
X-33848009Y7575371D01*
X-33842124Y7632867D01*
X-33812416Y7703032D01*
X-33756420Y7761020D01*
X-33720158Y7784214D01*
X-33648246Y7807477D01*
X-33577446Y7802983D01*
G37*
G36*
X-29851689Y7103521D02*
G01*
X-29787576Y7078834D01*
X-29732729Y7034445D01*
X-29690760Y6975773D01*
X-29665285Y6908239D01*
X-29659916Y6837262D01*
X-29678267Y6768262D01*
X-29679232Y6766277D01*
X-29714397Y6718443D01*
X-29764243Y6678327D01*
X-29806477Y6657947D01*
X-29882715Y6641539D01*
X-29957833Y6647684D01*
X-30024927Y6675383D01*
X-30077088Y6723636D01*
X-30079025Y6726291D01*
X-30091310Y6741419D01*
X-30105518Y6751501D01*
X-30127126Y6757465D01*
X-30161613Y6760242D01*
X-30214455Y6760760D01*
X-30291131Y6759950D01*
X-30476976Y6757554D01*
X-30476976Y6846232D01*
X-30476976Y6934911D01*
X-30296223Y6934911D01*
X-30115471Y6934911D01*
X-30080038Y6988724D01*
X-30034278Y7045594D01*
X-29974603Y7087337D01*
X-29903376Y7105877D01*
X-29851689Y7103521D01*
G37*
G36*
X-25183409Y14966262D02*
G01*
X-25145278Y14947059D01*
X-25143944Y14945659D01*
X-25127713Y14910146D01*
X-25123721Y14861440D01*
X-25131566Y14812053D01*
X-25150843Y14774498D01*
X-25178836Y14755995D01*
X-25222646Y14747050D01*
X-25266062Y14752464D01*
X-25296605Y14772416D01*
X-25308282Y14786103D01*
X-25319367Y14784461D01*
X-25333240Y14758440D01*
X-25351976Y14729712D01*
X-25374835Y14712653D01*
X-25409458Y14708127D01*
X-25463254Y14720278D01*
X-25506953Y14752238D01*
X-25535853Y14798104D01*
X-25545252Y14851975D01*
X-25530447Y14907952D01*
X-25520080Y14924153D01*
X-25480206Y14954645D01*
X-25430924Y14962047D01*
X-25380924Y14944251D01*
X-25354036Y14928927D01*
X-25331595Y14928223D01*
X-25300639Y14943944D01*
X-25288748Y14950368D01*
X-25234522Y14967299D01*
X-25183409Y14966262D01*
G37*
G36*
X-22045259Y6958785D02*
G01*
X-22038743Y6955922D01*
X-21976419Y6915154D01*
X-21937831Y6858628D01*
X-21920716Y6783151D01*
X-21919407Y6755104D01*
X-21930437Y6675162D01*
X-21965522Y6611095D01*
X-22025524Y6561074D01*
X-22043314Y6551310D01*
X-22089425Y6532285D01*
X-22126812Y6524663D01*
X-22182801Y6533158D01*
X-22248783Y6563897D01*
X-22299879Y6611117D01*
X-22333383Y6656434D01*
X-22524828Y6656522D01*
X-22601573Y6657183D01*
X-22690901Y6659209D01*
X-22773144Y6662268D01*
X-22837190Y6666023D01*
X-22958107Y6675435D01*
X-22958080Y6750211D01*
X-22958053Y6824986D01*
X-22647161Y6828344D01*
X-22336269Y6831701D01*
X-22312252Y6878145D01*
X-22300676Y6897128D01*
X-22251997Y6943073D01*
X-22188379Y6970121D01*
X-22117054Y6976087D01*
X-22045259Y6958785D01*
G37*
G36*
X-31801862Y17297172D02*
G01*
X-31781623Y17295744D01*
X-31765563Y17289499D01*
X-31753150Y17275376D01*
X-31743855Y17250312D01*
X-31737147Y17211245D01*
X-31732495Y17155114D01*
X-31729369Y17078855D01*
X-31727238Y16979408D01*
X-31725572Y16853709D01*
X-31721023Y16458659D01*
X-31813512Y16469177D01*
X-31858042Y16474492D01*
X-31892721Y16479164D01*
X-31906001Y16481712D01*
X-31905755Y16495168D01*
X-31905023Y16534237D01*
X-31903875Y16595072D01*
X-31902386Y16673822D01*
X-31900628Y16766639D01*
X-31898673Y16869673D01*
X-31898029Y16903250D01*
X-31895743Y17012861D01*
X-31893466Y17097546D01*
X-31890892Y17160773D01*
X-31887716Y17206008D01*
X-31883634Y17236721D01*
X-31878339Y17256378D01*
X-31871527Y17268447D01*
X-31862894Y17276395D01*
X-31840163Y17288547D01*
X-31802398Y17297173D01*
X-31801862Y17297172D01*
G37*
G36*
X-29841661Y6360390D02*
G01*
X-29803152Y6345123D01*
X-29760348Y6311658D01*
X-29742237Y6294005D01*
X-29705079Y6250319D01*
X-29679695Y6210511D01*
X-29670561Y6188418D01*
X-29656828Y6111129D01*
X-29667932Y6034752D01*
X-29702035Y5966328D01*
X-29757303Y5912901D01*
X-29798422Y5892016D01*
X-29871404Y5878557D01*
X-29946775Y5888548D01*
X-30017301Y5920615D01*
X-30075750Y5973385D01*
X-30117888Y6026197D01*
X-30290104Y6026197D01*
X-30462320Y6026197D01*
X-30462320Y6119898D01*
X-30462178Y6139418D01*
X-30459341Y6185718D01*
X-30451654Y6211427D01*
X-30437544Y6223105D01*
X-30422520Y6225538D01*
X-30381658Y6226924D01*
X-30324207Y6226003D01*
X-30257513Y6222788D01*
X-30102258Y6212964D01*
X-30061681Y6266163D01*
X-30018149Y6312870D01*
X-29953091Y6350979D01*
X-29876823Y6363301D01*
X-29841661Y6360390D01*
G37*
G36*
X-33598643Y9859140D02*
G01*
X-33531272Y9826328D01*
X-33526913Y9823284D01*
X-33503468Y9808036D01*
X-33481026Y9797841D01*
X-33453527Y9791825D01*
X-33414908Y9789115D01*
X-33359108Y9788837D01*
X-33280063Y9790117D01*
X-33085863Y9793821D01*
X-33085857Y9701786D01*
X-33085851Y9609752D01*
X-33278619Y9614945D01*
X-33316624Y9615902D01*
X-33385028Y9616875D01*
X-33431193Y9615768D01*
X-33460022Y9612113D01*
X-33476420Y9605446D01*
X-33485288Y9595299D01*
X-33485840Y9594357D01*
X-33509413Y9571301D01*
X-33545353Y9550373D01*
X-33592379Y9534956D01*
X-33661532Y9533909D01*
X-33731893Y9560854D01*
X-33742134Y9567117D01*
X-33788147Y9608989D01*
X-33820885Y9661054D01*
X-33833352Y9712834D01*
X-33827935Y9740126D01*
X-33803722Y9785084D01*
X-33767670Y9825464D01*
X-33728174Y9850291D01*
X-33669920Y9864194D01*
X-33598643Y9859140D01*
G37*
G36*
X-32925613Y8423954D02*
G01*
X-32882475Y8390581D01*
X-32850663Y8331607D01*
X-32844579Y8315988D01*
X-32828283Y8294924D01*
X-32804319Y8294536D01*
X-32783634Y8295504D01*
X-32753896Y8275477D01*
X-32752067Y8272944D01*
X-32736112Y8240849D01*
X-32744066Y8215847D01*
X-32778073Y8190387D01*
X-32811575Y8161745D01*
X-32822124Y8124936D01*
X-32824619Y8087600D01*
X-32837667Y8030398D01*
X-32858974Y7985344D01*
X-32885246Y7960996D01*
X-32930613Y7950146D01*
X-32984394Y7958879D01*
X-33025965Y7991576D01*
X-33050106Y8045559D01*
X-33050993Y8049472D01*
X-33063682Y8092233D01*
X-33081018Y8138636D01*
X-33087891Y8158930D01*
X-33098756Y8213521D01*
X-33102781Y8270546D01*
X-33102433Y8290122D01*
X-33097830Y8332269D01*
X-33084278Y8361407D01*
X-33057159Y8389585D01*
X-33030864Y8409685D01*
X-32976326Y8430673D01*
X-32925613Y8423954D01*
G37*
G36*
X-22028184Y7646144D02*
G01*
X-21971640Y7604388D01*
X-21929794Y7541271D01*
X-21918769Y7510589D01*
X-21911294Y7434864D01*
X-21929644Y7362809D01*
X-21971621Y7300426D01*
X-22035029Y7253716D01*
X-22040218Y7251207D01*
X-22086018Y7234793D01*
X-22126812Y7228067D01*
X-22136013Y7228342D01*
X-22195113Y7240807D01*
X-22250394Y7267585D01*
X-22289168Y7302833D01*
X-22289285Y7303000D01*
X-22297784Y7314065D01*
X-22308287Y7322409D01*
X-22324694Y7328426D01*
X-22350907Y7332508D01*
X-22390828Y7335050D01*
X-22448358Y7336443D01*
X-22527399Y7337082D01*
X-22631851Y7337359D01*
X-22950779Y7337969D01*
X-22955174Y7422245D01*
X-22959570Y7506521D01*
X-22653504Y7506521D01*
X-22347438Y7506521D01*
X-22312005Y7561483D01*
X-22287512Y7593524D01*
X-22229089Y7640227D01*
X-22162599Y7664364D01*
X-22093734Y7666236D01*
X-22028184Y7646144D01*
G37*
G36*
X-30549373Y16088963D02*
G01*
X-30468201Y16087158D01*
X-30388467Y16084537D01*
X-30315748Y16081244D01*
X-30255617Y16077426D01*
X-30213649Y16073228D01*
X-30195420Y16068796D01*
X-30192539Y16065362D01*
X-30180620Y16036230D01*
X-30173390Y15994758D01*
X-30171432Y15951145D01*
X-30175329Y15915591D01*
X-30185666Y15898298D01*
X-30196949Y15896322D01*
X-30234609Y15892493D01*
X-30292530Y15887938D01*
X-30365339Y15883068D01*
X-30447663Y15878291D01*
X-30500990Y15875425D01*
X-30582048Y15871090D01*
X-30652165Y15867366D01*
X-30705233Y15864576D01*
X-30735140Y15863044D01*
X-30753175Y15862646D01*
X-30772881Y15868041D01*
X-30783102Y15887600D01*
X-30790102Y15928820D01*
X-30794840Y15966983D01*
X-30798847Y16029540D01*
X-30794317Y16067718D01*
X-30781102Y16084061D01*
X-30776950Y16085117D01*
X-30745772Y16088030D01*
X-30693733Y16089544D01*
X-30626408Y16089807D01*
X-30549373Y16088963D01*
G37*
G36*
X-30932346Y9797263D02*
G01*
X-30854165Y9795736D01*
X-30795667Y9792377D01*
X-30753800Y9786591D01*
X-30725511Y9777779D01*
X-30707748Y9765345D01*
X-30697458Y9748692D01*
X-30691589Y9727223D01*
X-30687089Y9700341D01*
X-30678334Y9646394D01*
X-30830483Y9646297D01*
X-30837468Y9646286D01*
X-30910613Y9644942D01*
X-30961444Y9640748D01*
X-30996385Y9632834D01*
X-31021860Y9620328D01*
X-31032001Y9614408D01*
X-31051628Y9606945D01*
X-31079280Y9601593D01*
X-31119215Y9598026D01*
X-31175689Y9595919D01*
X-31252958Y9594944D01*
X-31355281Y9594776D01*
X-31649473Y9595095D01*
X-31649267Y9675707D01*
X-31648237Y9707981D01*
X-31643615Y9750993D01*
X-31636574Y9776021D01*
X-31634813Y9777994D01*
X-31622234Y9783445D01*
X-31596885Y9787776D01*
X-31556009Y9791118D01*
X-31496848Y9793596D01*
X-31416648Y9795340D01*
X-31312649Y9796478D01*
X-31182096Y9797138D01*
X-31159968Y9797210D01*
X-31033263Y9797555D01*
X-30932346Y9797263D01*
G37*
G36*
X-30697715Y15744598D02*
G01*
X-30691916Y15716616D01*
X-30689498Y15672503D01*
X-30689498Y15604328D01*
X-30440335Y15600458D01*
X-30384615Y15599531D01*
X-30300587Y15597195D01*
X-30239996Y15592785D01*
X-30199012Y15584764D01*
X-30173805Y15571595D01*
X-30160542Y15551743D01*
X-30155394Y15523670D01*
X-30154530Y15485841D01*
X-30155144Y15461097D01*
X-30160508Y15435609D01*
X-30175566Y15419542D01*
X-30205221Y15410611D01*
X-30254379Y15406528D01*
X-30327944Y15405008D01*
X-30329708Y15404987D01*
X-30410502Y15402673D01*
X-30500151Y15398123D01*
X-30579573Y15392300D01*
X-30596091Y15390856D01*
X-30658909Y15386166D01*
X-30712992Y15383275D01*
X-30748124Y15382762D01*
X-30792094Y15384478D01*
X-30796357Y15497036D01*
X-30800619Y15609594D01*
X-30759715Y15614289D01*
X-30731123Y15622546D01*
X-30716979Y15637305D01*
X-30716774Y15639552D01*
X-30715017Y15668614D01*
X-30713315Y15709367D01*
X-30710719Y15738647D01*
X-30704711Y15753068D01*
X-30697715Y15744598D01*
G37*
G36*
X-28484608Y17359587D02*
G01*
X-28427454Y17330604D01*
X-28380578Y17283976D01*
X-28348878Y17221076D01*
X-28337255Y17143278D01*
X-28342755Y17088725D01*
X-28372531Y17016319D01*
X-28428161Y16957725D01*
X-28461685Y16932445D01*
X-28465775Y16180446D01*
X-28469865Y15428448D01*
X-28539058Y15404945D01*
X-28563257Y15396783D01*
X-28599254Y15384896D01*
X-28617351Y15379296D01*
X-28620871Y15380614D01*
X-28626507Y15394991D01*
X-28631122Y15426172D01*
X-28634754Y15475720D01*
X-28637439Y15545196D01*
X-28639216Y15636164D01*
X-28640120Y15750186D01*
X-28640190Y15888825D01*
X-28639462Y16053643D01*
X-28637973Y16246202D01*
X-28631690Y16946703D01*
X-28665754Y16962224D01*
X-28696515Y16985966D01*
X-28729075Y17031500D01*
X-28752903Y17086196D01*
X-28762146Y17139304D01*
X-28761037Y17154342D01*
X-28749274Y17203565D01*
X-28728804Y17253018D01*
X-28717999Y17271604D01*
X-28668734Y17326934D01*
X-28610148Y17359125D01*
X-28547139Y17369552D01*
X-28484608Y17359587D01*
G37*
G36*
X-32505696Y11071861D02*
G01*
X-32345426Y11071663D01*
X-32184900Y11071318D01*
X-32026804Y11070839D01*
X-31873828Y11070237D01*
X-31728660Y11069526D01*
X-31593987Y11068717D01*
X-31472498Y11067824D01*
X-31366881Y11066858D01*
X-31279825Y11065833D01*
X-31214017Y11064761D01*
X-31172146Y11063654D01*
X-31156901Y11062525D01*
X-31155604Y11055865D01*
X-31151744Y11027213D01*
X-31146617Y10983966D01*
X-31137943Y10907171D01*
X-31785792Y10903355D01*
X-31879686Y10902816D01*
X-32191131Y10901270D01*
X-32473806Y10900267D01*
X-32728132Y10899809D01*
X-32954527Y10899902D01*
X-33153413Y10900547D01*
X-33325208Y10901750D01*
X-33470332Y10903513D01*
X-33589204Y10905841D01*
X-33682245Y10908736D01*
X-33749874Y10912203D01*
X-33792511Y10916245D01*
X-33810575Y10920866D01*
X-33811168Y10921372D01*
X-33827471Y10952379D01*
X-33833352Y11003930D01*
X-33833352Y11068090D01*
X-33023572Y11071220D01*
X-32958078Y11071444D01*
X-32814710Y11071764D01*
X-32663019Y11071898D01*
X-32505696Y11071861D01*
G37*
G36*
X-33511581Y6303293D02*
G01*
X-33502571Y6297866D01*
X-33461414Y6265162D01*
X-33431810Y6230009D01*
X-33406652Y6187421D01*
X-33191295Y6188491D01*
X-33168237Y6188663D01*
X-33084603Y6190179D01*
X-33006812Y6192851D01*
X-32942687Y6196359D01*
X-32900051Y6200384D01*
X-32824165Y6211207D01*
X-32819440Y6107710D01*
X-32818079Y6054127D01*
X-32818655Y5979893D01*
X-32821624Y5916273D01*
X-32828534Y5828333D01*
X-32833260Y5917788D01*
X-32837986Y6007243D01*
X-32969407Y6016571D01*
X-32994965Y6018071D01*
X-33078170Y6020291D01*
X-33169264Y6019805D01*
X-33252679Y6016609D01*
X-33404531Y6007317D01*
X-33430174Y5949196D01*
X-33455933Y5909621D01*
X-33508186Y5867598D01*
X-33572043Y5842951D01*
X-33638126Y5840578D01*
X-33710277Y5863188D01*
X-33773267Y5907285D01*
X-33817901Y5966553D01*
X-33842407Y6035776D01*
X-33845015Y6109738D01*
X-33823956Y6183225D01*
X-33777457Y6251020D01*
X-33724250Y6297102D01*
X-33655664Y6328382D01*
X-33584765Y6330448D01*
X-33511581Y6303293D01*
G37*
G36*
X-33545043Y7070598D02*
G01*
X-33496648Y7055090D01*
X-33460929Y7022563D01*
X-33429592Y6968002D01*
X-33404829Y6915818D01*
X-33115439Y6925768D01*
X-32826050Y6935719D01*
X-32823409Y6821821D01*
X-32822844Y6772543D01*
X-32824660Y6736506D01*
X-32829825Y6722377D01*
X-32838993Y6726149D01*
X-32854350Y6732869D01*
X-32889011Y6738144D01*
X-32945174Y6741713D01*
X-33025435Y6743736D01*
X-33132387Y6744374D01*
X-33407556Y6744374D01*
X-33429381Y6704068D01*
X-33449570Y6668320D01*
X-33471628Y6638439D01*
X-33496901Y6620094D01*
X-33534356Y6604808D01*
X-33546752Y6600495D01*
X-33584010Y6588832D01*
X-33606174Y6583876D01*
X-33613750Y6583892D01*
X-33668494Y6596483D01*
X-33727697Y6626807D01*
X-33780550Y6669550D01*
X-33808437Y6700927D01*
X-33833120Y6743754D01*
X-33844253Y6794485D01*
X-33845898Y6820162D01*
X-33834953Y6902488D01*
X-33801545Y6976509D01*
X-33748909Y7034095D01*
X-33736089Y7043499D01*
X-33701253Y7062792D01*
X-33661684Y7071876D01*
X-33605190Y7074149D01*
X-33545043Y7070598D01*
G37*
G36*
X-33536677Y5564203D02*
G01*
X-33499810Y5555565D01*
X-33471114Y5537161D01*
X-33438609Y5503470D01*
X-33386324Y5444685D01*
X-33134322Y5434836D01*
X-33068749Y5432008D01*
X-32991099Y5427918D01*
X-32926798Y5423685D01*
X-32881163Y5419671D01*
X-32859510Y5416235D01*
X-32858417Y5415764D01*
X-32843463Y5394817D01*
X-32836159Y5357411D01*
X-32836478Y5314730D01*
X-32844395Y5277961D01*
X-32859883Y5258291D01*
X-32874585Y5255983D01*
X-32915504Y5253357D01*
X-32976280Y5251270D01*
X-33051596Y5249892D01*
X-33136136Y5249394D01*
X-33389206Y5249394D01*
X-33411765Y5191964D01*
X-33438667Y5145356D01*
X-33490936Y5103833D01*
X-33547339Y5083730D01*
X-33618007Y5077282D01*
X-33686515Y5086940D01*
X-33741450Y5112318D01*
X-33758031Y5125295D01*
X-33805864Y5175704D01*
X-33833232Y5234794D01*
X-33844944Y5311843D01*
X-33846244Y5337567D01*
X-33845045Y5384884D01*
X-33835726Y5419889D01*
X-33815882Y5454364D01*
X-33804622Y5469932D01*
X-33742856Y5528318D01*
X-33667365Y5560844D01*
X-33577848Y5567654D01*
X-33536677Y5564203D01*
G37*
G36*
X-29674196Y5290169D02*
G01*
X-29679425Y5235751D01*
X-29697653Y5172579D01*
X-29732714Y5122296D01*
X-29789461Y5075887D01*
X-29814081Y5060690D01*
X-29853546Y5048084D01*
X-29902950Y5050128D01*
X-29924088Y5053702D01*
X-29990753Y5078812D01*
X-30044203Y5125617D01*
X-30089069Y5197794D01*
X-30089856Y5199407D01*
X-30112526Y5252382D01*
X-30121068Y5293926D01*
X-30118200Y5334304D01*
X-29954942Y5334304D01*
X-29954254Y5287223D01*
X-29925344Y5242153D01*
X-29903652Y5225797D01*
X-29871524Y5222803D01*
X-29844321Y5247165D01*
X-29824196Y5297701D01*
X-29821487Y5331312D01*
X-29839946Y5367238D01*
X-29874313Y5391744D01*
X-29910623Y5390166D01*
X-29942885Y5360037D01*
X-29954942Y5334304D01*
X-30118200Y5334304D01*
X-30118056Y5336337D01*
X-30102435Y5392006D01*
X-30063795Y5456835D01*
X-30010369Y5504191D01*
X-29947236Y5532862D01*
X-29879478Y5541631D01*
X-29812175Y5529287D01*
X-29750409Y5494615D01*
X-29699259Y5436401D01*
X-29693712Y5427124D01*
X-29679232Y5392628D01*
X-29673335Y5350524D01*
X-29673609Y5331312D01*
X-29674196Y5290169D01*
G37*
G36*
X-24940590Y17017873D02*
G01*
X-24966535Y16931594D01*
X-25016895Y16860842D01*
X-25090685Y16807280D01*
X-25113952Y16797533D01*
X-25181757Y16785603D01*
X-25254220Y16790301D01*
X-25317692Y16811381D01*
X-25382450Y16858539D01*
X-25433083Y16925964D01*
X-25459816Y17004298D01*
X-25460745Y17071781D01*
X-25302855Y17071781D01*
X-25296570Y17026013D01*
X-25267198Y16981388D01*
X-25264648Y16978893D01*
X-25233580Y16955165D01*
X-25207905Y16945413D01*
X-25206202Y16945499D01*
X-25179499Y16956823D01*
X-25148612Y16981388D01*
X-25125718Y17012965D01*
X-25112056Y17061362D01*
X-25118487Y17107667D01*
X-25145211Y17142447D01*
X-25178270Y17159154D01*
X-25223761Y17162379D01*
X-25262393Y17145321D01*
X-25290110Y17113336D01*
X-25302855Y17071781D01*
X-25460745Y17071781D01*
X-25460973Y17088371D01*
X-25434879Y17173013D01*
X-25389144Y17242205D01*
X-25325733Y17295703D01*
X-25252385Y17326629D01*
X-25174165Y17333769D01*
X-25096139Y17315905D01*
X-25023370Y17271822D01*
X-24982439Y17227988D01*
X-24948052Y17155739D01*
X-24937079Y17066801D01*
X-24937469Y17061362D01*
X-24940590Y17017873D01*
G37*
G36*
X-27749561Y13265097D02*
G01*
X-27611598Y13222159D01*
X-27584836Y13210709D01*
X-27518744Y13177018D01*
X-27462795Y13137002D01*
X-27403704Y13081684D01*
X-27381784Y13058283D01*
X-27318371Y12976700D01*
X-27264301Y12886900D01*
X-27224295Y12797462D01*
X-27203071Y12716965D01*
X-27201974Y12706044D01*
X-27199661Y12665696D01*
X-27197369Y12606256D01*
X-27195218Y12533772D01*
X-27193328Y12454293D01*
X-27191820Y12373867D01*
X-27190816Y12298545D01*
X-27190435Y12234373D01*
X-27190799Y12187400D01*
X-27192028Y12163676D01*
X-27204432Y12161618D01*
X-27243429Y12159526D01*
X-27306192Y12157629D01*
X-27389833Y12155972D01*
X-27491464Y12154603D01*
X-27608197Y12153568D01*
X-27737145Y12152912D01*
X-27875418Y12152683D01*
X-28556953Y12152683D01*
X-28556779Y12427496D01*
X-28556072Y12513932D01*
X-28551428Y12637198D01*
X-28541263Y12738528D01*
X-28524208Y12822414D01*
X-28498890Y12893346D01*
X-28463940Y12955817D01*
X-28417987Y13014316D01*
X-28359659Y13073337D01*
X-28269437Y13147723D01*
X-28146125Y13220065D01*
X-28017754Y13263865D01*
X-27885256Y13278938D01*
X-27749561Y13265097D01*
G37*
G36*
X-32079889Y11619042D02*
G01*
X-32105921Y11534648D01*
X-32155092Y11467229D01*
X-32228448Y11414943D01*
X-32258524Y11402842D01*
X-32328252Y11392043D01*
X-32402680Y11397574D01*
X-32469023Y11419207D01*
X-32519188Y11450902D01*
X-32578644Y11513414D01*
X-32614297Y11588058D01*
X-32625133Y11670518D01*
X-32622104Y11687882D01*
X-32453628Y11687882D01*
X-32450377Y11636061D01*
X-32419650Y11587736D01*
X-32408987Y11577824D01*
X-32366782Y11555021D01*
X-32324326Y11560565D01*
X-32278619Y11594603D01*
X-32276717Y11596516D01*
X-32244866Y11637207D01*
X-32237527Y11674595D01*
X-32252827Y11717611D01*
X-32279304Y11755056D01*
X-32321574Y11781690D01*
X-32368477Y11780323D01*
X-32416844Y11750325D01*
X-32429511Y11736964D01*
X-32453628Y11687882D01*
X-32622104Y11687882D01*
X-32610137Y11756478D01*
X-32568296Y11841624D01*
X-32562678Y11849472D01*
X-32514852Y11894891D01*
X-32452012Y11931519D01*
X-32384784Y11954295D01*
X-32323791Y11958153D01*
X-32256113Y11939093D01*
X-32180633Y11893107D01*
X-32117121Y11825976D01*
X-32090704Y11783362D01*
X-32077949Y11741176D01*
X-32074875Y11685135D01*
X-32075675Y11674595D01*
X-32079889Y11619042D01*
G37*
G36*
X-25257504Y7678770D02*
G01*
X-25198277Y7659824D01*
X-25149936Y7621865D01*
X-25117972Y7564640D01*
X-25101323Y7513849D01*
X-24813304Y7513849D01*
X-24730748Y7514094D01*
X-24647356Y7515255D01*
X-24587269Y7517575D01*
X-24547104Y7521280D01*
X-24523476Y7526591D01*
X-24513003Y7533735D01*
X-24511730Y7535726D01*
X-24499936Y7545002D01*
X-24490238Y7531764D01*
X-24481788Y7493746D01*
X-24473740Y7428683D01*
X-24469843Y7384806D01*
X-24469611Y7349472D01*
X-24475580Y7330738D01*
X-24488721Y7321671D01*
X-24503969Y7319125D01*
X-24530287Y7328695D01*
X-24534290Y7331139D01*
X-24564666Y7337376D01*
X-24622794Y7341796D01*
X-24709179Y7344427D01*
X-24824323Y7345297D01*
X-25101756Y7345297D01*
X-25158537Y7293999D01*
X-25165810Y7287504D01*
X-25203777Y7258757D01*
X-25240022Y7245751D01*
X-25289287Y7242701D01*
X-25358605Y7249649D01*
X-25426047Y7277781D01*
X-25484053Y7330546D01*
X-25496354Y7346190D01*
X-25527643Y7408706D01*
X-25530832Y7474287D01*
X-25506312Y7546713D01*
X-25493455Y7569492D01*
X-25445593Y7624064D01*
X-25386654Y7660636D01*
X-25322127Y7678956D01*
X-25257504Y7678770D01*
G37*
G36*
X-21891672Y14145149D02*
G01*
X-21911557Y14064858D01*
X-21952266Y13992919D01*
X-22011946Y13934887D01*
X-22088747Y13896322D01*
X-22128189Y13887453D01*
X-22206840Y13889807D01*
X-22281669Y13915749D01*
X-22348003Y13961584D01*
X-22401170Y14023616D01*
X-22436497Y14098149D01*
X-22449312Y14181488D01*
X-22449287Y14186800D01*
X-22448572Y14193679D01*
X-22280989Y14193679D01*
X-22275614Y14143942D01*
X-22245260Y14096690D01*
X-22234316Y14086690D01*
X-22184434Y14061084D01*
X-22133219Y14063502D01*
X-22085369Y14094025D01*
X-22083747Y14095668D01*
X-22055273Y14139546D01*
X-22053601Y14187938D01*
X-22078547Y14244922D01*
X-22093799Y14267174D01*
X-22120512Y14287533D01*
X-22159770Y14292556D01*
X-22176096Y14291662D01*
X-22228343Y14274151D01*
X-22264269Y14239286D01*
X-22280989Y14193679D01*
X-22448572Y14193679D01*
X-22442074Y14256223D01*
X-22418556Y14313371D01*
X-22373714Y14370812D01*
X-22318722Y14418494D01*
X-22249530Y14449071D01*
X-22164856Y14458590D01*
X-22141621Y14457973D01*
X-22062917Y14442645D01*
X-21998003Y14404372D01*
X-21940920Y14340001D01*
X-21921778Y14308554D01*
X-21894462Y14228233D01*
X-21893109Y14187938D01*
X-21891672Y14145149D01*
G37*
G36*
X-22046880Y6238822D02*
G01*
X-21983785Y6199667D01*
X-21935617Y6144266D01*
X-21909129Y6077177D01*
X-21906182Y6042717D01*
X-21918530Y5972546D01*
X-21951163Y5906818D01*
X-21999379Y5853605D01*
X-22058471Y5820976D01*
X-22096355Y5814097D01*
X-22144422Y5814722D01*
X-22149924Y5815728D01*
X-22197022Y5832409D01*
X-22245153Y5860198D01*
X-22284615Y5892579D01*
X-22305707Y5923037D01*
X-22309037Y5931301D01*
X-22316248Y5939050D01*
X-22330458Y5944685D01*
X-22355384Y5948543D01*
X-22394747Y5950959D01*
X-22452266Y5952269D01*
X-22531660Y5952809D01*
X-22636648Y5952914D01*
X-22958107Y5952914D01*
X-22958107Y6037911D01*
X-22958107Y6122908D01*
X-22905651Y6116784D01*
X-22879344Y6115480D01*
X-22826977Y6115208D01*
X-22756281Y6116145D01*
X-22673083Y6118209D01*
X-22583204Y6121316D01*
X-22538296Y6123170D01*
X-22449221Y6127622D01*
X-22385192Y6132306D01*
X-22343193Y6137552D01*
X-22320206Y6143695D01*
X-22313214Y6151065D01*
X-22312056Y6157843D01*
X-22293248Y6185264D01*
X-22257974Y6214719D01*
X-22214759Y6239948D01*
X-22172130Y6254689D01*
X-22118150Y6257173D01*
X-22046880Y6238822D01*
G37*
G36*
X-31335657Y11658175D02*
G01*
X-31355363Y11570955D01*
X-31385999Y11505248D01*
X-31431453Y11454846D01*
X-31495614Y11413539D01*
X-31499350Y11411681D01*
X-31557021Y11395161D01*
X-31625969Y11390990D01*
X-31693455Y11398908D01*
X-31746744Y11418657D01*
X-31754059Y11423260D01*
X-31819216Y11481065D01*
X-31861686Y11551664D01*
X-31881567Y11629904D01*
X-31881460Y11633208D01*
X-31720216Y11633208D01*
X-31704472Y11591401D01*
X-31694735Y11580649D01*
X-31653227Y11559609D01*
X-31604033Y11559475D01*
X-31557674Y11580992D01*
X-31527233Y11619830D01*
X-31515495Y11667448D01*
X-31522993Y11713772D01*
X-31550174Y11748794D01*
X-31569738Y11759893D01*
X-31619115Y11771516D01*
X-31666049Y11764334D01*
X-31699977Y11739036D01*
X-31704187Y11732417D01*
X-31719975Y11684984D01*
X-31720216Y11633208D01*
X-31881460Y11633208D01*
X-31878960Y11710635D01*
X-31853962Y11788707D01*
X-31806672Y11858968D01*
X-31737190Y11916267D01*
X-31708538Y11930662D01*
X-31634492Y11946865D01*
X-31555887Y11940375D01*
X-31479550Y11913213D01*
X-31412311Y11867400D01*
X-31360998Y11804956D01*
X-31338727Y11761300D01*
X-31330114Y11721551D01*
X-31333570Y11672309D01*
X-31334288Y11667448D01*
X-31335657Y11658175D01*
G37*
G36*
X-29779589Y17341808D02*
G01*
X-29719205Y17299135D01*
X-29678101Y17243621D01*
X-29664141Y17203282D01*
X-29657555Y17126551D01*
X-29671559Y17049623D01*
X-29704955Y16984090D01*
X-29744143Y16932712D01*
X-29744143Y15861196D01*
X-29744143Y14789681D01*
X-29806434Y14762004D01*
X-29856341Y14742122D01*
X-29891692Y14732831D01*
X-29906326Y14735921D01*
X-29906539Y14747789D01*
X-29906936Y14786798D01*
X-29907484Y14850746D01*
X-29908166Y14937318D01*
X-29908965Y15044198D01*
X-29909863Y15169071D01*
X-29910845Y15309622D01*
X-29911893Y15463536D01*
X-29912991Y15628498D01*
X-29914120Y15802193D01*
X-29915157Y15953191D01*
X-29916467Y16120816D01*
X-29917866Y16278249D01*
X-29919323Y16423098D01*
X-29920809Y16552975D01*
X-29922295Y16665488D01*
X-29923751Y16758249D01*
X-29925147Y16828867D01*
X-29926454Y16874952D01*
X-29927642Y16894114D01*
X-29928275Y16896379D01*
X-29947338Y16922749D01*
X-29980729Y16946029D01*
X-29982301Y16946808D01*
X-30030526Y16986319D01*
X-30063609Y17044221D01*
X-30079756Y17112993D01*
X-30077169Y17185115D01*
X-30054053Y17253066D01*
X-30018694Y17297873D01*
X-29965291Y17336740D01*
X-29905614Y17360969D01*
X-29849803Y17365006D01*
X-29779589Y17341808D01*
G37*
G36*
X-21889765Y17066839D02*
G01*
X-21899050Y16985019D01*
X-21930499Y16909231D01*
X-21983168Y16844808D01*
X-22056116Y16797082D01*
X-22061715Y16794569D01*
X-22118964Y16774559D01*
X-22169161Y16772081D01*
X-22226751Y16786214D01*
X-22235422Y16789247D01*
X-22316372Y16832660D01*
X-22377833Y16894702D01*
X-22416770Y16971309D01*
X-22430145Y17058418D01*
X-22429464Y17078310D01*
X-22429145Y17079864D01*
X-22255609Y17079864D01*
X-22250115Y17029691D01*
X-22218612Y16981388D01*
X-22210265Y16973129D01*
X-22184332Y16952066D01*
X-22161144Y16948817D01*
X-22127109Y16960242D01*
X-22113341Y16968493D01*
X-22083328Y17000997D01*
X-22059256Y17043132D01*
X-22049394Y17081947D01*
X-22049470Y17083489D01*
X-22059381Y17109761D01*
X-22080872Y17142700D01*
X-22095118Y17159220D01*
X-22121663Y17175541D01*
X-22156857Y17173816D01*
X-22196915Y17159825D01*
X-22237181Y17125408D01*
X-22255609Y17079864D01*
X-22429145Y17079864D01*
X-22412141Y17162830D01*
X-22374736Y17233899D01*
X-22321617Y17289529D01*
X-22257151Y17327731D01*
X-22185707Y17346517D01*
X-22111651Y17343897D01*
X-22039352Y17317884D01*
X-21973177Y17266487D01*
X-21941453Y17227239D01*
X-21903585Y17149357D01*
X-21892295Y17081947D01*
X-21889765Y17066839D01*
G37*
G36*
X-33312314Y11638934D02*
G01*
X-33340420Y11559088D01*
X-33350778Y11537872D01*
X-33385200Y11482334D01*
X-33425987Y11443732D01*
X-33482029Y11412886D01*
X-33521856Y11399463D01*
X-33599429Y11394900D01*
X-33676593Y11414980D01*
X-33747129Y11457623D01*
X-33804815Y11520751D01*
X-33819924Y11545539D01*
X-33832914Y11579426D01*
X-33839104Y11622514D01*
X-33840432Y11674962D01*
X-33683188Y11674962D01*
X-33657633Y11614051D01*
X-33649421Y11601427D01*
X-33621278Y11574017D01*
X-33585468Y11566417D01*
X-33567146Y11569003D01*
X-33526009Y11591418D01*
X-33494295Y11628896D01*
X-33481592Y11671718D01*
X-33486328Y11700982D01*
X-33503543Y11741237D01*
X-33527408Y11773966D01*
X-33551588Y11788589D01*
X-33610420Y11785986D01*
X-33657504Y11764348D01*
X-33682453Y11726201D01*
X-33683188Y11674962D01*
X-33840432Y11674962D01*
X-33840681Y11684811D01*
X-33840675Y11690904D01*
X-33839222Y11748675D01*
X-33833517Y11787858D01*
X-33821103Y11818296D01*
X-33799526Y11849834D01*
X-33797286Y11852736D01*
X-33734016Y11912932D01*
X-33661170Y11948551D01*
X-33583751Y11960304D01*
X-33506762Y11948902D01*
X-33435205Y11915055D01*
X-33374082Y11859475D01*
X-33328397Y11782873D01*
X-33308697Y11711422D01*
X-33310678Y11671718D01*
X-33312314Y11638934D01*
G37*
G36*
X-29179004Y7927226D02*
G01*
X-29101325Y7882609D01*
X-29096623Y7764184D01*
X-29096007Y7734551D01*
X-29095542Y7676275D01*
X-29095297Y7593671D01*
X-29095265Y7489354D01*
X-29095442Y7365937D01*
X-29095821Y7226034D01*
X-29096397Y7072258D01*
X-29097165Y6907225D01*
X-29098117Y6733547D01*
X-29099250Y6553837D01*
X-29106578Y5461916D01*
X-29059524Y5416763D01*
X-29018652Y5368889D01*
X-28987445Y5298936D01*
X-28985177Y5224425D01*
X-29011901Y5145639D01*
X-29018314Y5134171D01*
X-29051734Y5090088D01*
X-29088848Y5057474D01*
X-29121934Y5040931D01*
X-29163894Y5032717D01*
X-29222346Y5033493D01*
X-29248473Y5035516D01*
X-29291622Y5042909D01*
X-29321676Y5057899D01*
X-29349872Y5085026D01*
X-29379063Y5125426D01*
X-29406335Y5194146D01*
X-29413368Y5265762D01*
X-29400743Y5333748D01*
X-29369044Y5391579D01*
X-29318852Y5432731D01*
X-29275130Y5455340D01*
X-29275130Y6625347D01*
X-29275120Y6680238D01*
X-29274939Y6863442D01*
X-29274547Y7039136D01*
X-29273961Y7204896D01*
X-29273198Y7358301D01*
X-29272276Y7496927D01*
X-29271213Y7618353D01*
X-29270027Y7720155D01*
X-29268735Y7799912D01*
X-29267356Y7855200D01*
X-29265906Y7883598D01*
X-29256683Y7971842D01*
X-29179004Y7927226D01*
G37*
G36*
X-31276017Y9160655D02*
G01*
X-31164997Y9158975D01*
X-31048255Y9156328D01*
X-30929686Y9152872D01*
X-30813180Y9148766D01*
X-30702630Y9144167D01*
X-30601929Y9139235D01*
X-30514968Y9134126D01*
X-30445640Y9129000D01*
X-30397838Y9124015D01*
X-30375453Y9119328D01*
X-30352273Y9095467D01*
X-30345066Y9052562D01*
X-30345117Y9046851D01*
X-30347347Y9025834D01*
X-30355338Y9009990D01*
X-30372451Y8998775D01*
X-30402045Y8991647D01*
X-30447480Y8988061D01*
X-30512116Y8987474D01*
X-30599314Y8989342D01*
X-30712434Y8993122D01*
X-30791762Y8995737D01*
X-30878766Y8997685D01*
X-30942999Y8997608D01*
X-30988220Y8995402D01*
X-31018191Y8990963D01*
X-31036674Y8984188D01*
X-31057661Y8977106D01*
X-31109241Y8968711D01*
X-31185302Y8961774D01*
X-31283093Y8956603D01*
X-31305016Y8955751D01*
X-31387046Y8952555D01*
X-31462558Y8949601D01*
X-31523962Y8947187D01*
X-31563665Y8945611D01*
X-31591250Y8945342D01*
X-31625406Y8950971D01*
X-31640613Y8966058D01*
X-31649563Y9016491D01*
X-31642501Y9075019D01*
X-31620102Y9122873D01*
X-31619809Y9123245D01*
X-31606556Y9138534D01*
X-31591564Y9148933D01*
X-31569320Y9155416D01*
X-31534307Y9158961D01*
X-31481010Y9160544D01*
X-31403916Y9161141D01*
X-31377424Y9161210D01*
X-31276017Y9160655D01*
G37*
G36*
X-26539342Y17366492D02*
G01*
X-26502804Y17350748D01*
X-26461232Y17317578D01*
X-26446527Y17303430D01*
X-26398850Y17236909D01*
X-26378616Y17164664D01*
X-26386762Y17089555D01*
X-26390163Y17079285D01*
X-26412493Y17032467D01*
X-26442141Y16989326D01*
X-26473009Y16957697D01*
X-26498995Y16945413D01*
X-26499740Y16945331D01*
X-26504017Y16940640D01*
X-26507654Y16927255D01*
X-26510700Y16903116D01*
X-26513204Y16866160D01*
X-26515216Y16814325D01*
X-26516783Y16745550D01*
X-26517955Y16657771D01*
X-26518782Y16548927D01*
X-26519312Y16416957D01*
X-26519594Y16259797D01*
X-26519677Y16075387D01*
X-26519796Y15935979D01*
X-26520207Y15782888D01*
X-26520886Y15639378D01*
X-26521803Y15508266D01*
X-26522932Y15392373D01*
X-26524244Y15294516D01*
X-26525711Y15217516D01*
X-26527304Y15164191D01*
X-26528997Y15137360D01*
X-26532294Y15115561D01*
X-26538932Y15082413D01*
X-26544141Y15069360D01*
X-26552971Y15072624D01*
X-26581888Y15086023D01*
X-26622761Y15106248D01*
X-26695557Y15143137D01*
X-26695557Y16042809D01*
X-26695557Y16942481D01*
X-26745007Y16991932D01*
X-26770463Y17021254D01*
X-26802814Y17087025D01*
X-26806386Y17158343D01*
X-26781190Y17235270D01*
X-26772930Y17250888D01*
X-26722038Y17316446D01*
X-26658262Y17356736D01*
X-26583506Y17370456D01*
X-26539342Y17366492D01*
G37*
G36*
X-23428729Y15542604D02*
G01*
X-23440152Y15446070D01*
X-23468840Y15371518D01*
X-23515545Y15317340D01*
X-23581015Y15281924D01*
X-23584264Y15280831D01*
X-23630289Y15270795D01*
X-23691967Y15263537D01*
X-23756895Y15260562D01*
X-23792870Y15260984D01*
X-23871385Y15269104D01*
X-23931461Y15289926D01*
X-23980119Y15326648D01*
X-24024380Y15382470D01*
X-24044252Y15413843D01*
X-24062108Y15452364D01*
X-24070145Y15494105D01*
X-24072014Y15552058D01*
X-24071976Y15552574D01*
X-23805695Y15552574D01*
X-23785162Y15517435D01*
X-23766847Y15501317D01*
X-23748500Y15497555D01*
X-23716590Y15504506D01*
X-23712596Y15505785D01*
X-23693458Y15525311D01*
X-23691098Y15556076D01*
X-23702632Y15589131D01*
X-23725174Y15615526D01*
X-23755843Y15626313D01*
X-23787276Y15616140D01*
X-23805578Y15588527D01*
X-23805695Y15552574D01*
X-24071976Y15552574D01*
X-24066637Y15626020D01*
X-24039158Y15719685D01*
X-23988125Y15796188D01*
X-23913256Y15856070D01*
X-23909350Y15858384D01*
X-23833578Y15896673D01*
X-23768837Y15913324D01*
X-23707678Y15909130D01*
X-23642650Y15884884D01*
X-23608519Y15865517D01*
X-23550746Y15824592D01*
X-23500671Y15780536D01*
X-23481660Y15760924D01*
X-23455044Y15729679D01*
X-23440368Y15700649D01*
X-23433327Y15663331D01*
X-23429613Y15607219D01*
X-23428913Y15556076D01*
X-23428729Y15542604D01*
G37*
G36*
X-31519142Y8352728D02*
G01*
X-31388824Y8316154D01*
X-31266169Y8259682D01*
X-31156069Y8185571D01*
X-31063413Y8096078D01*
X-30993092Y7993462D01*
X-30984122Y7975975D01*
X-30937463Y7860871D01*
X-30905743Y7737650D01*
X-30890897Y7615923D01*
X-30894859Y7505299D01*
X-30904770Y7433237D01*
X-30994999Y7433437D01*
X-31044293Y7433703D01*
X-31095491Y7437070D01*
X-31126891Y7448642D01*
X-31144140Y7473641D01*
X-31152887Y7517287D01*
X-31158780Y7584798D01*
X-31171691Y7690440D01*
X-31196106Y7785746D01*
X-31233125Y7863677D01*
X-31284784Y7929806D01*
X-31288108Y7933230D01*
X-31369713Y7998192D01*
X-31465579Y8039853D01*
X-31579181Y8059746D01*
X-31588339Y8060397D01*
X-31700805Y8057396D01*
X-31800443Y8031472D01*
X-31894323Y7980854D01*
X-31895747Y7979882D01*
X-31965732Y7922213D01*
X-32018796Y7854609D01*
X-32057065Y7772534D01*
X-32082666Y7671452D01*
X-32097723Y7546826D01*
X-32106367Y7433237D01*
X-32244355Y7433237D01*
X-32382343Y7433237D01*
X-32381964Y7590796D01*
X-32380789Y7659978D01*
X-32375756Y7729280D01*
X-32365537Y7787421D01*
X-32348819Y7844471D01*
X-32314708Y7930107D01*
X-32241199Y8058952D01*
X-32148971Y8168050D01*
X-32040169Y8255461D01*
X-31916937Y8319246D01*
X-31781419Y8357468D01*
X-31652235Y8367146D01*
X-31519142Y8352728D01*
G37*
G36*
X-26527813Y7966988D02*
G01*
X-26526476Y7931536D01*
X-26525214Y7870518D01*
X-26524043Y7786052D01*
X-26522977Y7680255D01*
X-26522033Y7555242D01*
X-26521226Y7413132D01*
X-26520571Y7256041D01*
X-26520085Y7086086D01*
X-26519781Y6905382D01*
X-26519677Y6716048D01*
X-26519672Y6589255D01*
X-26519626Y6383682D01*
X-26519497Y6204562D01*
X-26519244Y6050059D01*
X-26518829Y5918337D01*
X-26518210Y5807560D01*
X-26517348Y5715892D01*
X-26516202Y5641495D01*
X-26514734Y5582536D01*
X-26512902Y5537176D01*
X-26510667Y5503580D01*
X-26507988Y5479911D01*
X-26504826Y5464335D01*
X-26501141Y5455013D01*
X-26496893Y5450111D01*
X-26492041Y5447792D01*
X-26483433Y5443541D01*
X-26455300Y5419354D01*
X-26426086Y5383725D01*
X-26410629Y5357698D01*
X-26388848Y5285444D01*
X-26391454Y5210631D01*
X-26416589Y5139684D01*
X-26462393Y5079027D01*
X-26527005Y5035086D01*
X-26544285Y5028444D01*
X-26610094Y5021369D01*
X-26676541Y5038272D01*
X-26736317Y5076354D01*
X-26782115Y5132816D01*
X-26809000Y5205167D01*
X-26810540Y5283385D01*
X-26785120Y5358084D01*
X-26733591Y5424165D01*
X-26695557Y5459697D01*
X-26695557Y6672570D01*
X-26695557Y7885443D01*
X-26616825Y7930488D01*
X-26579551Y7951220D01*
X-26545519Y7968783D01*
X-26528885Y7975534D01*
X-26527813Y7966988D01*
G37*
G36*
X-25218068Y6947503D02*
G01*
X-25168179Y6919120D01*
X-25137925Y6877505D01*
X-25118735Y6845050D01*
X-25095152Y6827328D01*
X-25093477Y6826994D01*
X-25067057Y6825425D01*
X-25017021Y6824820D01*
X-24948285Y6825162D01*
X-24865762Y6826430D01*
X-24774368Y6828605D01*
X-24480027Y6836797D01*
X-24488122Y6713638D01*
X-24489123Y6698812D01*
X-24493882Y6636067D01*
X-24498758Y6581843D01*
X-24502837Y6546509D01*
X-24508278Y6509670D01*
X-24513456Y6473226D01*
X-24513662Y6471883D01*
X-24516358Y6472603D01*
X-24519534Y6497335D01*
X-24522546Y6541257D01*
X-24523444Y6560115D01*
X-24525809Y6595269D01*
X-24532004Y6619943D01*
X-24546272Y6636079D01*
X-24572857Y6645623D01*
X-24616002Y6650518D01*
X-24679950Y6652708D01*
X-24768944Y6654136D01*
X-24832559Y6655603D01*
X-24907972Y6658331D01*
X-24972728Y6661704D01*
X-25017500Y6665303D01*
X-25047286Y6668167D01*
X-25082230Y6666426D01*
X-25110094Y6652472D01*
X-25144378Y6621662D01*
X-25174300Y6595785D01*
X-25239477Y6561224D01*
X-25305716Y6555847D01*
X-25373410Y6579668D01*
X-25442954Y6632702D01*
X-25482515Y6674669D01*
X-25502720Y6708588D01*
X-25508367Y6742590D01*
X-25507655Y6758026D01*
X-25488251Y6825821D01*
X-25446657Y6885913D01*
X-25388697Y6931679D01*
X-25320199Y6956495D01*
X-25279588Y6959185D01*
X-25218068Y6947503D01*
G37*
G36*
X-25277960Y6257685D02*
G01*
X-25218463Y6237614D01*
X-25167329Y6203693D01*
X-25135001Y6161854D01*
X-25121451Y6140938D01*
X-25098359Y6124425D01*
X-25096357Y6124020D01*
X-25066377Y6121812D01*
X-25015181Y6121186D01*
X-24948385Y6121923D01*
X-24871601Y6123806D01*
X-24790444Y6126619D01*
X-24710527Y6130143D01*
X-24637466Y6134160D01*
X-24576874Y6138455D01*
X-24534364Y6142808D01*
X-24515551Y6147003D01*
X-24508383Y6151565D01*
X-24494402Y6148572D01*
X-24486690Y6122688D01*
X-24484901Y6071929D01*
X-24488682Y5994309D01*
X-24492762Y5933074D01*
X-24497859Y5851396D01*
X-24503207Y5761601D01*
X-24508154Y5674438D01*
X-24519042Y5476573D01*
X-24523070Y5705801D01*
X-24524177Y5765695D01*
X-24525972Y5835430D01*
X-24528506Y5883218D01*
X-24532462Y5913502D01*
X-24538526Y5930726D01*
X-24547381Y5939335D01*
X-24559712Y5943771D01*
X-24578898Y5946191D01*
X-24624204Y5948745D01*
X-24688794Y5950794D01*
X-24767220Y5952172D01*
X-24854036Y5952714D01*
X-25115746Y5952914D01*
X-25144799Y5915980D01*
X-25187062Y5873941D01*
X-25250485Y5843327D01*
X-25322039Y5840611D01*
X-25400590Y5866014D01*
X-25422888Y5878139D01*
X-25479483Y5926392D01*
X-25513490Y5984653D01*
X-25526083Y6047857D01*
X-25518439Y6110937D01*
X-25491733Y6168826D01*
X-25447142Y6216458D01*
X-25385841Y6248765D01*
X-25309005Y6260681D01*
X-25277960Y6257685D01*
G37*
G36*
X-27668771Y6564274D02*
G01*
X-27697261Y6493102D01*
X-27752677Y6429957D01*
X-27799539Y6390524D01*
X-27803733Y5923738D01*
X-27807926Y5456952D01*
X-27771353Y5432988D01*
X-27725531Y5389548D01*
X-27690717Y5326901D01*
X-27677608Y5259803D01*
X-27678054Y5247561D01*
X-27694068Y5178488D01*
X-27728331Y5111610D01*
X-27774389Y5060243D01*
X-27801712Y5044591D01*
X-27861368Y5030712D01*
X-27928370Y5033064D01*
X-27991720Y5052060D01*
X-28023062Y5071392D01*
X-28067184Y5121525D01*
X-28093035Y5184644D01*
X-28100330Y5254075D01*
X-28088784Y5323143D01*
X-28058112Y5385173D01*
X-28008028Y5433492D01*
X-27970687Y5457959D01*
X-27970687Y5922073D01*
X-27970687Y6386188D01*
X-28013099Y6402197D01*
X-28019665Y6404900D01*
X-28066520Y6440526D01*
X-28098666Y6494982D01*
X-28114394Y6561532D01*
X-28112722Y6611638D01*
X-27909637Y6611638D01*
X-27902859Y6589827D01*
X-27886951Y6572265D01*
X-27884723Y6571762D01*
X-27869311Y6581576D01*
X-27859260Y6607422D01*
X-27857317Y6637606D01*
X-27866232Y6660439D01*
X-27872511Y6665442D01*
X-27892945Y6665873D01*
X-27907308Y6645705D01*
X-27909637Y6611638D01*
X-28112722Y6611638D01*
X-28111994Y6633444D01*
X-28089754Y6703985D01*
X-28078689Y6724728D01*
X-28028038Y6787070D01*
X-27966223Y6825775D01*
X-27898280Y6840421D01*
X-27829249Y6830589D01*
X-27764169Y6795859D01*
X-27708078Y6735810D01*
X-27694912Y6714636D01*
X-27667793Y6639457D01*
X-27667817Y6637606D01*
X-27668771Y6564274D01*
G37*
G36*
X-33103318Y9372896D02*
G01*
X-33099461Y9371830D01*
X-33086271Y9365472D01*
X-33077982Y9352141D01*
X-33073463Y9326252D01*
X-33071581Y9282221D01*
X-33071206Y9214463D01*
X-33071423Y9180342D01*
X-33073223Y9102640D01*
X-33076448Y9029916D01*
X-33080622Y8974337D01*
X-33086494Y8932206D01*
X-33094664Y8897551D01*
X-33102607Y8884247D01*
X-33109905Y8889731D01*
X-33115176Y8913560D01*
X-33115176Y8913926D01*
X-33117356Y8927287D01*
X-33127366Y8935774D01*
X-33150576Y8940495D01*
X-33192357Y8942558D01*
X-33258078Y8943074D01*
X-33293841Y8943371D01*
X-33355379Y8945062D01*
X-33404017Y8947898D01*
X-33431551Y8951482D01*
X-33462308Y8949337D01*
X-33506950Y8921969D01*
X-33539004Y8901118D01*
X-33602498Y8884076D01*
X-33670031Y8890068D01*
X-33734321Y8917942D01*
X-33788088Y8966543D01*
X-33806254Y8996263D01*
X-33817520Y9052141D01*
X-33803356Y9107314D01*
X-33765635Y9156563D01*
X-33706230Y9194671D01*
X-33680871Y9204657D01*
X-33612259Y9216819D01*
X-33555153Y9202605D01*
X-33510514Y9162173D01*
X-33479596Y9118754D01*
X-33282729Y9118754D01*
X-33206751Y9118980D01*
X-33151002Y9120125D01*
X-33115625Y9122851D01*
X-33096033Y9127818D01*
X-33087641Y9135687D01*
X-33085863Y9147118D01*
X-33096306Y9170992D01*
X-33134982Y9193245D01*
X-33161910Y9205660D01*
X-33205142Y9246186D01*
X-33224550Y9303550D01*
X-33224599Y9304032D01*
X-33214427Y9333585D01*
X-33184535Y9358509D01*
X-33144355Y9373411D01*
X-33103318Y9372896D01*
G37*
G36*
X-31293908Y10627356D02*
G01*
X-31267169Y10617222D01*
X-31221461Y10589801D01*
X-31179363Y10554640D01*
X-31148507Y10518492D01*
X-31136526Y10488108D01*
X-31133930Y10479882D01*
X-31112783Y10469797D01*
X-31066907Y10466137D01*
X-31029167Y10464465D01*
X-31015619Y10460183D01*
X-31026601Y10452510D01*
X-31035367Y10448633D01*
X-31045952Y10441268D01*
X-31030265Y10438884D01*
X-31029026Y10438815D01*
X-31010229Y10427503D01*
X-31004616Y10393884D01*
X-31004905Y10378809D01*
X-31010332Y10359075D01*
X-31028942Y10351284D01*
X-31068793Y10349914D01*
X-31076023Y10349884D01*
X-31114513Y10346692D01*
X-31135846Y10334358D01*
X-31150583Y10307391D01*
X-31165340Y10278434D01*
X-31215133Y10224308D01*
X-31283093Y10192290D01*
X-31318907Y10186393D01*
X-31390270Y10194172D01*
X-31453799Y10225782D01*
X-31501743Y10278180D01*
X-31528287Y10321829D01*
X-32482677Y10326561D01*
X-33437066Y10331292D01*
X-33465636Y10282871D01*
X-33504120Y10239206D01*
X-33557778Y10212778D01*
X-33618586Y10205983D01*
X-33680929Y10216995D01*
X-33739192Y10243986D01*
X-33787760Y10285129D01*
X-33821019Y10338595D01*
X-33833352Y10402557D01*
X-33825450Y10469236D01*
X-33794554Y10536126D01*
X-33741037Y10585014D01*
X-33675218Y10610461D01*
X-33602774Y10610712D01*
X-33531902Y10585061D01*
X-33468045Y10534514D01*
X-33432513Y10496480D01*
X-32486049Y10496481D01*
X-31539584Y10496481D01*
X-31497446Y10549293D01*
X-31487560Y10561154D01*
X-31428756Y10611582D01*
X-31364599Y10633498D01*
X-31293908Y10627356D01*
G37*
G36*
X-24302940Y11229180D02*
G01*
X-24263216Y11223969D01*
X-24229619Y11207085D01*
X-24189884Y11172956D01*
X-24166462Y11148733D01*
X-24140668Y11115587D01*
X-24130640Y11092892D01*
X-24130630Y11092371D01*
X-24127899Y11086071D01*
X-24118401Y11080948D01*
X-24099318Y11076848D01*
X-24067831Y11073613D01*
X-24021122Y11071088D01*
X-23956373Y11069117D01*
X-23870765Y11067546D01*
X-23761481Y11066216D01*
X-23625701Y11064974D01*
X-23528261Y11064028D01*
X-23396325Y11062147D01*
X-23291032Y11059742D01*
X-23210746Y11056746D01*
X-23153829Y11053092D01*
X-23118646Y11048713D01*
X-23103558Y11043540D01*
X-23096271Y11034285D01*
X-23086241Y10995654D01*
X-23095099Y10952536D01*
X-23121163Y10917016D01*
X-23127548Y10912124D01*
X-23139139Y10905497D01*
X-23154965Y10900419D01*
X-23178160Y10896783D01*
X-23211858Y10894484D01*
X-23259192Y10893419D01*
X-23323296Y10893481D01*
X-23407303Y10894566D01*
X-23514348Y10896569D01*
X-23647564Y10899384D01*
X-24139157Y10910017D01*
X-24156894Y10871088D01*
X-24157535Y10869730D01*
X-24184160Y10836834D01*
X-24222255Y10811460D01*
X-24267781Y10796159D01*
X-24336590Y10793629D01*
X-24407754Y10818231D01*
X-24429040Y10831527D01*
X-24468695Y10863979D01*
X-24510302Y10904610D01*
X-24547677Y10946763D01*
X-24574636Y10983783D01*
X-24584997Y11009014D01*
X-24579321Y11025568D01*
X-24560939Y11060097D01*
X-24534250Y11102935D01*
X-24522239Y11120168D01*
X-24463216Y11182211D01*
X-24395018Y11217890D01*
X-24313969Y11229313D01*
X-24302940Y11229180D01*
G37*
G36*
X-22907894Y12732489D02*
G01*
X-22938900Y12651817D01*
X-22990720Y12587405D01*
X-23060704Y12543558D01*
X-23095436Y12537553D01*
X-23149720Y12540832D01*
X-23208492Y12553191D01*
X-23259995Y12572901D01*
X-23267417Y12577069D01*
X-23309985Y12611166D01*
X-23341502Y12651521D01*
X-23356301Y12687689D01*
X-23367440Y12757134D01*
X-23366289Y12774750D01*
X-23207332Y12774750D01*
X-23198109Y12734776D01*
X-23178921Y12710152D01*
X-23156544Y12700291D01*
X-23114442Y12698507D01*
X-23075360Y12724293D01*
X-23058480Y12747672D01*
X-23046752Y12789446D01*
X-23052031Y12829050D01*
X-23074397Y12855688D01*
X-23111779Y12868191D01*
X-23156608Y12868418D01*
X-23189682Y12853272D01*
X-23192109Y12850593D01*
X-23205646Y12817535D01*
X-23207332Y12774750D01*
X-23366289Y12774750D01*
X-23362656Y12830345D01*
X-23343612Y12899427D01*
X-23311972Y12956486D01*
X-23269400Y12993630D01*
X-23226628Y13015748D01*
X-23216949Y13304749D01*
X-23214931Y13370952D01*
X-23211893Y13495590D01*
X-23209464Y13627104D01*
X-23207854Y13753439D01*
X-23207270Y13862542D01*
X-23207270Y14131333D01*
X-23135819Y14131333D01*
X-23105377Y14130928D01*
X-23076519Y14126463D01*
X-23062694Y14112977D01*
X-23055208Y14085531D01*
X-23053531Y14068592D01*
X-23051496Y14023424D01*
X-23049686Y13955570D01*
X-23048165Y13868777D01*
X-23046994Y13766792D01*
X-23046236Y13653365D01*
X-23045954Y13532242D01*
X-23045862Y13024755D01*
X-23002290Y12999963D01*
X-23001545Y12999536D01*
X-22946446Y12951662D01*
X-22911749Y12885259D01*
X-22899857Y12804905D01*
X-22901573Y12789446D01*
X-22907894Y12732489D01*
G37*
G36*
X-24106789Y12765220D02*
G01*
X-24119364Y12682805D01*
X-24156264Y12615730D01*
X-24217118Y12565029D01*
X-24286154Y12539273D01*
X-24361776Y12536382D01*
X-24434556Y12555761D01*
X-24497355Y12595472D01*
X-24543033Y12653573D01*
X-24559425Y12691531D01*
X-24575668Y12767507D01*
X-24574594Y12804144D01*
X-24426434Y12804144D01*
X-24419940Y12759595D01*
X-24401749Y12724249D01*
X-24395355Y12718050D01*
X-24357049Y12698999D01*
X-24314219Y12696747D01*
X-24280138Y12712568D01*
X-24271341Y12726204D01*
X-24263350Y12765797D01*
X-24267135Y12811166D01*
X-24282461Y12848516D01*
X-24298794Y12862104D01*
X-24337425Y12874306D01*
X-24379436Y12874275D01*
X-24410529Y12860654D01*
X-24420363Y12844390D01*
X-24426434Y12804144D01*
X-24574594Y12804144D01*
X-24573455Y12842978D01*
X-24554143Y12911507D01*
X-24519088Y12966654D01*
X-24469646Y13001982D01*
X-24467551Y13002858D01*
X-24445662Y13014798D01*
X-24432501Y13032664D01*
X-24424623Y13064236D01*
X-24418581Y13117296D01*
X-24417813Y13126997D01*
X-24415534Y13174904D01*
X-24413491Y13246043D01*
X-24411760Y13335812D01*
X-24410420Y13439607D01*
X-24409547Y13552828D01*
X-24409221Y13670870D01*
X-24409167Y13724548D01*
X-24408785Y13832990D01*
X-24408082Y13930033D01*
X-24407105Y14012094D01*
X-24405904Y14075589D01*
X-24404525Y14116937D01*
X-24403017Y14132554D01*
X-24395769Y14134414D01*
X-24365986Y14135381D01*
X-24322406Y14133583D01*
X-24247894Y14128504D01*
X-24247894Y13580255D01*
X-24247894Y13032007D01*
X-24190110Y12979803D01*
X-24159027Y12948322D01*
X-24132383Y12905154D01*
X-24115727Y12847638D01*
X-24106852Y12765797D01*
X-24106789Y12765220D01*
G37*
G36*
X-28558391Y7517275D02*
G01*
X-28471888Y7474400D01*
X-28462455Y6849231D01*
X-28460594Y6725994D01*
X-28458434Y6581818D01*
X-28456696Y6460916D01*
X-28455378Y6359812D01*
X-28454480Y6275032D01*
X-28454004Y6203100D01*
X-28453948Y6140542D01*
X-28454313Y6083883D01*
X-28455098Y6029647D01*
X-28456304Y5974361D01*
X-28457931Y5914548D01*
X-28459978Y5846735D01*
X-28462445Y5767445D01*
X-28471623Y5472051D01*
X-28424919Y5437670D01*
X-28379065Y5394201D01*
X-28345267Y5329294D01*
X-28334865Y5248340D01*
X-28343786Y5176722D01*
X-28375468Y5107827D01*
X-28429419Y5057401D01*
X-28443000Y5049973D01*
X-28502902Y5033156D01*
X-28570258Y5032128D01*
X-28633916Y5046137D01*
X-28682727Y5074435D01*
X-28686097Y5077617D01*
X-28733544Y5135336D01*
X-28756616Y5198512D01*
X-28758697Y5276136D01*
X-28756783Y5296336D01*
X-28748072Y5340595D01*
X-28729584Y5373950D01*
X-28694790Y5410088D01*
X-28637565Y5463467D01*
X-28642782Y5752066D01*
X-28645069Y5844570D01*
X-28648327Y5924023D01*
X-28652282Y5983993D01*
X-28656715Y6021203D01*
X-28661410Y6032376D01*
X-28665400Y6032036D01*
X-28680761Y6047000D01*
X-28697935Y6079408D01*
X-28699452Y6083141D01*
X-28713747Y6150596D01*
X-28705163Y6214965D01*
X-28674787Y6267415D01*
X-28674327Y6267906D01*
X-28667177Y6276468D01*
X-28661290Y6287210D01*
X-28656542Y6302845D01*
X-28652812Y6326088D01*
X-28649976Y6359650D01*
X-28647913Y6406246D01*
X-28646499Y6468588D01*
X-28645613Y6549391D01*
X-28645131Y6651367D01*
X-28644932Y6777230D01*
X-28644893Y6929692D01*
X-28644893Y7560149D01*
X-28558391Y7517275D01*
G37*
G36*
X-33306034Y17026988D02*
G01*
X-33310723Y16949644D01*
X-33332316Y16867902D01*
X-33372004Y16807773D01*
X-33430405Y16767974D01*
X-33492128Y16740671D01*
X-33499476Y16460431D01*
X-33501222Y16399323D01*
X-33504596Y16311265D01*
X-33508566Y16247348D01*
X-33513445Y16204258D01*
X-33519547Y16178679D01*
X-33527185Y16167296D01*
X-33532870Y16164575D01*
X-33565803Y16157233D01*
X-33609559Y16154177D01*
X-33615156Y16154174D01*
X-33652689Y16156876D01*
X-33671594Y16168124D01*
X-33681389Y16193073D01*
X-33683519Y16210548D01*
X-33685202Y16255664D01*
X-33685467Y16320081D01*
X-33684308Y16398040D01*
X-33681716Y16483782D01*
X-33672225Y16735370D01*
X-33726669Y16770772D01*
X-33745189Y16783362D01*
X-33795180Y16827434D01*
X-33826755Y16878294D01*
X-33843252Y16943042D01*
X-33847663Y17022537D01*
X-33685692Y17022537D01*
X-33671613Y16973763D01*
X-33668243Y16968175D01*
X-33651424Y16954088D01*
X-33621043Y16947221D01*
X-33569296Y16945413D01*
X-33524497Y16946176D01*
X-33495115Y16950606D01*
X-33480484Y16961648D01*
X-33472907Y16982242D01*
X-33469478Y17002865D01*
X-33469450Y17050129D01*
X-33476689Y17098193D01*
X-33489323Y17137037D01*
X-33505480Y17156636D01*
X-33514720Y17159737D01*
X-33566991Y17165774D01*
X-33619080Y17157232D01*
X-33657472Y17135949D01*
X-33667712Y17122755D01*
X-33684009Y17076589D01*
X-33685692Y17022537D01*
X-33847663Y17022537D01*
X-33848009Y17028776D01*
X-33841654Y17125509D01*
X-33819530Y17206969D01*
X-33779686Y17268243D01*
X-33720200Y17312210D01*
X-33639151Y17341749D01*
X-33616546Y17346878D01*
X-33565299Y17351082D01*
X-33515607Y17340808D01*
X-33478258Y17326821D01*
X-33402278Y17280071D01*
X-33348649Y17215116D01*
X-33316769Y17131056D01*
X-33308421Y17050129D01*
X-33306034Y17026988D01*
G37*
G36*
X-27150791Y7533515D02*
G01*
X-27149409Y7497393D01*
X-27148202Y7436083D01*
X-27147184Y7351951D01*
X-27146369Y7247364D01*
X-27145771Y7124688D01*
X-27145404Y6986289D01*
X-27145281Y6834532D01*
X-27145416Y6671784D01*
X-27145824Y6500411D01*
X-27149063Y5467602D01*
X-27098371Y5423094D01*
X-27095796Y5420796D01*
X-27049040Y5361040D01*
X-27023803Y5290283D01*
X-27023478Y5217831D01*
X-27024998Y5210421D01*
X-27050130Y5142718D01*
X-27090218Y5086765D01*
X-27139209Y5051274D01*
X-27148338Y5047719D01*
X-27198229Y5035389D01*
X-27251358Y5030118D01*
X-27277854Y5030747D01*
X-27310183Y5037781D01*
X-27339815Y5056893D01*
X-27377354Y5093408D01*
X-27400553Y5120140D01*
X-27431910Y5166445D01*
X-27448155Y5205318D01*
X-27450346Y5266277D01*
X-27430830Y5338622D01*
X-27391462Y5402602D01*
X-27336526Y5448872D01*
X-27335917Y5449236D01*
X-27331256Y5454179D01*
X-27327235Y5464015D01*
X-27323802Y5480779D01*
X-27320907Y5506506D01*
X-27318498Y5543232D01*
X-27316523Y5592990D01*
X-27314931Y5657816D01*
X-27313670Y5739745D01*
X-27312690Y5840813D01*
X-27311938Y5963054D01*
X-27311364Y6108503D01*
X-27310915Y6279195D01*
X-27310541Y6477166D01*
X-27310443Y6534453D01*
X-27310061Y6724347D01*
X-27309598Y6887493D01*
X-27309003Y7025902D01*
X-27308223Y7141586D01*
X-27307207Y7236555D01*
X-27305903Y7312820D01*
X-27304259Y7372393D01*
X-27302222Y7417285D01*
X-27299742Y7449507D01*
X-27296766Y7471070D01*
X-27293242Y7483986D01*
X-27289119Y7490265D01*
X-27284343Y7491919D01*
X-27279938Y7492292D01*
X-27248661Y7502412D01*
X-27210551Y7522022D01*
X-27200219Y7527998D01*
X-27169058Y7541775D01*
X-27151924Y7542645D01*
X-27150791Y7533515D01*
G37*
G36*
X-21903963Y8928555D02*
G01*
X-21911154Y8856482D01*
X-21925156Y8810300D01*
X-21926464Y8807977D01*
X-21948561Y8780508D01*
X-21987843Y8740483D01*
X-22039163Y8692909D01*
X-22097371Y8642794D01*
X-22109983Y8632360D01*
X-22164740Y8587723D01*
X-22210482Y8551481D01*
X-22242736Y8527125D01*
X-22257030Y8518148D01*
X-22259454Y8518480D01*
X-22271687Y8532413D01*
X-22280032Y8542579D01*
X-22307473Y8568310D01*
X-22349123Y8604253D01*
X-22400003Y8646002D01*
X-22446663Y8683734D01*
X-22502777Y8731824D01*
X-22541129Y8771550D01*
X-22565081Y8808688D01*
X-22577995Y8849011D01*
X-22583234Y8898297D01*
X-22584160Y8962318D01*
X-22584061Y8975821D01*
X-22583839Y8979147D01*
X-22431835Y8979147D01*
X-22424581Y8933887D01*
X-22397490Y8884293D01*
X-22386289Y8869345D01*
X-22348305Y8827267D01*
X-22305886Y8788304D01*
X-22247259Y8740573D01*
X-22155552Y8823403D01*
X-22121644Y8854455D01*
X-22089718Y8886907D01*
X-22072454Y8912544D01*
X-22065430Y8938570D01*
X-22064225Y8972187D01*
X-22064864Y8993818D01*
X-22069933Y9023138D01*
X-22083627Y9050645D01*
X-22110127Y9083703D01*
X-22153612Y9129678D01*
X-22242619Y9221214D01*
X-22336543Y9126361D01*
X-22381533Y9077697D01*
X-22417927Y9025330D01*
X-22431835Y8979147D01*
X-22583839Y8979147D01*
X-22578710Y9056079D01*
X-22562888Y9123257D01*
X-22533375Y9182444D01*
X-22486947Y9238726D01*
X-22420382Y9297193D01*
X-22330460Y9362932D01*
X-22252438Y9416937D01*
X-22205878Y9389758D01*
X-22148537Y9353249D01*
X-22071476Y9295614D01*
X-22003154Y9235265D01*
X-21952536Y9179640D01*
X-21930041Y9148894D01*
X-21914807Y9121074D01*
X-21906672Y9090141D01*
X-21903419Y9047364D01*
X-21902827Y8984008D01*
X-21903069Y8972187D01*
X-21903963Y8928555D01*
G37*
G36*
X-31835813Y9459475D02*
G01*
X-31835732Y9331039D01*
X-31835937Y9206964D01*
X-31836418Y9095567D01*
X-31837167Y9005165D01*
X-31840046Y8752337D01*
X-32366118Y8752337D01*
X-32382558Y8752338D01*
X-32518915Y8752482D01*
X-32629059Y8752951D01*
X-32715787Y8753866D01*
X-32781898Y8755349D01*
X-32830188Y8757520D01*
X-32863454Y8760502D01*
X-32884495Y8764415D01*
X-32896106Y8769381D01*
X-32901086Y8775521D01*
X-32901329Y8776295D01*
X-32903641Y8799512D01*
X-32905580Y8847675D01*
X-32907150Y8916806D01*
X-32908352Y9002924D01*
X-32909188Y9102050D01*
X-32909660Y9210204D01*
X-32909769Y9323407D01*
X-32909518Y9437679D01*
X-32909321Y9473793D01*
X-32509427Y9473793D01*
X-32508925Y9405822D01*
X-32504690Y9334369D01*
X-32497354Y9267627D01*
X-32487545Y9213788D01*
X-32475894Y9181045D01*
X-32463341Y9165227D01*
X-32443319Y9154244D01*
X-32409939Y9149249D01*
X-32355246Y9148067D01*
X-32316231Y9148633D01*
X-32273873Y9152771D01*
X-32246302Y9162834D01*
X-32224719Y9181045D01*
X-32205467Y9207624D01*
X-32179786Y9275070D01*
X-32165994Y9365608D01*
X-32164620Y9476635D01*
X-32166181Y9507560D01*
X-32173762Y9575072D01*
X-32189238Y9619715D01*
X-32216550Y9646139D01*
X-32259639Y9658999D01*
X-32322446Y9662945D01*
X-32326825Y9662993D01*
X-32400964Y9657284D01*
X-32452461Y9637061D01*
X-32485353Y9599639D01*
X-32503676Y9542331D01*
X-32505567Y9530091D01*
X-32509427Y9473793D01*
X-32909321Y9473793D01*
X-32908909Y9549041D01*
X-32907942Y9653512D01*
X-32906621Y9747113D01*
X-32904947Y9825865D01*
X-32902922Y9885787D01*
X-32900547Y9922901D01*
X-32891112Y10013172D01*
X-32364845Y10009327D01*
X-31838577Y10005482D01*
X-31836432Y9631737D01*
X-31836191Y9583954D01*
X-31835865Y9476635D01*
X-31835813Y9459475D01*
G37*
G36*
X-28968862Y15959568D02*
G01*
X-28980203Y15886498D01*
X-29013935Y15820331D01*
X-29069779Y15767395D01*
X-29126040Y15730164D01*
X-29117923Y15418082D01*
X-29109806Y15106001D01*
X-29174147Y15073933D01*
X-29196125Y15063187D01*
X-29230190Y15047514D01*
X-29247574Y15040956D01*
X-29253103Y15045329D01*
X-29260546Y15075379D01*
X-29265431Y15133053D01*
X-29267716Y15217353D01*
X-29267364Y15327278D01*
X-29264332Y15461832D01*
X-29255880Y15744379D01*
X-29299792Y15760954D01*
X-29307182Y15764218D01*
X-29345198Y15791233D01*
X-29378512Y15828329D01*
X-29394075Y15856689D01*
X-29411138Y15923303D01*
X-29410825Y15954348D01*
X-29257730Y15954348D01*
X-29237441Y15927821D01*
X-29222733Y15914698D01*
X-29198267Y15906263D01*
X-29176296Y15923110D01*
X-29176129Y15923321D01*
X-29154019Y15968456D01*
X-29160080Y16010505D01*
X-29180454Y16026946D01*
X-29210591Y16021821D01*
X-29242152Y15995208D01*
X-29254429Y15977880D01*
X-29257730Y15954348D01*
X-29410825Y15954348D01*
X-29410406Y15995855D01*
X-29393381Y16066151D01*
X-29361563Y16125997D01*
X-29316453Y16167199D01*
X-29275315Y16190594D01*
X-29275222Y16567627D01*
X-29275130Y16944660D01*
X-29317123Y16966376D01*
X-29338873Y16980403D01*
X-29380676Y17028974D01*
X-29405776Y17091783D01*
X-29411616Y17160364D01*
X-29395636Y17226251D01*
X-29381557Y17254991D01*
X-29338743Y17314864D01*
X-29285483Y17350948D01*
X-29216872Y17367108D01*
X-29168254Y17368989D01*
X-29128597Y17360326D01*
X-29086774Y17336998D01*
X-29057883Y17314605D01*
X-29010335Y17254236D01*
X-28986419Y17184269D01*
X-28986560Y17110608D01*
X-29011184Y17039161D01*
X-29060719Y16975835D01*
X-29099250Y16940303D01*
X-29099250Y16560838D01*
X-29099250Y16181374D01*
X-29053287Y16142698D01*
X-29014465Y16101112D01*
X-28980190Y16033215D01*
X-28970229Y15968456D01*
X-28968862Y15959568D01*
G37*
G36*
X-23705464Y8941242D02*
G01*
X-23711963Y8873259D01*
X-23725963Y8819907D01*
X-23735755Y8802926D01*
X-23770641Y8761363D01*
X-23825579Y8707638D01*
X-23897874Y8644498D01*
X-23912685Y8632142D01*
X-23966927Y8587312D01*
X-24011634Y8551014D01*
X-24042515Y8526702D01*
X-24055276Y8517831D01*
X-24060505Y8520694D01*
X-24082696Y8537892D01*
X-24114917Y8565465D01*
X-24154346Y8598904D01*
X-24206078Y8640833D01*
X-24258887Y8682153D01*
X-24304045Y8717980D01*
X-24348927Y8760084D01*
X-24377141Y8799754D01*
X-24393578Y8844425D01*
X-24403127Y8901536D01*
X-24405879Y8927524D01*
X-24406871Y8963124D01*
X-24245049Y8963124D01*
X-24239777Y8928972D01*
X-24220655Y8891059D01*
X-24202774Y8867191D01*
X-24165311Y8827386D01*
X-24121778Y8788463D01*
X-24050029Y8730352D01*
X-23958425Y8819983D01*
X-23932244Y8845901D01*
X-23897247Y8883449D01*
X-23877510Y8912000D01*
X-23868785Y8938512D01*
X-23866820Y8969942D01*
X-23867478Y8990226D01*
X-23873064Y9017555D01*
X-23887827Y9044600D01*
X-23915876Y9078094D01*
X-23961321Y9124772D01*
X-24055822Y9219273D01*
X-24151858Y9109595D01*
X-24159602Y9100712D01*
X-24206778Y9043223D01*
X-24234655Y8999284D01*
X-24245049Y8963124D01*
X-24406871Y8963124D01*
X-24408207Y9011068D01*
X-24395982Y9078570D01*
X-24366734Y9138682D01*
X-24317997Y9200055D01*
X-24297400Y9222077D01*
X-24233451Y9284568D01*
X-24171265Y9337417D01*
X-24115145Y9377449D01*
X-24069395Y9401489D01*
X-24038319Y9406362D01*
X-24032939Y9404468D01*
X-24000903Y9385577D01*
X-23955603Y9352147D01*
X-23902865Y9309217D01*
X-23848515Y9261823D01*
X-23798377Y9215004D01*
X-23758278Y9173797D01*
X-23734043Y9143240D01*
X-23728457Y9132387D01*
X-23713962Y9080865D01*
X-23706214Y9013797D01*
X-23705761Y8969942D01*
X-23705464Y8941242D01*
G37*
G36*
X-21899263Y13268806D02*
G01*
X-21900138Y13228229D01*
X-21903276Y13150553D01*
X-21909377Y13095322D01*
X-21920262Y13057701D01*
X-21937757Y13032860D01*
X-21963684Y13015966D01*
X-21999868Y13002185D01*
X-22049394Y12985840D01*
X-22049394Y12663864D01*
X-22049394Y12341888D01*
X-22085369Y12305912D01*
X-22093859Y12298070D01*
X-22140236Y12273698D01*
X-22185873Y12275126D01*
X-22224043Y12300598D01*
X-22248019Y12348359D01*
X-22249683Y12360330D01*
X-22248348Y12401591D01*
X-22240663Y12449876D01*
X-22235693Y12484306D01*
X-22232021Y12552452D01*
X-22231690Y12642938D01*
X-22234776Y12751898D01*
X-22244378Y12984806D01*
X-22300542Y13001633D01*
X-22309428Y13004620D01*
X-22349221Y13025637D01*
X-22374570Y13050921D01*
X-22381532Y13074682D01*
X-22388653Y13124275D01*
X-22394399Y13192565D01*
X-22398175Y13273918D01*
X-22399453Y13316335D01*
X-22251903Y13316335D01*
X-22248375Y13261597D01*
X-22238134Y13193307D01*
X-22145332Y13193307D01*
X-22136399Y13193325D01*
X-22086425Y13195627D01*
X-22056026Y13205558D01*
X-22041362Y13228461D01*
X-22038596Y13269682D01*
X-22043888Y13334565D01*
X-22047607Y13365826D01*
X-22058504Y13410262D01*
X-22079211Y13434029D01*
X-22116057Y13442195D01*
X-22175373Y13439826D01*
X-22178622Y13439553D01*
X-22215258Y13433314D01*
X-22234010Y13417219D01*
X-22245609Y13382514D01*
X-22248188Y13369458D01*
X-22251903Y13316335D01*
X-22399453Y13316335D01*
X-22403916Y13464455D01*
X-22358854Y13526220D01*
X-22353788Y13532990D01*
X-22290445Y13595361D01*
X-22218539Y13632562D01*
X-22142733Y13644560D01*
X-22067694Y13631325D01*
X-21998084Y13592825D01*
X-21938569Y13529030D01*
X-21931642Y13518983D01*
X-21916461Y13495077D01*
X-21906413Y13472125D01*
X-21900583Y13444074D01*
X-21898058Y13404872D01*
X-21897922Y13348467D01*
X-21899248Y13269682D01*
X-21899263Y13268806D01*
G37*
G36*
X-27664279Y15997133D02*
G01*
X-27665346Y15992730D01*
X-27683007Y15919819D01*
X-27727503Y15853915D01*
X-27737950Y15842969D01*
X-27763220Y15820148D01*
X-27788647Y15807959D01*
X-27823947Y15803081D01*
X-27878836Y15802193D01*
X-27937570Y15805178D01*
X-27999546Y15820649D01*
X-28044708Y15852048D01*
X-28079139Y15902419D01*
X-28106174Y15976724D01*
X-28107129Y16000352D01*
X-27864958Y16000352D01*
X-27863204Y15982958D01*
X-27858796Y15980665D01*
X-27853433Y15992730D01*
X-27854491Y16000489D01*
X-27863204Y16002501D01*
X-27864958Y16000352D01*
X-28107129Y16000352D01*
X-28109192Y16051356D01*
X-27875418Y16051356D01*
X-27872410Y16046970D01*
X-27859897Y16036700D01*
X-27858434Y16037081D01*
X-27853433Y16051356D01*
X-27854030Y16055373D01*
X-27868955Y16066013D01*
X-27874256Y16064862D01*
X-27875418Y16051356D01*
X-28109192Y16051356D01*
X-28109504Y16059074D01*
X-28083744Y16138593D01*
X-28028984Y16214719D01*
X-27970687Y16277238D01*
X-27970687Y16611639D01*
X-27970687Y16946041D01*
X-28008427Y16963237D01*
X-28040958Y16986401D01*
X-28075337Y17040530D01*
X-28096582Y17118876D01*
X-28096811Y17167821D01*
X-28078016Y17236076D01*
X-28042165Y17298314D01*
X-27994335Y17343391D01*
X-27936874Y17366149D01*
X-27869640Y17366626D01*
X-27803565Y17343613D01*
X-27744484Y17299233D01*
X-27698230Y17235610D01*
X-27696703Y17232609D01*
X-27679277Y17166988D01*
X-27685119Y17096487D01*
X-27712110Y17030237D01*
X-27758132Y16977371D01*
X-27798292Y16945781D01*
X-27805989Y16595494D01*
X-27806802Y16558296D01*
X-27808887Y16456601D01*
X-27809989Y16379551D01*
X-27809887Y16323588D01*
X-27808360Y16285158D01*
X-27805185Y16260705D01*
X-27800142Y16246673D01*
X-27793008Y16239505D01*
X-27783562Y16235648D01*
X-27782915Y16235437D01*
X-27746896Y16211565D01*
X-27711136Y16168929D01*
X-27682258Y16117164D01*
X-27666886Y16065909D01*
X-27666334Y16051356D01*
X-27664279Y15997133D01*
G37*
G36*
X-22797627Y8940978D02*
G01*
X-22803686Y8872826D01*
X-22816910Y8820720D01*
X-22823231Y8809016D01*
X-22852519Y8771651D01*
X-22897469Y8725428D01*
X-22952484Y8676306D01*
X-22984476Y8649310D01*
X-23033621Y8606733D01*
X-23072918Y8571339D01*
X-23095953Y8548826D01*
X-23125857Y8523472D01*
X-23154631Y8522488D01*
X-23186678Y8548915D01*
X-23193450Y8555830D01*
X-23224732Y8583624D01*
X-23269603Y8620386D01*
X-23320755Y8660059D01*
X-23338821Y8673718D01*
X-23399056Y8720950D01*
X-23440083Y8759189D01*
X-23465584Y8794969D01*
X-23479240Y8834825D01*
X-23484734Y8885293D01*
X-23485747Y8952907D01*
X-23485623Y8958072D01*
X-23324524Y8958072D01*
X-23324293Y8946050D01*
X-23319887Y8918176D01*
X-23306392Y8892406D01*
X-23279296Y8861825D01*
X-23234086Y8819522D01*
X-23219224Y8806202D01*
X-23179047Y8771587D01*
X-23149159Y8747893D01*
X-23135154Y8739637D01*
X-23133101Y8740761D01*
X-23114559Y8756387D01*
X-23082491Y8786345D01*
X-23042383Y8825555D01*
X-23027999Y8839983D01*
X-22990808Y8879782D01*
X-22969701Y8909707D01*
X-22960271Y8937328D01*
X-22958107Y8970213D01*
X-22958735Y8990668D01*
X-22964189Y9017906D01*
X-22978795Y9044424D01*
X-23006751Y9077014D01*
X-23052258Y9122466D01*
X-23146408Y9214022D01*
X-23235466Y9114401D01*
X-23250212Y9097785D01*
X-23288559Y9051940D01*
X-23311133Y9017925D01*
X-23321824Y8988912D01*
X-23324524Y8958072D01*
X-23485623Y8958072D01*
X-23484126Y9020597D01*
X-23477248Y9088608D01*
X-23465275Y9130474D01*
X-23454259Y9147728D01*
X-23419647Y9189290D01*
X-23371589Y9238924D01*
X-23316505Y9290468D01*
X-23260814Y9337759D01*
X-23210935Y9374636D01*
X-23148644Y9415782D01*
X-23093681Y9379369D01*
X-23064038Y9358829D01*
X-23001838Y9310969D01*
X-22940588Y9258529D01*
X-22886065Y9206839D01*
X-22844046Y9161233D01*
X-22820307Y9127043D01*
X-22806502Y9080272D01*
X-22798607Y9013888D01*
X-22798020Y8970213D01*
X-22797627Y8940978D01*
G37*
G36*
X-24602250Y8914123D02*
G01*
X-24612161Y8850558D01*
X-24632844Y8799963D01*
X-24667679Y8754178D01*
X-24720043Y8705043D01*
X-24722177Y8703208D01*
X-24775097Y8657240D01*
X-24827980Y8610616D01*
X-24869679Y8573159D01*
X-24894464Y8550866D01*
X-24921719Y8527436D01*
X-24934268Y8518197D01*
X-24941397Y8522425D01*
X-24965678Y8541000D01*
X-25000223Y8569410D01*
X-25001231Y8570259D01*
X-25045018Y8605706D01*
X-25100552Y8648771D01*
X-25156069Y8690327D01*
X-25158523Y8692127D01*
X-25226527Y8745792D01*
X-25272465Y8793336D01*
X-25300331Y8841610D01*
X-25314121Y8897466D01*
X-25317390Y8959417D01*
X-25150688Y8959417D01*
X-25139317Y8911879D01*
X-25102138Y8861639D01*
X-25039006Y8804031D01*
X-25005190Y8776818D01*
X-24973094Y8752562D01*
X-24955918Y8741625D01*
X-24953187Y8741925D01*
X-24932882Y8755118D01*
X-24899759Y8783472D01*
X-24859464Y8822266D01*
X-24852568Y8829259D01*
X-24812311Y8872288D01*
X-24788966Y8904151D01*
X-24778163Y8932220D01*
X-24775534Y8963868D01*
X-24777099Y8989287D01*
X-24786693Y9020144D01*
X-24809071Y9053629D01*
X-24848817Y9098139D01*
X-24852603Y9102164D01*
X-24887761Y9141708D01*
X-24912652Y9173564D01*
X-24922100Y9191160D01*
X-24922120Y9192471D01*
X-24930135Y9206147D01*
X-24953293Y9198263D01*
X-24992516Y9168269D01*
X-25048725Y9115617D01*
X-25096590Y9065037D01*
X-25136397Y9008914D01*
X-25150688Y8959417D01*
X-25317390Y8959417D01*
X-25317830Y8967754D01*
X-25316428Y9022300D01*
X-25307992Y9080038D01*
X-25288257Y9127782D01*
X-25253083Y9174604D01*
X-25198328Y9229575D01*
X-25120137Y9298332D01*
X-25047195Y9352080D01*
X-24985860Y9385644D01*
X-24938905Y9397230D01*
X-24917327Y9393288D01*
X-24869880Y9370484D01*
X-24813279Y9331127D01*
X-24752854Y9279529D01*
X-24693936Y9220003D01*
X-24641853Y9156861D01*
X-24621498Y9126710D01*
X-24607483Y9094196D01*
X-24601172Y9054118D01*
X-24599735Y8995637D01*
X-24600715Y8963868D01*
X-24602250Y8914123D01*
G37*
G36*
X-30996945Y15203546D02*
G01*
X-30999599Y15101666D01*
X-31002151Y15023857D01*
X-31005557Y14938227D01*
X-31009131Y14875757D01*
X-31013246Y14832866D01*
X-31018276Y14805977D01*
X-31024595Y14791509D01*
X-31032576Y14785884D01*
X-31035678Y14785475D01*
X-31063527Y14784237D01*
X-31116912Y14783025D01*
X-31192993Y14781868D01*
X-31288928Y14780796D01*
X-31401876Y14779836D01*
X-31528998Y14779019D01*
X-31667452Y14778373D01*
X-31814397Y14777927D01*
X-32572879Y14776226D01*
X-32572879Y15091345D01*
X-32239448Y15091345D01*
X-31820313Y15090529D01*
X-31800636Y15090505D01*
X-31693119Y15090867D01*
X-31595237Y15092007D01*
X-31510927Y15093820D01*
X-31444123Y15096201D01*
X-31398762Y15099046D01*
X-31378777Y15102250D01*
X-31377834Y15102814D01*
X-31369994Y15112084D01*
X-31364362Y15130981D01*
X-31360648Y15163440D01*
X-31358561Y15213396D01*
X-31357807Y15284785D01*
X-31358098Y15381542D01*
X-31358712Y15444493D01*
X-31360437Y15545732D01*
X-31362895Y15643650D01*
X-31365856Y15729582D01*
X-31369090Y15794865D01*
X-31378361Y15941431D01*
X-31799740Y15945499D01*
X-32221119Y15949566D01*
X-32221119Y15628928D01*
X-32221142Y15605941D01*
X-32221759Y15503967D01*
X-32223116Y15406055D01*
X-32225079Y15318517D01*
X-32227514Y15247667D01*
X-32230284Y15199817D01*
X-32239448Y15091345D01*
X-32572879Y15091345D01*
X-32572879Y15516751D01*
X-32572879Y16257275D01*
X-32534596Y16271830D01*
X-32511511Y16275957D01*
X-32458105Y16278836D01*
X-32377659Y16279494D01*
X-32271365Y16277924D01*
X-32140411Y16274119D01*
X-32125410Y16273623D01*
X-31995188Y16270640D01*
X-31848347Y16269190D01*
X-31696098Y16269275D01*
X-31549650Y16270895D01*
X-31420212Y16274050D01*
X-31344421Y16276397D01*
X-31248062Y16278800D01*
X-31163314Y16280256D01*
X-31094597Y16280715D01*
X-31046332Y16280129D01*
X-31022937Y16278448D01*
X-30989959Y16270648D01*
X-30989959Y15840919D01*
X-30990181Y15742230D01*
X-30991083Y15604081D01*
X-30992582Y15462852D01*
X-30994571Y15326641D01*
X-30995378Y15284785D01*
X-30996945Y15203546D01*
G37*
G36*
X-27537036Y11116659D02*
G01*
X-27572224Y11036864D01*
X-27622712Y10970806D01*
X-27686338Y10925206D01*
X-27715542Y10908712D01*
X-27732403Y10885522D01*
X-27736180Y10846815D01*
X-27733996Y10809869D01*
X-27724983Y10746019D01*
X-27710398Y10671032D01*
X-27691773Y10590624D01*
X-27670639Y10510506D01*
X-27648526Y10436393D01*
X-27626964Y10373999D01*
X-27607485Y10329035D01*
X-27591620Y10307217D01*
X-27591409Y10306577D01*
X-27607511Y10304379D01*
X-27647821Y10302909D01*
X-27708241Y10302223D01*
X-27784674Y10302376D01*
X-27873021Y10303423D01*
X-27892050Y10303744D01*
X-27980194Y10305560D01*
X-28056975Y10307664D01*
X-28117908Y10309896D01*
X-28158504Y10312098D01*
X-28174276Y10314111D01*
X-28174490Y10314451D01*
X-28172773Y10333261D01*
X-28163585Y10377533D01*
X-28147540Y10444776D01*
X-28125252Y10532498D01*
X-28097336Y10638209D01*
X-28064407Y10759418D01*
X-28059827Y10776103D01*
X-28044408Y10834178D01*
X-28036477Y10871366D01*
X-28035622Y10893632D01*
X-28041429Y10906940D01*
X-28053487Y10917255D01*
X-28119911Y10973665D01*
X-28179815Y11053294D01*
X-28216205Y11146951D01*
X-28223007Y11197753D01*
X-27988942Y11197753D01*
X-27979571Y11151602D01*
X-27953266Y11112631D01*
X-27942835Y11103704D01*
X-27899349Y11083718D01*
X-27858847Y11092702D01*
X-27823336Y11130381D01*
X-27820050Y11135858D01*
X-27800338Y11193308D01*
X-27807560Y11245168D01*
X-27839782Y11286529D01*
X-27895072Y11312485D01*
X-27898133Y11313182D01*
X-27935975Y11308797D01*
X-27965092Y11283399D01*
X-27983432Y11244034D01*
X-27988942Y11197753D01*
X-28223007Y11197753D01*
X-28231158Y11258627D01*
X-28231630Y11305667D01*
X-28221981Y11381696D01*
X-28195186Y11440608D01*
X-28147547Y11488919D01*
X-28075365Y11533146D01*
X-28054199Y11543840D01*
X-27999256Y11567025D01*
X-27948841Y11578186D01*
X-27888324Y11581073D01*
X-27842889Y11579063D01*
X-27786191Y11571598D01*
X-27744656Y11560513D01*
X-27693731Y11531832D01*
X-27632958Y11482518D01*
X-27579631Y11424931D01*
X-27543674Y11368552D01*
X-27521217Y11290564D01*
X-27519313Y11203466D01*
X-27521387Y11193308D01*
X-27537036Y11116659D01*
G37*
G36*
X-22412199Y12034727D02*
G01*
X-22346590Y12031152D01*
X-22299234Y12027651D01*
X-22215447Y12016460D01*
X-22151476Y11998546D01*
X-22100984Y11971777D01*
X-22057636Y11934025D01*
X-22014579Y11888846D01*
X-22018448Y10866552D01*
X-22022317Y9844259D01*
X-22057013Y9798687D01*
X-22062555Y9791323D01*
X-22075176Y9774641D01*
X-22087729Y9760269D01*
X-22102314Y9748038D01*
X-22121030Y9737780D01*
X-22145974Y9729326D01*
X-22179246Y9722507D01*
X-22222944Y9717157D01*
X-22279167Y9713104D01*
X-22350013Y9710183D01*
X-22437580Y9708223D01*
X-22543968Y9707056D01*
X-22671275Y9706515D01*
X-22821600Y9706430D01*
X-22997041Y9706633D01*
X-23199696Y9706956D01*
X-24207215Y9708471D01*
X-24238956Y9651783D01*
X-24269088Y9610848D01*
X-24321586Y9577130D01*
X-24391946Y9564156D01*
X-24463006Y9577176D01*
X-24526086Y9617103D01*
X-24578269Y9682738D01*
X-24597874Y9723505D01*
X-24611753Y9796992D01*
X-24597690Y9866106D01*
X-24556575Y9927885D01*
X-24489295Y9979369D01*
X-24460613Y9993365D01*
X-24389869Y10010327D01*
X-24323235Y10003549D01*
X-24266454Y9974245D01*
X-24225265Y9923626D01*
X-24202140Y9878907D01*
X-23205711Y9883783D01*
X-23072371Y9884491D01*
X-22877811Y9885785D01*
X-22710546Y9887272D01*
X-22569327Y9888980D01*
X-22452904Y9890936D01*
X-22360025Y9893166D01*
X-22289441Y9895697D01*
X-22239902Y9898556D01*
X-22210157Y9901771D01*
X-22198956Y9905366D01*
X-22196762Y9919147D01*
X-22194368Y9959993D01*
X-22192209Y10024534D01*
X-22190292Y10109721D01*
X-22188622Y10212506D01*
X-22187207Y10329839D01*
X-22186052Y10458673D01*
X-22185165Y10595957D01*
X-22184551Y10738645D01*
X-22184219Y10883686D01*
X-22184173Y11028032D01*
X-22184420Y11168634D01*
X-22184968Y11302444D01*
X-22185822Y11426412D01*
X-22186989Y11537491D01*
X-22188476Y11632631D01*
X-22190289Y11708783D01*
X-22192434Y11762900D01*
X-22194919Y11791931D01*
X-22202149Y11830848D01*
X-22210403Y11867810D01*
X-22216080Y11884555D01*
X-22227264Y11889521D01*
X-22260178Y11900024D01*
X-22305996Y11912726D01*
X-22341602Y11923708D01*
X-22389039Y11943532D01*
X-22420107Y11963004D01*
X-22443801Y11982462D01*
X-22460976Y11991460D01*
X-22467672Y11994981D01*
X-22480596Y12015683D01*
X-22482478Y12025634D01*
X-22475266Y12032531D01*
X-22453465Y12035374D01*
X-22412199Y12034727D01*
G37*
G36*
X-33280527Y13266165D02*
G01*
X-33296163Y13203828D01*
X-33304590Y13185654D01*
X-33344937Y13123526D01*
X-33395600Y13070885D01*
X-33447931Y13037222D01*
X-33496249Y13017033D01*
X-33496249Y12894956D01*
X-33496249Y12772879D01*
X-33444446Y12744981D01*
X-33399960Y12714401D01*
X-33348096Y12652937D01*
X-33316562Y12578815D01*
X-33306887Y12505558D01*
X-33305836Y12497604D01*
X-33316397Y12414871D01*
X-33348727Y12336184D01*
X-33403303Y12267113D01*
X-33407691Y12263057D01*
X-33446110Y12233163D01*
X-33481592Y12213079D01*
X-33535676Y12199168D01*
X-33611803Y12202160D01*
X-33684536Y12228012D01*
X-33749185Y12273184D01*
X-33801054Y12334138D01*
X-33835453Y12407332D01*
X-33847687Y12489228D01*
X-33846296Y12513959D01*
X-33701442Y12513959D01*
X-33691620Y12460981D01*
X-33662182Y12410609D01*
X-33619318Y12378285D01*
X-33585299Y12364356D01*
X-33562998Y12360594D01*
X-33542821Y12370388D01*
X-33512030Y12395821D01*
X-33504801Y12402320D01*
X-33472854Y12450845D01*
X-33467536Y12505558D01*
X-33489752Y12559809D01*
X-33518317Y12582835D01*
X-33562001Y12593182D01*
X-33610495Y12589661D01*
X-33655461Y12574079D01*
X-33688557Y12548243D01*
X-33701442Y12513959D01*
X-33846296Y12513959D01*
X-33846101Y12517423D01*
X-33828010Y12593519D01*
X-33793171Y12661584D01*
X-33745885Y12714608D01*
X-33690450Y12745581D01*
X-33675348Y12751890D01*
X-33665519Y12763852D01*
X-33660156Y12787263D01*
X-33657920Y12828075D01*
X-33657472Y12892244D01*
X-33657474Y12900513D01*
X-33657961Y12961659D01*
X-33660304Y13000048D01*
X-33665939Y13021590D01*
X-33676302Y13032196D01*
X-33692831Y13037780D01*
X-33721676Y13051297D01*
X-33765109Y13088382D01*
X-33807036Y13139622D01*
X-33841237Y13197084D01*
X-33861490Y13252837D01*
X-33867955Y13306909D01*
X-33865653Y13331993D01*
X-33705197Y13331993D01*
X-33694843Y13275346D01*
X-33670468Y13226491D01*
X-33633807Y13195208D01*
X-33620372Y13189769D01*
X-33562996Y13181738D01*
X-33512600Y13196521D01*
X-33472528Y13228921D01*
X-33446120Y13273742D01*
X-33436718Y13325789D01*
X-33447664Y13379865D01*
X-33482300Y13430776D01*
X-33515142Y13459284D01*
X-33545120Y13469781D01*
X-33587047Y13467396D01*
X-33597250Y13465695D01*
X-33642666Y13451261D01*
X-33675678Y13430778D01*
X-33676882Y13429546D01*
X-33699789Y13386653D01*
X-33705197Y13331993D01*
X-33865653Y13331993D01*
X-33859814Y13395634D01*
X-33831690Y13480939D01*
X-33786555Y13554917D01*
X-33727382Y13609659D01*
X-33670800Y13638285D01*
X-33587476Y13655519D01*
X-33504172Y13647291D01*
X-33425936Y13615091D01*
X-33357812Y13560413D01*
X-33304849Y13484747D01*
X-33302059Y13478961D01*
X-33283875Y13416672D01*
X-33276564Y13341427D01*
X-33277387Y13325789D01*
X-33280527Y13266165D01*
G37*
G36*
X-30689096Y6410070D02*
G01*
X-30688976Y6294571D01*
X-30689203Y6186431D01*
X-30689806Y6089298D01*
X-30690811Y6006819D01*
X-30692246Y5942643D01*
X-30693899Y5889742D01*
X-30696911Y5802604D01*
X-30699894Y5739037D01*
X-30703354Y5695206D01*
X-30707796Y5667275D01*
X-30713727Y5651407D01*
X-30721652Y5643765D01*
X-30732077Y5640513D01*
X-30732455Y5640449D01*
X-30753905Y5639338D01*
X-30801892Y5638231D01*
X-30873792Y5637149D01*
X-30966983Y5636115D01*
X-31078842Y5635152D01*
X-31206747Y5634283D01*
X-31348073Y5633530D01*
X-31500199Y5632916D01*
X-31660502Y5632464D01*
X-32558223Y5630468D01*
X-32560329Y5971235D01*
X-32560607Y6021493D01*
X-32561071Y6161256D01*
X-32561136Y6303570D01*
X-32560831Y6445247D01*
X-32560624Y6489601D01*
X-32039419Y6489601D01*
X-32030635Y6403256D01*
X-32000427Y6325364D01*
X-31948510Y6261388D01*
X-31925021Y6242492D01*
X-31883536Y6222105D01*
X-31832208Y6216734D01*
X-31766763Y6216734D01*
X-31766763Y6093193D01*
X-31766763Y5969651D01*
X-31635829Y5964947D01*
X-31504895Y5960243D01*
X-31494857Y6081160D01*
X-31484819Y6202077D01*
X-31431590Y6202403D01*
X-31398173Y6205766D01*
X-31357118Y6222942D01*
X-31316717Y6258549D01*
X-31270951Y6316876D01*
X-31241513Y6365531D01*
X-31217970Y6437579D01*
X-31216834Y6516796D01*
X-31237335Y6609890D01*
X-31240872Y6621311D01*
X-31263858Y6682041D01*
X-31291787Y6727497D01*
X-31331759Y6769696D01*
X-31355060Y6790066D01*
X-31410971Y6828178D01*
X-31472321Y6852364D01*
X-31546820Y6865084D01*
X-31642181Y6868800D01*
X-31700317Y6867643D01*
X-31767943Y6860038D01*
X-31821534Y6842418D01*
X-31870011Y6811436D01*
X-31922291Y6763749D01*
X-31940083Y6744725D01*
X-31993858Y6665798D01*
X-32027065Y6578936D01*
X-32039419Y6489601D01*
X-32560624Y6489601D01*
X-32560188Y6583102D01*
X-32559237Y6713948D01*
X-32558009Y6834598D01*
X-32556534Y6941868D01*
X-32554843Y7032569D01*
X-32552967Y7103516D01*
X-32550935Y7151523D01*
X-32548780Y7173403D01*
X-32546172Y7178556D01*
X-32539966Y7183048D01*
X-32528054Y7186773D01*
X-32508292Y7189774D01*
X-32478534Y7192089D01*
X-32436632Y7193759D01*
X-32380441Y7194825D01*
X-32307815Y7195326D01*
X-32216609Y7195304D01*
X-32104674Y7194798D01*
X-31969867Y7193848D01*
X-31810040Y7192495D01*
X-31623048Y7190780D01*
X-31591254Y7190480D01*
X-31431591Y7188917D01*
X-31281317Y7187350D01*
X-31142920Y7185810D01*
X-31018893Y7184329D01*
X-30911725Y7182940D01*
X-30823908Y7181675D01*
X-30757931Y7180564D01*
X-30716286Y7179642D01*
X-30701462Y7178938D01*
X-30701352Y7178788D01*
X-30699324Y7161219D01*
X-30697398Y7118176D01*
X-30695603Y7053309D01*
X-30693966Y6970265D01*
X-30692513Y6872692D01*
X-30691273Y6764238D01*
X-30690272Y6648551D01*
X-30689537Y6529279D01*
X-30689491Y6516796D01*
X-30689096Y6410070D01*
G37*
G36*
X-24269397Y11864043D02*
G01*
X-24219966Y11837969D01*
X-24170782Y11796365D01*
X-24130884Y11747915D01*
X-24109309Y11701301D01*
X-24099649Y11657320D01*
X-23891630Y11648819D01*
X-23866135Y11647820D01*
X-23779968Y11644816D01*
X-23675028Y11641560D01*
X-23559009Y11638271D01*
X-23439609Y11635173D01*
X-23324524Y11632487D01*
X-23271281Y11631263D01*
X-23160954Y11628367D01*
X-23054329Y11625127D01*
X-22957808Y11621759D01*
X-22877792Y11618479D01*
X-22820683Y11615503D01*
X-22675930Y11606348D01*
X-22611586Y11544696D01*
X-22547243Y11483044D01*
X-22553870Y10946882D01*
X-22555297Y10837998D01*
X-22557247Y10714816D01*
X-22559370Y10615812D01*
X-22561821Y10538038D01*
X-22564753Y10478550D01*
X-22568323Y10434399D01*
X-22572683Y10402639D01*
X-22577989Y10380324D01*
X-22584396Y10364506D01*
X-22594922Y10345607D01*
X-22609364Y10326528D01*
X-22628361Y10311660D01*
X-22655005Y10300606D01*
X-22692389Y10292970D01*
X-22743605Y10288355D01*
X-22811746Y10286365D01*
X-22899905Y10286604D01*
X-23011173Y10288676D01*
X-23148644Y10292183D01*
X-23274910Y10295418D01*
X-23408433Y10298521D01*
X-23540445Y10301306D01*
X-23663998Y10303632D01*
X-23772145Y10305362D01*
X-23857939Y10306356D01*
X-24120205Y10308459D01*
X-24151072Y10270983D01*
X-24183905Y10239475D01*
X-24225909Y10211189D01*
X-24231795Y10208329D01*
X-24300983Y10191046D01*
X-24370862Y10199356D01*
X-24433893Y10231115D01*
X-24482536Y10284179D01*
X-24486686Y10290849D01*
X-24501247Y10311142D01*
X-24518304Y10324174D01*
X-24544544Y10332272D01*
X-24586654Y10337767D01*
X-24651319Y10342988D01*
X-24790190Y10353400D01*
X-24790190Y10401756D01*
X-24790132Y10416148D01*
X-24787573Y10453851D01*
X-24777258Y10476592D01*
X-24753821Y10487534D01*
X-24711895Y10489839D01*
X-24646114Y10486670D01*
X-24519042Y10478915D01*
X-24494796Y10523082D01*
X-24450060Y10578880D01*
X-24392076Y10612790D01*
X-24327045Y10623902D01*
X-24260652Y10612251D01*
X-24198577Y10577875D01*
X-24146506Y10520812D01*
X-24111072Y10467167D01*
X-23413672Y10467166D01*
X-22716272Y10467166D01*
X-22717678Y10947172D01*
X-22719084Y11427178D01*
X-22761648Y11436437D01*
X-22763363Y11436770D01*
X-22793824Y11439717D01*
X-22847731Y11442464D01*
X-22919806Y11444834D01*
X-23004770Y11446649D01*
X-23097345Y11447732D01*
X-23136201Y11448061D01*
X-23262787Y11449865D01*
X-23392223Y11452703D01*
X-23520934Y11456413D01*
X-23645348Y11460834D01*
X-23761891Y11465804D01*
X-23866991Y11471160D01*
X-23957074Y11476742D01*
X-24028566Y11482387D01*
X-24077894Y11487933D01*
X-24101485Y11493218D01*
X-24126647Y11499482D01*
X-24144175Y11480574D01*
X-24165108Y11456037D01*
X-24210528Y11428566D01*
X-24265236Y11411786D01*
X-24317800Y11410324D01*
X-24342957Y11416464D01*
X-24407382Y11446905D01*
X-24467953Y11493148D01*
X-24513552Y11547407D01*
X-24533105Y11594679D01*
X-24539532Y11661936D01*
X-24526712Y11727874D01*
X-24495498Y11781408D01*
X-24463961Y11809731D01*
X-24403635Y11845175D01*
X-24339478Y11865843D01*
X-24282217Y11867411D01*
X-24269397Y11864043D01*
G37*
G36*
X-23143190Y6952858D02*
G01*
X-23143190Y6952448D01*
X-23143581Y6781229D01*
X-23143654Y6755082D01*
X-23144056Y6612208D01*
X-23144600Y6448775D01*
X-23145198Y6294318D01*
X-23145834Y6152228D01*
X-23146491Y6026197D01*
X-23146493Y6025894D01*
X-23147161Y5918705D01*
X-23147822Y5834051D01*
X-23148460Y5775320D01*
X-23148988Y5718464D01*
X-23148801Y5640094D01*
X-23147561Y5574149D01*
X-23145394Y5526258D01*
X-23142422Y5502045D01*
X-23138221Y5492095D01*
X-23128591Y5481189D01*
X-23111490Y5472657D01*
X-23083798Y5466168D01*
X-23042395Y5461392D01*
X-22984159Y5458000D01*
X-22905971Y5455660D01*
X-22804710Y5454043D01*
X-22677257Y5452819D01*
X-22599221Y5452260D01*
X-22503273Y5451962D01*
X-22430628Y5452509D01*
X-22377673Y5454110D01*
X-22340794Y5456975D01*
X-22316375Y5461312D01*
X-22300803Y5467332D01*
X-22290463Y5475245D01*
X-22267513Y5495259D01*
X-22203162Y5530631D01*
X-22132749Y5546717D01*
X-22064428Y5542339D01*
X-22006351Y5516318D01*
X-21999313Y5510884D01*
X-21948156Y5453555D01*
X-21916665Y5383900D01*
X-21905073Y5308506D01*
X-21913615Y5233964D01*
X-21942524Y5166862D01*
X-21992036Y5113789D01*
X-22028238Y5093321D01*
X-22096114Y5078233D01*
X-22166590Y5085707D01*
X-22232869Y5113547D01*
X-22288152Y5159558D01*
X-22325640Y5221543D01*
X-22340107Y5259593D01*
X-22671490Y5267686D01*
X-22718906Y5268986D01*
X-22811539Y5272388D01*
X-22892439Y5276498D01*
X-22957211Y5281033D01*
X-23001462Y5285709D01*
X-23020796Y5290243D01*
X-23034233Y5297968D01*
X-23061502Y5306357D01*
X-23103972Y5314024D01*
X-23165164Y5321462D01*
X-23248601Y5329168D01*
X-23357802Y5337637D01*
X-23416190Y5341891D01*
X-23495802Y5346831D01*
X-23552565Y5347410D01*
X-23590527Y5342056D01*
X-23613737Y5329197D01*
X-23626246Y5307260D01*
X-23632103Y5274673D01*
X-23635356Y5229865D01*
X-23635370Y5229648D01*
X-23641188Y5172218D01*
X-23649932Y5122684D01*
X-23659712Y5091750D01*
X-23660658Y5090026D01*
X-23685292Y5065877D01*
X-23726961Y5058858D01*
X-23755502Y5060883D01*
X-23777729Y5074299D01*
X-23792810Y5107954D01*
X-23799782Y5132139D01*
X-23812131Y5185139D01*
X-23822818Y5241864D01*
X-23829642Y5279219D01*
X-23838611Y5317349D01*
X-23845696Y5335670D01*
X-23857496Y5339781D01*
X-23894769Y5343058D01*
X-23950447Y5343594D01*
X-24018233Y5341680D01*
X-24091830Y5337607D01*
X-24164944Y5331667D01*
X-24231278Y5324152D01*
X-24284535Y5315352D01*
X-24304095Y5311603D01*
X-24377352Y5301629D01*
X-24473401Y5293603D01*
X-24594404Y5287373D01*
X-24742521Y5282784D01*
X-25083254Y5274770D01*
X-25097884Y5220440D01*
X-25100696Y5210658D01*
X-25123501Y5162132D01*
X-25161533Y5125905D01*
X-25221803Y5094872D01*
X-25287176Y5078957D01*
X-25356291Y5089118D01*
X-25421988Y5128376D01*
X-25436790Y5142108D01*
X-25480685Y5204671D01*
X-25504930Y5278289D01*
X-25507634Y5354354D01*
X-25486908Y5424256D01*
X-25478063Y5439864D01*
X-25429758Y5495791D01*
X-25369024Y5533427D01*
X-25301953Y5551808D01*
X-25234637Y5549970D01*
X-25173167Y5526947D01*
X-25123634Y5481776D01*
X-25090652Y5436855D01*
X-24936757Y5446506D01*
X-24910692Y5447976D01*
X-24830877Y5451328D01*
X-24735538Y5454159D01*
X-24634444Y5456207D01*
X-24537363Y5457211D01*
X-24488591Y5457574D01*
X-24400198Y5459439D01*
X-24338881Y5462851D01*
X-24303118Y5467917D01*
X-24291385Y5474747D01*
X-24290844Y5499881D01*
X-24290139Y5559821D01*
X-24289608Y5642123D01*
X-24289242Y5744067D01*
X-24289033Y5862935D01*
X-24288978Y5982028D01*
X-23938968Y5982028D01*
X-23936714Y5943071D01*
X-23927906Y5915509D01*
X-23910958Y5890214D01*
X-23905158Y5883427D01*
X-23866776Y5849301D01*
X-23822049Y5820595D01*
X-23821412Y5820272D01*
X-23742788Y5794627D01*
X-23666296Y5797763D01*
X-23594053Y5829597D01*
X-23560985Y5852622D01*
X-23528321Y5882333D01*
X-23510073Y5915419D01*
X-23502137Y5960500D01*
X-23500404Y6026197D01*
X-23501127Y6074111D01*
X-23506698Y6124669D01*
X-23521305Y6160556D01*
X-23549055Y6190391D01*
X-23594053Y6222798D01*
X-23665534Y6254414D01*
X-23742050Y6258024D01*
X-23819770Y6232950D01*
X-23835543Y6224649D01*
X-23882997Y6193235D01*
X-23912439Y6156908D01*
X-23928679Y6107608D01*
X-23936524Y6037274D01*
X-23938968Y5982028D01*
X-24288978Y5982028D01*
X-24288971Y5996005D01*
X-24289046Y6140558D01*
X-24289250Y6293874D01*
X-24289573Y6453234D01*
X-24290006Y6615918D01*
X-24290370Y6727236D01*
X-23925447Y6727236D01*
X-23925044Y6694215D01*
X-23919835Y6634918D01*
X-23905909Y6594249D01*
X-23879880Y6564913D01*
X-23838362Y6539617D01*
X-23797236Y6521945D01*
X-23716736Y6504933D01*
X-23640607Y6510291D01*
X-23574566Y6537196D01*
X-23524331Y6584826D01*
X-23519223Y6594191D01*
X-23507736Y6636618D01*
X-23501279Y6693768D01*
X-23500200Y6755082D01*
X-23504853Y6809997D01*
X-23515587Y6847954D01*
X-23536369Y6869262D01*
X-23574689Y6895895D01*
X-23620422Y6921936D01*
X-23663566Y6941695D01*
X-23694117Y6949486D01*
X-23701406Y6949230D01*
X-23759341Y6936769D01*
X-23821666Y6909751D01*
X-23874549Y6873966D01*
X-23885501Y6864226D01*
X-23907897Y6840849D01*
X-23919833Y6816527D01*
X-23924590Y6781808D01*
X-23925447Y6727236D01*
X-24290370Y6727236D01*
X-24290540Y6779205D01*
X-24291166Y6940377D01*
X-24291875Y7096714D01*
X-24292656Y7245495D01*
X-24293502Y7384002D01*
X-24293671Y7407563D01*
X-23938696Y7407563D01*
X-23934114Y7344385D01*
X-23920956Y7287080D01*
X-23896857Y7244460D01*
X-23844835Y7203045D01*
X-23820574Y7191105D01*
X-23744487Y7171765D01*
X-23666487Y7174524D01*
X-23594649Y7198354D01*
X-23537045Y7242227D01*
X-23526423Y7256517D01*
X-23514351Y7286221D01*
X-23506950Y7330672D01*
X-23502605Y7397136D01*
X-23497477Y7519200D01*
X-23571736Y7556830D01*
X-23574805Y7558364D01*
X-23652165Y7585214D01*
X-23732145Y7593588D01*
X-23807828Y7584302D01*
X-23872295Y7558170D01*
X-23918626Y7516005D01*
X-23922560Y7509381D01*
X-23934809Y7466074D01*
X-23938696Y7407563D01*
X-24293671Y7407563D01*
X-24294403Y7509513D01*
X-24295350Y7619310D01*
X-24296333Y7710673D01*
X-24297343Y7780881D01*
X-24298372Y7827216D01*
X-24299410Y7846957D01*
X-24309560Y7901063D01*
X-24241857Y7918111D01*
X-24231777Y7921089D01*
X-24182092Y7942587D01*
X-24121371Y7976432D01*
X-24058787Y8017637D01*
X-24056975Y8018932D01*
X-23948802Y8094101D01*
X-23850350Y8158387D01*
X-23767887Y8207694D01*
X-23767351Y8207991D01*
X-23718741Y8220537D01*
X-23673601Y8205419D01*
X-23636757Y8164238D01*
X-23620419Y8141582D01*
X-23571882Y8094833D01*
X-23505191Y8045347D01*
X-23426765Y7996935D01*
X-23343026Y7953408D01*
X-23260392Y7918576D01*
X-23185285Y7896250D01*
X-23141315Y7886846D01*
X-23142053Y7519200D01*
X-23143190Y6952858D01*
G37*
G36*
X-24867959Y12756499D02*
G01*
X-24869034Y12593838D01*
X-24870901Y12370745D01*
X-24873077Y12170129D01*
X-24875543Y11992966D01*
X-24878283Y11840233D01*
X-24881276Y11712907D01*
X-24884505Y11611964D01*
X-24887952Y11538381D01*
X-24891599Y11493133D01*
X-24892276Y11487591D01*
X-24949303Y11125087D01*
X-25029819Y10778932D01*
X-25134603Y10446960D01*
X-25264432Y10127005D01*
X-25420085Y9816901D01*
X-25602339Y9514484D01*
X-25605848Y9509127D01*
X-25733733Y9322626D01*
X-25865367Y9148667D01*
X-26006271Y8980655D01*
X-26161970Y8811994D01*
X-26337987Y8636090D01*
X-26487579Y8494748D01*
X-26673355Y8329831D01*
X-26853323Y8183471D01*
X-27032674Y8051910D01*
X-27216598Y7931389D01*
X-27410285Y7818148D01*
X-27618927Y7708428D01*
X-27678250Y7679339D01*
X-27750878Y7645552D01*
X-27813029Y7618674D01*
X-27859530Y7600919D01*
X-27885210Y7594500D01*
X-27903754Y7597369D01*
X-27950184Y7611904D01*
X-28013880Y7636661D01*
X-28089719Y7669325D01*
X-28172581Y7707581D01*
X-28257345Y7749112D01*
X-28338888Y7791603D01*
X-28412090Y7832739D01*
X-28488902Y7879161D01*
X-28598002Y7948166D01*
X-28709605Y8021721D01*
X-28816702Y8095091D01*
X-28912279Y8163544D01*
X-28989325Y8222348D01*
X-29017820Y8245308D01*
X-29303197Y8492185D01*
X-29567481Y8752455D01*
X-29809759Y9024658D01*
X-30029118Y9307331D01*
X-30224645Y9599013D01*
X-30395425Y9898240D01*
X-30540546Y10203552D01*
X-30659095Y10513486D01*
X-30750158Y10826581D01*
X-30812822Y11141373D01*
X-30816416Y11164924D01*
X-30827389Y11237860D01*
X-30836905Y11304359D01*
X-30845052Y11366971D01*
X-30851919Y11428253D01*
X-30857594Y11490757D01*
X-30862166Y11557036D01*
X-30865721Y11629645D01*
X-30868348Y11711137D01*
X-30870137Y11804066D01*
X-30871173Y11910986D01*
X-30871547Y12034450D01*
X-30871345Y12177011D01*
X-30870656Y12341224D01*
X-30869569Y12529643D01*
X-30868171Y12744820D01*
X-30867919Y12782717D01*
X-30866842Y12943138D01*
X-30563127Y12943138D01*
X-30562951Y12785078D01*
X-30562469Y12618384D01*
X-30561671Y12445817D01*
X-30556157Y11441835D01*
X-30515982Y11239031D01*
X-30488769Y11108148D01*
X-30424509Y10844147D01*
X-30350390Y10599105D01*
X-30263810Y10366380D01*
X-30162165Y10139333D01*
X-30042854Y9911322D01*
X-29903274Y9675707D01*
X-29889233Y9653351D01*
X-29704696Y9386684D01*
X-29493032Y9126334D01*
X-29255960Y8874142D01*
X-28995204Y8631951D01*
X-28712484Y8401604D01*
X-28696520Y8389626D01*
X-28627150Y8340405D01*
X-28539961Y8281671D01*
X-28440925Y8217217D01*
X-28336013Y8150836D01*
X-28231199Y8086322D01*
X-28132453Y8027470D01*
X-28045749Y7978072D01*
X-28001464Y7954349D01*
X-27947422Y7927430D01*
X-27905751Y7909052D01*
X-27882969Y7902251D01*
X-27868220Y7906068D01*
X-27833610Y7923938D01*
X-27793161Y7951490D01*
X-27765178Y7971489D01*
X-27706072Y8008976D01*
X-27648151Y8041084D01*
X-27573089Y8080802D01*
X-27463158Y8144534D01*
X-27345750Y8217753D01*
X-27226453Y8296637D01*
X-27110854Y8377363D01*
X-27004541Y8456111D01*
X-26913102Y8529059D01*
X-26842123Y8592384D01*
X-26833682Y8600092D01*
X-26803574Y8626003D01*
X-26760314Y8662230D01*
X-26710213Y8703459D01*
X-26606640Y8794081D01*
X-26489827Y8907465D01*
X-26366987Y9036255D01*
X-26242506Y9175395D01*
X-26120770Y9319829D01*
X-26006166Y9464500D01*
X-25903079Y9604354D01*
X-25815896Y9734334D01*
X-25674503Y9973361D01*
X-25551751Y10214286D01*
X-25446822Y10460590D01*
X-25357552Y10717890D01*
X-25281778Y10991802D01*
X-25217336Y11287940D01*
X-25211199Y11320244D01*
X-25203845Y11361281D01*
X-25197458Y11401571D01*
X-25191948Y11443429D01*
X-25187223Y11489166D01*
X-25183195Y11541094D01*
X-25179772Y11601526D01*
X-25176863Y11672772D01*
X-25174379Y11757147D01*
X-25172229Y11856961D01*
X-25170322Y11974528D01*
X-25168568Y12112158D01*
X-25166876Y12272164D01*
X-25165157Y12456859D01*
X-25163319Y12668554D01*
X-25154731Y13675424D01*
X-25217297Y13707343D01*
X-25240913Y13718891D01*
X-25293906Y13743436D01*
X-25358991Y13772532D01*
X-25427093Y13802083D01*
X-25454419Y13813821D01*
X-25587307Y13872584D01*
X-25740515Y13942619D01*
X-25909601Y14021761D01*
X-26090120Y14107845D01*
X-26277632Y14198705D01*
X-26467692Y14292176D01*
X-26655859Y14386093D01*
X-26837689Y14478291D01*
X-27008740Y14566604D01*
X-27164570Y14648868D01*
X-27281991Y14711402D01*
X-27422981Y14785601D01*
X-27548799Y14850769D01*
X-27657703Y14906038D01*
X-27747952Y14950538D01*
X-27817806Y14983400D01*
X-27865523Y15003755D01*
X-27889362Y15010733D01*
X-27894114Y15009700D01*
X-27922541Y14998063D01*
X-27970954Y14975121D01*
X-28035245Y14942914D01*
X-28111305Y14903484D01*
X-28195026Y14858871D01*
X-28425807Y14735526D01*
X-28688974Y14597673D01*
X-28952184Y14462600D01*
X-29210433Y14332819D01*
X-29458716Y14210842D01*
X-29692028Y14099182D01*
X-29905366Y14000350D01*
X-29941826Y13983610D01*
X-30024981Y13944613D01*
X-30120291Y13899125D01*
X-30218639Y13851512D01*
X-30310905Y13806141D01*
X-30547892Y13688468D01*
X-30557539Y13569133D01*
X-30558331Y13555546D01*
X-30559776Y13507279D01*
X-30560976Y13433809D01*
X-30561922Y13337899D01*
X-30562602Y13222310D01*
X-30563007Y13089803D01*
X-30563127Y12943138D01*
X-30866842Y12943138D01*
X-30866552Y12986241D01*
X-30865302Y13162760D01*
X-30864103Y13314243D01*
X-30862888Y13442657D01*
X-30861593Y13549972D01*
X-30860152Y13638157D01*
X-30858498Y13709180D01*
X-30856567Y13765009D01*
X-30854292Y13807614D01*
X-30851608Y13838963D01*
X-30848449Y13861025D01*
X-30844749Y13875768D01*
X-30840443Y13885161D01*
X-30835465Y13891173D01*
X-30829749Y13895772D01*
X-30825691Y13898530D01*
X-30795309Y13915700D01*
X-30745678Y13941225D01*
X-30682693Y13972133D01*
X-30612249Y14005451D01*
X-30467031Y14073079D01*
X-30145731Y14224156D01*
X-29841465Y14369280D01*
X-29556266Y14507461D01*
X-29292171Y14637706D01*
X-29051213Y14759026D01*
X-28835430Y14870431D01*
X-28780716Y14899085D01*
X-28667462Y14958320D01*
X-28551163Y15019061D01*
X-28439068Y15077525D01*
X-28338427Y15129928D01*
X-28256491Y15172490D01*
X-28192546Y15205852D01*
X-28116360Y15246147D01*
X-28049759Y15281959D01*
X-27998243Y15310325D01*
X-27967314Y15328283D01*
X-27953441Y15336543D01*
X-27915842Y15355090D01*
X-27889962Y15362493D01*
X-27876742Y15357716D01*
X-27840832Y15341290D01*
X-27786951Y15315264D01*
X-27719390Y15281831D01*
X-27642439Y15243180D01*
X-27560388Y15201505D01*
X-27477526Y15158996D01*
X-27398144Y15117845D01*
X-27326531Y15080243D01*
X-27266978Y15048382D01*
X-27223775Y15024454D01*
X-27201212Y15010649D01*
X-27200215Y15009934D01*
X-27175279Y14994940D01*
X-27127796Y14968639D01*
X-27061101Y14932768D01*
X-26978530Y14889068D01*
X-26883417Y14839276D01*
X-26779098Y14785132D01*
X-26668909Y14728375D01*
X-26556184Y14670743D01*
X-26444258Y14613976D01*
X-26336468Y14559812D01*
X-26199135Y14491873D01*
X-26035696Y14412607D01*
X-25870454Y14333999D01*
X-25708045Y14258189D01*
X-25553108Y14187318D01*
X-25410278Y14123526D01*
X-25284194Y14068954D01*
X-25179492Y14025743D01*
X-25141940Y14010520D01*
X-25068188Y13979350D01*
X-24999701Y13948958D01*
X-24947539Y13924184D01*
X-24861252Y13880627D01*
X-24862476Y13675424D01*
X-24867959Y12756499D01*
G37*
G36*
X-25497726Y12534596D02*
G01*
X-25498740Y12390325D01*
X-25500214Y12212065D01*
X-25501075Y12135402D01*
X-25501944Y12058025D01*
X-25504139Y11925235D01*
X-25507006Y11810729D01*
X-25510755Y11711540D01*
X-25515593Y11624698D01*
X-25521729Y11547237D01*
X-25529370Y11476188D01*
X-25538726Y11408585D01*
X-25550003Y11341458D01*
X-25563411Y11271842D01*
X-25579158Y11196767D01*
X-25597452Y11113266D01*
X-25604584Y11081705D01*
X-25670456Y10836914D01*
X-25754178Y10599397D01*
X-25857907Y10364195D01*
X-25983804Y10126349D01*
X-26134026Y9880900D01*
X-26203993Y9775357D01*
X-26314190Y9619281D01*
X-26423850Y9478376D01*
X-26539294Y9345104D01*
X-26666841Y9211928D01*
X-26710791Y9169590D01*
X-26812810Y9071312D01*
X-26943348Y8952913D01*
X-27128450Y8798111D01*
X-27311137Y8661523D01*
X-27321277Y8654529D01*
X-27366401Y8625012D01*
X-27426710Y8587115D01*
X-27497196Y8543823D01*
X-27572851Y8498123D01*
X-27648670Y8453002D01*
X-27719645Y8411448D01*
X-27780768Y8376445D01*
X-27827033Y8350982D01*
X-27853433Y8338045D01*
X-27856219Y8336993D01*
X-27872129Y8332468D01*
X-27889218Y8332401D01*
X-27911488Y8338545D01*
X-27942943Y8352656D01*
X-27987584Y8376486D01*
X-28049415Y8411791D01*
X-28132439Y8460325D01*
X-28333337Y8585562D01*
X-28617449Y8790790D01*
X-28883070Y9018457D01*
X-29053656Y9190883D01*
X-28084294Y9190883D01*
X-28084154Y9121156D01*
X-28059845Y9048551D01*
X-28054751Y9039309D01*
X-28026532Y8999990D01*
X-27997661Y8973505D01*
X-27981355Y8964301D01*
X-27911206Y8941143D01*
X-27845474Y8946842D01*
X-27784931Y8981196D01*
X-27730347Y9044001D01*
X-27701850Y9097211D01*
X-27685668Y9169590D01*
X-27696708Y9236307D01*
X-27734244Y9294175D01*
X-27797554Y9340005D01*
X-27846737Y9358278D01*
X-27914183Y9362113D01*
X-27975212Y9343346D01*
X-28026274Y9305923D01*
X-28063818Y9253787D01*
X-28084294Y9190883D01*
X-29053656Y9190883D01*
X-29131746Y9269815D01*
X-29250736Y9403185D01*
X-29387659Y9567212D01*
X-29507713Y9725753D01*
X-29615051Y9885061D01*
X-29713824Y10051392D01*
X-29808187Y10230997D01*
X-29902291Y10430130D01*
X-29918520Y10466896D01*
X-29976397Y10611540D01*
X-30032080Y10770496D01*
X-30083699Y10937034D01*
X-30129384Y11104425D01*
X-30140911Y11153577D01*
X-29287643Y11153577D01*
X-29286894Y10899539D01*
X-29286056Y10769159D01*
X-29285042Y10628602D01*
X-29283958Y10512532D01*
X-29282677Y10418254D01*
X-29281068Y10343074D01*
X-29279002Y10284297D01*
X-29276351Y10239230D01*
X-29272984Y10205178D01*
X-29268774Y10179446D01*
X-29263591Y10159341D01*
X-29257306Y10142169D01*
X-29249789Y10125234D01*
X-29212499Y10055762D01*
X-29140899Y9964818D01*
X-29046578Y9886625D01*
X-28963792Y9829602D01*
X-27884637Y9826063D01*
X-27856705Y9825971D01*
X-27656237Y9825351D01*
X-27482729Y9824914D01*
X-27334099Y9824707D01*
X-27208264Y9824771D01*
X-27103141Y9825152D01*
X-27016646Y9825892D01*
X-26946697Y9827037D01*
X-26891210Y9828628D01*
X-26848102Y9830712D01*
X-26815291Y9833330D01*
X-26790692Y9836527D01*
X-26772223Y9840348D01*
X-26757800Y9844835D01*
X-26745341Y9850033D01*
X-26692987Y9879558D01*
X-26642825Y9924153D01*
X-26597191Y9986224D01*
X-26551115Y10071437D01*
X-26497692Y10181362D01*
X-26493354Y11158382D01*
X-26489016Y12135402D01*
X-26529996Y12143277D01*
X-26540660Y12145008D01*
X-26582969Y12150060D01*
X-26641365Y12155632D01*
X-26706549Y12160802D01*
X-26842123Y12170452D01*
X-26842414Y12429052D01*
X-26843688Y12556204D01*
X-26847929Y12669159D01*
X-26855770Y12763622D01*
X-26867850Y12845141D01*
X-26875638Y12879174D01*
X-26326299Y12879174D01*
X-26316755Y12804604D01*
X-26285259Y12740192D01*
X-26235045Y12693304D01*
X-26194875Y12674174D01*
X-26139417Y12668539D01*
X-26083768Y12689655D01*
X-26024247Y12738308D01*
X-25988959Y12782269D01*
X-25961781Y12846603D01*
X-25958016Y12910517D01*
X-25975849Y12968983D01*
X-26013466Y13016971D01*
X-26069053Y13049452D01*
X-26140795Y13061397D01*
X-26187877Y13058337D01*
X-26225500Y13044349D01*
X-26264844Y13013259D01*
X-26288380Y12989608D01*
X-26313623Y12949408D01*
X-26324928Y12898081D01*
X-26326299Y12879174D01*
X-26875638Y12879174D01*
X-26884810Y12919259D01*
X-26907288Y12991522D01*
X-26935834Y13065208D01*
X-26989965Y13170193D01*
X-27060126Y13268986D01*
X-27151881Y13370201D01*
X-27228164Y13440708D01*
X-27367485Y13540503D01*
X-27516243Y13612980D01*
X-27673257Y13657735D01*
X-27837345Y13674366D01*
X-28007328Y13662468D01*
X-28146122Y13631698D01*
X-28306068Y13570026D01*
X-28452727Y13483505D01*
X-28583846Y13373778D01*
X-28697172Y13242488D01*
X-28790452Y13091279D01*
X-28790563Y13091063D01*
X-28827579Y13013525D01*
X-28856307Y12938884D01*
X-28871646Y12883587D01*
X-28877693Y12861789D01*
X-28892682Y12776894D01*
X-28902218Y12678848D01*
X-28907247Y12562304D01*
X-28908713Y12421912D01*
X-28908713Y12152683D01*
X-29069247Y12152683D01*
X-29229782Y12152683D01*
X-29244932Y12097815D01*
X-29252412Y12063872D01*
X-29263013Y11985211D01*
X-29271723Y11877337D01*
X-29278541Y11740243D01*
X-29283466Y11573922D01*
X-29286500Y11378369D01*
X-29287643Y11153577D01*
X-30140911Y11153577D01*
X-30167262Y11265941D01*
X-30195464Y11414853D01*
X-30212118Y11544432D01*
X-30213280Y11560378D01*
X-30215987Y11617432D01*
X-30218589Y11698960D01*
X-30221029Y11801566D01*
X-30223248Y11921849D01*
X-30225189Y12056410D01*
X-30226791Y12201850D01*
X-30227997Y12354771D01*
X-30228749Y12511772D01*
X-30229220Y12655444D01*
X-30229774Y12823204D01*
X-30229929Y12876743D01*
X-29780701Y12876743D01*
X-29773685Y12815472D01*
X-29745387Y12759378D01*
X-29691745Y12712833D01*
X-29681010Y12705941D01*
X-29627207Y12677783D01*
X-29583612Y12671535D01*
X-29541625Y12687820D01*
X-29492646Y12727261D01*
X-29457674Y12763497D01*
X-29420704Y12823079D01*
X-29410836Y12883587D01*
X-29426956Y12948781D01*
X-29434903Y12964861D01*
X-29475718Y13013660D01*
X-29530162Y13048196D01*
X-29588033Y13061342D01*
X-29608661Y13060245D01*
X-29675463Y13040350D01*
X-29730134Y12999561D01*
X-29767077Y12943239D01*
X-29780701Y12876743D01*
X-30229929Y12876743D01*
X-30230186Y12965380D01*
X-30230397Y13084107D01*
X-30230346Y13181517D01*
X-30229972Y13259743D01*
X-30229216Y13320918D01*
X-30228017Y13367175D01*
X-30226316Y13400646D01*
X-30224050Y13423466D01*
X-30221161Y13437766D01*
X-30217589Y13445680D01*
X-30213272Y13449341D01*
X-30208150Y13450881D01*
X-30202164Y13452435D01*
X-30180329Y13461322D01*
X-30137543Y13479796D01*
X-30080434Y13504988D01*
X-30015291Y13534148D01*
X-29966527Y13556095D01*
X-29876802Y13596363D01*
X-29786509Y13636770D01*
X-29709288Y13671207D01*
X-29681196Y13683963D01*
X-29610529Y13717219D01*
X-29520674Y13760541D01*
X-29416102Y13811687D01*
X-29301284Y13868419D01*
X-29180691Y13928497D01*
X-29058795Y13989680D01*
X-28940068Y14049729D01*
X-28828979Y14106403D01*
X-28730002Y14157464D01*
X-28647608Y14200670D01*
X-28586266Y14233782D01*
X-28582101Y14236084D01*
X-28523011Y14268193D01*
X-28445123Y14309789D01*
X-28355135Y14357331D01*
X-28259745Y14407278D01*
X-28165651Y14456092D01*
X-27884274Y14601284D01*
X-27652668Y14483135D01*
X-27603497Y14457966D01*
X-27498705Y14403948D01*
X-27384661Y14344773D01*
X-27272135Y14286035D01*
X-27171898Y14233333D01*
X-27116856Y14204438D01*
X-27004237Y14146186D01*
X-26878409Y14082018D01*
X-26742947Y14013688D01*
X-26601421Y13942948D01*
X-26457404Y13871553D01*
X-26314468Y13801256D01*
X-26176185Y13733811D01*
X-26046127Y13670971D01*
X-25927865Y13614490D01*
X-25824973Y13566121D01*
X-25741022Y13527619D01*
X-25679583Y13500735D01*
X-25491712Y13422164D01*
X-25495179Y12910517D01*
X-25497726Y12534596D01*
G37*
G36*
X-22028306Y15587171D02*
G01*
X-21981893Y15581982D01*
X-21958499Y15577011D01*
X-21938153Y15559182D01*
X-21918282Y15519837D01*
X-21909978Y15474575D01*
X-21917100Y15436494D01*
X-21917961Y15434873D01*
X-21925015Y15422093D01*
X-21933542Y15413166D01*
X-21948181Y15407510D01*
X-21973572Y15404544D01*
X-22014355Y15403686D01*
X-22075169Y15404355D01*
X-22160655Y15405969D01*
X-22181352Y15406322D01*
X-22265010Y15406470D01*
X-22325302Y15403766D01*
X-22367072Y15397845D01*
X-22395162Y15388344D01*
X-22404727Y15384323D01*
X-22446894Y15372123D01*
X-22505086Y15359776D01*
X-22569706Y15349421D01*
X-22648283Y15339275D01*
X-22713158Y15330584D01*
X-22758177Y15322032D01*
X-22788070Y15310835D01*
X-22807566Y15294212D01*
X-22821397Y15269380D01*
X-22834292Y15233557D01*
X-22850982Y15183959D01*
X-22897751Y15050788D01*
X-22785027Y14945018D01*
X-22752929Y14915037D01*
X-22701842Y14867834D01*
X-22658162Y14828073D01*
X-22628832Y14802107D01*
X-22585361Y14764967D01*
X-22685462Y14649679D01*
X-22705742Y14626712D01*
X-22764661Y14562975D01*
X-22825707Y14500334D01*
X-22878496Y14449552D01*
X-22971428Y14364712D01*
X-22994434Y14409200D01*
X-22994587Y14409495D01*
X-23013874Y14437457D01*
X-23048886Y14480276D01*
X-23094696Y14532174D01*
X-23146378Y14587375D01*
X-23275316Y14721061D01*
X-23319691Y14698114D01*
X-23333375Y14691658D01*
X-23381761Y14673207D01*
X-23434250Y14657494D01*
X-23504434Y14639822D01*
X-23494351Y14445426D01*
X-23493862Y14435974D01*
X-23490185Y14360051D01*
X-23488718Y14308017D01*
X-23489947Y14275004D01*
X-23494356Y14256141D01*
X-23502429Y14246559D01*
X-23514650Y14241388D01*
X-23546555Y14237409D01*
X-23588673Y14241330D01*
X-23632314Y14250916D01*
X-23632314Y13642965D01*
X-23632314Y13035015D01*
X-23582526Y12985227D01*
X-23547904Y12941430D01*
X-23513117Y12863573D01*
X-23503641Y12799605D01*
X-23500486Y12778309D01*
X-23500584Y12773101D01*
X-23511608Y12715968D01*
X-23536969Y12654594D01*
X-23571065Y12600130D01*
X-23608294Y12563724D01*
X-23665310Y12540649D01*
X-23736613Y12532826D01*
X-23807835Y12541568D01*
X-23866828Y12566734D01*
X-23902783Y12597956D01*
X-23943751Y12660885D01*
X-23965207Y12734503D01*
X-23965804Y12756891D01*
X-23820561Y12756891D01*
X-23800610Y12718803D01*
X-23775385Y12703351D01*
X-23736135Y12694980D01*
X-23728757Y12695242D01*
X-23684020Y12711097D01*
X-23656160Y12747669D01*
X-23649604Y12799605D01*
X-23655245Y12824694D01*
X-23680720Y12857270D01*
X-23721484Y12867881D01*
X-23772774Y12854408D01*
X-23795409Y12838408D01*
X-23818100Y12800302D01*
X-23820561Y12756891D01*
X-23965804Y12756891D01*
X-23967278Y12812189D01*
X-23950091Y12887317D01*
X-23913773Y12953267D01*
X-23858452Y13003413D01*
X-23808194Y13034474D01*
X-23808194Y13302058D01*
X-23808194Y13302571D01*
X-23807696Y13403889D01*
X-23806321Y13524416D01*
X-23804231Y13654126D01*
X-23801587Y13782991D01*
X-23798551Y13900986D01*
X-23788908Y14232329D01*
X-23875498Y14236793D01*
X-23962089Y14241258D01*
X-23956630Y14434729D01*
X-23951172Y14628200D01*
X-23993272Y14637946D01*
X-24017969Y14645969D01*
X-24064486Y14665947D01*
X-24114608Y14691391D01*
X-24151253Y14710960D01*
X-24180576Y14723266D01*
X-24196953Y14722907D01*
X-24207136Y14711340D01*
X-24207767Y14710248D01*
X-24224620Y14686165D01*
X-24253977Y14648057D01*
X-24289892Y14603662D01*
X-24327683Y14556427D01*
X-24372459Y14497336D01*
X-24408597Y14446451D01*
X-24431141Y14413057D01*
X-24452788Y14381381D01*
X-24463249Y14366602D01*
X-24469375Y14368711D01*
X-24492447Y14387154D01*
X-24528479Y14420254D01*
X-24573344Y14463833D01*
X-24622911Y14513715D01*
X-24673053Y14565722D01*
X-24719639Y14615679D01*
X-24758542Y14659408D01*
X-24785633Y14692731D01*
X-24837803Y14763131D01*
X-24803413Y14802656D01*
X-24796682Y14810262D01*
X-24765442Y14844366D01*
X-24723312Y14889313D01*
X-24677445Y14937450D01*
X-24585867Y15032718D01*
X-24621395Y15142643D01*
X-24623721Y15149873D01*
X-24641924Y15208563D01*
X-24656951Y15260441D01*
X-24665745Y15295012D01*
X-24674569Y15337455D01*
X-24838640Y15327285D01*
X-24894138Y15323825D01*
X-24960183Y15319654D01*
X-25012993Y15316261D01*
X-25044555Y15314154D01*
X-25068878Y15314831D01*
X-25088395Y15328086D01*
X-25103182Y15362493D01*
X-25119965Y15413791D01*
X-25383785Y15422223D01*
X-25492277Y15426589D01*
X-25585562Y15432930D01*
X-25658098Y15441655D01*
X-25714327Y15453489D01*
X-25758693Y15469157D01*
X-25795638Y15489383D01*
X-25799329Y15491588D01*
X-25838330Y15504294D01*
X-25884534Y15507947D01*
X-25931473Y15506360D01*
X-25967931Y15508706D01*
X-25987885Y15517231D01*
X-25998277Y15533495D01*
X-26001343Y15556466D01*
X-25998018Y15560358D01*
X-24313293Y15560358D01*
X-24313199Y15516302D01*
X-24311128Y15450670D01*
X-24305558Y15400984D01*
X-24295273Y15358529D01*
X-24279059Y15314588D01*
X-24262817Y15280373D01*
X-24199988Y15193763D01*
X-24109957Y15115820D01*
X-23993524Y15047294D01*
X-23906518Y15011981D01*
X-23783072Y14986713D01*
X-23660925Y14990235D01*
X-23542044Y15022423D01*
X-23428393Y15083152D01*
X-23342371Y15154155D01*
X-23277919Y15237161D01*
X-23233648Y15335309D01*
X-23208131Y15451758D01*
X-23199942Y15589671D01*
X-23200426Y15652333D01*
X-23203026Y15709442D01*
X-23208994Y15751776D01*
X-23219561Y15787349D01*
X-23235957Y15824178D01*
X-23237140Y15826565D01*
X-23299732Y15921289D01*
X-23384089Y16003943D01*
X-23483845Y16070275D01*
X-23592639Y16116034D01*
X-23704107Y16136968D01*
X-23821564Y16133641D01*
X-23941685Y16107064D01*
X-24051497Y16058940D01*
X-24146914Y15991606D01*
X-24223848Y15907399D01*
X-24278215Y15808655D01*
X-24284681Y15791787D01*
X-24298858Y15746464D01*
X-24307509Y15698758D01*
X-24311898Y15639709D01*
X-24313293Y15560358D01*
X-25998018Y15560358D01*
X-25984974Y15575629D01*
X-25944513Y15586471D01*
X-25877679Y15590062D01*
X-25872102Y15590087D01*
X-25822886Y15590412D01*
X-25751631Y15590994D01*
X-25664581Y15591777D01*
X-25567977Y15592707D01*
X-25468061Y15593726D01*
X-25156607Y15597000D01*
X-25156607Y15632443D01*
X-25156528Y15646138D01*
X-25154140Y15674428D01*
X-25145011Y15693550D01*
X-25124627Y15705299D01*
X-25088473Y15711470D01*
X-25032036Y15713856D01*
X-24950800Y15714253D01*
X-24937953Y15714255D01*
X-24849462Y15714872D01*
X-24785162Y15718090D01*
X-24740496Y15726068D01*
X-24710907Y15740969D01*
X-24691836Y15764954D01*
X-24678726Y15800184D01*
X-24667020Y15848820D01*
X-24650708Y15909467D01*
X-24629266Y15971095D01*
X-24608033Y16017524D01*
X-24573010Y16078961D01*
X-24704241Y16212206D01*
X-24835472Y16345451D01*
X-24806204Y16385276D01*
X-24803110Y16389285D01*
X-24777952Y16418124D01*
X-24737770Y16461164D01*
X-24687421Y16513278D01*
X-24631762Y16569341D01*
X-24486588Y16713581D01*
X-24384983Y16613311D01*
X-24361680Y16590005D01*
X-24315510Y16542056D01*
X-24277506Y16500324D01*
X-24254170Y16471839D01*
X-24224963Y16430638D01*
X-24139672Y16475504D01*
X-24120170Y16485252D01*
X-24052960Y16511054D01*
X-23997242Y16520369D01*
X-23940104Y16520369D01*
X-23940104Y16747548D01*
X-23940104Y16974726D01*
X-23750766Y16974726D01*
X-23742003Y16974736D01*
X-23669311Y16975594D01*
X-23606605Y16977634D01*
X-23560327Y16980574D01*
X-23536919Y16984131D01*
X-23533555Y16985230D01*
X-23525392Y16984271D01*
X-23519874Y16973837D01*
X-23516658Y16949963D01*
X-23515401Y16908684D01*
X-23515763Y16846035D01*
X-23517400Y16758053D01*
X-23522389Y16522571D01*
X-23463762Y16513604D01*
X-23430720Y16506399D01*
X-23374366Y16489483D01*
X-23317195Y16468340D01*
X-23229255Y16432043D01*
X-23194058Y16472542D01*
X-23183820Y16484134D01*
X-23150924Y16520531D01*
X-23107788Y16567586D01*
X-23061030Y16618060D01*
X-22963201Y16723078D01*
X-22777976Y16542234D01*
X-22592750Y16361391D01*
X-22705810Y16251707D01*
X-22740752Y16218069D01*
X-22788920Y16172531D01*
X-22828526Y16136044D01*
X-22853396Y16114354D01*
X-22887923Y16086684D01*
X-22851234Y15977416D01*
X-22849933Y15973529D01*
X-22830204Y15911607D01*
X-22813048Y15852859D01*
X-22802050Y15809521D01*
X-22789556Y15750895D01*
X-22610712Y15743566D01*
X-22549432Y15740263D01*
X-22483232Y15734348D01*
X-22436811Y15727155D01*
X-22414938Y15719275D01*
X-22414245Y15718549D01*
X-22399689Y15692016D01*
X-22388026Y15653320D01*
X-22378045Y15604328D01*
X-22180742Y15596628D01*
X-22165055Y15595982D01*
X-22091455Y15592022D01*
X-22060850Y15589671D01*
X-22028306Y15587171D01*
G37*
G36*
X-32792710Y15810116D02*
G01*
X-32793802Y15739120D01*
X-32795145Y15677611D01*
X-32795362Y15664750D01*
X-32795561Y15629646D01*
X-32795621Y15619119D01*
X-32795655Y15550462D01*
X-32795473Y15462972D01*
X-32795087Y15360843D01*
X-32794508Y15248267D01*
X-32793746Y15129437D01*
X-32793261Y15068710D01*
X-32791655Y14934886D01*
X-32789448Y14828078D01*
X-32786572Y14746642D01*
X-32782958Y14688934D01*
X-32778537Y14653312D01*
X-32773242Y14638132D01*
X-32756448Y14624930D01*
X-32721031Y14600281D01*
X-32676796Y14571358D01*
X-32636296Y14547637D01*
X-32588020Y14528365D01*
X-32544886Y14524700D01*
X-32463440Y14528663D01*
X-32369529Y14530005D01*
X-32272623Y14528715D01*
X-32178104Y14525073D01*
X-32091355Y14519361D01*
X-32017758Y14511861D01*
X-31962695Y14502854D01*
X-31931547Y14492622D01*
X-31921950Y14491333D01*
X-31910732Y14507740D01*
X-31908668Y14513092D01*
X-31901289Y14519106D01*
X-31885867Y14523847D01*
X-31859362Y14527504D01*
X-31818738Y14530265D01*
X-31760955Y14532319D01*
X-31682974Y14533857D01*
X-31581758Y14535065D01*
X-31454267Y14536135D01*
X-31412286Y14536488D01*
X-31259711Y14538587D01*
X-31135778Y14541763D01*
X-31039964Y14546040D01*
X-30971744Y14551439D01*
X-30930594Y14557982D01*
X-30904292Y14563924D01*
X-30867489Y14568977D01*
X-30848938Y14566808D01*
X-30847811Y14562037D01*
X-30856756Y14538841D01*
X-30878387Y14505935D01*
X-30881453Y14502028D01*
X-30937251Y14455856D01*
X-31012485Y14430673D01*
X-31105683Y14426991D01*
X-31173168Y14431795D01*
X-31182174Y14080035D01*
X-31182347Y14073230D01*
X-31185248Y13944389D01*
X-31187959Y13798391D01*
X-31190301Y13646716D01*
X-31192097Y13500845D01*
X-31193166Y13372257D01*
X-31193312Y13345703D01*
X-31193738Y13240091D01*
X-31193551Y13159086D01*
X-31192463Y13098822D01*
X-31190186Y13055434D01*
X-31186431Y13025055D01*
X-31180911Y13003820D01*
X-31173336Y12987862D01*
X-31163419Y12973317D01*
X-31161464Y12970588D01*
X-31137156Y12917018D01*
X-31124842Y12850775D01*
X-31125684Y12784380D01*
X-31140846Y12730355D01*
X-31171219Y12683889D01*
X-31228011Y12634698D01*
X-31295999Y12611279D01*
X-31348385Y12612035D01*
X-31405906Y12635644D01*
X-31449996Y12682165D01*
X-31478241Y12748818D01*
X-31488231Y12832823D01*
X-31487142Y12879340D01*
X-31480310Y12913575D01*
X-31462746Y12941543D01*
X-31429468Y12975321D01*
X-31370649Y13031274D01*
X-31361168Y13688217D01*
X-31359823Y13789290D01*
X-31358425Y13920842D01*
X-31357538Y14041974D01*
X-31357161Y14149538D01*
X-31357298Y14240386D01*
X-31357950Y14311369D01*
X-31359117Y14359339D01*
X-31360803Y14381149D01*
X-31365250Y14395466D01*
X-31373648Y14406002D01*
X-31390824Y14412608D01*
X-31421912Y14416344D01*
X-31472045Y14418270D01*
X-31546357Y14419444D01*
X-31567569Y14419700D01*
X-31636009Y14419915D01*
X-31681033Y14418385D01*
X-31707349Y14414524D01*
X-31719665Y14407744D01*
X-31722690Y14397459D01*
X-31722799Y14382366D01*
X-31723226Y14340166D01*
X-31723941Y14274304D01*
X-31724910Y14187805D01*
X-31726099Y14083696D01*
X-31727473Y13965002D01*
X-31728998Y13834750D01*
X-31730641Y13695965D01*
X-31738695Y13018763D01*
X-31692126Y12977789D01*
X-31646398Y12924469D01*
X-31614732Y12853054D01*
X-31605153Y12776784D01*
X-31605822Y12772706D01*
X-31617431Y12701944D01*
X-31651337Y12634816D01*
X-31706639Y12581683D01*
X-31712078Y12578160D01*
X-31765613Y12555283D01*
X-31832718Y12548413D01*
X-31885206Y12553501D01*
X-31957277Y12581428D01*
X-32012333Y12631096D01*
X-32047492Y12699520D01*
X-32058385Y12773595D01*
X-31898483Y12773595D01*
X-31891844Y12738428D01*
X-31875489Y12718533D01*
X-31848405Y12711084D01*
X-31801952Y12713849D01*
X-31769020Y12735929D01*
X-31754704Y12772706D01*
X-31764096Y12819562D01*
X-31772449Y12832544D01*
X-31805525Y12853409D01*
X-31845944Y12856118D01*
X-31881085Y12838615D01*
X-31894819Y12811448D01*
X-31898483Y12773595D01*
X-32058385Y12773595D01*
X-32059873Y12783715D01*
X-32051398Y12839957D01*
X-32024424Y12905686D01*
X-31984624Y12963049D01*
X-31937859Y13001582D01*
X-31898673Y13022380D01*
X-31898679Y13719759D01*
X-31898685Y14417138D01*
X-32089218Y14417138D01*
X-32279750Y14417138D01*
X-32279787Y14358511D01*
X-32279929Y14344911D01*
X-32280691Y14301434D01*
X-32282048Y14234068D01*
X-32283925Y14146140D01*
X-32286251Y14040978D01*
X-32288952Y13921909D01*
X-32291956Y13792259D01*
X-32295189Y13655356D01*
X-32310555Y13010827D01*
X-32271356Y12982273D01*
X-32254455Y12968066D01*
X-32215826Y12912910D01*
X-32196249Y12845375D01*
X-32195768Y12810766D01*
X-32195235Y12772482D01*
X-32212293Y12701252D01*
X-32246931Y12638705D01*
X-32298658Y12591863D01*
X-32343828Y12571821D01*
X-32414072Y12564053D01*
X-32483915Y12579549D01*
X-32547415Y12615677D01*
X-32598627Y12669806D01*
X-32631607Y12739303D01*
X-32636950Y12767428D01*
X-32634554Y12800184D01*
X-32468198Y12800184D01*
X-32467621Y12759183D01*
X-32452695Y12727225D01*
X-32442549Y12719170D01*
X-32416391Y12709637D01*
X-32398411Y12716950D01*
X-32375778Y12743589D01*
X-32360753Y12778773D01*
X-32359892Y12810766D01*
X-32360448Y12812424D01*
X-32382864Y12840752D01*
X-32416554Y12851679D01*
X-32449001Y12840963D01*
X-32454928Y12834726D01*
X-32468198Y12800184D01*
X-32634554Y12800184D01*
X-32631839Y12837312D01*
X-32604892Y12905921D01*
X-32559278Y12963431D01*
X-32539141Y12981089D01*
X-32507325Y13006705D01*
X-32487991Y13019178D01*
X-32486977Y13020212D01*
X-32482712Y13040618D01*
X-32478697Y13087258D01*
X-32474912Y13160646D01*
X-32471338Y13261295D01*
X-32467957Y13389719D01*
X-32464750Y13546429D01*
X-32461697Y13731939D01*
X-32451159Y14439123D01*
X-32537668Y14439220D01*
X-32565809Y14439940D01*
X-32622468Y14448707D01*
X-32669857Y14470878D01*
X-32715360Y14510764D01*
X-32766359Y14572673D01*
X-32766538Y14572909D01*
X-32815371Y14642998D01*
X-32845867Y14702651D01*
X-32861566Y14760899D01*
X-32866013Y14826775D01*
X-32866383Y14856811D01*
X-32870006Y14890589D01*
X-32879905Y14907293D01*
X-32898990Y14914675D01*
X-32900175Y14914901D01*
X-32927248Y14917320D01*
X-32978022Y14919813D01*
X-33047385Y14922201D01*
X-33130228Y14924305D01*
X-33221438Y14925947D01*
X-33510908Y14930121D01*
X-33509316Y14798211D01*
X-33509071Y14782472D01*
X-33506760Y14708799D01*
X-33502949Y14637434D01*
X-33498323Y14581880D01*
X-33493079Y14541872D01*
X-33483932Y14509212D01*
X-33467297Y14489051D01*
X-33437996Y14471955D01*
X-33420857Y14461512D01*
X-33379516Y14426169D01*
X-33343171Y14383529D01*
X-33335045Y14371538D01*
X-33312279Y14329364D01*
X-33299773Y14283439D01*
X-33293645Y14221035D01*
X-33292933Y14180877D01*
X-33292893Y14178595D01*
X-33305505Y14094385D01*
X-33340396Y14023152D01*
X-33400386Y13957941D01*
X-33436747Y13929313D01*
X-33482693Y13906475D01*
X-33536164Y13897661D01*
X-33607459Y13899988D01*
X-33648876Y13905516D01*
X-33705661Y13924599D01*
X-33756239Y13960575D01*
X-33809301Y14018548D01*
X-33828739Y14047600D01*
X-33855355Y14120861D01*
X-33862074Y14193478D01*
X-33701442Y14193478D01*
X-33694616Y14145219D01*
X-33668465Y14105661D01*
X-33634302Y14080795D01*
X-33576741Y14065717D01*
X-33514570Y14079568D01*
X-33490699Y14091351D01*
X-33474590Y14107350D01*
X-33468123Y14134101D01*
X-33466936Y14180877D01*
X-33467068Y14194317D01*
X-33473496Y14251207D01*
X-33493168Y14285654D01*
X-33531036Y14302656D01*
X-33592049Y14307213D01*
X-33646891Y14302860D01*
X-33680607Y14285999D01*
X-33697086Y14251311D01*
X-33701442Y14193478D01*
X-33862074Y14193478D01*
X-33863032Y14203835D01*
X-33852373Y14288469D01*
X-33823981Y14366710D01*
X-33778459Y14430504D01*
X-33759233Y14448163D01*
X-33724460Y14473243D01*
X-33699000Y14483093D01*
X-33689723Y14484297D01*
X-33680364Y14492931D01*
X-33674929Y14514584D01*
X-33672315Y14554687D01*
X-33671417Y14618667D01*
X-33671244Y14636320D01*
X-33668940Y14721505D01*
X-33664644Y14814476D01*
X-33659114Y14898048D01*
X-33656447Y14930671D01*
X-33649681Y14993334D01*
X-33638857Y15038489D01*
X-33619776Y15069353D01*
X-33588237Y15089144D01*
X-33540041Y15101078D01*
X-33470986Y15108373D01*
X-33376873Y15114246D01*
X-33370853Y15114590D01*
X-33279189Y15119253D01*
X-33184105Y15123174D01*
X-33096491Y15125951D01*
X-33027236Y15127180D01*
X-32887998Y15127973D01*
X-32891369Y15245805D01*
X-32892145Y15305136D01*
X-32889609Y15342951D01*
X-32882712Y15363537D01*
X-32870456Y15372956D01*
X-32856064Y15381329D01*
X-32861905Y15388747D01*
X-32890785Y15394733D01*
X-32943957Y15399394D01*
X-33022673Y15402838D01*
X-33128184Y15405172D01*
X-33261742Y15406503D01*
X-33320304Y15406926D01*
X-33452706Y15408722D01*
X-33559236Y15411696D01*
X-33642371Y15416060D01*
X-33704584Y15422024D01*
X-33748349Y15429801D01*
X-33776141Y15439600D01*
X-33790434Y15451633D01*
X-33802959Y15491900D01*
X-33798043Y15541196D01*
X-33775648Y15581421D01*
X-33771581Y15585260D01*
X-33760494Y15592919D01*
X-33744483Y15598818D01*
X-33720062Y15603196D01*
X-33683749Y15606291D01*
X-33632059Y15608344D01*
X-33561507Y15609593D01*
X-33468611Y15610277D01*
X-33349886Y15610635D01*
X-33244122Y15611161D01*
X-33145531Y15612242D01*
X-33059364Y15613780D01*
X-32989844Y15615685D01*
X-32941192Y15617860D01*
X-32917631Y15620214D01*
X-32905640Y15623922D01*
X-32893622Y15632997D01*
X-32846470Y15632997D01*
X-32846383Y15627581D01*
X-32842028Y15612501D01*
X-32829997Y15625300D01*
X-32828072Y15629646D01*
X-32834017Y15646640D01*
X-32840002Y15647696D01*
X-32846470Y15632997D01*
X-32893622Y15632997D01*
X-32892817Y15633605D01*
X-32885225Y15653657D01*
X-32880942Y15690392D01*
X-32878044Y15750122D01*
X-32875169Y15824178D01*
X-32822043Y15824178D01*
X-32814714Y15816850D01*
X-32807386Y15824178D01*
X-32814714Y15831506D01*
X-32822043Y15824178D01*
X-32875169Y15824178D01*
X-32873341Y15871275D01*
X-33259581Y15879276D01*
X-33285369Y15879830D01*
X-33413529Y15883317D01*
X-33516223Y15887471D01*
X-33592490Y15892233D01*
X-33641370Y15897547D01*
X-33661900Y15903354D01*
X-33667091Y15912156D01*
X-33664989Y15939283D01*
X-33646346Y15984538D01*
X-33637380Y16001906D01*
X-33620962Y16026197D01*
X-33599840Y16044918D01*
X-33570497Y16058788D01*
X-33529420Y16068529D01*
X-33473093Y16074859D01*
X-33398001Y16078499D01*
X-33300631Y16080168D01*
X-33177467Y16080588D01*
X-32851356Y16080670D01*
X-32851356Y16174984D01*
X-32843827Y16269049D01*
X-32819536Y16342831D01*
X-32776344Y16399401D01*
X-32712118Y16442867D01*
X-32668148Y16465177D01*
X-32714883Y16415826D01*
X-32726257Y16403167D01*
X-32756878Y16362737D01*
X-32776095Y16328051D01*
X-32777340Y16324307D01*
X-32784201Y16288274D01*
X-32789900Y16235718D01*
X-32793692Y16177548D01*
X-32794827Y16124672D01*
X-32792558Y16087998D01*
X-32792400Y16086696D01*
X-32791643Y16062851D01*
X-32791335Y16016966D01*
X-32791436Y15955344D01*
X-32791908Y15884292D01*
X-32792558Y15824178D01*
X-32792710Y15810116D01*
G37*
%TD*%
%LPC*%
D12*
%TO.C,C1*%
X-5400000Y55000000D03*
D13*
X-7400000Y55000000D03*
%TD*%
D12*
%TO.C,C2*%
X-12000000Y55000000D03*
D13*
X-15800000Y55000000D03*
%TD*%
D14*
%TO.C,J1*%
X-20200000Y51400000D03*
D15*
X-22200000Y51400000D03*
X-24200000Y51400000D03*
X-26200000Y51400000D03*
X-28200000Y51400000D03*
X-30200000Y51400000D03*
X-32200000Y51400000D03*
X-34200000Y51400000D03*
%TD*%
%LPD*%
M02*
