%TF.GenerationSoftware,KiCad,Pcbnew,8.0.7*%
%TF.CreationDate,2025-01-18T18:24:10+01:00*%
%TF.ProjectId,tuff_tuff_pcb,74756666-5f74-4756-9666-5f7063622e6b,rev?*%
%TF.SameCoordinates,Original*%
%TF.FileFunction,Copper,L2,Bot*%
%TF.FilePolarity,Positive*%
%FSLAX46Y46*%
G04 Gerber Fmt 4.6, Leading zero omitted, Abs format (unit mm)*
G04 Created by KiCad (PCBNEW 8.0.7) date 2025-01-18 18:24:10*
%MOMM*%
%LPD*%
G01*
G04 APERTURE LIST*
%TA.AperFunction,ComponentPad*%
%ADD10R,1.700000X1.700000*%
%TD*%
%TA.AperFunction,ComponentPad*%
%ADD11O,1.700000X1.700000*%
%TD*%
%TA.AperFunction,SMDPad,CuDef*%
%ADD12C,0.787400*%
%TD*%
%TA.AperFunction,ViaPad*%
%ADD13C,0.600000*%
%TD*%
%TA.AperFunction,Conductor*%
%ADD14C,0.400000*%
%TD*%
%TA.AperFunction,Conductor*%
%ADD15C,0.200000*%
%TD*%
G04 APERTURE END LIST*
D10*
%TO.P,J5,1,Pin_1*%
%TO.N,GND*%
X-25000000Y12380000D03*
D11*
%TO.P,J5,2,Pin_2*%
%TO.N,Net-(J5-Pin_2)*%
X-25000000Y14920000D03*
%TO.P,J5,3,Pin_3*%
%TO.N,Net-(J5-Pin_3)*%
X-25000000Y17460000D03*
%TO.P,J5,4,Pin_4*%
%TO.N,Net-(J5-Pin_4)*%
X-25000000Y20000000D03*
%TD*%
D10*
%TO.P,J4,1,Pin_1*%
%TO.N,GND*%
X-20250000Y54525000D03*
D11*
%TO.P,J4,2,Pin_2*%
%TO.N,MCU_WAKEUP*%
X-17710000Y54525000D03*
%TD*%
D10*
%TO.P,J1,1,Pin_1*%
%TO.N,VIN_BAT*%
X-7220000Y74080000D03*
D11*
%TO.P,J1,2,Pin_2*%
%TO.N,GND*%
X-4680000Y74080000D03*
%TD*%
D12*
%TO.P,J3,1,1*%
%TO.N,unconnected-(J3-Pad1)*%
X-26590000Y45720000D03*
%TO.P,J3,2,2*%
%TO.N,unconnected-(J3-Pad2)*%
X-26590000Y44450000D03*
%TO.P,J3,3,3*%
%TO.N,3.3V*%
X-26590000Y43180000D03*
%TO.P,J3,4,4*%
%TO.N,SWDIO*%
X-26590000Y41910000D03*
%TO.P,J3,5,5*%
%TO.N,GND*%
X-26590000Y40640000D03*
%TO.P,J3,6,6*%
%TO.N,SWCLK*%
X-26590000Y39370000D03*
%TO.P,J3,7,7*%
%TO.N,GND*%
X-26590000Y38100000D03*
%TO.P,J3,8,8*%
%TO.N,unconnected-(J3-Pad8)*%
X-27860000Y38100000D03*
%TO.P,J3,9,9*%
%TO.N,unconnected-(J3-Pad9)*%
X-27860000Y39370000D03*
%TO.P,J3,10,10*%
%TO.N,unconnected-(J3-Pad10)*%
X-27860000Y40640000D03*
%TO.P,J3,11,11*%
%TO.N,GND*%
X-27860000Y41910000D03*
%TO.P,J3,12,12*%
%TO.N,NRST*%
X-27860000Y43180000D03*
%TO.P,J3,13,13*%
%TO.N,UART_RX*%
X-27860000Y44450000D03*
%TO.P,J3,14,14*%
%TO.N,UART_TX*%
X-27860000Y45720000D03*
%TD*%
D13*
%TO.N,GND*%
X-14000000Y67200000D03*
X-9500000Y44500000D03*
X-7000000Y44500000D03*
X-25000000Y41000000D03*
X-16000000Y72000000D03*
X-37000000Y62000000D03*
X-9500000Y42500000D03*
X-8000000Y27000000D03*
X-29500000Y41000000D03*
X-41000000Y34500000D03*
X-7000000Y42500000D03*
%TO.N,12V*%
X-17500000Y11000000D03*
X-17500000Y25500000D03*
X-17500000Y18000000D03*
%TO.N,SWDIO*%
X-21500000Y41000000D03*
X-16875735Y40275735D03*
%TO.N,UART_RX*%
X-34500000Y45500000D03*
X-34930735Y46930735D03*
X-16000000Y48500000D03*
X-9500000Y50500000D03*
%TO.N,SWCLK*%
X-19900000Y39000000D03*
%TO.N,UART_TX*%
X-34000000Y46500000D03*
X-16565687Y49065687D03*
X-7500000Y50500000D03*
%TO.N,NRST*%
X-34500000Y43200000D03*
X-42730000Y44270000D03*
%TO.N,Net-(U1-D+)*%
X-15500000Y39500000D03*
X-15500000Y42000000D03*
%TO.N,Net-(U1-D-)*%
X-16500000Y42000000D03*
X-16500000Y39500000D03*
%TO.N,ON_BOOSTER*%
X-11000000Y42500000D03*
X-27000000Y54000000D03*
%TO.N,3.3V*%
X-5500000Y50500000D03*
X-15000000Y46000000D03*
X-21500000Y42500000D03*
%TD*%
D14*
%TO.N,12V*%
X-17500000Y11000000D02*
X-17500000Y18000000D01*
X-17500000Y25500000D02*
X-17500000Y18000000D01*
D15*
%TO.N,SWDIO*%
X-16875735Y40275735D02*
X-17600000Y41000000D01*
X-21500000Y41000000D02*
X-22410000Y41910000D01*
X-22410000Y41910000D02*
X-26590000Y41910000D01*
X-17600000Y41000000D02*
X-21500000Y41000000D01*
%TO.N,UART_RX*%
X-34930735Y45930735D02*
X-34930735Y46930735D01*
X-10000000Y51000000D02*
X-13500000Y51000000D01*
X-33450000Y44450000D02*
X-27860000Y44450000D01*
X-14000000Y50500000D02*
X-16000000Y48500000D01*
X-34500000Y45500000D02*
X-34930735Y45930735D01*
X-9500000Y50500000D02*
X-10000000Y51000000D01*
X-13500000Y51000000D02*
X-14000000Y50500000D01*
X-34500000Y45500000D02*
X-33450000Y44450000D01*
%TO.N,SWCLK*%
X-19900000Y39000000D02*
X-21210550Y40310550D01*
X-21210550Y40310550D02*
X-25649450Y40310550D01*
X-25649450Y40310550D02*
X-26590000Y39370000D01*
%TO.N,UART_TX*%
X-28253699Y45326301D02*
X-27860000Y45720000D01*
X-32826301Y45326301D02*
X-28253699Y45326301D01*
X-7500000Y50500000D02*
X-8400000Y51400000D01*
X-34000000Y46500000D02*
X-32826301Y45326301D01*
X-8400000Y51400000D02*
X-14231374Y51400000D01*
X-14231374Y51400000D02*
X-16565687Y49065687D01*
%TO.N,NRST*%
X-27860000Y43180000D02*
X-34480000Y43180000D01*
X-41660000Y43200000D02*
X-34500000Y43200000D01*
X-42730000Y44270000D02*
X-41660000Y43200000D01*
X-34500000Y43200000D02*
X-34520000Y43180000D01*
X-34480000Y43180000D02*
X-34500000Y43200000D01*
%TO.N,Net-(U1-D+)*%
X-15500000Y42000000D02*
X-15500000Y39500000D01*
%TO.N,Net-(U1-D-)*%
X-16275735Y41775735D02*
X-16275735Y39724265D01*
X-16275735Y39724265D02*
X-16500000Y39500000D01*
X-16500000Y42000000D02*
X-16275735Y41775735D01*
%TO.N,ON_BOOSTER*%
X-27000000Y54000000D02*
X-16580000Y43580000D01*
X-11282843Y42500000D02*
X-11000000Y42500000D01*
X-12362843Y43580000D02*
X-11282843Y42500000D01*
X-16580000Y43580000D02*
X-12362843Y43580000D01*
D14*
%TO.N,3.3V*%
X-26590000Y43180000D02*
X-21000000Y43180000D01*
X-21500000Y42680000D02*
X-21000000Y43180000D01*
X-5500000Y50500000D02*
X-10000000Y46000000D01*
X-10000000Y46000000D02*
X-15000000Y46000000D01*
X-21500000Y42500000D02*
X-21500000Y42680000D01*
%TD*%
%TA.AperFunction,Conductor*%
%TO.N,GND*%
G36*
X-22517288Y41590593D02*
G01*
X-22505475Y41580504D01*
X-22030547Y41105576D01*
X-22002770Y41051059D01*
X-22002558Y41021485D01*
X-22005647Y40999998D01*
X-21985166Y40857544D01*
X-21936589Y40751177D01*
X-21929614Y40690390D01*
X-21959700Y40637113D01*
X-22015356Y40611695D01*
X-22026642Y40611050D01*
X-25609888Y40611050D01*
X-25689012Y40611050D01*
X-25765438Y40590572D01*
X-25765439Y40590572D01*
X-25765441Y40590571D01*
X-25794705Y40573676D01*
X-25854554Y40560957D01*
X-25910449Y40585844D01*
X-25941040Y40638833D01*
X-25942481Y40647481D01*
X-25960414Y40795178D01*
X-25960415Y40795179D01*
X-25993646Y40882802D01*
X-26330996Y40545451D01*
X-26385513Y40517673D01*
X-26445945Y40527244D01*
X-26489210Y40570509D01*
X-26500000Y40615454D01*
X-26500000Y41042548D01*
X-26481093Y41100739D01*
X-26471004Y41112552D01*
X-26345112Y41238445D01*
X-26352031Y41283899D01*
X-26342096Y41344272D01*
X-26298572Y41387275D01*
X-26292047Y41390260D01*
X-26290336Y41390968D01*
X-26166212Y41486212D01*
X-26101329Y41570769D01*
X-26050905Y41605423D01*
X-26022788Y41609500D01*
X-22575479Y41609500D01*
X-22517288Y41590593D01*
G37*
%TD.AperFunction*%
%TA.AperFunction,Conductor*%
G36*
X-28041309Y79480593D02*
G01*
X-28005345Y79431093D01*
X-28000500Y79400500D01*
X-28000500Y74831495D01*
X-27962768Y74496608D01*
X-27887776Y74168043D01*
X-27776470Y73849951D01*
X-27776469Y73849949D01*
X-27630254Y73546329D01*
X-27630248Y73546318D01*
X-27630246Y73546314D01*
X-27515174Y73363178D01*
X-27500000Y73310509D01*
X-27500000Y72500000D01*
X-26689492Y72500000D01*
X-26636822Y72484827D01*
X-26453686Y72369754D01*
X-26453675Y72369749D01*
X-26453672Y72369747D01*
X-26352795Y72321168D01*
X-26150051Y72223531D01*
X-26001560Y72171572D01*
X-25831958Y72112225D01*
X-25831955Y72112225D01*
X-25831954Y72112224D01*
X-25503394Y72037233D01*
X-25168504Y71999500D01*
X-25168503Y71999500D01*
X-24831497Y71999500D01*
X-24831496Y71999500D01*
X-24496606Y72037233D01*
X-24168046Y72112224D01*
X-23849949Y72223531D01*
X-23546314Y72369754D01*
X-23363179Y72484827D01*
X-23310508Y72500000D01*
X-22500001Y72500000D01*
X-22500000Y72500000D01*
X-22500000Y73310509D01*
X-22484827Y73363178D01*
X-22369754Y73546314D01*
X-22223531Y73849949D01*
X-22112224Y74168046D01*
X-22037233Y74496606D01*
X-21999500Y74831496D01*
X-21999500Y74949747D01*
X-8270500Y74949747D01*
X-8270500Y73210254D01*
X-8270499Y73210242D01*
X-8258868Y73151773D01*
X-8258866Y73151767D01*
X-8218332Y73091105D01*
X-8214552Y73085448D01*
X-8148231Y73041133D01*
X-8103769Y73032289D01*
X-8089759Y73029502D01*
X-8089754Y73029502D01*
X-8089748Y73029500D01*
X-8089747Y73029500D01*
X-6350253Y73029500D01*
X-6350252Y73029500D01*
X-6291769Y73041133D01*
X-6225448Y73085448D01*
X-6181133Y73151769D01*
X-6169500Y73210252D01*
X-6169500Y74330000D01*
X-5752527Y74330000D01*
X-5113012Y74330000D01*
X-5145925Y74272993D01*
X-5180000Y74145826D01*
X-5180000Y74014174D01*
X-5145925Y73887007D01*
X-5113012Y73830000D01*
X-5752527Y73830000D01*
X-5710113Y73680930D01*
X-5619250Y73498452D01*
X-5619245Y73498443D01*
X-5496392Y73335760D01*
X-5345734Y73198418D01*
X-5172419Y73091105D01*
X-5172414Y73091102D01*
X-4982317Y73017459D01*
X-4930001Y73007679D01*
X-4930000Y73007679D01*
X-4930000Y73646988D01*
X-4872993Y73614075D01*
X-4745826Y73580000D01*
X-4614174Y73580000D01*
X-4487007Y73614075D01*
X-4430000Y73646988D01*
X-4430000Y73007679D01*
X-4377684Y73017459D01*
X-4187587Y73091102D01*
X-4187582Y73091105D01*
X-4014267Y73198418D01*
X-3863609Y73335760D01*
X-3740756Y73498443D01*
X-3740751Y73498452D01*
X-3649888Y73680930D01*
X-3607473Y73830000D01*
X-4246988Y73830000D01*
X-4214075Y73887007D01*
X-4180000Y74014174D01*
X-4180000Y74145826D01*
X-4214075Y74272993D01*
X-4246988Y74330000D01*
X-3607473Y74330000D01*
X-3649888Y74479071D01*
X-3740751Y74661549D01*
X-3740756Y74661558D01*
X-3863609Y74824241D01*
X-4014267Y74961583D01*
X-4187582Y75068896D01*
X-4187587Y75068899D01*
X-4377681Y75142541D01*
X-4377685Y75142542D01*
X-4430000Y75152322D01*
X-4430000Y74513012D01*
X-4487007Y74545925D01*
X-4614174Y74580000D01*
X-4745826Y74580000D01*
X-4872993Y74545925D01*
X-4930000Y74513012D01*
X-4930000Y75152322D01*
X-4982316Y75142542D01*
X-4982320Y75142541D01*
X-5172414Y75068899D01*
X-5172419Y75068896D01*
X-5345734Y74961583D01*
X-5496392Y74824241D01*
X-5619245Y74661558D01*
X-5619250Y74661549D01*
X-5710113Y74479071D01*
X-5752527Y74330000D01*
X-6169500Y74330000D01*
X-6169500Y74949748D01*
X-6181133Y75008231D01*
X-6225448Y75074552D01*
X-6225452Y75074555D01*
X-6291767Y75118866D01*
X-6291769Y75118867D01*
X-6291772Y75118868D01*
X-6291773Y75118868D01*
X-6350242Y75130499D01*
X-6350252Y75130500D01*
X-8089748Y75130500D01*
X-8089749Y75130500D01*
X-8089759Y75130499D01*
X-8148228Y75118868D01*
X-8148234Y75118866D01*
X-8214549Y75074555D01*
X-8214555Y75074549D01*
X-8258866Y75008234D01*
X-8258868Y75008228D01*
X-8270499Y74949759D01*
X-8270500Y74949747D01*
X-21999500Y74949747D01*
X-21999500Y75000000D01*
X-21999500Y75065892D01*
X-21999500Y79400500D01*
X-21980593Y79458691D01*
X-21931093Y79494655D01*
X-21900500Y79499500D01*
X-599500Y79499500D01*
X-541309Y79480593D01*
X-505345Y79431093D01*
X-500500Y79400500D01*
X-500500Y599500D01*
X-519407Y541309D01*
X-568907Y505345D01*
X-599500Y500500D01*
X-21900500Y500500D01*
X-21958691Y519407D01*
X-21994655Y568907D01*
X-21999500Y599500D01*
X-21999500Y5168504D01*
X-22037233Y5503394D01*
X-22112224Y5831954D01*
X-22223531Y6150051D01*
X-22369754Y6453686D01*
X-22451795Y6584252D01*
X-22484826Y6636822D01*
X-22500000Y6689493D01*
X-22500000Y7499999D01*
X-22500000Y7500000D01*
X-22500001Y7500000D01*
X-23310508Y7500000D01*
X-23363179Y7515174D01*
X-23546314Y7630246D01*
X-23546322Y7630250D01*
X-23546329Y7630254D01*
X-23849949Y7776469D01*
X-23849951Y7776470D01*
X-24168043Y7887776D01*
X-24496608Y7962768D01*
X-24831495Y8000500D01*
X-24831496Y8000500D01*
X-25168504Y8000500D01*
X-25168506Y8000500D01*
X-25503393Y7962768D01*
X-25831958Y7887776D01*
X-26150050Y7776470D01*
X-26150052Y7776469D01*
X-26453672Y7630254D01*
X-26453684Y7630247D01*
X-26636821Y7515174D01*
X-26689492Y7500000D01*
X-27500000Y7500000D01*
X-27500000Y7499999D01*
X-27500000Y6689493D01*
X-27515174Y6636822D01*
X-27630247Y6453684D01*
X-27630254Y6453672D01*
X-27776469Y6150052D01*
X-27776470Y6150050D01*
X-27887776Y5831958D01*
X-27962768Y5503393D01*
X-28000500Y5168506D01*
X-28000500Y599500D01*
X-28019407Y541309D01*
X-28068907Y505345D01*
X-28099500Y500500D01*
X-39400500Y500500D01*
X-39458691Y519407D01*
X-39494655Y568907D01*
X-39499500Y599500D01*
X-39499500Y5065891D01*
X-39526995Y5168504D01*
X-39533608Y5193186D01*
X-39533610Y5193189D01*
X-39533610Y5193191D01*
X-39599497Y5307310D01*
X-39599499Y5307312D01*
X-39599500Y5307314D01*
X-39692686Y5400500D01*
X-39692689Y5400502D01*
X-39692691Y5400504D01*
X-39806811Y5466391D01*
X-39806809Y5466391D01*
X-39856201Y5479625D01*
X-39934108Y5500500D01*
X-39934110Y5500500D01*
X-49400500Y5500500D01*
X-49458691Y5519407D01*
X-49494655Y5568907D01*
X-49499500Y5599500D01*
X-49499500Y13254625D01*
X-26100000Y13254625D01*
X-26100000Y12630001D01*
X-26099999Y12630000D01*
X-25433012Y12630000D01*
X-25465925Y12572993D01*
X-25500000Y12445826D01*
X-25500000Y12314174D01*
X-25465925Y12187007D01*
X-25433012Y12130000D01*
X-26099999Y12130000D01*
X-26100000Y12129999D01*
X-26100000Y11505376D01*
X-26085494Y11432454D01*
X-26085493Y11432452D01*
X-26030242Y11349763D01*
X-26030238Y11349759D01*
X-25947549Y11294508D01*
X-25947547Y11294507D01*
X-25874625Y11280001D01*
X-25874623Y11280000D01*
X-25250001Y11280000D01*
X-25250000Y11280001D01*
X-25250000Y11946988D01*
X-25192993Y11914075D01*
X-25065826Y11880000D01*
X-24934174Y11880000D01*
X-24807007Y11914075D01*
X-24750000Y11946988D01*
X-24750000Y11280001D01*
X-24749999Y11280000D01*
X-24125377Y11280000D01*
X-24125376Y11280001D01*
X-24052454Y11294507D01*
X-24052452Y11294508D01*
X-23969763Y11349759D01*
X-23969759Y11349763D01*
X-23914508Y11432452D01*
X-23914507Y11432454D01*
X-23900001Y11505376D01*
X-23900000Y11505378D01*
X-23900000Y12129999D01*
X-23900001Y12130000D01*
X-24566988Y12130000D01*
X-24534075Y12187007D01*
X-24500000Y12314174D01*
X-24500000Y12445826D01*
X-24534075Y12572993D01*
X-24566988Y12630000D01*
X-23900001Y12630000D01*
X-23900000Y12630001D01*
X-23900000Y13254623D01*
X-23900001Y13254625D01*
X-23914507Y13327547D01*
X-23914508Y13327549D01*
X-23969759Y13410238D01*
X-23969763Y13410242D01*
X-24052452Y13465493D01*
X-24052454Y13465494D01*
X-24125376Y13480000D01*
X-24749999Y13480000D01*
X-24750000Y13479999D01*
X-24750000Y12813012D01*
X-24807007Y12845925D01*
X-24934174Y12880000D01*
X-25065826Y12880000D01*
X-25192993Y12845925D01*
X-25250000Y12813012D01*
X-25250000Y13479999D01*
X-25250001Y13480000D01*
X-25874625Y13480000D01*
X-25947547Y13465494D01*
X-25947549Y13465493D01*
X-26030238Y13410242D01*
X-26030242Y13410238D01*
X-26085493Y13327549D01*
X-26085494Y13327547D01*
X-26100000Y13254625D01*
X-49499500Y13254625D01*
X-49499500Y14920004D01*
X-26055583Y14920004D01*
X-26055583Y14919997D01*
X-26035302Y14714071D01*
X-26035301Y14714066D01*
X-25975232Y14516046D01*
X-25877684Y14333548D01*
X-25746415Y14173596D01*
X-25746410Y14173590D01*
X-25746405Y14173586D01*
X-25586453Y14042317D01*
X-25586452Y14042317D01*
X-25586450Y14042315D01*
X-25403954Y13944768D01*
X-25266003Y13902922D01*
X-25205935Y13884700D01*
X-25205930Y13884699D01*
X-25000003Y13864417D01*
X-25000000Y13864417D01*
X-24999997Y13864417D01*
X-24794071Y13884699D01*
X-24794066Y13884700D01*
X-24596046Y13944768D01*
X-24413550Y14042315D01*
X-24253590Y14173590D01*
X-24122315Y14333550D01*
X-24024768Y14516046D01*
X-23964700Y14714066D01*
X-23964699Y14714071D01*
X-23944417Y14919997D01*
X-23944417Y14920004D01*
X-23964699Y15125930D01*
X-23964700Y15125935D01*
X-23982922Y15186003D01*
X-24024768Y15323954D01*
X-24122315Y15506450D01*
X-24253590Y15666410D01*
X-24253596Y15666415D01*
X-24413548Y15797684D01*
X-24596046Y15895232D01*
X-24794066Y15955301D01*
X-24794071Y15955302D01*
X-24999997Y15975583D01*
X-25000003Y15975583D01*
X-25205930Y15955302D01*
X-25205935Y15955301D01*
X-25403955Y15895232D01*
X-25586453Y15797684D01*
X-25746405Y15666415D01*
X-25746415Y15666405D01*
X-25877684Y15506453D01*
X-25975232Y15323955D01*
X-26035301Y15125935D01*
X-26035302Y15125930D01*
X-26055583Y14920004D01*
X-49499500Y14920004D01*
X-49499500Y17460004D01*
X-26055583Y17460004D01*
X-26055583Y17459997D01*
X-26035302Y17254071D01*
X-26035301Y17254066D01*
X-25975232Y17056046D01*
X-25877684Y16873548D01*
X-25746415Y16713596D01*
X-25746410Y16713590D01*
X-25746405Y16713586D01*
X-25586453Y16582317D01*
X-25586452Y16582317D01*
X-25586450Y16582315D01*
X-25403954Y16484768D01*
X-25266003Y16442922D01*
X-25205935Y16424700D01*
X-25205930Y16424699D01*
X-25000003Y16404417D01*
X-25000000Y16404417D01*
X-24999997Y16404417D01*
X-24794071Y16424699D01*
X-24794066Y16424700D01*
X-24596046Y16484768D01*
X-24413550Y16582315D01*
X-24253590Y16713590D01*
X-24122315Y16873550D01*
X-24024768Y17056046D01*
X-23964700Y17254066D01*
X-23964699Y17254071D01*
X-23944417Y17459997D01*
X-23944417Y17460004D01*
X-23964699Y17665930D01*
X-23964700Y17665935D01*
X-23983111Y17726627D01*
X-24024768Y17863954D01*
X-24122315Y18046450D01*
X-24253590Y18206410D01*
X-24337166Y18274999D01*
X-24413548Y18337684D01*
X-24596046Y18435232D01*
X-24794066Y18495301D01*
X-24794071Y18495302D01*
X-24999997Y18515583D01*
X-25000003Y18515583D01*
X-25205930Y18495302D01*
X-25205935Y18495301D01*
X-25403955Y18435232D01*
X-25586453Y18337684D01*
X-25746405Y18206415D01*
X-25746415Y18206405D01*
X-25877684Y18046453D01*
X-25975232Y17863955D01*
X-26035301Y17665935D01*
X-26035302Y17665930D01*
X-26055583Y17460004D01*
X-49499500Y17460004D01*
X-49499500Y20000004D01*
X-26055583Y20000004D01*
X-26055583Y19999997D01*
X-26035302Y19794071D01*
X-26035301Y19794066D01*
X-25975232Y19596046D01*
X-25877684Y19413548D01*
X-25746415Y19253596D01*
X-25746410Y19253590D01*
X-25746405Y19253586D01*
X-25586453Y19122317D01*
X-25586452Y19122317D01*
X-25586450Y19122315D01*
X-25403954Y19024768D01*
X-25266003Y18982922D01*
X-25205935Y18964700D01*
X-25205930Y18964699D01*
X-25000003Y18944417D01*
X-25000000Y18944417D01*
X-24999997Y18944417D01*
X-24794071Y18964699D01*
X-24794066Y18964700D01*
X-24596046Y19024768D01*
X-24413550Y19122315D01*
X-24253590Y19253590D01*
X-24122315Y19413550D01*
X-24024768Y19596046D01*
X-23964700Y19794066D01*
X-23964699Y19794071D01*
X-23944417Y19999997D01*
X-23944417Y20000004D01*
X-23964699Y20205930D01*
X-23964700Y20205935D01*
X-23982922Y20266003D01*
X-24024768Y20403954D01*
X-24122315Y20586450D01*
X-24253590Y20746410D01*
X-24253596Y20746415D01*
X-24413548Y20877684D01*
X-24596046Y20975232D01*
X-24794066Y21035301D01*
X-24794071Y21035302D01*
X-24999997Y21055583D01*
X-25000003Y21055583D01*
X-25205930Y21035302D01*
X-25205935Y21035301D01*
X-25403955Y20975232D01*
X-25586453Y20877684D01*
X-25746405Y20746415D01*
X-25746415Y20746405D01*
X-25877684Y20586453D01*
X-25975232Y20403955D01*
X-26035301Y20205935D01*
X-26035302Y20205930D01*
X-26055583Y20000004D01*
X-49499500Y20000004D01*
X-49499500Y25500003D01*
X-18005647Y25500003D01*
X-18005647Y25499998D01*
X-17985166Y25357544D01*
X-17925377Y25226627D01*
X-17924684Y25225827D01*
X-17924340Y25225011D01*
X-17921547Y25220666D01*
X-17922299Y25220184D01*
X-17900864Y25169469D01*
X-17900500Y25160992D01*
X-17900500Y18339008D01*
X-17919407Y18280817D01*
X-17924679Y18274179D01*
X-17925377Y18273374D01*
X-17985166Y18142457D01*
X-18005647Y18000003D01*
X-18005647Y17999998D01*
X-17985166Y17857544D01*
X-17925377Y17726627D01*
X-17924684Y17725827D01*
X-17924340Y17725011D01*
X-17921547Y17720666D01*
X-17922299Y17720184D01*
X-17900864Y17669469D01*
X-17900500Y17660992D01*
X-17900500Y11339008D01*
X-17919407Y11280817D01*
X-17924679Y11274179D01*
X-17925377Y11273374D01*
X-17985166Y11142457D01*
X-18005647Y11000003D01*
X-18005647Y10999998D01*
X-17985166Y10857544D01*
X-17925378Y10726629D01*
X-17925377Y10726627D01*
X-17831128Y10617857D01*
X-17831127Y10617856D01*
X-17710058Y10540050D01*
X-17710053Y10540047D01*
X-17603597Y10508789D01*
X-17571965Y10499501D01*
X-17571964Y10499501D01*
X-17571961Y10499500D01*
X-17571959Y10499500D01*
X-17428041Y10499500D01*
X-17428039Y10499500D01*
X-17289947Y10540047D01*
X-17168872Y10617857D01*
X-17074623Y10726627D01*
X-17014835Y10857543D01*
X-16994353Y11000000D01*
X-17014835Y11142457D01*
X-17074623Y11273373D01*
X-17075321Y11274179D01*
X-17075668Y11274999D01*
X-17078451Y11279330D01*
X-17077702Y11279812D01*
X-17099137Y11330539D01*
X-17099500Y11339008D01*
X-17099500Y17660992D01*
X-17080593Y17719183D01*
X-17075316Y17725827D01*
X-17075193Y17725971D01*
X-17074623Y17726627D01*
X-17014835Y17857543D01*
X-16994353Y18000000D01*
X-17014835Y18142457D01*
X-17074623Y18273373D01*
X-17075321Y18274179D01*
X-17075668Y18274999D01*
X-17078451Y18279330D01*
X-17077702Y18279812D01*
X-17099137Y18330539D01*
X-17099500Y18339008D01*
X-17099500Y25160992D01*
X-17080593Y25219183D01*
X-17075316Y25225827D01*
X-17075193Y25225971D01*
X-17074623Y25226627D01*
X-17014835Y25357543D01*
X-16994353Y25500000D01*
X-17014835Y25642457D01*
X-17074623Y25773373D01*
X-17168872Y25882143D01*
X-17168873Y25882144D01*
X-17168874Y25882145D01*
X-17289943Y25959951D01*
X-17289946Y25959953D01*
X-17289947Y25959953D01*
X-17289950Y25959954D01*
X-17428036Y26000500D01*
X-17428039Y26000500D01*
X-17571961Y26000500D01*
X-17571965Y26000500D01*
X-17710051Y25959954D01*
X-17710058Y25959951D01*
X-17831127Y25882145D01*
X-17925378Y25773372D01*
X-17985166Y25642457D01*
X-18005647Y25500003D01*
X-49499500Y25500003D01*
X-49499500Y41910002D01*
X-28508428Y41910002D01*
X-28508428Y41909999D01*
X-28489586Y41754822D01*
X-28456356Y41667200D01*
X-28213555Y41910000D01*
X-28456357Y42152802D01*
X-28489586Y42065179D01*
X-28508428Y41910002D01*
X-49499500Y41910002D01*
X-49499500Y44270003D01*
X-43235647Y44270003D01*
X-43235647Y44269998D01*
X-43215166Y44127544D01*
X-43168889Y44026214D01*
X-43155377Y43996627D01*
X-43079878Y43909496D01*
X-43061127Y43887856D01*
X-42959846Y43822767D01*
X-42940053Y43810047D01*
X-42833597Y43778789D01*
X-42801965Y43769501D01*
X-42801964Y43769501D01*
X-42801961Y43769500D01*
X-42801959Y43769500D01*
X-42695479Y43769500D01*
X-42637288Y43750593D01*
X-42625475Y43740504D01*
X-41844511Y42959540D01*
X-41844509Y42959539D01*
X-41844508Y42959538D01*
X-41844507Y42959537D01*
X-41775992Y42919980D01*
X-41775994Y42919980D01*
X-41775990Y42919979D01*
X-41775988Y42919978D01*
X-41699562Y42899500D01*
X-41620438Y42899500D01*
X-34947083Y42899500D01*
X-34888892Y42880593D01*
X-34872267Y42865333D01*
X-34831128Y42817857D01*
X-34710053Y42740047D01*
X-34603597Y42708789D01*
X-34571965Y42699501D01*
X-34571964Y42699501D01*
X-34571961Y42699500D01*
X-34571959Y42699500D01*
X-34428041Y42699500D01*
X-34428039Y42699500D01*
X-34289947Y42740047D01*
X-34168872Y42817857D01*
X-34145066Y42845332D01*
X-34092670Y42876927D01*
X-34070247Y42879500D01*
X-28427212Y42879500D01*
X-28369021Y42860593D01*
X-28348673Y42840771D01*
X-28283788Y42756212D01*
X-28159664Y42660968D01*
X-28157963Y42660264D01*
X-28156962Y42659409D01*
X-28154046Y42657725D01*
X-28154358Y42657185D01*
X-28111437Y42620533D01*
X-28097147Y42561040D01*
X-28097971Y42553899D01*
X-28104891Y42508446D01*
X-28028996Y42432551D01*
X-28001219Y42378034D01*
X-28000000Y42362547D01*
X-28000000Y41457454D01*
X-28018907Y41399263D01*
X-28028997Y41387450D01*
X-28104891Y41311558D01*
X-28097971Y41266100D01*
X-28107907Y41205727D01*
X-28151432Y41162724D01*
X-28157953Y41159741D01*
X-28159661Y41159034D01*
X-28159662Y41159034D01*
X-28283783Y41063793D01*
X-28283793Y41063783D01*
X-28379034Y40939662D01*
X-28379034Y40939661D01*
X-28438905Y40795118D01*
X-28438906Y40795118D01*
X-28459327Y40640001D01*
X-28459327Y40640000D01*
X-28438906Y40484883D01*
X-28381490Y40346270D01*
X-28379032Y40340336D01*
X-28283788Y40216212D01*
X-28159664Y40120968D01*
X-28100506Y40096465D01*
X-28053981Y40056729D01*
X-28039697Y39997235D01*
X-28063111Y39940706D01*
X-28100505Y39913538D01*
X-28159659Y39889035D01*
X-28159662Y39889034D01*
X-28283783Y39793793D01*
X-28283793Y39793783D01*
X-28379032Y39669663D01*
X-28398725Y39622121D01*
X-28438463Y39575596D01*
X-28497957Y39561313D01*
X-28554485Y39584728D01*
X-28570279Y39601814D01*
X-28639132Y39696582D01*
X-28803418Y39860868D01*
X-28991381Y39997431D01*
X-28991382Y39997432D01*
X-28991384Y39997433D01*
X-29198394Y40102909D01*
X-29419363Y40174707D01*
X-29648829Y40211050D01*
X-29648832Y40211050D01*
X-29881168Y40211050D01*
X-29881171Y40211050D01*
X-30110638Y40174707D01*
X-30331607Y40102909D01*
X-30538617Y39997433D01*
X-30726581Y39860869D01*
X-30890869Y39696581D01*
X-31027433Y39508617D01*
X-31132909Y39301607D01*
X-31204707Y39080638D01*
X-31241050Y38851172D01*
X-31241050Y38618829D01*
X-31204707Y38389363D01*
X-31132909Y38168394D01*
X-31032335Y37971004D01*
X-31027431Y37961381D01*
X-30890868Y37773418D01*
X-30726582Y37609132D01*
X-30538619Y37472569D01*
X-30331606Y37367091D01*
X-30110642Y37295295D01*
X-30110641Y37295295D01*
X-30110638Y37295294D01*
X-29881171Y37258950D01*
X-29881168Y37258950D01*
X-29648829Y37258950D01*
X-29419363Y37295294D01*
X-29419362Y37295295D01*
X-29419358Y37295295D01*
X-29198394Y37367091D01*
X-28991381Y37472569D01*
X-28969235Y37488660D01*
X-28911045Y37507568D01*
X-28852854Y37488662D01*
X-28816889Y37439163D01*
X-28816888Y37377977D01*
X-28841037Y37338567D01*
X-28849886Y37329718D01*
X-28849895Y37329707D01*
X-28935684Y37201315D01*
X-28994775Y37058657D01*
X-28994775Y37058655D01*
X-29024900Y36907210D01*
X-29024900Y36907207D01*
X-29024900Y36752793D01*
X-28994775Y36601345D01*
X-28935683Y36458684D01*
X-28849895Y36330293D01*
X-28740707Y36221105D01*
X-28612316Y36135317D01*
X-28469655Y36076225D01*
X-28318207Y36046100D01*
X-28318206Y36046100D01*
X-28163794Y36046100D01*
X-28163793Y36046100D01*
X-28012345Y36076225D01*
X-27869684Y36135317D01*
X-27741293Y36221105D01*
X-27632105Y36330293D01*
X-27546317Y36458684D01*
X-27487225Y36601345D01*
X-27457100Y36752793D01*
X-27457100Y36907207D01*
X-27487225Y37058655D01*
X-27546317Y37201316D01*
X-27632105Y37329707D01*
X-27683986Y37381588D01*
X-27711763Y37436105D01*
X-27702192Y37496537D01*
X-27658927Y37539802D01*
X-27651904Y37543040D01*
X-27560336Y37580968D01*
X-27436212Y37676212D01*
X-27340968Y37800336D01*
X-27338288Y37806808D01*
X-27298553Y37853334D01*
X-27239058Y37867619D01*
X-27226044Y37865719D01*
X-27186356Y37857200D01*
X-27072550Y37971004D01*
X-27018034Y37998781D01*
X-27002547Y38000000D01*
X-26575453Y38000000D01*
X-26517262Y37981093D01*
X-26481298Y37931593D01*
X-26481298Y37870407D01*
X-26505450Y37830996D01*
X-26834890Y37501558D01*
X-26830182Y37499087D01*
X-26787442Y37455305D01*
X-26778598Y37394762D01*
X-26806180Y37341424D01*
X-26817886Y37329718D01*
X-26817895Y37329707D01*
X-26903684Y37201315D01*
X-26962775Y37058657D01*
X-26962775Y37058655D01*
X-26992900Y36907210D01*
X-26992900Y36907207D01*
X-26992900Y36752793D01*
X-26962775Y36601345D01*
X-26903683Y36458684D01*
X-26817895Y36330293D01*
X-26708707Y36221105D01*
X-26580316Y36135317D01*
X-26437655Y36076225D01*
X-26286207Y36046100D01*
X-26286206Y36046100D01*
X-26131794Y36046100D01*
X-26131793Y36046100D01*
X-25980345Y36076225D01*
X-25837684Y36135317D01*
X-25709293Y36221105D01*
X-25600105Y36330293D01*
X-25514317Y36458684D01*
X-25455225Y36601345D01*
X-25425100Y36752793D01*
X-25425100Y36907207D01*
X-25455225Y37058655D01*
X-25514317Y37201316D01*
X-25600105Y37329707D01*
X-25608962Y37338564D01*
X-25636739Y37393081D01*
X-25627168Y37453513D01*
X-25583903Y37496778D01*
X-25523471Y37506349D01*
X-25480769Y37488662D01*
X-25458619Y37472569D01*
X-25251606Y37367091D01*
X-25030642Y37295295D01*
X-25030641Y37295295D01*
X-25030638Y37295294D01*
X-24801171Y37258950D01*
X-24801168Y37258950D01*
X-24568829Y37258950D01*
X-24339363Y37295294D01*
X-24339362Y37295295D01*
X-24339358Y37295295D01*
X-24118394Y37367091D01*
X-23911381Y37472569D01*
X-23723418Y37609132D01*
X-23559132Y37773418D01*
X-23422569Y37961381D01*
X-23317091Y38168394D01*
X-23245295Y38389358D01*
X-23221428Y38540047D01*
X-23208950Y38618829D01*
X-23208950Y38851172D01*
X-23245294Y39080638D01*
X-23265380Y39142457D01*
X-23317091Y39301606D01*
X-23422569Y39508619D01*
X-23559132Y39696582D01*
X-23703599Y39841049D01*
X-23731374Y39895563D01*
X-23721803Y39955995D01*
X-23678538Y39999260D01*
X-23633593Y40010050D01*
X-21376029Y40010050D01*
X-21317838Y39991143D01*
X-21306025Y39981054D01*
X-20430547Y39105576D01*
X-20402770Y39051059D01*
X-20402559Y39021486D01*
X-20405646Y39000003D01*
X-20405647Y38999998D01*
X-20385166Y38857544D01*
X-20354819Y38791095D01*
X-20325377Y38726627D01*
X-20285751Y38680896D01*
X-20231127Y38617856D01*
X-20110058Y38540050D01*
X-20110053Y38540047D01*
X-20003597Y38508789D01*
X-19971965Y38499501D01*
X-19971964Y38499501D01*
X-19971961Y38499500D01*
X-19971959Y38499500D01*
X-19828041Y38499500D01*
X-19828039Y38499500D01*
X-19689947Y38540047D01*
X-19568872Y38617857D01*
X-19474623Y38726627D01*
X-19414835Y38857543D01*
X-19394425Y38999500D01*
X-19394353Y38999998D01*
X-19394353Y39000003D01*
X-19414835Y39142457D01*
X-19474623Y39273373D01*
X-19568872Y39382143D01*
X-19568873Y39382144D01*
X-19568874Y39382145D01*
X-19689943Y39459951D01*
X-19689946Y39459953D01*
X-19689947Y39459953D01*
X-19689950Y39459954D01*
X-19828036Y39500500D01*
X-19828039Y39500500D01*
X-19934521Y39500500D01*
X-19992712Y39519407D01*
X-20004525Y39529496D01*
X-20485079Y40010050D01*
X-21005528Y40530499D01*
X-21033303Y40585013D01*
X-21023732Y40645445D01*
X-20980467Y40688710D01*
X-20935522Y40699500D01*
X-17765479Y40699500D01*
X-17707288Y40680593D01*
X-17695475Y40670504D01*
X-17406282Y40381311D01*
X-17378505Y40326794D01*
X-17378293Y40297220D01*
X-17381382Y40275733D01*
X-17360901Y40133279D01*
X-17355278Y40120967D01*
X-17301112Y40002362D01*
X-17208571Y39895563D01*
X-17206862Y39893591D01*
X-17125100Y39841046D01*
X-17085788Y39815782D01*
X-17037330Y39801554D01*
X-17036892Y39801425D01*
X-16986385Y39766889D01*
X-16965823Y39709262D01*
X-16974729Y39665309D01*
X-16985167Y39642455D01*
X-17005647Y39500003D01*
X-17005647Y39499998D01*
X-16985166Y39357544D01*
X-16937313Y39252762D01*
X-16925377Y39226627D01*
X-16852444Y39142457D01*
X-16831127Y39117856D01*
X-16727188Y39051059D01*
X-16710053Y39040047D01*
X-16603597Y39008789D01*
X-16571965Y38999501D01*
X-16571964Y38999501D01*
X-16571961Y38999500D01*
X-16571959Y38999500D01*
X-16428041Y38999500D01*
X-16428039Y38999500D01*
X-16289947Y39040047D01*
X-16168872Y39117857D01*
X-16074818Y39226403D01*
X-16022424Y39257997D01*
X-15961463Y39252762D01*
X-15925184Y39226404D01*
X-15831128Y39117857D01*
X-15831127Y39117856D01*
X-15727188Y39051059D01*
X-15710053Y39040047D01*
X-15603597Y39008789D01*
X-15571965Y38999501D01*
X-15571964Y38999501D01*
X-15571961Y38999500D01*
X-15571959Y38999500D01*
X-15428041Y38999500D01*
X-15428039Y38999500D01*
X-15289947Y39040047D01*
X-15168872Y39117857D01*
X-15074623Y39226627D01*
X-15014835Y39357543D01*
X-14994353Y39500000D01*
X-14994425Y39500500D01*
X-15014835Y39642457D01*
X-15039553Y39696581D01*
X-15074623Y39773373D01*
X-15168872Y39882143D01*
X-15168873Y39882144D01*
X-15173509Y39887494D01*
X-15171476Y39889257D01*
X-15196933Y39931495D01*
X-15199500Y39953895D01*
X-15199500Y41546107D01*
X-15180593Y41604298D01*
X-15173259Y41612289D01*
X-15173509Y41612506D01*
X-15168872Y41617857D01*
X-15074623Y41726627D01*
X-15014835Y41857543D01*
X-14994425Y41999500D01*
X-14994353Y41999998D01*
X-14994353Y42000003D01*
X-15014835Y42142457D01*
X-15036557Y42190021D01*
X-15074623Y42273373D01*
X-15168872Y42382143D01*
X-15168873Y42382144D01*
X-15168874Y42382145D01*
X-15289943Y42459951D01*
X-15289946Y42459953D01*
X-15289947Y42459953D01*
X-15289950Y42459954D01*
X-15428036Y42500500D01*
X-15428039Y42500500D01*
X-15571961Y42500500D01*
X-15571965Y42500500D01*
X-15710051Y42459954D01*
X-15710058Y42459951D01*
X-15831128Y42382144D01*
X-15831130Y42382142D01*
X-15925181Y42273600D01*
X-15977576Y42242004D01*
X-16038537Y42247240D01*
X-16074819Y42273600D01*
X-16168871Y42382142D01*
X-16168873Y42382144D01*
X-16289943Y42459951D01*
X-16289946Y42459953D01*
X-16289947Y42459953D01*
X-16289950Y42459954D01*
X-16428036Y42500500D01*
X-16428039Y42500500D01*
X-16571961Y42500500D01*
X-16571965Y42500500D01*
X-16710051Y42459954D01*
X-16710058Y42459951D01*
X-16831127Y42382145D01*
X-16925378Y42273372D01*
X-16985166Y42142457D01*
X-17005647Y42000003D01*
X-17005647Y41999998D01*
X-16985166Y41857544D01*
X-16925378Y41726629D01*
X-16925377Y41726627D01*
X-16831128Y41617857D01*
X-16831127Y41617856D01*
X-16757856Y41570768D01*
X-16710053Y41540047D01*
X-16647344Y41521635D01*
X-16596837Y41487100D01*
X-16576275Y41429473D01*
X-16576235Y41426645D01*
X-16576235Y40841673D01*
X-16595142Y40783482D01*
X-16644642Y40747518D01*
X-16703126Y40746683D01*
X-16803771Y40776235D01*
X-16803774Y40776235D01*
X-16910256Y40776235D01*
X-16968447Y40795142D01*
X-16980259Y40805231D01*
X-17415490Y41240461D01*
X-17484008Y41280020D01*
X-17484012Y41280022D01*
X-17560436Y41300500D01*
X-17560438Y41300500D01*
X-21052917Y41300500D01*
X-21111108Y41319407D01*
X-21127736Y41334669D01*
X-21136057Y41344272D01*
X-21168872Y41382143D01*
X-21201818Y41403316D01*
X-21289943Y41459951D01*
X-21289946Y41459953D01*
X-21289947Y41459953D01*
X-21289950Y41459954D01*
X-21428036Y41500500D01*
X-21428039Y41500500D01*
X-21534521Y41500500D01*
X-21592712Y41519407D01*
X-21604525Y41529496D01*
X-21890326Y41815297D01*
X-22225489Y42150460D01*
X-22232234Y42154354D01*
X-22275823Y42179521D01*
X-22275825Y42179521D01*
X-22294011Y42190021D01*
X-22294014Y42190022D01*
X-22370436Y42210500D01*
X-22370438Y42210500D01*
X-26022789Y42210500D01*
X-26080980Y42229407D01*
X-26101331Y42249233D01*
X-26109241Y42259541D01*
X-26166212Y42333788D01*
X-26290336Y42429032D01*
X-26290340Y42429034D01*
X-26349494Y42453536D01*
X-26396020Y42493272D01*
X-26410304Y42552767D01*
X-26386889Y42609295D01*
X-26349494Y42636464D01*
X-26335026Y42642457D01*
X-26290336Y42660968D01*
X-26166212Y42756212D01*
X-26166211Y42756215D01*
X-26162525Y42759042D01*
X-26104849Y42779466D01*
X-26102257Y42779500D01*
X-22076627Y42779500D01*
X-22018436Y42760593D01*
X-21982472Y42711093D01*
X-21982472Y42649907D01*
X-21984530Y42644624D01*
X-21985166Y42642457D01*
X-22005647Y42500003D01*
X-22005647Y42499998D01*
X-21985166Y42357544D01*
X-21940408Y42259540D01*
X-21925377Y42226627D01*
X-21859379Y42150461D01*
X-21831127Y42117856D01*
X-21710058Y42040050D01*
X-21710053Y42040047D01*
X-21603597Y42008789D01*
X-21571965Y41999501D01*
X-21571964Y41999501D01*
X-21571961Y41999500D01*
X-21571959Y41999500D01*
X-21428041Y41999500D01*
X-21428039Y41999500D01*
X-21289947Y42040047D01*
X-21168872Y42117857D01*
X-21074623Y42226627D01*
X-21014835Y42357543D01*
X-21008008Y42405029D01*
X-20994353Y42499998D01*
X-20994353Y42500001D01*
X-20995567Y42508446D01*
X-21002292Y42555214D01*
X-20991860Y42615501D01*
X-20974307Y42639302D01*
X-20754090Y42859519D01*
X-20754087Y42859520D01*
X-20679520Y42934087D01*
X-20653157Y42979750D01*
X-20626793Y43025412D01*
X-20599500Y43127273D01*
X-20599500Y43232727D01*
X-20626793Y43334588D01*
X-20626795Y43334591D01*
X-20626795Y43334593D01*
X-20679517Y43425909D01*
X-20679519Y43425911D01*
X-20679520Y43425913D01*
X-20754087Y43500480D01*
X-20754090Y43500482D01*
X-20754092Y43500484D01*
X-20845409Y43553206D01*
X-20845407Y43553206D01*
X-20884930Y43563796D01*
X-20947273Y43580500D01*
X-20947275Y43580500D01*
X-26102256Y43580500D01*
X-26160447Y43599407D01*
X-26162523Y43600958D01*
X-26290332Y43699029D01*
X-26290333Y43699030D01*
X-26290336Y43699032D01*
X-26290339Y43699033D01*
X-26290340Y43699034D01*
X-26349494Y43723536D01*
X-26396020Y43763272D01*
X-26410304Y43822767D01*
X-26386889Y43879295D01*
X-26349494Y43906464D01*
X-26342174Y43909496D01*
X-26290336Y43930968D01*
X-26166212Y44026212D01*
X-26070968Y44150336D01*
X-26011095Y44294883D01*
X-25990673Y44450000D01*
X-26011095Y44605117D01*
X-26030574Y44652143D01*
X-26070967Y44749661D01*
X-26070967Y44749662D01*
X-26166208Y44873783D01*
X-26166209Y44873784D01*
X-26166212Y44873788D01*
X-26290336Y44969032D01*
X-26290340Y44969034D01*
X-26349494Y44993536D01*
X-26396020Y45033272D01*
X-26410304Y45092767D01*
X-26386889Y45149295D01*
X-26349494Y45176464D01*
X-26342489Y45179366D01*
X-26290336Y45200968D01*
X-26166212Y45296212D01*
X-26070968Y45420336D01*
X-26011095Y45564883D01*
X-25990673Y45720000D01*
X-25991669Y45727569D01*
X-26011095Y45875118D01*
X-26070967Y46019661D01*
X-26070967Y46019662D01*
X-26166208Y46143783D01*
X-26166209Y46143784D01*
X-26166212Y46143788D01*
X-26290336Y46239032D01*
X-26290340Y46239034D01*
X-26434883Y46298905D01*
X-26565110Y46316051D01*
X-26620335Y46342393D01*
X-26649529Y46396164D01*
X-26641543Y46456825D01*
X-26622187Y46484211D01*
X-26616105Y46490293D01*
X-26530317Y46618684D01*
X-26471225Y46761345D01*
X-26441100Y46912793D01*
X-26441100Y47067207D01*
X-26448851Y47106172D01*
X-26161050Y47106172D01*
X-26161050Y46873829D01*
X-26124707Y46644363D01*
X-26052909Y46423394D01*
X-25958973Y46239032D01*
X-25947431Y46216381D01*
X-25810868Y46028418D01*
X-25646582Y45864132D01*
X-25458619Y45727569D01*
X-25251606Y45622091D01*
X-25030642Y45550295D01*
X-25030641Y45550295D01*
X-25030638Y45550294D01*
X-24801171Y45513950D01*
X-24801168Y45513950D01*
X-24568829Y45513950D01*
X-24339363Y45550294D01*
X-24339362Y45550295D01*
X-24339358Y45550295D01*
X-24118394Y45622091D01*
X-23911381Y45727569D01*
X-23723418Y45864132D01*
X-23559132Y46028418D01*
X-23422569Y46216381D01*
X-23317091Y46423394D01*
X-23245295Y46644358D01*
X-23208950Y46873832D01*
X-23208950Y47106168D01*
X-23208950Y47106172D01*
X-23245294Y47335638D01*
X-23263181Y47390689D01*
X-23317091Y47556606D01*
X-23422569Y47763619D01*
X-23559132Y47951582D01*
X-23723418Y48115868D01*
X-23911381Y48252431D01*
X-23911382Y48252432D01*
X-23911384Y48252433D01*
X-24118394Y48357909D01*
X-24339363Y48429707D01*
X-24568829Y48466050D01*
X-24568832Y48466050D01*
X-24801168Y48466050D01*
X-24801171Y48466050D01*
X-25030638Y48429707D01*
X-25251607Y48357909D01*
X-25458617Y48252433D01*
X-25646581Y48115869D01*
X-25810869Y47951581D01*
X-25947433Y47763617D01*
X-26052909Y47556607D01*
X-26124707Y47335638D01*
X-26161050Y47106172D01*
X-26448851Y47106172D01*
X-26471225Y47218655D01*
X-26530317Y47361316D01*
X-26616105Y47489707D01*
X-26725293Y47598895D01*
X-26853684Y47684683D01*
X-26996345Y47743775D01*
X-27147791Y47773900D01*
X-27147793Y47773900D01*
X-27302207Y47773900D01*
X-27302210Y47773900D01*
X-27453655Y47743775D01*
X-27453657Y47743775D01*
X-27596315Y47684684D01*
X-27724707Y47598895D01*
X-27724711Y47598892D01*
X-27833892Y47489711D01*
X-27833895Y47489707D01*
X-27919684Y47361315D01*
X-27978775Y47218657D01*
X-27978775Y47218655D01*
X-28008900Y47067210D01*
X-28008900Y46912791D01*
X-28001150Y46873832D01*
X-27981168Y46773373D01*
X-27978775Y46761346D01*
X-27978775Y46761344D01*
X-27929530Y46642457D01*
X-27919683Y46618684D01*
X-27833895Y46490293D01*
X-27833892Y46490290D01*
X-27827810Y46484208D01*
X-27800033Y46429691D01*
X-27809604Y46369259D01*
X-27852869Y46325994D01*
X-27884891Y46316051D01*
X-28015118Y46298905D01*
X-28159661Y46239034D01*
X-28159662Y46239034D01*
X-28283783Y46143793D01*
X-28283793Y46143783D01*
X-28379034Y46019662D01*
X-28379034Y46019661D01*
X-28438905Y45875118D01*
X-28438906Y45875118D01*
X-28460174Y45713567D01*
X-28463174Y45713962D01*
X-28478234Y45667610D01*
X-28527734Y45631646D01*
X-28558327Y45626801D01*
X-28825385Y45626801D01*
X-28883576Y45645708D01*
X-28919540Y45695208D01*
X-28919540Y45756394D01*
X-28883576Y45805894D01*
X-28803418Y45864132D01*
X-28639132Y46028418D01*
X-28502569Y46216381D01*
X-28397091Y46423394D01*
X-28325295Y46644358D01*
X-28288950Y46873832D01*
X-28288950Y47106168D01*
X-28288950Y47106172D01*
X-28325294Y47335638D01*
X-28343181Y47390689D01*
X-28397091Y47556606D01*
X-28502569Y47763619D01*
X-28639132Y47951582D01*
X-28803418Y48115868D01*
X-28991381Y48252431D01*
X-28991382Y48252432D01*
X-28991384Y48252433D01*
X-29198394Y48357909D01*
X-29419363Y48429707D01*
X-29648829Y48466050D01*
X-29648832Y48466050D01*
X-29881168Y48466050D01*
X-29881171Y48466050D01*
X-30110638Y48429707D01*
X-30331607Y48357909D01*
X-30538617Y48252433D01*
X-30726581Y48115869D01*
X-30890869Y47951581D01*
X-31027433Y47763617D01*
X-31132909Y47556607D01*
X-31204707Y47335638D01*
X-31241050Y47106172D01*
X-31241050Y46873829D01*
X-31204707Y46644363D01*
X-31132909Y46423394D01*
X-31038973Y46239032D01*
X-31027431Y46216381D01*
X-30890868Y46028418D01*
X-30726582Y45864132D01*
X-30646424Y45805894D01*
X-30610460Y45756393D01*
X-30610460Y45695208D01*
X-30646424Y45645708D01*
X-30704615Y45626801D01*
X-32660822Y45626801D01*
X-32719013Y45645708D01*
X-32730826Y45655797D01*
X-33469454Y46394425D01*
X-33497231Y46448942D01*
X-33497442Y46478518D01*
X-33494353Y46500000D01*
X-33494425Y46500500D01*
X-33514835Y46642457D01*
X-33521642Y46657362D01*
X-33574623Y46773373D01*
X-33668872Y46882143D01*
X-33668873Y46882144D01*
X-33668874Y46882145D01*
X-33789943Y46959951D01*
X-33789946Y46959953D01*
X-33789947Y46959953D01*
X-33789950Y46959954D01*
X-33928036Y47000500D01*
X-33928039Y47000500D01*
X-34071961Y47000500D01*
X-34071965Y47000500D01*
X-34210051Y46959954D01*
X-34210053Y46959953D01*
X-34281153Y46914260D01*
X-34340329Y46898707D01*
X-34397345Y46920905D01*
X-34430424Y46972378D01*
X-34432668Y46983457D01*
X-34445569Y47073191D01*
X-34505358Y47204107D01*
X-34505358Y47204108D01*
X-34599607Y47312878D01*
X-34599608Y47312879D01*
X-34599609Y47312880D01*
X-34720678Y47390686D01*
X-34720681Y47390688D01*
X-34720682Y47390688D01*
X-34720685Y47390689D01*
X-34858771Y47431235D01*
X-34858774Y47431235D01*
X-35002696Y47431235D01*
X-35002700Y47431235D01*
X-35140786Y47390689D01*
X-35140793Y47390686D01*
X-35261862Y47312880D01*
X-35356113Y47204107D01*
X-35415901Y47073192D01*
X-35436382Y46930738D01*
X-35436382Y46930733D01*
X-35415901Y46788279D01*
X-35403600Y46761345D01*
X-35356112Y46657362D01*
X-35322598Y46618684D01*
X-35257226Y46543241D01*
X-35259264Y46541476D01*
X-35233810Y46499277D01*
X-35231235Y46476842D01*
X-35231235Y45891171D01*
X-35210757Y45814747D01*
X-35210756Y45814745D01*
X-35186871Y45773377D01*
X-35186870Y45773372D01*
X-35186868Y45773372D01*
X-35171196Y45746225D01*
X-35030547Y45605575D01*
X-35002770Y45551059D01*
X-35002559Y45521486D01*
X-35005646Y45500002D01*
X-35005647Y45499998D01*
X-34985166Y45357544D01*
X-34957157Y45296214D01*
X-34925377Y45226627D01*
X-34851145Y45140958D01*
X-34831127Y45117856D01*
X-34781310Y45085841D01*
X-34710053Y45040047D01*
X-34603597Y45008789D01*
X-34571965Y44999501D01*
X-34571964Y44999501D01*
X-34571961Y44999500D01*
X-34571959Y44999500D01*
X-34465479Y44999500D01*
X-34407288Y44980593D01*
X-34395475Y44970504D01*
X-33690460Y44265489D01*
X-33690461Y44265489D01*
X-33634511Y44209540D01*
X-33565993Y44169981D01*
X-33565989Y44169979D01*
X-33489565Y44149501D01*
X-33489563Y44149500D01*
X-33489562Y44149500D01*
X-33410438Y44149500D01*
X-28427212Y44149500D01*
X-28369021Y44130593D01*
X-28348673Y44110771D01*
X-28283788Y44026212D01*
X-28159664Y43930968D01*
X-28100506Y43906465D01*
X-28053981Y43866729D01*
X-28039697Y43807235D01*
X-28063111Y43750706D01*
X-28100505Y43723538D01*
X-28159659Y43699035D01*
X-28159662Y43699034D01*
X-28283783Y43603793D01*
X-28283793Y43603783D01*
X-28322600Y43553207D01*
X-28348535Y43519407D01*
X-28348669Y43519233D01*
X-28399093Y43484577D01*
X-28427211Y43480500D01*
X-34035586Y43480500D01*
X-34093777Y43499407D01*
X-34110405Y43514669D01*
X-34168871Y43582142D01*
X-34168873Y43582144D01*
X-34289943Y43659951D01*
X-34289946Y43659953D01*
X-34289947Y43659953D01*
X-34289950Y43659954D01*
X-34428036Y43700500D01*
X-34428039Y43700500D01*
X-34571961Y43700500D01*
X-34571965Y43700500D01*
X-34710051Y43659954D01*
X-34710058Y43659951D01*
X-34831124Y43582146D01*
X-34831129Y43582142D01*
X-34872264Y43534669D01*
X-34924660Y43503073D01*
X-34947083Y43500500D01*
X-41494521Y43500500D01*
X-41552712Y43519407D01*
X-41564525Y43529496D01*
X-42199454Y44164425D01*
X-42227231Y44218942D01*
X-42227442Y44248518D01*
X-42224353Y44270000D01*
X-42227931Y44294883D01*
X-42244835Y44412457D01*
X-42304623Y44543372D01*
X-42304623Y44543373D01*
X-42398872Y44652143D01*
X-42398873Y44652144D01*
X-42398874Y44652145D01*
X-42519943Y44729951D01*
X-42519946Y44729953D01*
X-42519947Y44729953D01*
X-42519950Y44729954D01*
X-42658036Y44770500D01*
X-42658039Y44770500D01*
X-42801961Y44770500D01*
X-42801965Y44770500D01*
X-42940051Y44729954D01*
X-42940058Y44729951D01*
X-43061127Y44652145D01*
X-43155378Y44543372D01*
X-43215166Y44412457D01*
X-43235647Y44270003D01*
X-49499500Y44270003D01*
X-49499500Y54000003D01*
X-27505647Y54000003D01*
X-27505647Y53999998D01*
X-27485166Y53857544D01*
X-27449111Y53778596D01*
X-27425377Y53726627D01*
X-27356655Y53647317D01*
X-27331127Y53617856D01*
X-27210058Y53540050D01*
X-27210053Y53540047D01*
X-27103597Y53508789D01*
X-27071965Y53499501D01*
X-27071964Y53499501D01*
X-27071961Y53499500D01*
X-27071959Y53499500D01*
X-26965479Y53499500D01*
X-26907288Y53480593D01*
X-26895475Y53470504D01*
X-16820460Y43395489D01*
X-16820461Y43395489D01*
X-16764511Y43339540D01*
X-16695993Y43299981D01*
X-16695989Y43299979D01*
X-16619565Y43279501D01*
X-16619563Y43279500D01*
X-16619562Y43279500D01*
X-12528322Y43279500D01*
X-12470131Y43260593D01*
X-12458318Y43250504D01*
X-11467354Y42259540D01*
X-11454839Y42252315D01*
X-11429521Y42231411D01*
X-11425379Y42226631D01*
X-11425377Y42226627D01*
X-11331128Y42117857D01*
X-11331127Y42117856D01*
X-11210058Y42040050D01*
X-11210053Y42040047D01*
X-11103597Y42008789D01*
X-11071965Y41999501D01*
X-11071964Y41999501D01*
X-11071961Y41999500D01*
X-11071959Y41999500D01*
X-10928041Y41999500D01*
X-10928039Y41999500D01*
X-10789947Y42040047D01*
X-10668872Y42117857D01*
X-10574623Y42226627D01*
X-10514835Y42357543D01*
X-10508008Y42405029D01*
X-10494353Y42499998D01*
X-10494353Y42500003D01*
X-10514835Y42642457D01*
X-10540886Y42699500D01*
X-10574623Y42773373D01*
X-10668872Y42882143D01*
X-10668873Y42882144D01*
X-10668874Y42882145D01*
X-10789943Y42959951D01*
X-10789946Y42959953D01*
X-10789947Y42959953D01*
X-10789950Y42959954D01*
X-10928036Y43000500D01*
X-10928039Y43000500D01*
X-11071961Y43000500D01*
X-11071965Y43000500D01*
X-11210055Y42959953D01*
X-11216496Y42957011D01*
X-11217238Y42958636D01*
X-11267729Y42945368D01*
X-11324744Y42967571D01*
X-11332074Y42974202D01*
X-11753361Y43395489D01*
X-12178332Y43820460D01*
X-12185345Y43824509D01*
X-12230663Y43850674D01*
X-12230665Y43850674D01*
X-12246854Y43860021D01*
X-12246857Y43860022D01*
X-12323279Y43880500D01*
X-12323281Y43880500D01*
X-16414521Y43880500D01*
X-16472712Y43899407D01*
X-16484525Y43909496D01*
X-18575032Y46000003D01*
X-15505647Y46000003D01*
X-15505647Y45999998D01*
X-15485166Y45857544D01*
X-15446725Y45773372D01*
X-15425377Y45726627D01*
X-15334797Y45622091D01*
X-15331127Y45617856D01*
X-15225998Y45550294D01*
X-15210053Y45540047D01*
X-15103597Y45508789D01*
X-15071965Y45499501D01*
X-15071964Y45499501D01*
X-15071961Y45499500D01*
X-15071959Y45499500D01*
X-14928041Y45499500D01*
X-14928039Y45499500D01*
X-14789947Y45540047D01*
X-14721890Y45583785D01*
X-14668368Y45599500D01*
X-9947275Y45599500D01*
X-9947273Y45599500D01*
X-9845412Y45626793D01*
X-9845410Y45626795D01*
X-9845408Y45626795D01*
X-9754092Y45679517D01*
X-9754092Y45679518D01*
X-9754087Y45679520D01*
X-5454495Y49979113D01*
X-5412386Y50004097D01*
X-5289947Y50040047D01*
X-5168872Y50117857D01*
X-5074623Y50226627D01*
X-5014835Y50357543D01*
X-4994353Y50500000D01*
X-5001349Y50548656D01*
X-5014835Y50642457D01*
X-5074623Y50773372D01*
X-5074623Y50773373D01*
X-5168872Y50882143D01*
X-5168873Y50882144D01*
X-5168874Y50882145D01*
X-5289943Y50959951D01*
X-5289946Y50959953D01*
X-5289947Y50959953D01*
X-5289950Y50959954D01*
X-5428036Y51000500D01*
X-5428039Y51000500D01*
X-5571961Y51000500D01*
X-5571965Y51000500D01*
X-5710051Y50959954D01*
X-5710058Y50959951D01*
X-5831127Y50882145D01*
X-5925378Y50773372D01*
X-5985166Y50642457D01*
X-5990758Y50603563D01*
X-6017754Y50548656D01*
X-6018746Y50547649D01*
X-10136897Y46429496D01*
X-10191414Y46401719D01*
X-10206901Y46400500D01*
X-14668368Y46400500D01*
X-14721890Y46416216D01*
X-14789947Y46459953D01*
X-14789950Y46459954D01*
X-14928036Y46500500D01*
X-14928039Y46500500D01*
X-15071961Y46500500D01*
X-15071965Y46500500D01*
X-15210051Y46459954D01*
X-15210058Y46459951D01*
X-15331127Y46382145D01*
X-15425378Y46273372D01*
X-15485166Y46142457D01*
X-15505647Y46000003D01*
X-18575032Y46000003D01*
X-21640719Y49065690D01*
X-17071334Y49065690D01*
X-17071334Y49065685D01*
X-17050853Y48923231D01*
X-16991065Y48792316D01*
X-16991064Y48792314D01*
X-16896815Y48683544D01*
X-16896814Y48683543D01*
X-16775745Y48605737D01*
X-16775740Y48605734D01*
X-16694132Y48581772D01*
X-16637652Y48565188D01*
X-16637651Y48565188D01*
X-16637648Y48565187D01*
X-16600804Y48565187D01*
X-16542613Y48546280D01*
X-16506649Y48496780D01*
X-16502812Y48480276D01*
X-16485166Y48357544D01*
X-16425378Y48226629D01*
X-16425377Y48226627D01*
X-16331128Y48117857D01*
X-16331127Y48117856D01*
X-16210058Y48040050D01*
X-16210053Y48040047D01*
X-16103597Y48008789D01*
X-16071965Y47999501D01*
X-16071964Y47999501D01*
X-16071961Y47999500D01*
X-16071959Y47999500D01*
X-15928041Y47999500D01*
X-15928039Y47999500D01*
X-15789947Y48040047D01*
X-15668872Y48117857D01*
X-15574623Y48226627D01*
X-15514835Y48357543D01*
X-15494353Y48500000D01*
X-15497442Y48521483D01*
X-15487010Y48581772D01*
X-15469457Y48605574D01*
X-13759540Y50315489D01*
X-13404525Y50670504D01*
X-13350008Y50698281D01*
X-13334521Y50699500D01*
X-10165479Y50699500D01*
X-10107288Y50680593D01*
X-10095475Y50670504D01*
X-10030547Y50605576D01*
X-10002770Y50551059D01*
X-10002558Y50521485D01*
X-10005648Y50499998D01*
X-9985166Y50357544D01*
X-9925378Y50226629D01*
X-9925377Y50226627D01*
X-9831128Y50117857D01*
X-9831127Y50117856D01*
X-9710058Y50040050D01*
X-9710053Y50040047D01*
X-9603597Y50008789D01*
X-9571965Y49999501D01*
X-9571964Y49999501D01*
X-9571961Y49999500D01*
X-9571959Y49999500D01*
X-9428041Y49999500D01*
X-9428039Y49999500D01*
X-9289947Y50040047D01*
X-9168872Y50117857D01*
X-9074623Y50226627D01*
X-9014835Y50357543D01*
X-8994353Y50500000D01*
X-9001349Y50548656D01*
X-9014835Y50642457D01*
X-9074623Y50773372D01*
X-9074623Y50773373D01*
X-9168872Y50882143D01*
X-9223448Y50917217D01*
X-9262178Y50964582D01*
X-9265671Y51025668D01*
X-9232591Y51077140D01*
X-9175575Y51099339D01*
X-9169923Y51099500D01*
X-8565479Y51099500D01*
X-8507288Y51080593D01*
X-8495475Y51070504D01*
X-8030547Y50605576D01*
X-8002770Y50551059D01*
X-8002559Y50521486D01*
X-8005646Y50500003D01*
X-8005647Y50499998D01*
X-7985166Y50357544D01*
X-7925378Y50226629D01*
X-7925377Y50226627D01*
X-7831128Y50117857D01*
X-7831127Y50117856D01*
X-7710058Y50040050D01*
X-7710053Y50040047D01*
X-7603597Y50008789D01*
X-7571965Y49999501D01*
X-7571964Y49999501D01*
X-7571961Y49999500D01*
X-7571959Y49999500D01*
X-7428041Y49999500D01*
X-7428039Y49999500D01*
X-7289947Y50040047D01*
X-7168872Y50117857D01*
X-7074623Y50226627D01*
X-7014835Y50357543D01*
X-6994353Y50500000D01*
X-7001349Y50548656D01*
X-7014835Y50642457D01*
X-7074623Y50773372D01*
X-7074623Y50773373D01*
X-7168872Y50882143D01*
X-7168873Y50882144D01*
X-7168874Y50882145D01*
X-7289943Y50959951D01*
X-7289946Y50959953D01*
X-7289947Y50959953D01*
X-7289950Y50959954D01*
X-7428036Y51000500D01*
X-7428039Y51000500D01*
X-7534521Y51000500D01*
X-7592712Y51019407D01*
X-7604525Y51029496D01*
X-7674529Y51099500D01*
X-8215489Y51640460D01*
X-8215492Y51640462D01*
X-8284008Y51680020D01*
X-8284012Y51680022D01*
X-8360436Y51700500D01*
X-8360438Y51700500D01*
X-14270936Y51700500D01*
X-14270939Y51700500D01*
X-14347363Y51680022D01*
X-14347367Y51680020D01*
X-14415883Y51640462D01*
X-16461163Y49595183D01*
X-16515680Y49567406D01*
X-16531167Y49566187D01*
X-16637652Y49566187D01*
X-16775738Y49525641D01*
X-16775745Y49525638D01*
X-16896814Y49447832D01*
X-16991065Y49339059D01*
X-17050853Y49208144D01*
X-17071334Y49065690D01*
X-21640719Y49065690D01*
X-26469454Y53894425D01*
X-26497231Y53948942D01*
X-26497442Y53978518D01*
X-26494353Y54000000D01*
X-26502847Y54059075D01*
X-26514835Y54142457D01*
X-26574623Y54273372D01*
X-26574623Y54273373D01*
X-26668872Y54382143D01*
X-26668873Y54382144D01*
X-26668874Y54382145D01*
X-26789943Y54459951D01*
X-26789946Y54459953D01*
X-26789947Y54459953D01*
X-26789950Y54459954D01*
X-26928036Y54500500D01*
X-26928039Y54500500D01*
X-27071961Y54500500D01*
X-27071965Y54500500D01*
X-27210051Y54459954D01*
X-27210058Y54459951D01*
X-27331127Y54382145D01*
X-27425378Y54273372D01*
X-27485166Y54142457D01*
X-27505647Y54000003D01*
X-49499500Y54000003D01*
X-49499500Y55399625D01*
X-21350000Y55399625D01*
X-21350000Y54775001D01*
X-21349999Y54775000D01*
X-20683012Y54775000D01*
X-20715925Y54717993D01*
X-20750000Y54590826D01*
X-20750000Y54459174D01*
X-20715925Y54332007D01*
X-20683012Y54275000D01*
X-21349999Y54275000D01*
X-21350000Y54274999D01*
X-21350000Y53650376D01*
X-21335494Y53577454D01*
X-21335493Y53577452D01*
X-21280242Y53494763D01*
X-21280238Y53494759D01*
X-21197549Y53439508D01*
X-21197547Y53439507D01*
X-21124625Y53425001D01*
X-21124623Y53425000D01*
X-20500001Y53425000D01*
X-20500000Y53425001D01*
X-20500000Y54091988D01*
X-20442993Y54059075D01*
X-20315826Y54025000D01*
X-20184174Y54025000D01*
X-20057007Y54059075D01*
X-20000000Y54091988D01*
X-20000000Y53425001D01*
X-19999999Y53425000D01*
X-19375377Y53425000D01*
X-19375376Y53425001D01*
X-19302454Y53439507D01*
X-19302452Y53439508D01*
X-19219763Y53494759D01*
X-19219759Y53494763D01*
X-19164508Y53577452D01*
X-19164507Y53577454D01*
X-19150001Y53650376D01*
X-19150000Y53650378D01*
X-19150000Y54274999D01*
X-19150001Y54275000D01*
X-19816988Y54275000D01*
X-19784075Y54332007D01*
X-19750000Y54459174D01*
X-19750000Y54525004D01*
X-18765583Y54525004D01*
X-18765583Y54524997D01*
X-18745302Y54319071D01*
X-18745301Y54319066D01*
X-18685232Y54121046D01*
X-18587684Y53938548D01*
X-18521205Y53857543D01*
X-18456410Y53778590D01*
X-18456405Y53778586D01*
X-18296453Y53647317D01*
X-18296452Y53647317D01*
X-18296450Y53647315D01*
X-18113954Y53549768D01*
X-17976003Y53507922D01*
X-17915935Y53489700D01*
X-17915930Y53489699D01*
X-17710003Y53469417D01*
X-17710000Y53469417D01*
X-17709997Y53469417D01*
X-17504071Y53489699D01*
X-17504066Y53489700D01*
X-17487389Y53494759D01*
X-17306046Y53549768D01*
X-17123550Y53647315D01*
X-16963590Y53778590D01*
X-16832315Y53938550D01*
X-16734768Y54121046D01*
X-16674700Y54319066D01*
X-16674699Y54319071D01*
X-16654417Y54524997D01*
X-16654417Y54525004D01*
X-16674699Y54730930D01*
X-16674700Y54730935D01*
X-16733599Y54925099D01*
X-16734768Y54928954D01*
X-16832315Y55111450D01*
X-16963590Y55271410D01*
X-16963596Y55271415D01*
X-17123548Y55402684D01*
X-17306046Y55500232D01*
X-17504066Y55560301D01*
X-17504071Y55560302D01*
X-17709997Y55580583D01*
X-17710003Y55580583D01*
X-17915930Y55560302D01*
X-17915935Y55560301D01*
X-18113955Y55500232D01*
X-18296453Y55402684D01*
X-18456405Y55271415D01*
X-18456415Y55271405D01*
X-18587684Y55111453D01*
X-18685232Y54928955D01*
X-18745301Y54730935D01*
X-18745302Y54730930D01*
X-18765583Y54525004D01*
X-19750000Y54525004D01*
X-19750000Y54590826D01*
X-19784075Y54717993D01*
X-19816988Y54775000D01*
X-19150001Y54775000D01*
X-19150000Y54775001D01*
X-19150000Y55399623D01*
X-19150001Y55399625D01*
X-19164507Y55472547D01*
X-19164508Y55472549D01*
X-19219759Y55555238D01*
X-19219763Y55555242D01*
X-19302452Y55610493D01*
X-19302454Y55610494D01*
X-19375376Y55625000D01*
X-19999999Y55625000D01*
X-20000000Y55624999D01*
X-20000000Y54958012D01*
X-20057007Y54990925D01*
X-20184174Y55025000D01*
X-20315826Y55025000D01*
X-20442993Y54990925D01*
X-20500000Y54958012D01*
X-20500000Y55624999D01*
X-20500001Y55625000D01*
X-21124625Y55625000D01*
X-21197547Y55610494D01*
X-21197549Y55610493D01*
X-21280238Y55555242D01*
X-21280242Y55555238D01*
X-21335493Y55472549D01*
X-21335494Y55472547D01*
X-21350000Y55399625D01*
X-49499500Y55399625D01*
X-49499500Y74400500D01*
X-49480593Y74458691D01*
X-49431093Y74494655D01*
X-49400500Y74499500D01*
X-39934110Y74499500D01*
X-39934108Y74499500D01*
X-39806814Y74533608D01*
X-39806812Y74533610D01*
X-39806810Y74533610D01*
X-39692691Y74599497D01*
X-39692691Y74599498D01*
X-39692686Y74599500D01*
X-39599500Y74692686D01*
X-39533608Y74806814D01*
X-39499500Y74934108D01*
X-39499500Y79400500D01*
X-39480593Y79458691D01*
X-39431093Y79494655D01*
X-39400500Y79499500D01*
X-28099500Y79499500D01*
X-28041309Y79480593D01*
G37*
%TD.AperFunction*%
%TD*%
M02*
