M48
; DRILL file {KiCad 8.0.7} date 2025-01-18T18:24:10+0100
; FORMAT={-:-/ absolute / inch / decimal}
; #@! TF.CreationDate,2025-01-18T18:24:10+01:00
; #@! TF.GenerationSoftware,Kicad,Pcbnew,8.0.7
; #@! TF.FileFunction,Plated,1,2,PTH
FMAT,2
INCH
; #@! TA.AperFunction,Plated,PTH,ViaDrill
T1C0.0118
; #@! TA.AperFunction,Plated,PTH,ComponentDrill
T2C0.0394
%
G90
G05
T1
X-1.6823Y1.7429
X-1.6142Y1.3583
X-1.4567Y2.4409
X-1.3752Y1.8477
X-1.3583Y1.7913
X-1.3583Y1.7008
X-1.3386Y1.8307
X-1.1614Y1.6142
X-1.063Y2.126
X-0.9843Y1.6142
X-0.8465Y1.6732
X-0.8465Y1.6142
X-0.7835Y1.5354
X-0.689Y1.0039
X-0.689Y0.7087
X-0.689Y0.4331
X-0.6644Y1.5857
X-0.6522Y1.9317
X-0.6496Y1.6535
X-0.6496Y1.5551
X-0.6299Y2.8346
X-0.6299Y1.9094
X-0.6102Y1.6535
X-0.6102Y1.5551
X-0.5906Y1.811
X-0.5512Y2.6457
X-0.4331Y1.6732
X-0.374Y1.9882
X-0.374Y1.752
X-0.374Y1.6732
X-0.315Y1.063
X-0.2953Y1.9882
X-0.2756Y1.752
X-0.2756Y1.6732
X-0.2165Y1.9882
T2
X-0.9843Y0.7874
X-0.9843Y0.6874
X-0.9843Y0.5874
X-0.9843Y0.4874
X-0.7972Y2.1467
X-0.6972Y2.1467
X-0.2843Y2.9165
X-0.1843Y2.9165
M30
